<svg width="24" height="24" viewBox="0 0 24 24" fill="none" xmlns="http://www.w3.org/2000/svg">
<path fill-rule="evenodd" clip-rule="evenodd" d="M11.632 2.06869H6.11473C5.04185 2.06869 4.01258 2.49498 3.25379 3.25373C2.49499 4.01253 2.06874 5.04174 2.06874 6.11466V11.6319H3.56018C3.74343 9.97786 5.14771 8.68937 6.85035 8.68937C8.55298 8.68937 9.95723 9.97786 10.1405 11.6319H11.632V9.42501C11.632 9.22205 11.7968 9.05719 11.9998 9.05719C13.4206 9.05719 14.5745 7.90334 14.5745 6.48249C14.5745 5.06162 13.4206 3.90778 11.9998 3.90778C11.7968 3.90778 11.632 3.74291 11.632 3.53997L11.632 2.06869ZM21.9315 12.3675H20.44C20.2568 14.0215 18.8525 15.31 17.1499 15.31C15.4472 15.31 14.043 14.0215 13.8597 12.3675H12.3683V14.5744C12.3683 14.7774 12.2034 14.9422 12.0004 14.9422C10.5796 14.9422 9.42572 16.0961 9.42572 17.5169C9.42572 18.9378 10.5796 20.0916 12.0004 20.0916C12.2034 20.0916 12.3683 20.2565 12.3683 20.4595V21.9307H17.8855C18.9584 21.9307 19.9876 21.5044 20.7464 20.7457C21.5052 19.9869 21.9315 18.9577 21.9315 17.8848L21.9315 12.3675ZM1.33337 6.11461V17.8847C1.33337 19.153 1.83729 20.369 2.73401 21.2657C3.63072 22.1624 4.84683 22.6663 6.11497 22.6663H17.8851C19.1534 22.6663 20.3693 22.1624 21.2661 21.2657C22.1628 20.369 22.6667 19.1529 22.6667 17.8847V6.11461C22.6667 4.8463 22.1628 3.63035 21.2661 2.73365C20.3693 1.83693 19.1532 1.33301 17.8851 1.33301H6.11497C4.84667 1.33301 3.63072 1.83693 2.73401 2.73365C1.83729 3.63037 1.33337 4.84647 1.33337 6.11461Z" fill="white"/>
</svg>
