<svg width="24" height="24" viewBox="0 0 24 24" fill="none" xmlns="http://www.w3.org/2000/svg">
<path fill-rule="evenodd" clip-rule="evenodd" d="M12.0007 16.7918C9.35418 16.7918 7.2088 14.6465 7.2088 12C7.2088 9.35352 9.35418 7.20813 12.0007 7.20813C14.6471 7.20813 16.7925 9.35352 16.7925 12C16.7895 14.6452 14.6459 16.7889 12.0007 16.7918ZM22.2621 10.1209C22.0014 9.84875 21.6453 9.68846 21.2687 9.67375L19.7732 9.61209C19.6224 9.12216 19.4251 8.64777 19.184 8.19537L20.1991 7.09241C20.7307 6.51744 20.7123 5.62489 20.1574 5.07233L18.9295 3.84353C18.3769 3.28861 17.4844 3.2702 16.9094 3.80186L15.8031 4.8194C15.3512 4.5807 14.8776 4.38538 14.3889 4.23603L14.3268 2.73348C14.2957 1.95073 13.6518 1.33238 12.8684 1.33301H11.1325C10.3498 1.33235 9.70608 1.94973 9.67411 2.73181L9.61203 4.23437C9.12326 4.38372 8.64974 4.57904 8.1978 4.81773L7.09151 3.80143C6.51604 3.27108 5.62455 3.28946 5.07143 3.8431L3.84388 5.07106C3.28896 5.62362 3.27055 6.51616 3.80222 7.09114L4.81684 8.1941C4.57578 8.6465 4.37848 9.12089 4.22766 9.61082L2.73218 9.67249C1.9496 9.70449 1.33204 10.3489 1.33338 11.1321V12.868C1.33272 13.6508 1.9501 14.2944 2.73218 14.3264L4.22099 14.3881C4.37138 14.881 4.56854 15.3585 4.80976 15.814L3.8018 16.909C3.27144 17.4845 3.28983 18.376 3.84347 18.9291L5.07102 20.1566C5.62412 20.7103 6.51562 20.7287 7.0911 20.1983L8.1828 19.1933C8.63916 19.4364 9.11794 19.635 9.61244 19.7862L9.6737 21.2679C9.70568 22.05 10.3493 22.6674 11.1321 22.6667H12.868C13.6507 22.6674 14.2944 22.05 14.3264 21.2679L14.3876 19.7862C14.8821 19.635 15.3609 19.4364 15.8173 19.1932L16.909 20.1983C17.4839 20.73 18.3765 20.7115 18.929 20.1566L20.1566 18.9291C20.7102 18.376 20.7286 17.4845 20.1983 16.909L19.1903 15.814C19.4315 15.3585 19.6287 14.881 19.7791 14.3881L21.2679 14.3264C22.05 14.2944 22.6673 13.6507 22.6667 12.868V11.1321C22.6677 10.7554 22.5227 10.3929 22.2621 10.1208V10.1209Z" fill="white"/>
</svg>
