<svg width="24" height="24" viewBox="0 0 24 24" fill="none" xmlns="http://www.w3.org/2000/svg">
<path fill-rule="evenodd" clip-rule="evenodd" d="M12.0007 16.7928C9.35418 16.7928 7.2088 14.6474 7.2088 12.001C7.2088 9.3545 9.35418 7.20911 12.0007 7.20911C14.6471 7.20911 16.7925 9.3545 16.7925 12.001C16.7895 14.6462 14.6459 16.7898 12.0007 16.7928ZM22.2621 10.1218C22.0014 9.84973 21.6453 9.68944 21.2687 9.67473L19.7732 9.61306C19.6224 9.12313 19.4251 8.64875 19.184 8.19634L20.1991 7.09339C20.7307 6.51841 20.7123 5.62586 20.1574 5.07331L18.9295 3.8445C18.3769 3.28958 17.4844 3.27117 16.9094 3.80284L15.8031 4.82037C15.3512 4.58168 14.8776 4.38636 14.3889 4.23701L14.3268 2.73445C14.2957 1.9517 13.6518 1.33336 12.8684 1.33398H11.1325C10.3498 1.33333 9.70608 1.9507 9.67411 2.73278L9.61203 4.23535C9.12326 4.38469 8.64974 4.58001 8.1978 4.8187L7.09151 3.80241C6.51604 3.27205 5.62455 3.29044 5.07143 3.84408L3.84388 5.07204C3.28896 5.6246 3.27055 6.51713 3.80222 7.09212L4.81684 8.19508C4.57578 8.64748 4.37848 9.12187 4.22766 9.6118L2.73218 9.67346C1.9496 9.70547 1.33204 10.3499 1.33338 11.1331V12.869C1.33272 13.6517 1.9501 14.2954 2.73218 14.3274L4.22099 14.3891C4.37138 14.882 4.56854 15.3595 4.80976 15.8149L3.8018 16.91C3.27144 17.4855 3.28983 18.3769 3.84347 18.9301L5.07102 20.1576C5.62412 20.7113 6.51562 20.7296 7.0911 20.1993L8.1828 19.1942C8.63916 19.4374 9.11794 19.636 9.61244 19.7872L9.6737 21.2689C9.70568 22.051 10.3493 22.6683 11.1321 22.6677H12.868C13.6507 22.6683 14.2944 22.051 14.3264 21.2689L14.3876 19.7872C14.8821 19.636 15.3609 19.4374 15.8173 19.1942L16.909 20.1993C17.4839 20.7309 18.3765 20.7125 18.929 20.1576L20.1566 18.9301C20.7102 18.3769 20.7286 17.4855 20.1983 16.91L19.1903 15.8149C19.4315 15.3595 19.6287 14.882 19.7791 14.389L21.2679 14.3274C22.05 14.2954 22.6673 13.6517 22.6667 12.869V11.1331C22.6677 10.7563 22.5227 10.3939 22.2621 10.1218V10.1218Z" fill="#DBFF71"/>
</svg>
