<svg width="24" height="24" viewBox="0 0 24 24" fill="none" xmlns="http://www.w3.org/2000/svg">
<path fill-rule="evenodd" clip-rule="evenodd" d="M17.067 12.8001C17.5088 12.8001 17.867 13.1581 17.867 13.5999C17.867 14.0419 17.5088 14.4001 17.067 14.4001C16.6252 14.4001 16.267 14.0419 16.267 13.5999C16.267 13.1581 16.6252 12.8001 17.067 12.8001ZM14.3995 11.2C14.2426 11.2 14.1329 11.3097 14.1329 11.4669V15.7335C14.1329 15.8903 14.2426 16.0002 14.3995 16.0002H22.6662V11.2L14.3995 11.2ZM1.33337 5.67527V19.4669C1.33337 20.2056 1.92804 20.8003 2.66671 20.8003H21.3334C22.072 20.8003 22.6667 20.2056 22.6667 19.4669V17.067H14.4C13.6706 17.067 13.0667 16.463 13.0667 15.7336V11.467C13.0667 10.7374 13.6706 10.1338 14.4 10.1338H22.6667V7.73362C22.6667 6.99493 22.072 6.40029 21.3334 6.40029L2.68337 6.38369C2.14903 6.32005 1.67273 6.0611 1.33337 5.67535V5.67527ZM2.93389 3.2002C2.33373 3.2002 1.86723 3.6665 1.86723 4.26669C1.86723 4.86696 2.33373 5.3335 2.93389 5.3335H19.4672V3.2002H2.93389Z" fill="white"/>
</svg>
