<svg width="1414" height="2098" viewBox="0 0 1414 2098" fill="none" xmlns="http://www.w3.org/2000/svg">
<g filter="url(#filter0_d_300_22742)">
<g filter="url(#filter1_i_300_22742)">
<circle cx="790.5" cy="1184.5" r="200.5" fill="#D8F57F"/>
</g>
<g filter="url(#filter2_i_300_22742)">
<circle cx="790.5" cy="1184.5" r="145.158" stroke="#D8F57F" stroke-width="11"/>
</g>
<g filter="url(#filter3_i_300_22742)">
<circle cx="790.5" cy="1184.5" r="137.065" fill="#D8F57F"/>
</g>
</g>
<g filter="url(#filter4_d_300_22742)">
<g filter="url(#filter5_i_300_22742)">
<circle cx="465.5" cy="1036.5" r="200.5" fill="#D8F57F"/>
</g>
<g filter="url(#filter6_i_300_22742)">
<circle cx="465.5" cy="1036.5" r="145.158" stroke="#D8F57F" stroke-width="11"/>
</g>
<g filter="url(#filter7_i_300_22742)">
<circle cx="465.501" cy="1036.5" r="137.065" fill="#D8F57F"/>
</g>
</g>
<path d="M1029.25 447.107L1029.4 447.506L1030.44 446.634C1030.44 446.634 1030.58 446.581 1030.84 446.476L1060.51 431.537L1054.07 428.077C1068.35 410.433 1077.96 384.471 1079.47 352.009C1084.63 256.222 1023.44 136.27 942.952 84.4362C914.163 65.3143 886.833 58.086 863.288 60.4487L866.991 53.4457L837.723 68.2266C809.497 82.1349 790.995 114.836 788.296 163.009C783.539 258.639 844.724 378.591 924.815 430.582C964.582 456.456 1001.42 460.857 1029.25 447.107Z" fill="#B1CF53"/>
<path d="M954.486 415.639C1035.13 467.872 1104.39 432.697 1109.14 337.067C1114.3 241.279 1053.11 121.327 973.022 69.336C892.374 17.103 823.122 52.2788 818.366 147.909C813.21 243.696 874.394 363.648 954.486 415.639Z" fill="#D8F57F"/>
<g filter="url(#filter8_i_300_22742)">
<path d="M1068.38 313.442L1068.38 313.431L1068.38 313.42C1070.27 278.882 1060.17 239.615 1042.09 204.107C1024.01 168.599 998.224 137.385 969.32 118.663C940.168 99.825 914.315 97.5244 895.756 106.948C877.208 116.366 863.934 138.518 862.19 173.028L862.189 173.04L862.189 173.051C860.302 207.589 870.406 246.855 888.486 282.364C906.567 317.872 932.351 349.087 961.257 367.81C990.407 386.646 1016.26 388.946 1034.82 379.522C1053.37 370.104 1066.64 347.952 1068.38 313.442Z" stroke="#D8F57F" stroke-width="11"/>
</g>
<g filter="url(#filter9_i_300_22742)">
<path d="M959.77 360.189C1014.54 395.496 1061.66 371.587 1065 306.785C1068.61 241.875 1027.14 160.662 972.74 125.518C917.966 90.2111 870.847 114.119 867.512 178.922C863.905 243.832 905.375 325.045 959.77 360.189Z" fill="#D8F57F"/>
</g>
<path d="M375.485 623.107L375.328 623.506L374.286 622.634C374.286 622.634 374.153 622.581 373.887 622.476L344.22 607.537L350.665 604.077C336.382 586.433 326.767 560.471 325.259 528.009C320.103 432.222 381.287 312.27 461.778 260.436C490.568 241.314 517.897 234.086 541.442 236.449L537.74 229.446L567.007 244.227C595.234 258.135 613.736 290.836 616.435 339.009C621.191 434.639 560.006 554.591 479.915 606.582C440.148 632.456 403.312 636.857 375.485 623.107Z" fill="#B1CF53"/>
<path d="M450.245 591.639C369.596 643.872 300.345 608.697 295.588 513.067C290.432 417.279 351.617 297.327 431.708 245.336C512.357 193.103 581.608 228.279 586.365 323.909C591.521 419.696 530.336 539.648 450.245 591.639Z" fill="#D8F57F"/>
<g filter="url(#filter10_i_300_22742)">
<path d="M336.347 489.442L336.346 489.431L336.346 489.42C334.458 454.882 344.562 415.615 362.643 380.107C380.723 344.599 406.507 313.385 435.411 294.663C464.562 275.825 490.415 273.524 508.974 282.948C527.523 292.366 540.796 314.518 542.54 349.028L542.541 349.04L542.542 349.051C544.429 383.589 534.325 422.855 516.244 458.364C498.164 493.872 472.379 525.087 443.474 543.81C414.324 562.646 388.471 564.946 369.913 555.522C351.364 546.104 338.091 523.952 336.347 489.442Z" stroke="#D8F57F" stroke-width="11"/>
</g>
<g filter="url(#filter11_i_300_22742)">
<path d="M444.96 536.189C390.186 571.496 343.067 547.587 339.732 482.785C336.125 417.875 377.595 336.662 431.99 301.518C486.765 266.211 533.883 290.119 537.218 354.922C540.825 419.832 499.356 501.045 444.96 536.189Z" fill="#D8F57F"/>
</g>
<g clip-path="url(#clip0_300_22742)">
<path d="M845.132 907.21L846.533 906.704C846.533 906.704 846.615 906.593 846.779 906.371L876.191 893.668L870.048 890.16C885.052 874.011 895.615 849.96 898.849 818.444C909.561 726.696 857.749 608.31 783.605 553.573C757.006 533.937 731.15 525.123 708.262 526.205L712.261 519.397L683.427 532.014C655.661 543.878 635.723 574.364 630.533 620.361C620.066 711.776 672.211 830.408 746.355 885.144C782.596 911.899 817.857 918.41 845.132 907.21V907.21Z" fill="#9FFFF8"/>
<path d="M845.132 907.21L846.533 906.704C846.533 906.704 846.615 906.593 846.779 906.371L876.191 893.668L870.048 890.16C885.052 874.011 895.615 849.96 898.849 818.444C909.561 726.696 857.749 608.31 783.605 553.573C757.006 533.937 731.15 525.123 708.262 526.205L712.261 519.397L683.427 532.014C655.661 543.878 635.723 574.364 630.533 620.361C620.066 711.776 672.211 830.408 746.355 885.144C782.596 911.899 817.857 918.41 845.132 907.21V907.21Z" fill="#B1CF53"/>
<path d="M775.767 872.44C849.911 927.177 918.126 897.4 928.593 805.985C938.727 714.325 887.16 595.606 813.016 540.869C738.872 486.133 670.08 515.996 659.945 607.657C649.478 699.072 701.623 817.704 775.767 872.44Z" fill="#42E8E0"/>
<path d="M775.767 872.44C849.911 927.177 918.126 897.4 928.593 805.985C938.727 714.325 887.16 595.606 813.016 540.869C738.872 486.133 670.08 515.996 659.945 607.657C649.478 699.072 701.623 817.704 775.767 872.44Z" fill="#D8F57F"/>
<g filter="url(#filter12_i_300_22742)">
<path d="M700.704 630.227L700.703 630.238L700.702 630.249C696.741 664.934 704.546 705.187 720.644 742.175C736.742 779.163 760.893 812.336 789.041 833.116C817.217 853.917 843.174 857.819 862.51 849.403C881.838 840.989 896.616 819.366 900.454 784.558L900.456 784.548L900.457 784.537C904.418 749.851 896.613 709.598 880.515 672.61C864.417 635.622 840.266 602.449 812.118 581.669C783.942 560.868 757.985 556.966 738.649 565.383C719.32 573.796 704.542 595.419 700.704 630.227Z" stroke="#D8F57F" stroke-width="11"/>
</g>
<g filter="url(#filter13_i_300_22742)">
<path d="M787.663 822.778C840.318 861.65 889.114 840.522 896.238 775.527C903.598 710.705 866.917 626.475 814.262 587.602C761.607 548.73 712.812 569.858 705.687 634.853C698.327 699.675 735.008 783.905 787.663 822.778Z" fill="#D8F57F"/>
</g>
</g>
<g filter="url(#filter14_iii_300_22742)">
<path d="M1237.29 2097.85H54.687C25.6346 2097.85 0 2073.93 0 2043.17V1188.69C0 1159.63 25.6346 1134 54.687 1134H1237.29C1268.05 1134 1291.97 1159.63 1291.97 1188.69V2043.17C1291.97 2073.93 1268.05 2097.85 1237.29 2097.85Z" fill="url(#paint0_linear_300_22742)"/>
</g>
<g filter="url(#filter15_f_300_22742)">
<rect x="111" y="1229.71" width="14" height="771" rx="7" fill="url(#paint1_radial_300_22742)"/>
</g>
<g filter="url(#filter16_f_300_22742)">
<rect x="161" y="1184.71" width="65" height="849" rx="10" fill="url(#paint2_radial_300_22742)"/>
</g>
<g filter="url(#filter17_di_300_22742)">
<path d="M1380.53 1719.03V1494.34C1380.53 1451.91 1346.14 1417.52 1303.71 1417.52H1009.24C962.295 1417.52 919.619 1437.13 887.611 1473.9C857.737 1508.22 838.531 1557.24 838.531 1611.17C838.531 1719.03 915.35 1807.27 1009.24 1807.27H1303.71C1346.39 1807.27 1380.53 1768.05 1380.53 1719.03Z" fill="#D9D9D9"/>
<path d="M1380.53 1719.03V1494.34C1380.53 1451.91 1346.14 1417.52 1303.71 1417.52H1009.24C962.295 1417.52 919.619 1437.13 887.611 1473.9C857.737 1508.22 838.531 1557.24 838.531 1611.17C838.531 1719.03 915.35 1807.27 1009.24 1807.27H1303.71C1346.39 1807.27 1380.53 1768.05 1380.53 1719.03Z" fill="url(#paint3_linear_300_22742)"/>
</g>
<g filter="url(#filter18_i_300_22742)">
<path d="M1130.53 1615.43C1130.53 1671.37 1085.25 1716.66 1029.31 1716.66C976.031 1716.66 930.746 1671.37 930.746 1615.43C930.746 1562.16 976.031 1516.87 1029.31 1516.87C1085.25 1516.87 1130.53 1562.16 1130.53 1615.43Z" fill="white"/>
<path d="M1130.53 1615.43C1130.53 1671.37 1085.25 1716.66 1029.31 1716.66C976.031 1716.66 930.746 1671.37 930.746 1615.43C930.746 1562.16 976.031 1516.87 1029.31 1516.87C1085.25 1516.87 1130.53 1562.16 1130.53 1615.43Z" fill="url(#paint4_linear_300_22742)"/>
</g>
<g filter="url(#filter19_f_300_22742)">
<path d="M1051.05 1541.22C1051.88 1538.01 1049.96 1534.71 1046.7 1534.11C1034.1 1531.77 1021.1 1532.37 1008.71 1535.88C994.399 1539.94 981.43 1547.75 971.148 1558.5C960.866 1569.26 953.643 1582.56 950.228 1597.04C947.272 1609.57 947.26 1622.59 950.156 1635.07C950.905 1638.3 954.287 1640.07 957.453 1639.09L957.778 1638.99C960.944 1638.02 962.691 1634.66 961.983 1631.42C959.712 1621.04 959.788 1610.26 962.239 1599.87C965.149 1587.53 971.305 1576.19 980.067 1567.03C988.83 1557.87 999.882 1551.21 1012.08 1547.75C1022.35 1544.84 1033.12 1544.28 1043.58 1546.08C1046.85 1546.65 1050.12 1544.75 1050.96 1541.55L1051.05 1541.22Z" fill="url(#paint5_radial_300_22742)"/>
</g>
<g filter="url(#filter20_f_300_22742)">
<path d="M1007.98 1704.01C1007.12 1707.21 1009.02 1710.52 1012.26 1711.17C1027.16 1714.19 1042.6 1713.67 1057.31 1709.6C1073.95 1705.01 1089.06 1696.05 1101.07 1683.65C1113.09 1671.25 1121.57 1655.87 1125.65 1639.1C1129.26 1624.27 1129.3 1608.83 1125.82 1594.03C1125.06 1590.8 1121.69 1589.01 1118.52 1589.96L1116.3 1590.63C1113.13 1591.59 1111.35 1594.94 1112.08 1598.17C1114.84 1610.52 1114.74 1623.37 1111.74 1635.71C1108.26 1650.01 1101.03 1663.12 1090.79 1673.68C1080.55 1684.25 1067.67 1691.88 1053.49 1695.8C1041.24 1699.19 1028.41 1699.69 1015.98 1697.31C1012.72 1696.69 1009.43 1698.56 1008.58 1701.77L1007.98 1704.01Z" fill="url(#paint6_radial_300_22742)" fill-opacity="0.28"/>
</g>
<defs>
<filter id="filter0_d_300_22742" x="566" y="968" width="465" height="465" filterUnits="userSpaceOnUse" color-interpolation-filters="sRGB">
<feFlood flood-opacity="0" result="BackgroundImageFix"/>
<feColorMatrix in="SourceAlpha" type="matrix" values="0 0 0 0 0 0 0 0 0 0 0 0 0 0 0 0 0 0 127 0" result="hardAlpha"/>
<feOffset dx="8" dy="16"/>
<feGaussianBlur stdDeviation="16"/>
<feComposite in2="hardAlpha" operator="out"/>
<feColorMatrix type="matrix" values="0 0 0 0 0 0 0 0 0 0 0 0 0 0 0 0 0 0 0.25 0"/>
<feBlend mode="normal" in2="BackgroundImageFix" result="effect1_dropShadow_300_22742"/>
<feBlend mode="normal" in="SourceGraphic" in2="effect1_dropShadow_300_22742" result="shape"/>
</filter>
<filter id="filter1_i_300_22742" x="590" y="984" width="407" height="404" filterUnits="userSpaceOnUse" color-interpolation-filters="sRGB">
<feFlood flood-opacity="0" result="BackgroundImageFix"/>
<feBlend mode="normal" in="SourceGraphic" in2="BackgroundImageFix" result="shape"/>
<feColorMatrix in="SourceAlpha" type="matrix" values="0 0 0 0 0 0 0 0 0 0 0 0 0 0 0 0 0 0 127 0" result="hardAlpha"/>
<feOffset dx="6" dy="3"/>
<feGaussianBlur stdDeviation="9"/>
<feComposite in2="hardAlpha" operator="arithmetic" k2="-1" k3="1"/>
<feColorMatrix type="matrix" values="0 0 0 0 1 0 0 0 0 1 0 0 0 0 1 0 0 0 0.49 0"/>
<feBlend mode="normal" in2="shape" result="effect1_innerShadow_300_22742"/>
</filter>
<filter id="filter2_i_300_22742" x="639.842" y="1033.84" width="301.316" height="305.316" filterUnits="userSpaceOnUse" color-interpolation-filters="sRGB">
<feFlood flood-opacity="0" result="BackgroundImageFix"/>
<feBlend mode="normal" in="SourceGraphic" in2="BackgroundImageFix" result="shape"/>
<feColorMatrix in="SourceAlpha" type="matrix" values="0 0 0 0 0 0 0 0 0 0 0 0 0 0 0 0 0 0 127 0" result="hardAlpha"/>
<feOffset dy="4"/>
<feGaussianBlur stdDeviation="4"/>
<feComposite in2="hardAlpha" operator="arithmetic" k2="-1" k3="1"/>
<feColorMatrix type="matrix" values="0 0 0 0 0 0 0 0 0 0 0 0 0 0 0 0 0 0 0.22 0"/>
<feBlend mode="normal" in2="shape" result="effect1_innerShadow_300_22742"/>
</filter>
<filter id="filter3_i_300_22742" x="653.436" y="1047.43" width="280.131" height="277.13" filterUnits="userSpaceOnUse" color-interpolation-filters="sRGB">
<feFlood flood-opacity="0" result="BackgroundImageFix"/>
<feBlend mode="normal" in="SourceGraphic" in2="BackgroundImageFix" result="shape"/>
<feColorMatrix in="SourceAlpha" type="matrix" values="0 0 0 0 0 0 0 0 0 0 0 0 0 0 0 0 0 0 127 0" result="hardAlpha"/>
<feOffset dx="6" dy="3"/>
<feGaussianBlur stdDeviation="9"/>
<feComposite in2="hardAlpha" operator="arithmetic" k2="-1" k3="1"/>
<feColorMatrix type="matrix" values="0 0 0 0 1 0 0 0 0 1 0 0 0 0 1 0 0 0 0.49 0"/>
<feBlend mode="normal" in2="shape" result="effect1_innerShadow_300_22742"/>
</filter>
<filter id="filter4_d_300_22742" x="241" y="820" width="465" height="465" filterUnits="userSpaceOnUse" color-interpolation-filters="sRGB">
<feFlood flood-opacity="0" result="BackgroundImageFix"/>
<feColorMatrix in="SourceAlpha" type="matrix" values="0 0 0 0 0 0 0 0 0 0 0 0 0 0 0 0 0 0 127 0" result="hardAlpha"/>
<feOffset dx="8" dy="16"/>
<feGaussianBlur stdDeviation="16"/>
<feComposite in2="hardAlpha" operator="out"/>
<feColorMatrix type="matrix" values="0 0 0 0 0 0 0 0 0 0 0 0 0 0 0 0 0 0 0.25 0"/>
<feBlend mode="normal" in2="BackgroundImageFix" result="effect1_dropShadow_300_22742"/>
<feBlend mode="normal" in="SourceGraphic" in2="effect1_dropShadow_300_22742" result="shape"/>
</filter>
<filter id="filter5_i_300_22742" x="265" y="836" width="407" height="404" filterUnits="userSpaceOnUse" color-interpolation-filters="sRGB">
<feFlood flood-opacity="0" result="BackgroundImageFix"/>
<feBlend mode="normal" in="SourceGraphic" in2="BackgroundImageFix" result="shape"/>
<feColorMatrix in="SourceAlpha" type="matrix" values="0 0 0 0 0 0 0 0 0 0 0 0 0 0 0 0 0 0 127 0" result="hardAlpha"/>
<feOffset dx="6" dy="3"/>
<feGaussianBlur stdDeviation="9"/>
<feComposite in2="hardAlpha" operator="arithmetic" k2="-1" k3="1"/>
<feColorMatrix type="matrix" values="0 0 0 0 1 0 0 0 0 1 0 0 0 0 1 0 0 0 0.49 0"/>
<feBlend mode="normal" in2="shape" result="effect1_innerShadow_300_22742"/>
</filter>
<filter id="filter6_i_300_22742" x="314.842" y="885.842" width="301.316" height="305.316" filterUnits="userSpaceOnUse" color-interpolation-filters="sRGB">
<feFlood flood-opacity="0" result="BackgroundImageFix"/>
<feBlend mode="normal" in="SourceGraphic" in2="BackgroundImageFix" result="shape"/>
<feColorMatrix in="SourceAlpha" type="matrix" values="0 0 0 0 0 0 0 0 0 0 0 0 0 0 0 0 0 0 127 0" result="hardAlpha"/>
<feOffset dy="4"/>
<feGaussianBlur stdDeviation="4"/>
<feComposite in2="hardAlpha" operator="arithmetic" k2="-1" k3="1"/>
<feColorMatrix type="matrix" values="0 0 0 0 0 0 0 0 0 0 0 0 0 0 0 0 0 0 0.22 0"/>
<feBlend mode="normal" in2="shape" result="effect1_innerShadow_300_22742"/>
</filter>
<filter id="filter7_i_300_22742" x="328.436" y="899.435" width="280.131" height="277.13" filterUnits="userSpaceOnUse" color-interpolation-filters="sRGB">
<feFlood flood-opacity="0" result="BackgroundImageFix"/>
<feBlend mode="normal" in="SourceGraphic" in2="BackgroundImageFix" result="shape"/>
<feColorMatrix in="SourceAlpha" type="matrix" values="0 0 0 0 0 0 0 0 0 0 0 0 0 0 0 0 0 0 127 0" result="hardAlpha"/>
<feOffset dx="6" dy="3"/>
<feGaussianBlur stdDeviation="9"/>
<feComposite in2="hardAlpha" operator="arithmetic" k2="-1" k3="1"/>
<feColorMatrix type="matrix" values="0 0 0 0 1 0 0 0 0 1 0 0 0 0 1 0 0 0 0.49 0"/>
<feBlend mode="normal" in2="shape" result="effect1_innerShadow_300_22742"/>
</filter>
<filter id="filter8_i_300_22742" x="856.465" y="96.04" width="217.645" height="298.39" filterUnits="userSpaceOnUse" color-interpolation-filters="sRGB">
<feFlood flood-opacity="0" result="BackgroundImageFix"/>
<feBlend mode="normal" in="SourceGraphic" in2="BackgroundImageFix" result="shape"/>
<feColorMatrix in="SourceAlpha" type="matrix" values="0 0 0 0 0 0 0 0 0 0 0 0 0 0 0 0 0 0 127 0" result="hardAlpha"/>
<feOffset dy="4"/>
<feGaussianBlur stdDeviation="4"/>
<feComposite in2="hardAlpha" operator="arithmetic" k2="-1" k3="1"/>
<feColorMatrix type="matrix" values="0 0 0 0 0 0 0 0 0 0 0 0 0 0 0 0 0 0 0.22 0"/>
<feBlend mode="normal" in2="shape" result="effect1_innerShadow_300_22742"/>
</filter>
<filter id="filter9_i_300_22742" x="867.293" y="109.207" width="203.924" height="270.293" filterUnits="userSpaceOnUse" color-interpolation-filters="sRGB">
<feFlood flood-opacity="0" result="BackgroundImageFix"/>
<feBlend mode="normal" in="SourceGraphic" in2="BackgroundImageFix" result="shape"/>
<feColorMatrix in="SourceAlpha" type="matrix" values="0 0 0 0 0 0 0 0 0 0 0 0 0 0 0 0 0 0 127 0" result="hardAlpha"/>
<feOffset dx="6" dy="3"/>
<feGaussianBlur stdDeviation="9"/>
<feComposite in2="hardAlpha" operator="arithmetic" k2="-1" k3="1"/>
<feColorMatrix type="matrix" values="0 0 0 0 1 0 0 0 0 1 0 0 0 0 1 0 0 0 0.49 0"/>
<feBlend mode="normal" in2="shape" result="effect1_innerShadow_300_22742"/>
</filter>
<filter id="filter10_i_300_22742" x="330.621" y="272.04" width="217.645" height="298.39" filterUnits="userSpaceOnUse" color-interpolation-filters="sRGB">
<feFlood flood-opacity="0" result="BackgroundImageFix"/>
<feBlend mode="normal" in="SourceGraphic" in2="BackgroundImageFix" result="shape"/>
<feColorMatrix in="SourceAlpha" type="matrix" values="0 0 0 0 0 0 0 0 0 0 0 0 0 0 0 0 0 0 127 0" result="hardAlpha"/>
<feOffset dy="4"/>
<feGaussianBlur stdDeviation="4"/>
<feComposite in2="hardAlpha" operator="arithmetic" k2="-1" k3="1"/>
<feColorMatrix type="matrix" values="0 0 0 0 0 0 0 0 0 0 0 0 0 0 0 0 0 0 0.22 0"/>
<feBlend mode="normal" in2="shape" result="effect1_innerShadow_300_22742"/>
</filter>
<filter id="filter11_i_300_22742" x="339.514" y="285.207" width="203.924" height="270.293" filterUnits="userSpaceOnUse" color-interpolation-filters="sRGB">
<feFlood flood-opacity="0" result="BackgroundImageFix"/>
<feBlend mode="normal" in="SourceGraphic" in2="BackgroundImageFix" result="shape"/>
<feColorMatrix in="SourceAlpha" type="matrix" values="0 0 0 0 0 0 0 0 0 0 0 0 0 0 0 0 0 0 127 0" result="hardAlpha"/>
<feOffset dx="6" dy="3"/>
<feGaussianBlur stdDeviation="9"/>
<feComposite in2="hardAlpha" operator="arithmetic" k2="-1" k3="1"/>
<feColorMatrix type="matrix" values="0 0 0 0 1 0 0 0 0 1 0 0 0 0 1 0 0 0 0.49 0"/>
<feBlend mode="normal" in2="shape" result="effect1_innerShadow_300_22742"/>
</filter>
<filter id="filter12_i_300_22742" x="694.184" y="555.729" width="212.791" height="307.326" filterUnits="userSpaceOnUse" color-interpolation-filters="sRGB">
<feFlood flood-opacity="0" result="BackgroundImageFix"/>
<feBlend mode="normal" in="SourceGraphic" in2="BackgroundImageFix" result="shape"/>
<feColorMatrix in="SourceAlpha" type="matrix" values="0 0 0 0 0 0 0 0 0 0 0 0 0 0 0 0 0 0 127 0" result="hardAlpha"/>
<feOffset dy="4"/>
<feGaussianBlur stdDeviation="4"/>
<feComposite in2="hardAlpha" operator="arithmetic" k2="-1" k3="1"/>
<feColorMatrix type="matrix" values="0 0 0 0 0 0 0 0 0 0 0 0 0 0 0 0 0 0 0.22 0"/>
<feBlend mode="normal" in2="shape" result="effect1_innerShadow_300_22742"/>
</filter>
<filter id="filter13_i_300_22742" x="704.748" y="568.126" width="198.43" height="277.128" filterUnits="userSpaceOnUse" color-interpolation-filters="sRGB">
<feFlood flood-opacity="0" result="BackgroundImageFix"/>
<feBlend mode="normal" in="SourceGraphic" in2="BackgroundImageFix" result="shape"/>
<feColorMatrix in="SourceAlpha" type="matrix" values="0 0 0 0 0 0 0 0 0 0 0 0 0 0 0 0 0 0 127 0" result="hardAlpha"/>
<feOffset dx="6" dy="3"/>
<feGaussianBlur stdDeviation="9"/>
<feComposite in2="hardAlpha" operator="arithmetic" k2="-1" k3="1"/>
<feColorMatrix type="matrix" values="0 0 0 0 1 0 0 0 0 1 0 0 0 0 1 0 0 0 0.49 0"/>
<feBlend mode="normal" in2="shape" result="effect1_innerShadow_300_22742"/>
</filter>
<filter id="filter14_iii_300_22742" x="0" y="1130" width="1303.97" height="971.854" filterUnits="userSpaceOnUse" color-interpolation-filters="sRGB">
<feFlood flood-opacity="0" result="BackgroundImageFix"/>
<feBlend mode="normal" in="SourceGraphic" in2="BackgroundImageFix" result="shape"/>
<feColorMatrix in="SourceAlpha" type="matrix" values="0 0 0 0 0 0 0 0 0 0 0 0 0 0 0 0 0 0 127 0" result="hardAlpha"/>
<feOffset dx="17" dy="3"/>
<feGaussianBlur stdDeviation="6"/>
<feComposite in2="hardAlpha" operator="arithmetic" k2="-1" k3="1"/>
<feColorMatrix type="matrix" values="0 0 0 0 1 0 0 0 0 1 0 0 0 0 1 0 0 0 0.23 0"/>
<feBlend mode="normal" in2="shape" result="effect1_innerShadow_300_22742"/>
<feColorMatrix in="SourceAlpha" type="matrix" values="0 0 0 0 0 0 0 0 0 0 0 0 0 0 0 0 0 0 127 0" result="hardAlpha"/>
<feOffset dy="4"/>
<feGaussianBlur stdDeviation="12"/>
<feComposite in2="hardAlpha" operator="arithmetic" k2="-1" k3="1"/>
<feColorMatrix type="matrix" values="0 0 0 0 0.407843 0 0 0 0 0.321569 0 0 0 0 0.882353 0 0 0 0.25 0"/>
<feBlend mode="normal" in2="effect1_innerShadow_300_22742" result="effect2_innerShadow_300_22742"/>
<feColorMatrix in="SourceAlpha" type="matrix" values="0 0 0 0 0 0 0 0 0 0 0 0 0 0 0 0 0 0 127 0" result="hardAlpha"/>
<feOffset dy="-4"/>
<feGaussianBlur stdDeviation="12"/>
<feComposite in2="hardAlpha" operator="arithmetic" k2="-1" k3="1"/>
<feColorMatrix type="matrix" values="0 0 0 0 0.40835 0 0 0 0 0.320208 0 0 0 0 0.883333 0 0 0 1 0"/>
<feBlend mode="normal" in2="effect2_innerShadow_300_22742" result="effect3_innerShadow_300_22742"/>
</filter>
<filter id="filter15_f_300_22742" x="92" y="1210.71" width="52" height="809" filterUnits="userSpaceOnUse" color-interpolation-filters="sRGB">
<feFlood flood-opacity="0" result="BackgroundImageFix"/>
<feBlend mode="normal" in="SourceGraphic" in2="BackgroundImageFix" result="shape"/>
<feGaussianBlur stdDeviation="9.5" result="effect1_foregroundBlur_300_22742"/>
</filter>
<filter id="filter16_f_300_22742" x="125" y="1148.71" width="137" height="921" filterUnits="userSpaceOnUse" color-interpolation-filters="sRGB">
<feFlood flood-opacity="0" result="BackgroundImageFix"/>
<feBlend mode="normal" in="SourceGraphic" in2="BackgroundImageFix" result="shape"/>
<feGaussianBlur stdDeviation="18" result="effect1_foregroundBlur_300_22742"/>
</filter>
<filter id="filter17_di_300_22742" x="807.531" y="1399.52" width="606" height="453.753" filterUnits="userSpaceOnUse" color-interpolation-filters="sRGB">
<feFlood flood-opacity="0" result="BackgroundImageFix"/>
<feColorMatrix in="SourceAlpha" type="matrix" values="0 0 0 0 0 0 0 0 0 0 0 0 0 0 0 0 0 0 127 0" result="hardAlpha"/>
<feOffset dx="1" dy="14"/>
<feGaussianBlur stdDeviation="16"/>
<feComposite in2="hardAlpha" operator="out"/>
<feColorMatrix type="matrix" values="0 0 0 0 0 0 0 0 0 0 0 0 0 0 0 0 0 0 0.25 0"/>
<feBlend mode="normal" in2="BackgroundImageFix" result="effect1_dropShadow_300_22742"/>
<feBlend mode="normal" in="SourceGraphic" in2="effect1_dropShadow_300_22742" result="shape"/>
<feColorMatrix in="SourceAlpha" type="matrix" values="0 0 0 0 0 0 0 0 0 0 0 0 0 0 0 0 0 0 127 0" result="hardAlpha"/>
<feOffset dx="6" dy="3"/>
<feGaussianBlur stdDeviation="9"/>
<feComposite in2="hardAlpha" operator="arithmetic" k2="-1" k3="1"/>
<feColorMatrix type="matrix" values="0 0 0 0 1 0 0 0 0 1 0 0 0 0 1 0 0 0 0.49 0"/>
<feBlend mode="normal" in2="shape" result="effect2_innerShadow_300_22742"/>
</filter>
<filter id="filter18_i_300_22742" x="930.746" y="1516.87" width="209.785" height="202.784" filterUnits="userSpaceOnUse" color-interpolation-filters="sRGB">
<feFlood flood-opacity="0" result="BackgroundImageFix"/>
<feBlend mode="normal" in="SourceGraphic" in2="BackgroundImageFix" result="shape"/>
<feColorMatrix in="SourceAlpha" type="matrix" values="0 0 0 0 0 0 0 0 0 0 0 0 0 0 0 0 0 0 127 0" result="hardAlpha"/>
<feOffset dx="20" dy="3"/>
<feGaussianBlur stdDeviation="5"/>
<feComposite in2="hardAlpha" operator="arithmetic" k2="-1" k3="1"/>
<feColorMatrix type="matrix" values="0 0 0 0 1 0 0 0 0 1 0 0 0 0 1 0 0 0 0.49 0"/>
<feBlend mode="normal" in2="shape" result="effect1_innerShadow_300_22742"/>
</filter>
<filter id="filter19_f_300_22742" x="943.998" y="1528.71" width="111.244" height="114.653" filterUnits="userSpaceOnUse" color-interpolation-filters="sRGB">
<feFlood flood-opacity="0" result="BackgroundImageFix"/>
<feBlend mode="normal" in="SourceGraphic" in2="BackgroundImageFix" result="shape"/>
<feGaussianBlur stdDeviation="2" result="effect1_foregroundBlur_300_22742"/>
</filter>
<filter id="filter20_f_300_22742" x="1000.77" y="1582.71" width="134.623" height="137.396" filterUnits="userSpaceOnUse" color-interpolation-filters="sRGB">
<feFlood flood-opacity="0" result="BackgroundImageFix"/>
<feBlend mode="normal" in="SourceGraphic" in2="BackgroundImageFix" result="shape"/>
<feGaussianBlur stdDeviation="3.5" result="effect1_foregroundBlur_300_22742"/>
</filter>
<linearGradient id="paint0_linear_300_22742" x1="1266.56" y1="1989.95" x2="247.32" y2="1063.54" gradientUnits="userSpaceOnUse">
<stop stop-color="#8F7CF9"/>
<stop offset="0.489583" stop-color="#9280F1"/>
<stop offset="1" stop-color="#AC9BFF"/>
</linearGradient>
<radialGradient id="paint1_radial_300_22742" cx="0" cy="0" r="1" gradientUnits="userSpaceOnUse" gradientTransform="translate(118 1615.21) rotate(90) scale(385.5 7)">
<stop stop-color="white"/>
<stop offset="1" stop-color="white" stop-opacity="0"/>
</radialGradient>
<radialGradient id="paint2_radial_300_22742" cx="0" cy="0" r="1" gradientUnits="userSpaceOnUse" gradientTransform="translate(193.5 1609.21) rotate(90) scale(424.5 32.5)">
<stop stop-color="white"/>
<stop offset="1" stop-color="white" stop-opacity="0"/>
</radialGradient>
<linearGradient id="paint3_linear_300_22742" x1="915.693" y1="1486.39" x2="1509.3" y2="1714.04" gradientUnits="userSpaceOnUse">
<stop stop-color="#BF90EE"/>
<stop offset="1" stop-color="#976CC7"/>
</linearGradient>
<linearGradient id="paint4_linear_300_22742" x1="964.058" y1="1550.11" x2="1030.65" y2="1716.64" gradientUnits="userSpaceOnUse">
<stop stop-color="#D8F57F"/>
<stop offset="1" stop-color="#D8F57E"/>
</linearGradient>
<radialGradient id="paint5_radial_300_22742" cx="0" cy="0" r="1" gradientUnits="userSpaceOnUse" gradientTransform="translate(989.498 1574.71) rotate(80.9724) scale(54.171)">
<stop stop-color="white"/>
<stop offset="1" stop-color="white" stop-opacity="0"/>
</radialGradient>
<radialGradient id="paint6_radial_300_22742" cx="0" cy="0" r="1" gradientUnits="userSpaceOnUse" gradientTransform="translate(1079.91 1664.7) rotate(-98.6383) scale(62.8589)">
<stop/>
<stop offset="1" stop-opacity="0"/>
</radialGradient>
<clipPath id="clip0_300_22742">
<rect width="316.567" height="389.403" fill="white" transform="matrix(-0.593931 0.804516 0.804516 0.593931 717.02 470)"/>
</clipPath>
</defs>
</svg>
