<svg width="12" height="12" viewBox="0 0 12 12" fill="none" xmlns="http://www.w3.org/2000/svg">
<path fill-rule="evenodd" clip-rule="evenodd" d="M6.0499 5.4C6.19522 5.4 6.33459 5.34311 6.43735 5.24184C6.54011 5.14057 6.59784 5.00322 6.59784 4.86V0.54C6.59784 0.396783 6.54011 0.259432 6.43735 0.158162C6.33459 0.0568927 6.19522 0 6.0499 0C5.90457 0 5.7652 0.0568927 5.66244 0.158162C5.55968 0.259432 5.50195 0.396783 5.50195 0.54V4.86C5.50195 5.16 5.74751 5.4 6.0499 5.4Z" fill="#FF5F5F"/>
<path fill-rule="evenodd" clip-rule="evenodd" d="M9.60019 1.36411C9.48392 1.28248 9.33992 1.2488 9.19883 1.27022C9.05774 1.29164 8.9307 1.36647 8.84476 1.4788C8.75881 1.59113 8.72073 1.73208 8.73864 1.87165C8.75654 2.01122 8.82901 2.1384 8.94062 2.22611C9.55119 2.67349 10.0468 3.25576 10.3876 3.92613C10.7284 4.5965 10.905 5.3363 10.9031 6.08611C10.9017 7.36741 10.3846 8.59583 9.46515 9.50174C8.54572 10.4077 7.29912 10.9171 5.99897 10.9181C4.69909 10.9165 3.45291 10.4069 2.53375 9.5011C1.61459 8.59527 1.0975 7.36715 1.09589 6.08611C1.09589 4.55211 1.81126 3.14211 3.05834 2.21711C3.11796 2.17525 3.16847 2.12204 3.20688 2.06062C3.24529 1.99921 3.27082 1.93083 3.28197 1.85952C3.29311 1.78822 3.28965 1.71544 3.27178 1.64547C3.2539 1.57551 3.22199 1.50979 3.17791 1.45219C3.13384 1.39458 3.0785 1.34627 3.01516 1.31009C2.95182 1.27392 2.88177 1.25062 2.80914 1.24157C2.73651 1.23252 2.66278 1.23791 2.5923 1.25741C2.52181 1.27691 2.45601 1.31013 2.39878 1.35511C1.65593 1.90831 1.0529 2.62326 0.636781 3.44412C0.220667 4.26498 0.00273254 5.16952 0 6.08711C0.00187981 7.65477 0.634623 9.15769 1.75943 10.2662C2.88424 11.3747 4.40927 11.9983 5.99999 12.0001C7.59071 11.9983 9.11574 11.3747 10.2405 10.2662C11.3654 9.15769 11.9981 7.65477 12 6.08711C12.0025 5.16978 11.7867 4.26466 11.3699 3.44441C10.9531 2.62417 10.347 1.91166 9.60019 1.36411Z" fill="#FF5F5F"/>
</svg>
