<svg width="20" height="20" viewBox="0 0 20 20" fill="none" xmlns="http://www.w3.org/2000/svg">
<path fill-rule="evenodd" clip-rule="evenodd" d="M4.39253 4.39206C2.58599 6.1986 2.58599 9.12757 4.39253 10.9341C6.19906 12.7407 9.12804 12.7406 10.9346 10.9341C12.7411 9.12757 12.7411 6.1986 10.9346 4.39206C9.12804 2.58552 6.19906 2.58552 4.39253 4.39206ZM3.83178 3.83131C5.94801 1.71508 9.3791 1.71508 11.4953 3.83131C13.5172 5.85322 13.6074 9.07541 11.7657 11.2043L16.1682 15.607C16.3231 15.7619 16.3231 16.0129 16.1682 16.1678C16.0134 16.3226 15.7623 16.3226 15.6075 16.1678L11.205 11.765C9.07608 13.6069 5.85375 13.5168 3.83178 11.4949C1.71555 9.37863 1.71555 5.94754 3.83178 3.83131Z" fill="white"/>
</svg>
