<svg id="cellframe-logo-dashboard" xmlns="http://www.w3.org/2000/svg" width="111" height="24" viewBox="0 0 111 24">
  <g id="Слой6">
    <path id="Path_1417" data-name="Path 1417" d="M1154.829,228.311c-.117.2-.024.515.646.4a18.624,18.624,0,0,1,4.8-.217,13.765,13.765,0,0,1,3.538.851c.552.18,1.149.458,1.4.362s.229-.475-.031-.858a4.857,4.857,0,0,0-1.613-1.381,7.563,7.563,0,0,0-3.711-.914,8.975,8.975,0,0,0-3.715.825A3.206,3.206,0,0,0,1154.829,228.311Z" transform="translate(-1148.635 -226.547)" fill="#fff" fill-rule="evenodd"/>
    <g id="Group_2119" data-name="Group 2119" transform="translate(17.602 24) rotate(-178.904)">
      <path id="Path_1418" data-name="Path 1418" d="M.043,1.76c-.117.2-.023.515.646.4a18.618,18.618,0,0,1,4.8-.213A13.781,13.781,0,0,1,9.023,2.8c.552.181,1.149.459,1.4.363s.228-.475-.031-.858A4.87,4.87,0,0,0,8.778.919,7.572,7.572,0,0,0,5.066,0,8.968,8.968,0,0,0,1.351.823,3.2,3.2,0,0,0,.043,1.76Z" transform="translate(0 0)" fill="#fff" fill-rule="evenodd"/>
    </g>
    <path id="Path_1419" data-name="Path 1419" d="M179.177,549.52a10.834,10.834,0,0,1,3.707.794c2.762,1.127,4.571,3.065,5.121,2.914.422-.116.328-1.378.064-2.315-.418-1.481-.882-1.753-.7-1.947.235-.248,1.622.684,3.015,2.579a11.7,11.7,0,0,1,2.2,6.275,9.048,9.048,0,0,1-2.876,7.24,11,11,0,0,1-4.544,2.522,9.221,9.221,0,0,1-4.278.267,12.906,12.906,0,0,1-5.741-2.327c-.968-.65-1.693-1.451-2.054-1.142-.392.336-.215,1.519.171,2.609.3.844.783,1.458.46,1.56-.479.151-2.49-1.755-3.681-3.831A10.562,10.562,0,0,1,168.6,559a10.167,10.167,0,0,1,.257-2.1,8.871,8.871,0,0,1,1.612-3.45,10.422,10.422,0,0,1,3.355-2.74A10.186,10.186,0,0,1,179.177,549.52Zm.563.5a9.915,9.915,0,0,0-4.558.687,9.122,9.122,0,0,0-3.3,2.1,8.707,8.707,0,0,0-2.128,3.16,9.876,9.876,0,0,0-.239,5.7,7.726,7.726,0,0,0,1.634,3.32c.93,1.079.46-3.509,1.768-2.554.771.562,1.9,2.31,4.332,3.639a9.783,9.783,0,0,0,6.8,1.294,11.456,11.456,0,0,0,5.011-2.448,7.981,7.981,0,0,0,2.555-3.705,9.119,9.119,0,0,0,.408-3.566c-.312-2.934-1.931-5.7-2.337-5.333-.36.321-.189,3.433-1.186,2.917a20.36,20.36,0,0,1-2.389-2.157,16.951,16.951,0,0,0-2.362-1.729A8.667,8.667,0,0,0,179.74,550.018Z" transform="translate(-168.598 -546.827)" fill="#fff" fill-rule="evenodd"/>
    <g id="Group_2120" data-name="Group 2120" transform="translate(1.079 3.813)">
      <path id="Path_1420" data-name="Path 1420" d="M387.68,550.9a9.564,9.564,0,0,1,3.474.748,8.714,8.714,0,0,1,3.85,3.066c1.278,1.789,1.705,3.825,2.466,3.554a3.675,3.675,0,0,0,1.48-1.483c.484-.825.967-.4,1.167.758a7.3,7.3,0,0,1-.3,3.472,8.165,8.165,0,0,1-2.192,3.576,8.705,8.705,0,0,1-3.49,2.057,9.94,9.94,0,0,1-4.653.3,9.409,9.409,0,0,1-5.48-3.12,10.327,10.327,0,0,1-1.4-1.964,11.7,11.7,0,0,0-1.049-1.685c-.429-.435-.755-.5-1.354.231-.324.4-.723,1.592-1.3.943a3.624,3.624,0,0,1-.477-1.928,8.5,8.5,0,0,1,1.441-4.61,9.439,9.439,0,0,1,3.086-2.789A8.91,8.91,0,0,1,387.68,550.9Zm.174.516a7.77,7.77,0,0,0-4.177.844,8,8,0,0,0-3.483,3.349,5.062,5.062,0,0,0-.674,2.844c.133.515,1.745-1.75,2.486-.917.59.664.408,1.609,1.109,3.247a8.727,8.727,0,0,0,8.075,5.581,7.759,7.759,0,0,0,3.476-.606,7.9,7.9,0,0,0,2.632-1.767,6.493,6.493,0,0,0,1.64-2.593c.378-1,.528-2.06-.05-1.928-.724.166-1.346,1.161-1.947,1.2-.648.039-.718-.935-1.135-2.315a11.821,11.821,0,0,0-1.088-2.6,8.024,8.024,0,0,0-6.864-4.34Z" transform="translate(-378.418 -550.902)" fill="#fff" fill-rule="evenodd"/>
    </g>
  </g>
  <path id="Path_1429" data-name="Path 1429" d="M19.7-173.34a4.735,4.735,0,0,1-1.885-.365,4.01,4.01,0,0,1-1.46-1.064,4.88,4.88,0,0,1-.942-1.724,7.594,7.594,0,0,1-.333-2.347,6.8,6.8,0,0,1,.376-2.347,5.151,5.151,0,0,1,1.013-1.724,4.278,4.278,0,0,1,1.488-1.064,4.554,4.554,0,0,1,1.814-.365,6.022,6.022,0,0,1,1.1.091,6.341,6.341,0,0,1,.85.213,3.907,3.907,0,0,1,.588.243,3.275,3.275,0,0,1,.312.182l-.4,1.215a2.143,2.143,0,0,0-.368-.2q-.241-.106-.546-.213a4.638,4.638,0,0,0-.666-.175,3.918,3.918,0,0,0-.73-.068,3.3,3.3,0,0,0-1.4.289,2.923,2.923,0,0,0-1.063.836,3.862,3.862,0,0,0-.673,1.329,6.121,6.121,0,0,0-.234,1.755,6.693,6.693,0,0,0,.206,1.717,3.876,3.876,0,0,0,.617,1.329,2.806,2.806,0,0,0,1.028.858,3.217,3.217,0,0,0,1.439.3,4.941,4.941,0,0,0,1.573-.213,6.641,6.641,0,0,0,.935-.38l.354,1.215a1.942,1.942,0,0,1-.354.19,4.635,4.635,0,0,1-.638.22,7.492,7.492,0,0,1-.893.182A7.522,7.522,0,0,1,19.7-173.34Zm4.564-.228V-184.1h6v1.261h-4.62v3.13h4.11v1.231h-4.11v3.646h4.975v1.261Zm14-1.276v1.276h-5.91V-184.1h1.375v9.253Zm7.356,0v1.276h-5.91V-184.1h1.375v9.253Zm1.446,1.276V-184.1h5.924v1.261H48.442v3.175h4.039v1.246H48.442v4.847Zm12.415-4.406q.227.3.574.8t.716,1.094q.368.6.73,1.253a13.053,13.053,0,0,1,.617,1.261h-1.5q-.283-.577-.617-1.17t-.673-1.132q-.34-.539-.673-1.01t-.6-.82q-.184.015-.376.015H56.053v4.117H54.678v-10.377a7.272,7.272,0,0,1,1.3-.205q.716-.053,1.311-.053a5.091,5.091,0,0,1,3.153.836,2.95,2.95,0,0,1,1.084,2.492,3.063,3.063,0,0,1-.517,1.793A3.053,3.053,0,0,1,59.483-177.974ZM57.4-182.912q-.879,0-1.346.046v3.965h.978a9.672,9.672,0,0,0,1.276-.076,2.753,2.753,0,0,0,.957-.289,1.484,1.484,0,0,0,.6-.6,2.13,2.13,0,0,0,.213-1.026,2.066,2.066,0,0,0-.213-.988,1.639,1.639,0,0,0-.574-.623,2.4,2.4,0,0,0-.85-.319A5.681,5.681,0,0,0,57.4-182.912Zm13.152,9.344q-.241-.684-.454-1.345t-.439-1.345h-4.45l-.893,2.689H62.884q.567-1.671,1.063-3.092t.971-2.7q.475-1.276.942-2.438t.978-2.3H68.1q.51,1.14.978,2.3t.942,2.438q.475,1.276.971,2.7t1.063,3.092Zm-1.29-3.9q-.454-1.322-.9-2.56t-.928-2.378q-.5,1.139-.942,2.378t-.886,2.56Zm8.532,2.446q-.142-.365-.376-.927t-.5-1.215q-.269-.653-.574-1.345t-.574-1.307q-.269-.615-.5-1.1t-.376-.744q-.156,1.793-.255,3.882t-.17,4.216H73.117q.057-1.367.128-2.758t.163-2.735q.092-1.345.2-2.621t.234-2.416h1.2q.383.669.822,1.58t.879,1.907q.439,1,.85,1.99t.751,1.816q.34-.82.751-1.816t.85-1.99q.439-1,.879-1.907t.822-1.58h1.2q.482,5.09.723,10.529H82.23q-.071-2.127-.17-4.216t-.255-3.882q-.142.258-.376.744t-.5,1.1q-.269.615-.574,1.307t-.574,1.345q-.269.653-.5,1.215t-.376.927Zm7.937,1.459V-184.1h6v1.261h-4.62v3.13h4.11v1.231h-4.11v3.646H92.08v1.261Z" transform="translate(18.92 190.34)" fill="#fff"/>
</svg>
