<svg xmlns="http://www.w3.org/2000/svg" width="30" height="30" viewBox="0 0 30 30">
  <g id="ic_info" transform="translate(-7)">
    <rect id="Rectangle_1604" data-name="Rectangle 1604" width="30" height="30" transform="translate(7)" fill="none"/>
    <path id="Path_1931" data-name="Path 1931" d="M15,5A10,10,0,1,0,25,15,10,10,0,0,0,15,5Zm0,18.222A8.222,8.222,0,1,1,23.222,15,8.222,8.222,0,0,1,15,23.222ZM13.889,9.444A1.111,1.111,0,1,1,15,10.556,1.111,1.111,0,0,1,13.889,9.444Zm3.556,10.081v.585a.445.445,0,0,1-.445.445H13a.445.445,0,0,1-.445-.445v-.585a.445.445,0,0,1,.31-.424l.915-.29a.154.154,0,0,0,.108-.147V14.111h-.7A.635.635,0,0,1,13,12.871l2.533-.8a.445.445,0,0,1,.579.424v6.169a.154.154,0,0,0,.108.147l.915.29a.445.445,0,0,1,.31.424Z" transform="translate(7)" fill="#d51f5d"/>
  </g>
</svg>
