<svg xmlns="http://www.w3.org/2000/svg" width="30" height="30" viewBox="0 0 30 30">
  <g id="ic_info_order" transform="translate(-7)">
    <rect id="Rectangle_1604" data-name="Rectangle 1604" width="30" height="30" transform="translate(7)" fill="none"/>
    <path id="Path_1931" data-name="Path 1931" d="M13,5a8,8,0,1,0,8,8,8,8,0,0,0-8-8Zm0,14.578A6.578,6.578,0,1,1,19.578,13,6.578,6.578,0,0,1,13,19.578ZM12.111,8.556A.889.889,0,1,1,13,9.444.889.889,0,0,1,12.111,8.556Zm2.844,8.065v.468a.356.356,0,0,1-.356.356H11.4a.356.356,0,0,1-.356-.356V16.62a.356.356,0,0,1,.248-.339l.732-.232a.124.124,0,0,0,.086-.118V12.289h-.559A.508.508,0,0,1,11.4,11.3l2.026-.64a.356.356,0,0,1,.463.339v4.935a.124.124,0,0,0,.086.118l.732.232a.356.356,0,0,1,.248.339Z" transform="translate(9 2)" fill="#fff"/>
  </g>
</svg>
