<svg xmlns="http://www.w3.org/2000/svg" width="24" height="24.526" viewBox="0 0 24 24.526">
  <g id="ic_receipt_hover" transform="translate(0 0.25)">
    <rect id="Rectangle_2120" data-name="Rectangle 2120" width="24" height="24" fill="none"/>
    <g id="Group_2379" data-name="Group 2379" transform="translate(-13 -958.358)">
      <g id="Group_2378" data-name="Group 2378" transform="translate(16 958.358)">
        <path id="Path_8884" data-name="Path 8884" d="M16.227,6A.279.279,0,0,0,16,6.276V29.719a.279.279,0,0,0,.48.192l2.032-2.041,2.041,2.041a.279.279,0,0,0,.392,0l2.032-2.041,2.041,2.041a.279.279,0,0,0,.392,0l2.032-2.041,2.041,2.041a.279.279,0,0,0,.392,0l2.032-2.041,2.041,2.041a.279.279,0,0,0,.471-.192V6.276A.279.279,0,0,0,34.14,6H16.279a.279.279,0,0,0-.052,0Zm.331.558h17.3V29.038l-1.753-1.753a.279.279,0,0,0-.392,0l-2.041,2.032-2.032-2.032a.279.279,0,0,0-.392,0L25.21,29.318l-2.032-2.032a.279.279,0,0,0-.392,0l-2.041,2.032-2.032-2.032a.279.279,0,0,0-.392,0l-1.762,1.762ZM19.6,11.849a.279.279,0,0,0,.026.558H30.791a.279.279,0,1,0,0-.558H19.6Zm0,3.907a.279.279,0,0,0,.026.558H30.791a.279.279,0,1,0,0-.558H19.6Zm0,3.907a.279.279,0,0,0,.026.558H25.21a.279.279,0,1,0,0-.558H19.6Z" transform="translate(-16 -5.996)" fill="#ff5f95" stroke="#ff5f95" stroke-width="0.5"/>
      </g>
    </g>
  </g>
</svg>
