<svg xmlns="http://www.w3.org/2000/svg" width="18" height="18.4" viewBox="0 0 18 18.4">
  <g id="icon_vpn-service" transform="translate(-29 -116.8)">
    <rect id="bg_icon" width="18" height="18" transform="translate(29 117)" fill="none"/>
    <path id="Path_1932" data-name="Path 1932" d="M184.687,63.976l-1.545-.889a1.361,1.361,0,1,1,.274-.472l1.545.889,3.516-2.024V59.7a1.368,1.368,0,1,1,.547,0v1.779L192.54,63.5l1.545-.889a1.368,1.368,0,1,1,.273.472l-1.545.889v4.049l1.545.889a1.361,1.361,0,1,1-.273.472L192.54,68.5l-3.516,2.024V72.3a1.368,1.368,0,1,1-.547,0V70.521L184.961,68.5l-1.545.889a1.368,1.368,0,1,1-.274-.472l1.545-.889Zm4.063-2.024-3.516,2.024v4.049l3.516,2.024,3.516-2.024V63.976Zm0-2.769a.818.818,0,1,0-.821-.818A.819.819,0,0,0,188.75,59.182Zm7.042,3.709a.819.819,0,1,0-1.121-.3A.817.817,0,0,0,195.793,62.89Zm-1.121,6.519a.82.82,0,1,0,1.121-.3A.817.817,0,0,0,194.672,69.409Zm-5.922,3.409a.818.818,0,1,0,.821.818A.819.819,0,0,0,188.75,72.818Zm-5.922-3.409a.82.82,0,1,0-.3,1.118A.822.822,0,0,0,182.829,69.409Zm0-6.818a.82.82,0,1,0-1.121.3A.817.817,0,0,0,182.829,62.591Z" transform="translate(-150.751 60)" fill="#fff" stroke="#fff" stroke-width="0.4"/>
  </g>
</svg>
