<svg xmlns="http://www.w3.org/2000/svg" width="266" height="358.703" viewBox="0 0 266 358.703">
  <g id="illustration_prepay-vpn" transform="translate(-240 -475)">
    <g id="Group_2460" data-name="Group 2460" transform="translate(240 475)">
      <g id="Group_2443" data-name="Group 2443" transform="translate(0 0)">
        <g id="Group_2413" data-name="Group 2413">
          <g id="Group_2408" data-name="Group 2408" transform="translate(68.995 226.923)">
            <g id="Group_2406" data-name="Group 2406" transform="translate(2.092)">
              <path id="Path_8911" data-name="Path 8911" d="M231.687,390.854l-74.515,42.832c-.289,3.821.031,7.605,1.616,10.4,3.344,5.9,14.052,10.038,14.052,10.038l31.571,15.717,67.879-39.08,4.386,2.531v-5.059l-37.164-21.454C234.733,404.022,231.174,397.8,231.687,390.854Z" transform="translate(-157.076 -343.124)" fill="#f5f5f5"/>
              <path id="Path_8912" data-name="Path 8912" d="M232.881,411.318c3.775-9.574,14.957-40.46,15.068-40.771l-4.119-1.489c-.057.158-3,8.282-6.362,17.46-13.794,8.262-70.155,40.8-70.155,40.8s-6.022,14.966-7.846,20.753a53.508,53.508,0,0,0-2.348,11.545l74.515-42.832A18.486,18.486,0,0,1,232.881,411.318Z" transform="translate(-157.024 -369.058)" fill="#ebebeb"/>
            </g>
            <g id="Group_2407" data-name="Group 2407" transform="translate(0 41.607)">
              <path id="Path_8913" data-name="Path 8913" d="M205.548,473.172l-37.164-21.454c-6.013-3.473-10.117-12.425-6.581-21.4,3.775-9.574,14.957-40.46,15.068-40.771l-4.119-1.489c-.112.309-11.271,31.136-15.025,40.653-4.4,11.173.845,22.4,8.466,26.8l39.354,22.72Z" transform="translate(-156.121 -388.058)" fill="#d3d3d3"/>
            </g>
            <path id="Path_8914" data-name="Path 8914" d="M250.957,407.925l-72.266,41.607v5.058l72.266-41.608Z" transform="translate(-129.265 -322.811)" fill="#e0e0e0"/>
          </g>
          <g id="Group_2411" data-name="Group 2411">
            <g id="Group_2409" data-name="Group 2409" transform="translate(5.885 3.396)">
              <path id="Path_8915" data-name="Path 8915" d="M127.3,609.753V417.162L387.417,266.985V459.576Z" transform="translate(-127.302 -266.985)" fill="#e0e0e0"/>
              <path id="Path_8916" data-name="Path 8916" d="M384.674,456.387,128.114,604.512V416.66l256.56-148.125Z" transform="translate(-126.337 -265.139)" fill="#f5f5f5"/>
              <path id="Path_8917" data-name="Path 8917" d="M379.523,431.741,129.456,576.117V415.907L379.523,271.531Z" transform="translate(-124.74 -261.575)" fill="#d51f5d"/>
            </g>
            <g id="Group_2410" data-name="Group 2410" transform="translate(129.842 240.047)">
              <path id="Path_8918" data-name="Path 8918" d="M187.932,399.3c-1.938,0-4.025-1.566-4.025-5.006,0-3.307,1.995-7.051,4.544-8.521l17.392-10.041a4.681,4.681,0,0,1,2.348-.677c1.938,0,4.025,1.566,4.025,5.006,0,3.307-1.995,7.049-4.544,8.521l-17.392,10.04a4.657,4.657,0,0,1-2.345.677Z" transform="translate(-183.907 -375.051)" fill="#fff"/>
              <path id="Path_8919" data-name="Path 8919" d="M188.373,396.042,205.763,386c2-1.154,3.631-4.275,3.631-6.938h0c0-2.663-1.634-3.9-3.631-2.746l-17.39,10.04c-2,1.154-3.631,4.277-3.631,6.938h0C184.742,395.958,186.376,397.2,188.373,396.042Z" transform="translate(-182.913 -374.057)" fill="#3f3a53"/>
            </g>
            <path id="Path_8920" data-name="Path 8920" d="M130.5,337.408l-5.885-3.4V526.6L130.5,530Z" transform="translate(-124.615 -183.835)" fill="#d3d3d3"/>
            <path id="Path_8921" data-name="Path 8921" d="M390.615,268.83l-5.885-3.4L124.615,415.611l5.885,3.4Z" transform="translate(-124.615 -265.434)" fill="#e6e6e6"/>
          </g>
        </g>
        <g id="Group_2414" data-name="Group 2414" transform="translate(164.891 32.91)">
          <path id="Path_8934" data-name="Path 8934" d="M282.22,341.92l-82.308,47.521V369.729l82.308-47.521Z" transform="translate(-199.912 -230.79)" fill="#3f3a53"/>
          <path id="Path_8935" data-name="Path 8935" d="M282.22,329.228l-82.308,47.521V327.983l82.308-47.521Z" transform="translate(-199.912 -280.462)" fill="#3f3a53"/>
          <path id="Path_8936" data-name="Path 8936" d="M282.22,314.159,199.912,361.68v-6.587l82.308-47.521Z" transform="translate(-199.912 -248.205)" fill="#3f3a53"/>
          <path id="Path_8937" data-name="Path 8937" d="M282.22,320.74,199.912,368.26v-6.587l82.308-47.521Z" transform="translate(-199.912 -240.375)" fill="#3f3a53"/>
          <path id="Path_8938" data-name="Path 8938" d="M271.91,335.423l-66.738,38.531c-1.726,1-3.138-.072-3.138-2.374h0a7.547,7.547,0,0,1,3.138-6l66.738-38.531c1.726-1,3.138.072,3.138,2.372h0A7.551,7.551,0,0,1,271.91,335.423Z" transform="translate(-197.388 -225.469)" fill="#27223c"/>
        </g>
        <g id="Group_2440" data-name="Group 2440" transform="translate(29.152 88.083)">
          <g id="Group_2428" data-name="Group 2428">
            <path id="Path_8984" data-name="Path 8984" d="M260.939,317.367,137.927,388.388V539.734l123.012-71.021Z" transform="translate(-137.927 -291.724)" fill="#ffdef1" opacity="0.5"/>
            <path id="Path_8985" data-name="Path 8985" d="M260.939,305.657,137.927,376.678V402.32L260.939,331.3Z" transform="translate(-137.927 -305.657)" opacity="0.2"/>
          </g>
          <g id="Group_2439" data-name="Group 2439" transform="translate(10.691 45.659)">
            <g id="Group_2429" data-name="Group 2429">
              <path id="Path_8993" data-name="Path 8993" d="M146,360.534h0c-1.754,1.012-3.188-.072-3.188-2.409h0a7.657,7.657,0,0,1,3.188-6.09h0c1.752-1.012,3.186.072,3.186,2.409h0A7.661,7.661,0,0,1,146,360.534Z" transform="translate(-142.809 -296.583)" fill="#fff"/>
              <path id="Path_8994" data-name="Path 8994" d="M186.063,348.062l-33.3,19.227c-1.8,1.04-3.276-.074-3.276-2.477h0a7.872,7.872,0,0,1,3.276-6.259l33.3-19.225c1.8-1.04,3.274.074,3.274,2.477h0A7.875,7.875,0,0,1,186.063,348.062Z" transform="translate(-134.862 -311.715)" fill="#fff"/>
              <path id="Path_8995" data-name="Path 8995" d="M203.012,335.632l-24.864,14.355c-1.8,1.04-3.276-.074-3.276-2.477h0a7.871,7.871,0,0,1,3.276-6.256L203.012,326.9c1.8-1.04,3.276.074,3.276,2.477h0A7.872,7.872,0,0,1,203.012,335.632Z" transform="translate(-104.658 -326.507)" fill="#fff"/>
            </g>
            <g id="Group_2430" data-name="Group 2430" transform="translate(0 16.647)">
              <path id="Path_8996" data-name="Path 8996" d="M146,368.135h0c-1.754,1.014-3.188-.07-3.188-2.409h0a7.66,7.66,0,0,1,3.188-6.09h0c1.752-1.012,3.186.072,3.186,2.411h0A7.66,7.66,0,0,1,146,368.135Z" transform="translate(-142.809 -304.186)" fill="#fff"/>
              <path id="Path_8997" data-name="Path 8997" d="M176.715,358.128l-23.951,13.829c-1.8,1.04-3.276-.074-3.276-2.477h0a7.865,7.865,0,0,1,3.276-6.257l23.951-13.829c1.8-1.04,3.276.074,3.276,2.477h0A7.871,7.871,0,0,1,176.715,358.128Z" transform="translate(-134.862 -316.384)" fill="#fff"/>
              <path id="Path_8998" data-name="Path 8998" d="M203.012,343.232l-24.864,14.355c-1.8,1.04-3.276-.072-3.276-2.474h0a7.872,7.872,0,0,1,3.276-6.259L203.012,334.5c1.8-1.04,3.276.072,3.276,2.475h0A7.872,7.872,0,0,1,203.012,343.232Z" transform="translate(-104.658 -334.109)" fill="#fff"/>
            </g>
            <g id="Group_2431" data-name="Group 2431" transform="translate(0 33.422)">
              <path id="Path_8999" data-name="Path 8999" d="M146,375.8h0c-1.754,1.014-3.188-.07-3.188-2.409h0A7.66,7.66,0,0,1,146,367.3h0c1.752-1.012,3.186.072,3.186,2.409h0A7.661,7.661,0,0,1,146,375.8Z" transform="translate(-142.809 -311.845)" fill="#fff"/>
              <path id="Path_9000" data-name="Path 9000" d="M186.063,363.326l-33.3,19.225c-1.8,1.04-3.276-.074-3.276-2.477h0a7.872,7.872,0,0,1,3.276-6.259l33.3-19.225c1.8-1.04,3.274.074,3.274,2.477h0A7.877,7.877,0,0,1,186.063,363.326Z" transform="translate(-134.862 -326.977)" fill="#fff"/>
              <path id="Path_9001" data-name="Path 9001" d="M203.012,350.894l-24.864,14.355c-1.8,1.04-3.276-.074-3.276-2.475h0a7.872,7.872,0,0,1,3.276-6.259l24.864-14.357c1.8-1.04,3.276.074,3.276,2.477h0A7.872,7.872,0,0,1,203.012,350.894Z" transform="translate(-104.658 -341.769)" fill="#fff"/>
            </g>
            <g id="Group_2434" data-name="Group 2434" transform="translate(0 50.069)">
              <g id="Group_2432" data-name="Group 2432">
                <path id="Path_9002" data-name="Path 9002" d="M146,383.4h0c-1.754,1.012-3.188-.072-3.188-2.411h0A7.664,7.664,0,0,1,146,374.9h0c1.752-1.012,3.186.072,3.186,2.411h0A7.665,7.665,0,0,1,146,383.4Z" transform="translate(-142.809 -319.448)" fill="#fff"/>
                <path id="Path_9003" data-name="Path 9003" d="M176.715,373.39l-23.951,13.829c-1.8,1.04-3.276-.074-3.276-2.474h0a7.872,7.872,0,0,1,3.276-6.259l23.951-13.829c1.8-1.04,3.276.074,3.276,2.477h0A7.865,7.865,0,0,1,176.715,373.39Z" transform="translate(-134.862 -331.647)" fill="#fff"/>
                <path id="Path_9004" data-name="Path 9004" d="M203.012,358.494l-24.864,14.357c-1.8,1.038-3.276-.074-3.276-2.477h0a7.872,7.872,0,0,1,3.276-6.259l24.864-14.355c1.8-1.04,3.276.074,3.276,2.475h0A7.872,7.872,0,0,1,203.012,358.494Z" transform="translate(-104.658 -349.371)" fill="#fff"/>
              </g>
              <g id="Group_2433" data-name="Group 2433" transform="translate(0 16.932)">
                <path id="Path_9005" data-name="Path 9005" d="M146,391.131h0c-1.754,1.012-3.188-.072-3.188-2.409h0A7.665,7.665,0,0,1,146,382.63h0c1.752-1.012,3.186.074,3.186,2.411h0A7.665,7.665,0,0,1,146,391.131Z" transform="translate(-142.809 -327.18)" fill="#fff"/>
                <path id="Path_9006" data-name="Path 9006" d="M181.637,379.825l-28.873,16.669c-1.8,1.04-3.276-.074-3.276-2.475h0a7.872,7.872,0,0,1,3.276-6.259l28.873-16.669c1.8-1.04,3.274.074,3.274,2.475h0A7.876,7.876,0,0,1,181.637,379.825Z" transform="translate(-134.862 -340.922)" fill="#fff"/>
                <path id="Path_9007" data-name="Path 9007" d="M203.012,366.226l-24.864,14.357c-1.8,1.04-3.276-.075-3.276-2.477h0a7.872,7.872,0,0,1,3.276-6.259l24.864-14.355c1.8-1.04,3.276.074,3.276,2.477h0A7.871,7.871,0,0,1,203.012,366.226Z" transform="translate(-104.658 -357.103)" fill="#fff"/>
              </g>
            </g>
            <g id="Group_2437" data-name="Group 2437" transform="translate(0 98.978)">
              <g id="Group_2435" data-name="Group 2435">
                <path id="Path_9008" data-name="Path 9008" d="M146,405.732h0c-1.754,1.014-3.188-.07-3.188-2.409h0a7.66,7.66,0,0,1,3.188-6.09h0c1.752-1.012,3.186.072,3.186,2.411h0A7.66,7.66,0,0,1,146,405.732Z" transform="translate(-142.809 -341.781)" fill="#fff"/>
                <path id="Path_9009" data-name="Path 9009" d="M176.715,395.725l-23.951,13.829c-1.8,1.04-3.276-.074-3.276-2.477h0a7.865,7.865,0,0,1,3.276-6.256l23.951-13.829c1.8-1.04,3.276.074,3.276,2.475h0A7.872,7.872,0,0,1,176.715,395.725Z" transform="translate(-134.862 -353.98)" fill="#fff"/>
                <path id="Path_9010" data-name="Path 9010" d="M203.012,380.83l-24.864,14.355c-1.8,1.04-3.276-.074-3.276-2.475h0a7.872,7.872,0,0,1,3.276-6.259l24.864-14.357c1.8-1.04,3.276.074,3.276,2.477h0A7.872,7.872,0,0,1,203.012,380.83Z" transform="translate(-104.658 -371.705)" fill="#fff"/>
              </g>
              <g id="Group_2436" data-name="Group 2436" transform="translate(0 16.933)">
                <path id="Path_9011" data-name="Path 9011" d="M146,413.464h0c-1.754,1.014-3.188-.07-3.188-2.409h0a7.66,7.66,0,0,1,3.188-6.09h0c1.752-1.012,3.186.072,3.186,2.411h0A7.66,7.66,0,0,1,146,413.464Z" transform="translate(-142.809 -349.514)" fill="#fff"/>
                <path id="Path_9012" data-name="Path 9012" d="M181.637,402.161,152.764,418.83c-1.8,1.04-3.276-.074-3.276-2.477h0a7.871,7.871,0,0,1,3.276-6.256l28.873-16.671c1.8-1.04,3.274.074,3.274,2.477h0A7.876,7.876,0,0,1,181.637,402.161Z" transform="translate(-134.862 -363.257)" fill="#fff"/>
                <path id="Path_9013" data-name="Path 9013" d="M203.012,388.562l-24.864,14.355c-1.8,1.04-3.276-.072-3.276-2.475h0a7.872,7.872,0,0,1,3.276-6.259l24.864-14.357c1.8-1.038,3.276.074,3.276,2.477h0A7.872,7.872,0,0,1,203.012,388.562Z" transform="translate(-104.658 -379.437)" fill="#fff"/>
              </g>
            </g>
            <g id="Group_2438" data-name="Group 2438" transform="translate(0 83.646)">
              <path id="Path_9014" data-name="Path 9014" d="M146,398.731h0c-1.754,1.012-3.188-.072-3.188-2.409h0a7.657,7.657,0,0,1,3.188-6.09h0c1.752-1.012,3.186.072,3.186,2.409h0A7.665,7.665,0,0,1,146,398.731Z" transform="translate(-142.809 -334.78)" fill="#fff"/>
              <path id="Path_9015" data-name="Path 9015" d="M191.564,384.81l-38.8,22.4c-1.8,1.04-3.276-.074-3.276-2.477h0a7.872,7.872,0,0,1,3.276-6.259l38.8-22.4c1.8-1.038,3.276.074,3.276,2.477h0A7.872,7.872,0,0,1,191.564,384.81Z" transform="translate(-134.862 -351.637)" fill="#fff"/>
              <path id="Path_9016" data-name="Path 9016" d="M203.012,373.829l-24.864,14.355c-1.8,1.04-3.276-.074-3.276-2.477h0a7.871,7.871,0,0,1,3.276-6.257l24.864-14.357c1.8-1.04,3.276.074,3.276,2.477h0A7.872,7.872,0,0,1,203.012,373.829Z" transform="translate(-104.658 -364.704)" fill="#fff"/>
            </g>
          </g>
        </g>
      </g>
    </g>
    <g id="Perspective_Text" data-name="Perspective Text" transform="translate(285.987 576.759)">
      <g id="Group_2462" data-name="Group 2462" transform="translate(0 0)">
        <path id="Path_9151" data-name="Path 9151" d="M302.873,728.022a23.623,23.623,0,0,1,2.944-1.985c1.512-.862,2.617-1.023,3.321-.58.648.381,1.033,1.308,1.033,2.714a8.44,8.44,0,0,1-.912,3.9,9.258,9.258,0,0,1-3.617,3.819,5.286,5.286,0,0,1-1.234.568V742.8l-1.535.889Zm1.535,6.765a5.01,5.01,0,0,0,1.267-.564,5.756,5.756,0,0,0,2.971-5.084c0-2.088-1.107-2.467-2.794-1.5a8.7,8.7,0,0,0-1.444.99Z" transform="translate(-302.873 -675.695)" fill="#fff"/>
        <path id="Path_9152" data-name="Path 9152" d="M307.417,725.483a20.648,20.648,0,0,1,2.911-1.99c1.619-.924,2.66-1.119,3.391-.65a2.794,2.794,0,0,1,.92,2.461,7.792,7.792,0,0,1-2.206,5.275v.07c.9-.1,1.442.71,1.72,2.183a21.725,21.725,0,0,0,.9,3.792l-1.56.9a17.435,17.435,0,0,1-.782-3.3c-.348-1.969-.973-2.426-2.348-1.706l-1.43.823v6.829l-1.518.881Zm1.518,6.312,1.551-.891a5.3,5.3,0,0,0,2.642-4.506c0-2.029-1.095-2.29-2.7-1.4a8.494,8.494,0,0,0-1.5,1.043Z" transform="translate(-298.068 -678.466)" fill="#fff"/>
        <path id="Path_9153" data-name="Path 9153" d="M317.978,728.02l-4.51,2.594v5.652l5.024-2.905v1.693l-6.528,3.784v-15.7l6.271-3.578v1.7l-4.767,2.724v4.957l4.51-2.59Z" transform="translate(-293.26 -681.674)" fill="#fff"/>
        <path id="Path_9154" data-name="Path 9154" d="M316.081,720.442a22.348,22.348,0,0,1,2.856-1.93c1.469-.837,2.541-.988,3.222-.545.63.381,1,1.3,1,2.681a8.379,8.379,0,0,1-.885,3.833,8.938,8.938,0,0,1-3.508,3.73,4.917,4.917,0,0,1-1.2.549v6.253l-1.49.862Zm1.49,6.674a4.638,4.638,0,0,0,1.23-.545,5.622,5.622,0,0,0,2.88-4.981c0-2.056-1.072-2.438-2.71-1.5a8.232,8.232,0,0,0-1.4.961Z" transform="translate(-288.906 -683.62)" fill="#fff"/>
        <path id="Path_9155" data-name="Path 9155" d="M322.091,727.834,320.9,733.41l-1.529.885,3.884-17.776,1.776-1.012,3.876,13.267-1.566.907-1.214-4.175Zm3.736-3.718-1.113-3.823c-.255-.868-.422-1.693-.59-2.494l-.035.019c-.171,1.018-.356,2.07-.574,3.138l-1.119,5.135Z" transform="translate(-285.423 -685.965)" fill="#fff"/>
        <path id="Path_9156" data-name="Path 9156" d="M327.238,730.629v-6.555l-3.578-6.858,1.664-.948,1.595,3.358c.436.918.77,1.667,1.123,2.541l.033-.021c.317-1.191.7-2.42,1.138-3.835l1.619-5.185,1.652-.942L328.711,723.2v6.574Z" transform="translate(-280.891 -689.478)" fill="#fff"/>
        <path id="Path_9157" data-name="Path 9157" d="M338.047,718.145c-.08-2.088-.181-4.6-.165-6.516l-.049.027c-.379,2.012-.839,4.187-1.4,6.623l-1.965,8.573-1.093.634-1.8-6.275c-.531-1.862-.981-3.59-1.3-5.234l-.033.018c-.033,1.936-.117,4.561-.216,6.926l-.3,6.769-1.381.8.782-15.846,1.843-1.051,1.907,6.341c.463,1.625.844,3.092,1.125,4.524l.049-.029c.282-1.712.677-3.625,1.173-5.845l1.979-8.549,1.827-1.041.691,14.9-1.4.811Z" transform="translate(-275.934 -692.852)" fill="#fff"/>
        <path id="Path_9158" data-name="Path 9158" d="M340.652,714.771l-4.277,2.459v5.5l4.765-2.755v1.65l-6.191,3.586V709.934l5.946-3.393v1.65l-4.52,2.584V715.6l4.277-2.457Z" transform="translate(-268.954 -695.445)" fill="#fff"/>
        <path id="Path_9159" data-name="Path 9159" d="M338.853,723.571V708.36l1.541-.879,3.494,5.679a26.366,26.366,0,0,1,1.951,3.8l.033-.039c-.13-1.951-.161-3.775-.161-6.133v-6.339l1.319-.753v15.137l-1.416.821-3.454-5.7a29.215,29.215,0,0,1-2.041-3.9l-.049.049c.082,1.87.113,3.677.113,6.2V722.8Z" transform="translate(-264.825 -698.454)" fill="#fff"/>
        <path id="Path_9160" data-name="Path 9160" d="M346.7,705.483l-3.286,1.876V705.7l7.977-4.551V702.8l-3.284,1.877v13.429l-1.407.815Z" transform="translate(-260 -701.148)" fill="#fff"/>
      </g>
    </g>
    <g id="Perspective_Text-2" data-name="Perspective Text" transform="translate(423.473 531.448)">
      <g id="Group_2466" data-name="Group 2466" transform="translate(0 0)">
        <path id="Path_9167" data-name="Path 9167" d="M398.19,705.982l-6.022-23.947,2.575-1.47,2.873,11.855c.8,3.237,1.478,6.177,1.969,9.1l.055-.028c.519-3.471,1.284-7.358,2.1-11.4l3.106-15.29,2.532-1.443-6.565,31.107Z" transform="translate(-392.168 -656.292)" fill="#fff"/>
        <path id="Path_9168" data-name="Path 9168" d="M396.509,676.345a32.5,32.5,0,0,1,4.525-3.106c2.326-1.323,4.026-1.49,5.107-.65,1,.721,1.589,2.358,1.589,4.775a15.3,15.3,0,0,1-1.4,6.617,13.883,13.883,0,0,1-5.563,6.189,7.2,7.2,0,0,1-1.894.852v10.924l-2.361,1.367Zm2.361,11.8a6.883,6.883,0,0,0,1.949-.836,9.4,9.4,0,0,0,4.564-8.44c0-3.594-1.7-4.358-4.295-2.876a11.9,11.9,0,0,0-2.219,1.553Z" transform="translate(-379.309 -660.093)" fill="#fff"/>
        <path id="Path_9169" data-name="Path 9169" d="M400.138,703.937V676.776l2.552-1.454,5.789,10.4a51.239,51.239,0,0,1,3.233,6.934l.052-.071c-.214-3.487-.265-6.751-.265-10.967V670.3l2.187-1.248v27.042l-2.35,1.359-5.721-10.44a56.63,56.63,0,0,1-3.38-7.12l-.079.087c.135,3.344.186,6.573.186,11.087v11.6Z" transform="translate(-368.559 -669.05)" fill="#fff"/>
      </g>
    </g>
    <g id="tokens" transform="translate(442.27 624.035)">
      <g id="Group_2468" data-name="Group 2468" transform="translate(8.759 15.329)">
        <g id="Group_2254" data-name="Group 2254">
          <g id="Group_2239" data-name="Group 2239" transform="translate(0 4.596)">
            <path id="Path_1658" data-name="Path 1658" d="M131.362,228.993a15.827,15.827,0,0,0-5.863-5.422c-9.584-5.534-25.125-5.534-34.709,0a15.827,15.827,0,0,0-5.863,5.422H83.6v5.015h.018c.177,3.486,2.562,6.942,7.172,9.6,9.584,5.534,25.125,5.534,34.709,0,4.609-2.661,6.995-6.117,7.172-9.6h.018v-5.015Z" transform="translate(-83.601 -219.421)" fill="#d51f5d"/>
            <path id="Path_1659" data-name="Path 1659" d="M131.362,228.993a15.827,15.827,0,0,0-5.863-5.422c-9.584-5.534-25.125-5.534-34.709,0a15.827,15.827,0,0,0-5.863,5.422H83.6v5.015h.018c.177,3.486,2.562,6.942,7.172,9.6,9.584,5.534,25.125,5.534,34.709,0,4.609-2.661,6.995-6.117,7.172-9.6h.018v-5.015Z" transform="translate(-83.601 -219.421)" fill="#f5f5f5" opacity="0.5"/>
          </g>
          <g id="Group_2244" data-name="Group 2244" transform="translate(0)">
            <g id="Group_2240" data-name="Group 2240">
              <path id="Path_1660" data-name="Path 1660" d="M125.5,218.343c-9.584-5.533-25.125-5.533-34.709,0s-9.585,14.506,0,20.04,25.125,5.534,34.709,0S135.085,223.877,125.5,218.343Z" transform="translate(-83.601 -214.193)" fill="#d51f5d"/>
              <path id="Path_1661" data-name="Path 1661" d="M125.5,218.343c-9.584-5.533-25.125-5.533-34.709,0s-9.585,14.506,0,20.04,25.125,5.534,34.709,0S135.085,223.877,125.5,218.343Z" transform="translate(-83.601 -214.193)" fill="#f5f5f5" opacity="0.6"/>
            </g>
            <g id="Group_2243" data-name="Group 2243" transform="translate(1.07 1.066)">
              <g id="Group_2241" data-name="Group 2241" transform="translate(7.19 4.34)">
                <path id="Path_1662" data-name="Path 1662" d="M120.584,222.754a27.69,27.69,0,0,0-22.6,0C94.768,224.4,93,226.659,93,229.108s1.769,4.7,4.983,6.352a27.654,27.654,0,0,0,22.6,0c3.209-1.647,4.979-3.9,4.979-6.352S123.793,224.4,120.584,222.754Z" transform="translate(-92.999 -220.343)" fill="#d51f5d"/>
                <path id="Path_1663" data-name="Path 1663" d="M120.584,222.754a27.69,27.69,0,0,0-22.6,0C94.768,224.4,93,226.659,93,229.108s1.769,4.7,4.983,6.352a27.654,27.654,0,0,0,22.6,0c3.209-1.647,4.979-3.9,4.979-6.352S123.793,224.4,120.584,222.754Z" transform="translate(-92.999 -220.343)" fill="#f5f5f5" opacity="0.6"/>
              </g>
              <g id="Group_2242" data-name="Group 2242">
                <path id="Path_1664" data-name="Path 1664" d="M125.114,219.416a34.218,34.218,0,0,0-16.823-4.011,34.192,34.192,0,0,0-16.818,4.011c-4.294,2.479-6.655,5.7-6.655,9.095s2.361,6.617,6.655,9.1a34.248,34.248,0,0,0,16.818,4.006,34.274,34.274,0,0,0,16.823-4.006c4.288-2.479,6.654-5.709,6.654-9.1S129.4,221.895,125.114,219.416Zm-5.52,15.446a27.654,27.654,0,0,1-22.6,0c-3.214-1.647-4.983-3.9-4.983-6.352s1.769-4.708,4.983-6.354a27.691,27.691,0,0,1,22.6,0c3.209,1.646,4.979,3.905,4.979,6.354S122.8,233.215,119.594,234.862Z" transform="translate(-84.819 -215.405)" fill="#d51f5d"/>
                <path id="Path_1665" data-name="Path 1665" d="M125.114,219.416a34.218,34.218,0,0,0-16.823-4.011,34.192,34.192,0,0,0-16.818,4.011c-4.294,2.479-6.655,5.7-6.655,9.095s2.361,6.617,6.655,9.1a34.248,34.248,0,0,0,16.818,4.006,34.274,34.274,0,0,0,16.823-4.006c4.288-2.479,6.654-5.709,6.654-9.1S129.4,221.895,125.114,219.416Zm-5.52,15.446a27.654,27.654,0,0,1-22.6,0c-3.214-1.647-4.983-3.9-4.983-6.352s1.769-4.708,4.983-6.354a27.691,27.691,0,0,1,22.6,0c3.209,1.646,4.979,3.905,4.979,6.354S122.8,233.215,119.594,234.862Z" transform="translate(-84.819 -215.405)" fill="#f5f5f5" opacity="0.7"/>
              </g>
            </g>
          </g>
        </g>
      </g>
      <g id="Group_2467" data-name="Group 2467" transform="translate(6.57 8.759)">
        <g id="Group_2254-2" data-name="Group 2254">
          <g id="Group_2239-2" data-name="Group 2239" transform="translate(0 4.596)">
            <path id="Path_1658-2" data-name="Path 1658" d="M131.362,228.993a15.827,15.827,0,0,0-5.863-5.422c-9.584-5.534-25.125-5.534-34.709,0a15.827,15.827,0,0,0-5.863,5.422H83.6v5.015h.018c.177,3.486,2.562,6.942,7.172,9.6,9.584,5.534,25.125,5.534,34.709,0,4.609-2.661,6.995-6.117,7.172-9.6h.018v-5.015Z" transform="translate(-83.601 -219.421)" fill="#d51f5d"/>
            <path id="Path_1659-2" data-name="Path 1659" d="M131.362,228.993a15.827,15.827,0,0,0-5.863-5.422c-9.584-5.534-25.125-5.534-34.709,0a15.827,15.827,0,0,0-5.863,5.422H83.6v5.015h.018c.177,3.486,2.562,6.942,7.172,9.6,9.584,5.534,25.125,5.534,34.709,0,4.609-2.661,6.995-6.117,7.172-9.6h.018v-5.015Z" transform="translate(-83.601 -219.421)" fill="#f5f5f5" opacity="0.5"/>
          </g>
          <g id="Group_2244-2" data-name="Group 2244" transform="translate(0)">
            <g id="Group_2240-2" data-name="Group 2240">
              <path id="Path_1660-2" data-name="Path 1660" d="M125.5,218.343c-9.584-5.533-25.125-5.533-34.709,0s-9.585,14.506,0,20.04,25.125,5.534,34.709,0S135.085,223.877,125.5,218.343Z" transform="translate(-83.601 -214.193)" fill="#d51f5d"/>
              <path id="Path_1661-2" data-name="Path 1661" d="M125.5,218.343c-9.584-5.533-25.125-5.533-34.709,0s-9.585,14.506,0,20.04,25.125,5.534,34.709,0S135.085,223.877,125.5,218.343Z" transform="translate(-83.601 -214.193)" fill="#f5f5f5" opacity="0.6"/>
            </g>
            <g id="Group_2243-2" data-name="Group 2243" transform="translate(1.07 1.066)">
              <g id="Group_2241-2" data-name="Group 2241" transform="translate(7.19 4.34)">
                <path id="Path_1662-2" data-name="Path 1662" d="M120.584,222.754a27.69,27.69,0,0,0-22.6,0C94.768,224.4,93,226.659,93,229.108s1.769,4.7,4.983,6.352a27.654,27.654,0,0,0,22.6,0c3.209-1.647,4.979-3.9,4.979-6.352S123.793,224.4,120.584,222.754Z" transform="translate(-92.999 -220.343)" fill="#d51f5d"/>
                <path id="Path_1663-2" data-name="Path 1663" d="M120.584,222.754a27.69,27.69,0,0,0-22.6,0C94.768,224.4,93,226.659,93,229.108s1.769,4.7,4.983,6.352a27.654,27.654,0,0,0,22.6,0c3.209-1.647,4.979-3.9,4.979-6.352S123.793,224.4,120.584,222.754Z" transform="translate(-92.999 -220.343)" fill="#f5f5f5" opacity="0.6"/>
              </g>
              <g id="Group_2242-2" data-name="Group 2242">
                <path id="Path_1664-2" data-name="Path 1664" d="M125.114,219.416a34.218,34.218,0,0,0-16.823-4.011,34.192,34.192,0,0,0-16.818,4.011c-4.294,2.479-6.655,5.7-6.655,9.095s2.361,6.617,6.655,9.1a34.248,34.248,0,0,0,16.818,4.006,34.274,34.274,0,0,0,16.823-4.006c4.288-2.479,6.654-5.709,6.654-9.1S129.4,221.895,125.114,219.416Zm-5.52,15.446a27.654,27.654,0,0,1-22.6,0c-3.214-1.647-4.983-3.9-4.983-6.352s1.769-4.708,4.983-6.354a27.691,27.691,0,0,1,22.6,0c3.209,1.646,4.979,3.905,4.979,6.354S122.8,233.215,119.594,234.862Z" transform="translate(-84.819 -215.405)" fill="#d51f5d"/>
                <path id="Path_1665-2" data-name="Path 1665" d="M125.114,219.416a34.218,34.218,0,0,0-16.823-4.011,34.192,34.192,0,0,0-16.818,4.011c-4.294,2.479-6.655,5.7-6.655,9.095s2.361,6.617,6.655,9.1a34.248,34.248,0,0,0,16.818,4.006,34.274,34.274,0,0,0,16.823-4.006c4.288-2.479,6.654-5.709,6.654-9.1S129.4,221.895,125.114,219.416Zm-5.52,15.446a27.654,27.654,0,0,1-22.6,0c-3.214-1.647-4.983-3.9-4.983-6.352s1.769-4.708,4.983-6.354a27.691,27.691,0,0,1,22.6,0c3.209,1.646,4.979,3.905,4.979,6.354S122.8,233.215,119.594,234.862Z" transform="translate(-84.819 -215.405)" fill="#f5f5f5" opacity="0.7"/>
              </g>
            </g>
          </g>
        </g>
      </g>
      <g id="Group_2255" data-name="Group 2255" transform="translate(0)">
        <g id="Group_2254-3" data-name="Group 2254">
          <g id="Group_2239-3" data-name="Group 2239" transform="translate(0 4.596)">
            <path id="Path_1658-3" data-name="Path 1658" d="M131.362,228.993a15.827,15.827,0,0,0-5.863-5.422c-9.584-5.534-25.125-5.534-34.709,0a15.827,15.827,0,0,0-5.863,5.422H83.6v5.015h.018c.177,3.486,2.562,6.942,7.172,9.6,9.584,5.534,25.125,5.534,34.709,0,4.609-2.661,6.995-6.117,7.172-9.6h.018v-5.015Z" transform="translate(-83.601 -219.421)" fill="#d51f5d"/>
            <path id="Path_1659-3" data-name="Path 1659" d="M131.362,228.993a15.827,15.827,0,0,0-5.863-5.422c-9.584-5.534-25.125-5.534-34.709,0a15.827,15.827,0,0,0-5.863,5.422H83.6v5.015h.018c.177,3.486,2.562,6.942,7.172,9.6,9.584,5.534,25.125,5.534,34.709,0,4.609-2.661,6.995-6.117,7.172-9.6h.018v-5.015Z" transform="translate(-83.601 -219.421)" fill="#f5f5f5" opacity="0.5"/>
          </g>
          <g id="Group_2244-3" data-name="Group 2244" transform="translate(0)">
            <g id="Group_2240-3" data-name="Group 2240">
              <path id="Path_1660-3" data-name="Path 1660" d="M125.5,218.343c-9.584-5.533-25.125-5.533-34.709,0s-9.585,14.506,0,20.04,25.125,5.534,34.709,0S135.085,223.877,125.5,218.343Z" transform="translate(-83.601 -214.193)" fill="#d51f5d"/>
              <path id="Path_1661-3" data-name="Path 1661" d="M125.5,218.343c-9.584-5.533-25.125-5.533-34.709,0s-9.585,14.506,0,20.04,25.125,5.534,34.709,0S135.085,223.877,125.5,218.343Z" transform="translate(-83.601 -214.193)" fill="#f5f5f5" opacity="0.6"/>
            </g>
            <g id="Group_2243-3" data-name="Group 2243" transform="translate(1.07 1.066)">
              <g id="Group_2241-3" data-name="Group 2241" transform="translate(7.19 4.34)">
                <path id="Path_1662-3" data-name="Path 1662" d="M120.584,222.754a27.69,27.69,0,0,0-22.6,0C94.768,224.4,93,226.659,93,229.108s1.769,4.7,4.983,6.352a27.654,27.654,0,0,0,22.6,0c3.209-1.647,4.979-3.9,4.979-6.352S123.793,224.4,120.584,222.754Z" transform="translate(-92.999 -220.343)" fill="#d51f5d"/>
                <path id="Path_1663-3" data-name="Path 1663" d="M120.584,222.754a27.69,27.69,0,0,0-22.6,0C94.768,224.4,93,226.659,93,229.108s1.769,4.7,4.983,6.352a27.654,27.654,0,0,0,22.6,0c3.209-1.647,4.979-3.9,4.979-6.352S123.793,224.4,120.584,222.754Z" transform="translate(-92.999 -220.343)" fill="#f5f5f5" opacity="0.6"/>
              </g>
              <g id="Group_2242-3" data-name="Group 2242">
                <path id="Path_1664-3" data-name="Path 1664" d="M125.114,219.416a34.218,34.218,0,0,0-16.823-4.011,34.192,34.192,0,0,0-16.818,4.011c-4.294,2.479-6.655,5.7-6.655,9.095s2.361,6.617,6.655,9.1a34.248,34.248,0,0,0,16.818,4.006,34.274,34.274,0,0,0,16.823-4.006c4.288-2.479,6.654-5.709,6.654-9.1S129.4,221.895,125.114,219.416Zm-5.52,15.446a27.654,27.654,0,0,1-22.6,0c-3.214-1.647-4.983-3.9-4.983-6.352s1.769-4.708,4.983-6.354a27.691,27.691,0,0,1,22.6,0c3.209,1.646,4.979,3.905,4.979,6.354S122.8,233.215,119.594,234.862Z" transform="translate(-84.819 -215.405)" fill="#d51f5d"/>
                <path id="Path_1665-3" data-name="Path 1665" d="M125.114,219.416a34.218,34.218,0,0,0-16.823-4.011,34.192,34.192,0,0,0-16.818,4.011c-4.294,2.479-6.655,5.7-6.655,9.095s2.361,6.617,6.655,9.1a34.248,34.248,0,0,0,16.818,4.006,34.274,34.274,0,0,0,16.823-4.006c4.288-2.479,6.654-5.709,6.654-9.1S129.4,221.895,125.114,219.416Zm-5.52,15.446a27.654,27.654,0,0,1-22.6,0c-3.214-1.647-4.983-3.9-4.983-6.352s1.769-4.708,4.983-6.354a27.691,27.691,0,0,1,22.6,0c3.209,1.646,4.979,3.905,4.979,6.354S122.8,233.215,119.594,234.862Z" transform="translate(-84.819 -215.405)" fill="#f5f5f5" opacity="0.7"/>
              </g>
            </g>
          </g>
        </g>
      </g>
    </g>
  </g>
</svg>
