<svg xmlns="http://www.w3.org/2000/svg" width="16" height="16" viewBox="0 0 16 16"><rect width="16" height="16" fill="none"/><g transform="translate(-3 -956.362)"><path d="M9.722,958.362a.268.268,0,0,0-.243.268v1.606H6.243A.268.268,0,0,0,6,960.5v9.367a.268.268,0,0,0,.268.268h7.493a.268.268,0,0,0,.268-.268v-2.409h2.409a.268.268,0,0,0,.268-.268V958.63a.268.268,0,0,0-.268-.268H9.722Zm.293.535H16.17v8.028H14.029V960.5a.268.268,0,0,0-.268-.268H10.014Zm-3.479,1.873h6.958V969.6H6.535Z" transform="translate(0 0)" fill="#d51f5d"/></g></svg>