<svg xmlns="http://www.w3.org/2000/svg" width="18.1" height="18.1" viewBox="0 0 18.1 18.1"><g transform="translate(2957.05 838.05)"><path d="M15.75,12.75H2.25A2.253,2.253,0,0,1,0,10.5V2.25A2.253,2.253,0,0,1,2.25,0h13.5A2.253,2.253,0,0,1,18,2.25V10.5A2.253,2.253,0,0,1,15.75,12.75Z" transform="translate(-2957 -838)" fill="#fff" stroke="#fff" stroke-width="0.1"/><path d="M26.5,79.75h-9a1.5,1.5,0,0,1-1.5-1.5V77.5A1.5,1.5,0,0,1,17.5,76h9A1.5,1.5,0,0,1,28,77.5v.75A1.5,1.5,0,0,1,26.5,79.75Z" transform="translate(-2970 -899.75)" fill="#fff" stroke="#fff" stroke-width="0.1"/><path d="M42.625,67h-2.25A.376.376,0,0,1,40,66.625v-2.25A.376.376,0,0,1,40.375,64h2.25a.376.376,0,0,1,.375.375v2.25A.376.376,0,0,1,42.625,67Zm-1.875-.75h1.5v-1.5h-1.5Z" transform="translate(-2989.5 -890)" fill="#fff" stroke="#fff" stroke-width="0.1"/><path d="M4.625,84.75H2.375a.375.375,0,0,1,0-.75h2.25a.375.375,0,0,1,0,.75Z" transform="translate(-2958.625 -906.25)" fill="#fff" stroke="#fff" stroke-width="0.1"/><path d="M80.625,84.75h-2.25a.375.375,0,0,1,0-.75h2.25a.375.375,0,0,1,0,.75Z" transform="translate(-3020.375 -906.25)" fill="#fff" stroke="#fff" stroke-width="0.1"/><path d="M22.625,17H8.375A.376.376,0,0,1,8,16.625V8.375A.375.375,0,0,1,8.375,8h14.25A.376.376,0,0,1,23,8.375v8.25A.376.376,0,0,1,22.625,17Z" transform="translate(-2963.5 -844.5)" fill="#d61f5d" stroke="#fff" stroke-width="0.1"/></g></svg>