<svg xmlns="http://www.w3.org/2000/svg" width="18" height="18.4" viewBox="0 0 18 18.4"><g transform="translate(-29 -116.8)"><rect width="18" height="18" transform="translate(29 117)" fill="none"/><path d="M184.687,63.976l-1.545-.889a1.361,1.361,0,1,1,.274-.472l1.545.889,3.516-2.024V59.7a1.368,1.368,0,1,1,.547,0v1.779L192.54,63.5l1.545-.889a1.368,1.368,0,1,1,.273.472l-1.545.889v4.049l1.545.889a1.361,1.361,0,1,1-.273.472L192.54,68.5l-3.516,2.024V72.3a1.368,1.368,0,1,1-.547,0V70.521L184.961,68.5l-1.545.889a1.368,1.368,0,1,1-.274-.472l1.545-.889Zm4.063-2.024-3.516,2.024v4.049l3.516,2.024,3.516-2.024V63.976Z" transform="translate(-150.751 60)" fill="#fff" stroke="#fff" stroke-width="0.4"/></g></svg>