<svg xmlns="http://www.w3.org/2000/svg" width="24" height="24" viewBox="0 0 24 24"><rect width="24" height="24" fill="none"/><g transform="translate(2.428 -2.7)"><path d="M3.475,13.654l-.885-2.92a.491.491,0,0,1,.339-.61h0a.5.5,0,0,1,.619.334l.516,1.7a6.115,6.115,0,0,1,11.205.436.5.5,0,0,1-.457.668.512.512,0,0,1-.472-.32,5.126,5.126,0,0,0-9.465-.218l1.887-.567a.5.5,0,0,1,.619.334h0a.491.491,0,0,1-.339.61l-2.963.872A.5.5,0,0,1,3.475,13.654Z" transform="translate(0 0)" fill="#fff"/><path d="M22.858,58.42l-.516-1.7a6.132,6.132,0,0,1-11.22-.45.5.5,0,0,1,.457-.668.512.512,0,0,1,.472.32,5.126,5.126,0,0,0,9.465.218l-1.887.567a.5.5,0,0,1-.619-.334.491.491,0,0,1,.339-.61l2.963-.872a.5.5,0,0,1,.619.334l.885,2.92a.491.491,0,0,1-.339.61h0A.5.5,0,0,1,22.858,58.42Z" transform="translate(-7.264 -39.464)" fill="#fff"/></g></svg>