<svg xmlns="http://www.w3.org/2000/svg" width="24" height="24" viewBox="0 0 24 24"><g transform="translate(6 5)"><g transform="translate(-6 -5)" fill="rgba(255,255,255,0)" stroke="rgba(0,0,0,0)" stroke-width="1"></g><g transform="translate(0.796 2)"><path d="M13.665,12.913a.54.54,0,1,0-.65.862,4.827,4.827,0,1,1-5.8-.009.54.54,0,1,0-.65-.862,5.914,5.914,0,1,0,9.463,4.732,5.867,5.867,0,0,0-2.365-4.723Z" transform="translate(-5 -12.549)" fill="#453f5a"/><path d="M44.9,8.965a.54.54,0,0,0,.54-.54V4.1a.54.54,0,1,0-1.08,0V8.425A.54.54,0,0,0,44.9,8.965Z" transform="translate(-39.734 -4.564)" fill="#453f5a"/></g></g></svg>
