<svg xmlns="http://www.w3.org/2000/svg" xmlns:xlink="http://www.w3.org/1999/xlink" width="499.856" height="315.168" viewBox="0 0 499.856 315.168">
  <defs>
    <clipPath id="clip-path">
      <path id="Path_1567" data-name="Path 1567" d="M232.106,167.371c-1.327.763-3.46,2-4.853,2.631-8.534,3.846-20,4.19-28.013.84a22.741,22.741,0,0,1-4.754-2.786c-5.582-4.587-5-11.077,1.481-15.94,1.228-.918,3.383-2.134,4.7-2.9L340.31,68.6c1.161-.674,1.348-1.68.531-2.4A5.252,5.252,0,0,1,342.7,69.98l29.044,16.766Z" transform="translate(-190.672 -66.198)" fill="none"/>
    </clipPath>
  </defs>
  <g id="illustration-new-wallet" transform="translate(-22.316 -143.467)">
    <g id="Floor" transform="translate(22.316 197.504)">
      <g id="Group_2138" data-name="Group 2138">
        <path id="Path_1532" data-name="Path 1532" d="M95.518,410.284c97.6,50.989,255.85,50.99,353.452,0s97.6-133.658,0-184.647-255.85-50.99-353.453,0S-2.085,359.295,95.518,410.284Z" transform="translate(-22.316 -187.395)" fill="#f3f2f5"/>
      </g>
    </g>
    <g id="Shadows" transform="translate(85.306 234.109)">
      <path id="Path_1534" data-name="Path 1534" d="M374.119,310.885c-13.087-7.557-34.307-7.557-47.395,0s-13.088,19.806,0,27.363,34.308,7.557,47.4,0S387.207,318.44,374.119,310.885Z" transform="translate(-60.882 -164.231)" fill="#e0e0e0"/>
      <path id="Path_1535" data-name="Path 1535" d="M137.694,226.864c-13.088-7.555-34.308-7.555-47.395,0s-13.088,19.807,0,27.364,34.307,7.555,47.395,0S150.782,234.42,137.694,226.864Z" transform="translate(-80.483 -221.197)" fill="#e0e0e0"/>
      <path id="Path_1536" data-name="Path 1536" d="M421,254.138c-13.087-7.557-34.307-7.557-47.395,0s-13.088,19.807,0,27.364,34.308,7.557,47.4,0S434.083,261.694,421,254.138Z" transform="translate(-56.995 -218.936)" fill="#e0e0e0"/>
    </g>
    <g id="Plants" transform="translate(76.237 192.6)">
      <g id="Group_2146" data-name="Group 2146" transform="translate(0 113.543)">
        <g id="Group_2141" data-name="Group 2141" transform="translate(16.951)">
          <g id="Group_2139" data-name="Group 2139">
            <path id="Path_1537" data-name="Path 1537" d="M140.154,345.15a97.385,97.385,0,0,0-6.574-27.977c-5.839-14.411-15.967-26.1-28.9-28.837s-17.86,4.025-16.773,11.673,11.96,13.468,19.255,19.889,20.919,21.942,24.705,36.939l7.294.8Z" transform="translate(-87.762 -287.716)" fill="#d51f5d"/>
            <path id="Path_1538" data-name="Path 1538" d="M140.154,345.15a97.385,97.385,0,0,0-6.574-27.977c-5.839-14.411-15.967-26.1-28.9-28.837s-17.86,4.025-16.773,11.673,11.96,13.468,19.255,19.889,20.919,21.942,24.705,36.939l7.294.8Z" transform="translate(-87.762 -287.716)" opacity="0.2"/>
          </g>
          <g id="Group_2140" data-name="Group 2140" transform="translate(9.716 3.63)">
            <path id="Path_1539" data-name="Path 1539" d="M135.718,357.4h-.036a.542.542,0,0,1-.506-.575c1.647-25.706-15.1-54.135-38.126-64.721a.541.541,0,1,1,.453-.983c23.406,10.76,40.429,39.652,38.754,65.774A.541.541,0,0,1,135.718,357.4Z" transform="translate(-96.735 -291.069)" fill="#f5f5f5"/>
          </g>
        </g>
        <g id="Group_2145" data-name="Group 2145" transform="translate(0 42.045)">
          <path id="Path_1540" data-name="Path 1540" d="M140.962,399.734s-7.539,4.766-19.318,2.739-14.287-10.034-15.292-17.965-6.793-4.312-14.68-7.579-9.2-11.367-7.438-17.46a17.977,17.977,0,0,1,3.955-7.118s-5.573-2.444-10.616-10.9a79.983,79.983,0,0,1-5.464-11.881s6.412-4.895,19.073-2.241a32.1,32.1,0,0,1,11.747,5.29s6.948-7.807,16.343-4.934a10.729,10.729,0,0,1,6.875,6.637,31.416,31.416,0,0,0,1.541,3.844,6.491,6.491,0,0,0,4.8,2.7c4.477.641,8.623-.108,12.787,2.181a13,13,0,0,1,4.653,5.2C156.052,359.057,140.962,399.734,140.962,399.734Z" transform="translate(-72.109 -326.543)" fill="#d51f5d"/>
          <g id="Group_2142" data-name="Group 2142" transform="translate(6.282 3.703)">
            <path id="Path_1541" data-name="Path 1541" d="M145.653,384.111a.541.541,0,0,1-.461-.258C126.8,353.991,97.664,336.729,78.3,331.022a.541.541,0,0,1,.306-1.039c19.55,5.761,48.96,23.178,67.51,53.3a.54.54,0,0,1-.178.744A.53.53,0,0,1,145.653,384.111Z" transform="translate(-77.91 -329.962)" fill="#f5f5f5"/>
          </g>
          <g id="Group_2143" data-name="Group 2143" transform="translate(24.842 25.272)">
            <path id="Path_1542" data-name="Path 1542" d="M95.59,359a.541.541,0,0,1-.358-.948c.369-.326,9.169-7.97,21.129-8.171a.523.523,0,0,1,.551.533.541.541,0,0,1-.532.55c-11.565.194-20.345,7.823-20.431,7.9A.538.538,0,0,1,95.59,359Z" transform="translate(-95.049 -349.88)" fill="#f5f5f5"/>
          </g>
          <g id="Group_2144" data-name="Group 2144" transform="translate(38.589 6.347)">
            <path id="Path_1543" data-name="Path 1543" d="M108.421,347.191a.54.54,0,0,1-.537-.481,27.726,27.726,0,0,1,2.4-14.007.542.542,0,0,1,.971.481,27.111,27.111,0,0,0-2.3,13.405.542.542,0,0,1-.479.6A.561.561,0,0,1,108.421,347.191Z" transform="translate(-107.744 -332.404)" fill="#f5f5f5"/>
          </g>
        </g>
      </g>
      <g id="Group_2154" data-name="Group 2154" transform="translate(363.636)">
        <g id="Group_2148" data-name="Group 2148">
          <path id="Path_1544" data-name="Path 1544" d="M410.749,241.609s-4.428-14.448-2.233-28.113,8.7-24.432,17.179-28.948,19.084.473,12.106,10.11-21.2,22.563-19.85,46.654Z" transform="translate(-407.905 -182.866)" fill="#070023"/>
          <g id="Group_2147" data-name="Group 2147" transform="translate(4.438 3.209)">
            <path id="Path_1545" data-name="Path 1545" d="M413.89,241.654a.435.435,0,0,1-.419-.322c-4.73-17.482,2.148-45.507,18.105-55.437a.434.434,0,1,1,.459.736c-15.649,9.739-22.378,37.28-17.726,54.475a.434.434,0,0,1-.305.533A.416.416,0,0,1,413.89,241.654Z" transform="translate(-412.004 -185.83)" fill="#f5f5f5"/>
          </g>
        </g>
        <g id="Group_2153" data-name="Group 2153" transform="translate(8.528 24.53)">
          <g id="Group_2149" data-name="Group 2149">
            <path id="Path_1546" data-name="Path 1546" d="M421.84,255.529a9.5,9.5,0,0,0,4.327,1.152,12.723,12.723,0,0,0,5.227-.791c2.964-1.118,5.444-2.819,6.192-6.024.591-2.528-.347-5.376.758-7.795,1.043-2.285,4.414-3.858,6.675-4.576,1.589-.5,3.256-.746,4.816-1.336A6.167,6.167,0,0,0,453.526,233c1.5-3.676-2.582-7.842-1.243-11.578.664-1.854,2.474-3,4.14-4.049s3.428-2.326,3.887-4.241a5.46,5.46,0,0,0-1.651-4.871c-2.97-3.074-7.969-3.371-11.962-1.845a37.091,37.091,0,0,1-3.778,1.465c-5.03,1.316-10.382-1.985-15.442-.792a9.152,9.152,0,0,0-6.677,6.762c-.245,1.1-.28,2.241-.536,3.34-.641,2.759-3.554,3.344-4.249,6.172-.629,2.556.17,5.25.61,7.77.677,3.874,1.436,7.733,2.239,11.583q.655,3.137,1.344,6.267c.424,1.919-.135,4.027.722,5.79A9.63,9.63,0,0,0,421.84,255.529Z" transform="translate(-415.78 -205.518)" fill="#27223c"/>
          </g>
          <g id="Group_2150" data-name="Group 2150" transform="translate(4.211 3.404)">
            <path id="Path_1547" data-name="Path 1547" d="M420.1,241.6a.478.478,0,0,1-.067-.005.436.436,0,0,1-.363-.495c2.172-14.092,21.966-30.752,34.608-32.439a.434.434,0,1,1,.115.86c-12.371,1.651-31.741,17.938-33.864,31.711A.436.436,0,0,1,420.1,241.6Z" transform="translate(-419.668 -208.661)" fill="#f5f5f5"/>
          </g>
          <g id="Group_2151" data-name="Group 2151" transform="translate(11.457 4.408)">
            <path id="Path_1548" data-name="Path 1548" d="M430.858,222.689a.435.435,0,0,1-.431-.394c-.789-8.6-3.915-11.938-3.946-11.97a.434.434,0,0,1,.624-.6c.138.141,3.365,3.551,4.187,12.495a.434.434,0,0,1-.392.472Z" transform="translate(-426.36 -209.589)" fill="#f5f5f5"/>
          </g>
          <g id="Group_2152" data-name="Group 2152" transform="translate(11.071 21.219)">
            <path id="Path_1549" data-name="Path 1549" d="M444.651,228.576a.43.43,0,0,1-.17-.035c-.1-.041-9.8-4.1-17.929-1.892a.434.434,0,0,1-.227-.838c8.425-2.288,18.089,1.759,18.5,1.931a.434.434,0,0,1-.17.834Z" transform="translate(-426.004 -225.112)" fill="#f5f5f5"/>
          </g>
        </g>
      </g>
    </g>
    <g id="Wallet" transform="translate(177.8 143.467)">
      <g id="Group_2172" data-name="Group 2172">
        <path id="Path_1550" data-name="Path 1550" d="M364.236,119.813l8.983,5.179v15.556l-8.983-5.185Z" transform="translate(-169.452 -60.961)" fill="#070023"/>
        <path id="Path_1551" data-name="Path 1551" d="M372.265,86.806l-29.039,16.767V70.04a4.5,4.5,0,0,0-6.884-3.974L192.693,149c-5.552,3.2-8.328,7.406-8.328,11.607v140c0,4.2,2.775,8.4,8.328,11.607l.2.119c11.1,6.411,29.106,6.411,40.209,0L376.756,229.4a5.306,5.306,0,0,0,2.393-4.145V88.016l-2.245-1.3A5.133,5.133,0,0,0,372.265,86.806Z" transform="translate(-184.365 -65.467)" fill="#d51f5d"/>
        <g id="Group_2155" data-name="Group 2155" transform="translate(0.034)">
          <path id="Path_1552" data-name="Path 1552" d="M192.69,172.216c-11.058-6.384-11.058-16.831,0-23.214L336.339,66.066a5.133,5.133,0,0,1,4.639-.087c1.24.717,1.173,1.916-.148,2.679L201.192,149.277c-1.322.763-3.48,1.983-4.7,2.9-6.48,4.867-7.068,11.356-1.485,15.945a22.864,22.864,0,0,0,4.754,2.783c8.01,3.346,19.484,3.009,28.012-.838,1.392-.628,3.53-1.876,4.853-2.639l139.639-80.62a5.131,5.131,0,0,1,4.638-.086c1.24.716,1.174,1.916-.148,2.678L233.1,172.335c-11.058,6.384-29.152,6.384-40.209,0Z" transform="translate(-184.397 -65.467)" fill="#d51f5d"/>
          <path id="Path_1553" data-name="Path 1553" d="M192.69,172.216c-11.058-6.384-11.058-16.831,0-23.214L336.339,66.066a5.133,5.133,0,0,1,4.639-.087c1.24.717,1.173,1.916-.148,2.679L201.192,149.277c-1.322.763-3.48,1.983-4.7,2.9-6.48,4.867-7.068,11.356-1.485,15.945a22.864,22.864,0,0,0,4.754,2.783c8.01,3.346,19.484,3.009,28.012-.838,1.392-.628,3.53-1.876,4.853-2.639l139.639-80.62a5.131,5.131,0,0,1,4.638-.086c1.24.716,1.174,1.916-.148,2.678L233.1,172.335c-11.058,6.384-29.152,6.384-40.209,0Z" transform="translate(-184.397 -65.467)" opacity="0.3"/>
        </g>
        <g id="Group_2163" data-name="Group 2163" transform="translate(2.286 37.544)">
          <g id="Group_2156" data-name="Group 2156" transform="translate(0 74.553)">
            <path id="Path_1554" data-name="Path 1554" d="M188.918,171.989a.543.543,0,0,1-.355-.133,17.714,17.714,0,0,1-1.961-1.985.542.542,0,0,1,.832-.694,16.531,16.531,0,0,0,1.84,1.862.542.542,0,0,1-.355.951Z" transform="translate(-186.476 -168.981)" fill="#f5f5f5"/>
          </g>
          <g id="Group_2157" data-name="Group 2157" transform="translate(6.411 4.089)">
            <path id="Path_1555" data-name="Path 1555" d="M214.083,184.816a.541.541,0,0,1-.018-1.082,47.557,47.557,0,0,0,5.372-.494.541.541,0,0,1,.16,1.071,48.4,48.4,0,0,1-5.495.5Zm-5.456-.109h-.042a47.428,47.428,0,0,1-5.47-.732.542.542,0,1,1,.208-1.063,46.642,46.642,0,0,0,5.344.716.541.541,0,0,1-.04,1.081Zm16.226-1.531a.541.541,0,0,1-.147-1.061,35.268,35.268,0,0,0,5.045-1.841.542.542,0,0,1,.45.985,36.171,36.171,0,0,1-5.2,1.9A.486.486,0,0,1,224.854,183.175Zm-26.908-.583a.537.537,0,0,1-.173-.028,32.984,32.984,0,0,1-5.091-2.2.541.541,0,1,1,.513-.953,32.147,32.147,0,0,0,4.924,2.124.541.541,0,0,1-.173,1.054Zm36.822-3.9a.541.541,0,0,1-.271-1.01l4.728-2.73a.541.541,0,0,1,.541.938l-4.728,2.73A.546.546,0,0,1,234.768,178.7Zm9.456-5.459a.542.542,0,0,1-.271-1.01l4.728-2.73a.541.541,0,0,1,.541.938l-4.728,2.73A.546.546,0,0,1,244.224,173.237Zm9.456-5.46a.541.541,0,0,1-.271-1.01l4.728-2.729a.541.541,0,0,1,.541.938l-4.728,2.729A.535.535,0,0,1,253.68,167.777Zm9.456-5.459a.542.542,0,0,1-.271-1.01l4.727-2.73a.541.541,0,1,1,.541.938l-4.727,2.73A.546.546,0,0,1,263.136,162.318Zm9.456-5.459a.541.541,0,0,1-.271-1.01l4.728-2.73a.541.541,0,0,1,.541.938l-4.728,2.73A.546.546,0,0,1,272.592,156.859Zm9.455-5.46a.541.541,0,0,1-.271-1.01l4.728-2.729a.541.541,0,0,1,.541.938l-4.728,2.729A.535.535,0,0,1,282.047,151.4Zm9.456-5.459a.542.542,0,0,1-.271-1.01l4.728-2.73a.541.541,0,0,1,.541.938l-4.728,2.73A.535.535,0,0,1,291.5,145.94Zm9.456-5.459a.541.541,0,0,1-.271-1.01l4.728-2.73a.541.541,0,1,1,.541.938l-4.728,2.73A.546.546,0,0,1,300.959,140.481Zm9.455-5.46a.542.542,0,0,1-.271-1.01l4.729-2.729a.541.541,0,0,1,.541.938l-4.729,2.729A.535.535,0,0,1,310.413,135.021Zm9.457-5.459a.541.541,0,0,1-.271-1.01l4.727-2.729a.541.541,0,0,1,.541.938l-4.727,2.729A.535.535,0,0,1,319.871,129.562Zm9.455-5.459a.542.542,0,0,1-.271-1.01l4.728-2.73a.541.541,0,0,1,.541.938l-4.728,2.73A.546.546,0,0,1,329.325,124.1Zm9.456-5.459a.541.541,0,0,1-.271-1.01l4.728-2.73a.541.541,0,0,1,.541.938l-4.728,2.73A.546.546,0,0,1,338.781,118.644Zm9.456-5.46a.541.541,0,0,1-.271-1.01l4.727-2.73a.542.542,0,0,1,.541.939l-4.727,2.729A.535.535,0,0,1,348.237,113.184Zm9.456-5.459a.542.542,0,0,1-.271-1.011l4.728-2.729a.541.541,0,0,1,.541.938l-4.728,2.73A.549.549,0,0,1,357.693,107.725Z" transform="translate(-192.397 -103.912)" fill="#f5f5f5"/>
          </g>
          <g id="Group_2158" data-name="Group 2158" transform="translate(180.632)">
            <path id="Path_1556" data-name="Path 1556" d="M356.165,103.926a.54.54,0,0,1-.541-.541v-1.769l-1.532.885a.541.541,0,1,1-.541-.938l2.344-1.354a.541.541,0,0,1,.812.469v2.707A.541.541,0,0,1,356.165,103.926Z" transform="translate(-353.279 -100.136)" fill="#f5f5f5"/>
          </g>
          <g id="Group_2159" data-name="Group 2159" transform="translate(182.977 8.129)">
            <path id="Path_1557" data-name="Path 1557" d="M355.985,211.746a.541.541,0,0,1-.541-.541v-5.422a.541.541,0,1,1,1.083,0V211.2A.542.542,0,0,1,355.985,211.746Zm0-10.844a.541.541,0,0,1-.541-.541v-5.422a.541.541,0,1,1,1.083,0v5.422A.542.542,0,0,1,355.985,200.9Zm0-10.844a.541.541,0,0,1-.541-.541v-5.422a.541.541,0,1,1,1.083,0v5.422A.542.542,0,0,1,355.985,190.058Zm0-10.844a.541.541,0,0,1-.541-.541V173.25a.541.541,0,1,1,1.083,0v5.422A.542.542,0,0,1,355.985,179.214Zm0-10.844a.541.541,0,0,1-.541-.541v-5.422a.541.541,0,1,1,1.083,0v5.422A.542.542,0,0,1,355.985,168.369Zm0-10.844a.541.541,0,0,1-.541-.541v-5.422a.541.541,0,1,1,1.083,0v5.422A.542.542,0,0,1,355.985,157.525Zm0-10.844a.541.541,0,0,1-.541-.541v-5.422a.541.541,0,1,1,1.083,0v5.422A.542.542,0,0,1,355.985,146.681Zm0-10.844a.541.541,0,0,1-.541-.541v-5.422a.541.541,0,1,1,1.083,0V135.3A.542.542,0,0,1,355.985,135.837Zm0-10.844a.541.541,0,0,1-.541-.541v-5.422a.541.541,0,0,1,1.083,0v5.422A.542.542,0,0,1,355.985,124.992Zm0-10.844a.541.541,0,0,1-.541-.541v-5.422a.541.541,0,0,1,1.083,0v5.422A.542.542,0,0,1,355.985,114.148Z" transform="translate(-355.444 -107.643)" fill="#f5f5f5"/>
          </g>
          <g id="Group_2160" data-name="Group 2160" transform="translate(180.632 116.572)">
            <path id="Path_1558" data-name="Path 1558" d="M353.82,212.927a.541.541,0,0,1-.271-1.01l2.074-1.2v-2.394a.541.541,0,1,1,1.083,0v2.707a.542.542,0,0,1-.271.469l-2.345,1.354A.546.546,0,0,1,353.82,212.927Z" transform="translate(-353.279 -207.783)" fill="#f5f5f5"/>
          </g>
          <g id="Group_2161" data-name="Group 2161" transform="translate(6.421 123.361)">
            <path id="Path_1559" data-name="Path 1559" d="M214.1,294.964a.542.542,0,0,1-.019-1.083,47.5,47.5,0,0,0,5.372-.494.541.541,0,1,1,.161,1.07,48.4,48.4,0,0,1-5.495.507Zm-5.456-.107a.266.266,0,0,1-.041,0,47.342,47.342,0,0,1-5.472-.73.542.542,0,0,1,.207-1.065,45.64,45.64,0,0,0,5.345.714.542.542,0,0,1-.039,1.083Zm16.223-1.536a.542.542,0,0,1-.147-1.063,35.283,35.283,0,0,0,5.045-1.841.541.541,0,0,1,.451.983,36.258,36.258,0,0,1-5.2,1.9A.544.544,0,0,1,224.864,293.321Zm-26.908-.577a.563.563,0,0,1-.173-.028,33.2,33.2,0,0,1-5.093-2.2.541.541,0,1,1,.514-.953,32.156,32.156,0,0,0,4.925,2.122.541.541,0,0,1-.173,1.054Zm36.822-3.907a.541.541,0,0,1-.271-1.01l4.727-2.729a.541.541,0,0,1,.541.937l-4.727,2.729A.536.536,0,0,1,234.778,288.837Zm9.455-5.459a.541.541,0,0,1-.271-1.01l4.728-2.729a.541.541,0,1,1,.541.937l-4.728,2.73A.546.546,0,0,1,244.233,283.378Zm9.456-5.459a.541.541,0,0,1-.271-1.01l4.728-2.73a.541.541,0,0,1,.541.937l-4.728,2.73A.542.542,0,0,1,253.689,277.919Zm9.456-5.46a.541.541,0,0,1-.271-1.01l4.727-2.729a.541.541,0,1,1,.541.937l-4.727,2.73A.546.546,0,0,1,263.145,272.459ZM272.6,267a.542.542,0,0,1-.271-1.01l4.729-2.729a.541.541,0,0,1,.541.937l-4.729,2.729A.536.536,0,0,1,272.6,267Zm9.456-5.459a.541.541,0,0,1-.271-1.01l4.728-2.729a.541.541,0,1,1,.541.937l-4.728,2.729A.536.536,0,0,1,282.056,261.541Zm9.456-5.46a.542.542,0,0,1-.271-1.01l4.728-2.729a.541.541,0,1,1,.541.937l-4.728,2.729A.536.536,0,0,1,291.512,256.081Zm9.456-5.459a.541.541,0,0,1-.271-1.01l4.728-2.73a.541.541,0,0,1,.541.938l-4.728,2.729A.536.536,0,0,1,300.968,250.622Zm9.456-5.46a.542.542,0,0,1-.271-1.01l4.727-2.729a.541.541,0,1,1,.541.938l-4.727,2.729A.535.535,0,0,1,310.424,245.162Zm9.456-5.459a.541.541,0,0,1-.271-1.01l4.728-2.73a.541.541,0,0,1,.541.938l-4.728,2.73A.538.538,0,0,1,319.88,239.7Zm9.455-5.459a.541.541,0,0,1-.271-1.01l4.728-2.73a.541.541,0,0,1,.541.938l-4.728,2.73A.546.546,0,0,1,329.334,234.244Zm9.456-5.459a.542.542,0,0,1-.271-1.01l4.728-2.73a.541.541,0,0,1,.541.938l-4.728,2.73A.546.546,0,0,1,338.79,228.785Zm9.456-5.46a.541.541,0,0,1-.271-1.01l4.728-2.729a.541.541,0,1,1,.541.938l-4.728,2.729A.535.535,0,0,1,348.246,223.325Zm9.455-5.459a.542.542,0,0,1-.271-1.01l4.729-2.73a.541.541,0,0,1,.541.938l-4.729,2.73A.546.546,0,0,1,357.7,217.866Z" transform="translate(-192.405 -214.052)" fill="#f5f5f5"/>
          </g>
          <g id="Group_2162" data-name="Group 2162" transform="translate(0 193.832)">
            <path id="Path_1560" data-name="Path 1560" d="M188.918,282.135a.542.542,0,0,1-.355-.132,17.809,17.809,0,0,1-1.961-1.985.542.542,0,0,1,.832-.7,16.362,16.362,0,0,0,1.84,1.863.541.541,0,0,1-.355.951Z" transform="translate(-186.476 -279.128)" fill="#f5f5f5"/>
          </g>
        </g>
        <g id="Group_2169" data-name="Group 2169" transform="translate(6.83 0.792)">
          <g id="Group_2168" data-name="Group 2168" clip-path="url(#clip-path)">
            <g id="Group_2167" data-name="Group 2167" transform="translate(-5.137 9.445)">
              <g id="Group_2164" data-name="Group 2164">
                <path id="Path_1561" data-name="Path 1561" d="M343.1,95.393V79.075a4.234,4.234,0,0,0-1.915-3.316l-.662-.382a4.237,4.237,0,0,0-3.829,0L185.928,162.42l22.453,12.961,132.8-76.671A4.231,4.231,0,0,0,343.1,95.393Z" transform="translate(-185.928 -74.92)" fill="#e0e0e0"/>
                <path id="Path_1562" data-name="Path 1562" d="M336.691,75.377,185.928,162.42l4.492,2.591L341.181,77.969a1.167,1.167,0,0,0,0-2.21l-.662-.382A4.237,4.237,0,0,0,336.691,75.377Z" transform="translate(-185.928 -74.92)" fill="#ebebeb"/>
              </g>
              <g id="Group_2165" data-name="Group 2165" transform="translate(8.982 5.184)">
                <path id="Path_1563" data-name="Path 1563" d="M351.39,100.182V83.863a4.232,4.232,0,0,0-1.916-3.317l-.661-.381a4.232,4.232,0,0,0-3.83,0L194.222,167.207l22.453,12.962,132.8-76.672A4.234,4.234,0,0,0,351.39,100.182Z" transform="translate(-194.222 -79.707)" fill="#e0e0e0"/>
                <path id="Path_1564" data-name="Path 1564" d="M344.983,80.165,194.222,167.207l4.492,2.592,150.76-87.042a1.167,1.167,0,0,0,0-2.211l-.661-.381A4.232,4.232,0,0,0,344.983,80.165Z" transform="translate(-194.222 -79.707)" fill="#ebebeb"/>
              </g>
              <g id="Group_2166" data-name="Group 2166" transform="translate(17.962 10.366)">
                <path id="Path_1565" data-name="Path 1565" d="M359.683,104.967V88.648a4.234,4.234,0,0,0-1.915-3.317l-.662-.381a4.23,4.23,0,0,0-3.829,0L202.515,171.992l22.452,12.962,132.8-76.672A4.232,4.232,0,0,0,359.683,104.967Z" transform="translate(-202.515 -84.492)" fill="#e0e0e0"/>
                <path id="Path_1566" data-name="Path 1566" d="M353.276,84.95,202.515,171.992l4.491,2.592L357.767,87.543a1.167,1.167,0,0,0,0-2.211l-.662-.381A4.23,4.23,0,0,0,353.276,84.95Z" transform="translate(-202.515 -84.492)" fill="#ebebeb"/>
              </g>
            </g>
          </g>
        </g>
        <g id="Group_2170" data-name="Group 2170" transform="translate(131.916 58.852)">
          <path id="Path_1568" data-name="Path 1568" d="M387.013,132.393v31.87a4.254,4.254,0,0,1-1.912,3.317l-58.147,33.573a.555.555,0,0,1-.11.055c-4.393,2.51-8.383,2.834-11.3,1.328-.886-.458-4.293-2.441-5.123-2.979-2.635-1.7-4.238-5.062-4.238-9.769,0-9.705,6.832-21.578,15.422-27.028l.011-.011,54.5-31.462a3.135,3.135,0,0,0,.287-.2c.763-.608.664-1.459-.287-2.012L369.049,125v-5.184l16.051,9.263a4.277,4.277,0,0,1,1.88,2.941A2.195,2.195,0,0,1,387.013,132.393Z" transform="translate(-306.181 -119.813)" fill="#d51f5d"/>
          <path id="Path_1569" data-name="Path 1569" d="M387.013,132.393v31.87a4.254,4.254,0,0,1-1.912,3.317l-58.147,33.573a.555.555,0,0,1-.11.055c-4.393,2.51-8.383,2.834-11.3,1.328-.886-.458-4.293-2.441-5.123-2.979-2.635-1.7-4.238-5.062-4.238-9.769,0-9.705,6.832-21.578,15.422-27.028l.011-.011,54.5-31.462a3.135,3.135,0,0,0,.287-.2c.763-.608.664-1.459-.287-2.012L369.049,125v-5.184l16.051,9.263a4.277,4.277,0,0,1,1.88,2.941A2.195,2.195,0,0,1,387.013,132.393Z" transform="translate(-306.181 -119.813)" opacity="0.3"/>
        </g>
        <path id="Path_1570" data-name="Path 1570" d="M386.669,131.535v31.87a4.254,4.254,0,0,1-1.912,3.317L326.61,200.3a.555.555,0,0,1-.11.055c-5.726,3.271-10.768,2.83-13.642-.543-1.6-1.89-2.532-4.687-2.532-8.268,0-10.027,7.3-22.353,16.285-27.549l55.572-32.08,2.575-1.481c.94-.553,1.725-.221,1.88.73A2.195,2.195,0,0,1,386.669,131.535Z" transform="translate(-173.922 -60.103)" fill="#d51f5d"/>
        <g id="Group_2171" data-name="Group 2171" transform="translate(149.88 111.074)">
          <path id="Path_1571" data-name="Path 1571" d="M322.77,180.624c0,4.295,3.016,6.036,6.736,3.889a14.888,14.888,0,0,0,6.736-11.667c0-4.295-3.016-6.036-6.736-3.889A14.889,14.889,0,0,0,322.77,180.624Z" transform="translate(-322.77 -168.037)" fill="#070023"/>
          <path id="Path_1572" data-name="Path 1572" d="M336.324,169.714l-2-1.14-9.739,16.363,2.288,1.318Z" transform="translate(-322.619 -167.992)" fill="#070023"/>
          <path id="Path_1573" data-name="Path 1573" d="M324.843,181.821c0,4.295,3.016,6.036,6.737,3.889a14.891,14.891,0,0,0,6.736-11.667c0-4.295-3.017-6.036-6.737-3.889A14.889,14.889,0,0,0,324.843,181.821Z" transform="translate(-322.598 -167.937)" fill="#27223c"/>
        </g>
      </g>
    </g>
    <g id="Coins" transform="translate(88.682 226.523)">
      <g id="Group_2238" data-name="Group 2238" transform="translate(255.931 133.384)">
        <g id="Group_2221" data-name="Group 2221" transform="translate(0 8.49)">
          <g id="Group_2206" data-name="Group 2206" transform="translate(0 5.662)">
            <path id="Path_1616" data-name="Path 1616" d="M378.78,316.054a19.508,19.508,0,0,0-7.223-6.679c-11.808-6.817-30.954-6.817-42.762,0a19.508,19.508,0,0,0-7.223,6.679h-1.634v6.178h.022c.218,4.3,3.157,8.554,8.835,11.832,11.808,6.818,30.954,6.818,42.762,0,5.679-3.278,8.618-7.536,8.835-11.832h.022v-6.178Z" transform="translate(-319.938 -304.262)" fill="#d51f5d"/>
            <path id="Path_1617" data-name="Path 1617" d="M378.78,316.054a19.508,19.508,0,0,0-7.223-6.679c-11.808-6.817-30.954-6.817-42.762,0a19.508,19.508,0,0,0-7.223,6.679h-1.634v6.178h.022c.218,4.3,3.157,8.554,8.835,11.832,11.808,6.818,30.954,6.818,42.762,0,5.679-3.278,8.618-7.536,8.835-11.832h.022v-6.178Z" transform="translate(-319.938 -304.262)" fill="#f5f5f5" opacity="0.5"/>
          </g>
          <g id="Group_2211" data-name="Group 2211" transform="translate(0)">
            <g id="Group_2207" data-name="Group 2207">
              <path id="Path_1618" data-name="Path 1618" d="M371.557,304.147c-11.808-6.818-30.954-6.818-42.762,0s-11.809,17.871,0,24.688,30.954,6.818,42.762,0S383.366,310.963,371.557,304.147Z" transform="translate(-319.938 -299.033)" fill="#d51f5d"/>
              <path id="Path_1619" data-name="Path 1619" d="M371.557,304.147c-11.808-6.818-30.954-6.818-42.762,0s-11.809,17.871,0,24.688,30.954,6.818,42.762,0S383.366,310.963,371.557,304.147Z" transform="translate(-319.938 -299.033)" fill="#f5f5f5" opacity="0.6"/>
            </g>
            <g id="Group_2210" data-name="Group 2210" transform="translate(1.319 1.314)">
              <g id="Group_2208" data-name="Group 2208" transform="translate(8.858 5.346)">
                <path id="Path_1620" data-name="Path 1620" d="M363.321,308.153a34.118,34.118,0,0,0-27.847,0c-3.958,2.029-6.138,4.812-6.138,7.829s2.18,5.795,6.138,7.824a34.061,34.061,0,0,0,27.847,0c3.954-2.029,6.134-4.807,6.134-7.824S367.275,310.183,363.321,308.153Z" transform="translate(-329.336 -305.183)" fill="#27debf"/>
                <path id="Path_1621" data-name="Path 1621" d="M363.321,308.153a34.118,34.118,0,0,0-27.847,0c-3.958,2.029-6.138,4.812-6.138,7.829s2.18,5.795,6.138,7.824a34.061,34.061,0,0,0,27.847,0c3.954-2.029,6.134-4.807,6.134-7.824S367.275,310.183,363.321,308.153Z" transform="translate(-329.336 -305.183)" fill="#f5f5f5" opacity="0.6"/>
              </g>
              <g id="Group_2209" data-name="Group 2209">
                <path id="Path_1622" data-name="Path 1622" d="M370.8,305.187c-5.513-3.185-12.876-4.941-20.726-4.941s-15.205,1.757-20.718,4.941c-5.29,3.053-8.2,7.027-8.2,11.2s2.909,8.152,8.2,11.2c5.513,3.178,12.869,4.935,20.718,4.935s15.213-1.756,20.726-4.935c5.284-3.053,8.2-7.033,8.2-11.2S376.082,308.24,370.8,305.187ZM364,324.216a34.061,34.061,0,0,1-27.847,0c-3.958-2.029-6.138-4.807-6.138-7.824s2.18-5.8,6.138-7.829a34.118,34.118,0,0,1,27.847,0c3.954,2.029,6.134,4.812,6.134,7.829S367.953,322.187,364,324.216Z" transform="translate(-321.156 -300.246)" fill="#d51f5d"/>
                <path id="Path_1623" data-name="Path 1623" d="M370.8,305.187c-5.513-3.185-12.876-4.941-20.726-4.941s-15.205,1.757-20.718,4.941c-5.29,3.053-8.2,7.027-8.2,11.2s2.909,8.152,8.2,11.2c5.513,3.178,12.869,4.935,20.718,4.935s15.213-1.756,20.726-4.935c5.284-3.053,8.2-7.033,8.2-11.2S376.082,308.24,370.8,305.187ZM364,324.216a34.061,34.061,0,0,1-27.847,0c-3.958-2.029-6.138-4.807-6.138-7.824s2.18-5.8,6.138-7.829a34.118,34.118,0,0,1,27.847,0c3.954,2.029,6.134,4.812,6.134,7.829S367.953,322.187,364,324.216Z" transform="translate(-321.156 -300.246)" fill="#f5f5f5" opacity="0.7"/>
              </g>
            </g>
          </g>
          <g id="Group_2214" data-name="Group 2214" transform="translate(11.22 7.697)">
            <g id="Group_2212" data-name="Group 2212">
              <path id="Path_1624" data-name="Path 1624" d="M362.765,322.8c7.428-3.812,7.427-9.991,0-13.8s-19.469-3.812-26.9,0-7.428,9.991,0,13.8S355.338,326.612,362.765,322.8Z" transform="translate(-330.299 -306.14)" fill="#27debf"/>
              <path id="Path_1625" data-name="Path 1625" d="M362.765,322.8c7.428-3.812,7.427-9.991,0-13.8s-19.469-3.812-26.9,0-7.428,9.991,0,13.8S355.338,326.612,362.765,322.8Z" transform="translate(-330.299 -306.14)" fill="#f5f5f5" opacity="0.5"/>
            </g>
            <g id="Group_2213" data-name="Group 2213" transform="translate(0.17 2.586)">
              <path id="Path_1626" data-name="Path 1626" d="M362.752,311.387c-7.428-3.812-19.469-3.812-26.9,0-3.071,1.576-4.869,3.557-5.4,5.608.532,2.051,2.329,4.032,5.4,5.608,7.427,3.811,19.469,3.811,26.9,0,3.071-1.577,4.869-3.557,5.4-5.608C367.62,314.944,365.823,312.962,362.752,311.387Z" transform="translate(-330.456 -308.528)" fill="#27debf"/>
              <path id="Path_1627" data-name="Path 1627" d="M362.752,311.387c-7.428-3.812-19.469-3.812-26.9,0-3.071,1.576-4.869,3.557-5.4,5.608.532,2.051,2.329,4.032,5.4,5.608,7.427,3.811,19.469,3.811,26.9,0,3.071-1.577,4.869-3.557,5.4-5.608C367.62,314.944,365.823,312.962,362.752,311.387Z" transform="translate(-330.456 -308.528)" fill="#f5f5f5" opacity="0.6"/>
            </g>
          </g>
          <g id="Group_2220" data-name="Group 2220" transform="translate(18.52 9.858)">
            <g id="Group_2217" data-name="Group 2217" transform="translate(0 0.846)">
              <g id="Group_2215" data-name="Group 2215">
                <path id="Path_1628" data-name="Path 1628" d="M349.732,308.918v2.788l-.952,1.005-1.761,1.844v-2.9Z" transform="translate(-336.213 -308.918)" fill="#27debf"/>
                <path id="Path_1629" data-name="Path 1629" d="M347.437,311.5v2.9h-5.5V311S347.024,310.221,347.437,311.5Z" transform="translate(-336.634 -308.764)" fill="#27debf"/>
                <path id="Path_1630" data-name="Path 1630" d="M360.47,319.5v2.406l-3.049,1.76-2.257-1.3a11.494,11.494,0,0,1-8.735.394v-2.409l1.386-1.375-1.386.382a8.915,8.915,0,0,1-6.8-.779c-1.369-.787-2-1.651-2-2.539v-2.343l.247-1.025-.832-.484v-2.409l2.257,1.3a3.486,3.486,0,0,0-1.672,2.587v.027c.025.866.666,1.706,2,2.477,2.966,1.713,5.905,1.148,8.6.284,2.5-.818,4.327-1.777,5.771-.944.9.519.625,1.148-.381,1.729a5,5,0,0,1-4.3.25l-2.883,2.859a10.146,10.146,0,0,0,1.593.467,11.875,11.875,0,0,0,7.142-.859l2.257,1.3Z" transform="translate(-337.04 -308.847)" fill="#27debf"/>
                <path id="Path_1631" data-name="Path 1631" d="M353.775,319.175v2.407l2.259,1.3v-2.407Z" transform="translate(-335.653 -308.067)" fill="#27debf"/>
              </g>
              <g id="Group_2216" data-name="Group 2216" opacity="0.5">
                <path id="Path_1632" data-name="Path 1632" d="M349.732,308.918v2.788l-.952,1.005-1.761,1.844v-2.9Z" transform="translate(-336.213 -308.918)" fill="#f5f5f5"/>
                <path id="Path_1633" data-name="Path 1633" d="M347.437,311.5v2.9h-5.5V311S347.024,310.221,347.437,311.5Z" transform="translate(-336.634 -308.764)" fill="#f5f5f5"/>
                <path id="Path_1634" data-name="Path 1634" d="M360.47,319.5v2.406l-3.049,1.76-2.257-1.3a11.494,11.494,0,0,1-8.735.394v-2.409l1.386-1.375-1.386.382a8.915,8.915,0,0,1-6.8-.779c-1.369-.787-2-1.651-2-2.539v-2.343l.247-1.025-.832-.484v-2.409l2.257,1.3a3.486,3.486,0,0,0-1.672,2.587v.027c.025.866.666,1.706,2,2.477,2.966,1.713,5.905,1.148,8.6.284,2.5-.818,4.327-1.777,5.771-.944.9.519.625,1.148-.381,1.729a5,5,0,0,1-4.3.25l-2.883,2.859a10.146,10.146,0,0,0,1.593.467,11.875,11.875,0,0,0,7.142-.859l2.257,1.3Z" transform="translate(-337.04 -308.847)" fill="#f5f5f5"/>
                <path id="Path_1635" data-name="Path 1635" d="M353.775,319.175v2.407l2.259,1.3v-2.407Z" transform="translate(-335.653 -308.067)" fill="#f5f5f5"/>
              </g>
            </g>
            <g id="Group_2219" data-name="Group 2219">
              <g id="Group_2218" data-name="Group 2218">
                <path id="Path_1636" data-name="Path 1636" d="M359.96,319.343l-1.746-1.014a2.972,2.972,0,0,0,1.746-2.675,2.3,2.3,0,0,0-.015-.234,3.294,3.294,0,0,0-1.95-2.365v-.008a8.006,8.006,0,0,0-4.058-1.058c-.113,0-.234.008-.348.008h-.038l-.363.023c-.105.008-.211.015-.317.03-.045.008-.09.008-.128.015a2.349,2.349,0,0,0-.243.03,16.212,16.212,0,0,0-1.972.407c-.31.083-.619.174-.922.273-.439.135-.87.279-1.277.415-.167.061-.326.114-.484.167a14.944,14.944,0,0,1-2.705.771,2.8,2.8,0,0,1-1.164-.046,2.428,2.428,0,0,1-.544-.227c-.68-.392-.786-.99.491-1.73a4.463,4.463,0,0,1,3.922-.407l2.713-2.735a11.618,11.618,0,0,0-8.184.453l-2.26-1.3-3.075,1.776,2.26,1.3a3.494,3.494,0,0,0-1.677,2.592v.023c.03.868.665,1.708,2,2.478,2.969,1.715,5.909,1.149,8.6.28,2.5-.816,4.322-1.776,5.765-.945.9.522.627,1.149-.378,1.73a4.965,4.965,0,0,1-4.3.25l-2.887,2.863a11.1,11.1,0,0,0,1.594.469,11.906,11.906,0,0,0,7.142-.862l2.259,1.308,3.045-1.761Z" transform="translate(-337.04 -308.136)" fill="#27debf"/>
                <path id="Path_1637" data-name="Path 1637" d="M359.96,319.343l-1.746-1.014a2.972,2.972,0,0,0,1.746-2.675,2.3,2.3,0,0,0-.015-.234,3.294,3.294,0,0,0-1.95-2.365v-.008a8.006,8.006,0,0,0-4.058-1.058c-.113,0-.234.008-.348.008h-.038l-.363.023c-.105.008-.211.015-.317.03-.045.008-.09.008-.128.015a2.349,2.349,0,0,0-.243.03,16.212,16.212,0,0,0-1.972.407c-.31.083-.619.174-.922.273-.439.135-.87.279-1.277.415-.167.061-.326.114-.484.167a14.944,14.944,0,0,1-2.705.771,2.8,2.8,0,0,1-1.164-.046,2.428,2.428,0,0,1-.544-.227c-.68-.392-.786-.99.491-1.73a4.463,4.463,0,0,1,3.922-.407l2.713-2.735a11.618,11.618,0,0,0-8.184.453l-2.26-1.3-3.075,1.776,2.26,1.3a3.494,3.494,0,0,0-1.677,2.592v.023c.03.868.665,1.708,2,2.478,2.969,1.715,5.909,1.149,8.6.28,2.5-.816,4.322-1.776,5.765-.945.9.522.627,1.149-.378,1.73a4.965,4.965,0,0,1-4.3.25l-2.887,2.863a11.1,11.1,0,0,0,1.594.469,11.906,11.906,0,0,0,7.142-.862l2.259,1.308,3.045-1.761Z" transform="translate(-337.04 -308.136)" fill="#f5f5f5" opacity="0.7"/>
              </g>
            </g>
          </g>
        </g>
        <g id="Group_2237" data-name="Group 2237" transform="translate(1.801)">
          <g id="Group_2222" data-name="Group 2222" transform="translate(0 5.662)">
            <path id="Path_1638" data-name="Path 1638" d="M380.443,308.214a19.508,19.508,0,0,0-7.223-6.679c-11.808-6.818-30.954-6.818-42.762,0a19.5,19.5,0,0,0-7.223,6.679H321.6v6.178h.022c.218,4.295,3.157,8.553,8.835,11.832,11.808,6.817,30.954,6.817,42.762,0,5.679-3.279,8.618-7.537,8.835-11.832h.022v-6.178Z" transform="translate(-321.601 -296.421)" fill="#d51f5d"/>
            <path id="Path_1639" data-name="Path 1639" d="M380.443,308.214a19.508,19.508,0,0,0-7.223-6.679c-11.808-6.818-30.954-6.818-42.762,0a19.5,19.5,0,0,0-7.223,6.679H321.6v6.178h.022c.218,4.295,3.157,8.553,8.835,11.832,11.808,6.817,30.954,6.817,42.762,0,5.679-3.279,8.618-7.537,8.835-11.832h.022v-6.178Z" transform="translate(-321.601 -296.421)" fill="#f5f5f5" opacity="0.5"/>
          </g>
          <g id="Group_2227" data-name="Group 2227" transform="translate(0)">
            <g id="Group_2223" data-name="Group 2223">
              <path id="Path_1640" data-name="Path 1640" d="M373.22,296.305c-11.808-6.817-30.954-6.817-42.762,0s-11.809,17.871,0,24.689,30.954,6.818,42.762,0S385.029,303.123,373.22,296.305Z" transform="translate(-321.601 -291.193)" fill="#d51f5d"/>
              <path id="Path_1641" data-name="Path 1641" d="M373.22,296.305c-11.808-6.817-30.954-6.817-42.762,0s-11.809,17.871,0,24.689,30.954,6.818,42.762,0S385.029,303.123,373.22,296.305Z" transform="translate(-321.601 -291.193)" fill="#f5f5f5" opacity="0.6"/>
            </g>
            <g id="Group_2226" data-name="Group 2226" transform="translate(1.319 1.313)">
              <g id="Group_2224" data-name="Group 2224" transform="translate(8.858 5.347)">
                <path id="Path_1642" data-name="Path 1642" d="M364.984,300.313a34.115,34.115,0,0,0-27.846,0c-3.959,2.028-6.139,4.811-6.139,7.829s2.18,5.795,6.139,7.823a34.058,34.058,0,0,0,27.846,0c3.954-2.028,6.134-4.806,6.134-7.823S368.938,302.342,364.984,300.313Z" transform="translate(-330.999 -297.343)" fill="#d51f5d"/>
                <path id="Path_1643" data-name="Path 1643" d="M364.984,300.313a34.115,34.115,0,0,0-27.846,0c-3.959,2.028-6.139,4.811-6.139,7.829s2.18,5.795,6.139,7.823a34.058,34.058,0,0,0,27.846,0c3.954-2.028,6.134-4.806,6.134-7.823S368.938,302.342,364.984,300.313Z" transform="translate(-330.999 -297.343)" fill="#f5f5f5" opacity="0.6"/>
              </g>
              <g id="Group_2225" data-name="Group 2225">
                <path id="Path_1644" data-name="Path 1644" d="M372.463,297.346c-5.514-3.184-12.877-4.941-20.726-4.941s-15.206,1.758-20.719,4.941c-5.29,3.054-8.2,7.027-8.2,11.206s2.909,8.152,8.2,11.2c5.513,3.177,12.869,4.934,20.719,4.934s15.212-1.756,20.726-4.934c5.282-3.053,8.2-7.034,8.2-11.2S377.745,300.4,372.463,297.346Zm-6.8,19.029a34.058,34.058,0,0,1-27.846,0c-3.959-2.028-6.139-4.806-6.139-7.823s2.18-5.8,6.139-7.829a34.115,34.115,0,0,1,27.846,0c3.954,2.028,6.134,4.811,6.134,7.829S369.616,314.347,365.662,316.375Z" transform="translate(-322.819 -292.405)" fill="#d51f5d"/>
                <path id="Path_1645" data-name="Path 1645" d="M372.463,297.346c-5.514-3.184-12.877-4.941-20.726-4.941s-15.206,1.758-20.719,4.941c-5.29,3.054-8.2,7.027-8.2,11.206s2.909,8.152,8.2,11.2c5.513,3.177,12.869,4.934,20.719,4.934s15.212-1.756,20.726-4.934c5.282-3.053,8.2-7.034,8.2-11.2S377.745,300.4,372.463,297.346Zm-6.8,19.029a34.058,34.058,0,0,1-27.846,0c-3.959-2.028-6.139-4.806-6.139-7.823s2.18-5.8,6.139-7.829a34.115,34.115,0,0,1,27.846,0c3.954,2.028,6.134,4.811,6.134,7.829S369.616,314.347,365.662,316.375Z" transform="translate(-322.819 -292.405)" fill="#f5f5f5" opacity="0.7"/>
              </g>
            </g>
          </g>
          <g id="Group_2230" data-name="Group 2230" transform="translate(11.22 7.696)">
            <g id="Group_2228" data-name="Group 2228">
              <ellipse id="Ellipse_153" data-name="Ellipse 153" cx="19.018" cy="9.76" rx="19.018" ry="9.76" fill="#d51f5d"/>
              <ellipse id="Ellipse_154" data-name="Ellipse 154" cx="19.018" cy="9.76" rx="19.018" ry="9.76" fill="#f5f5f5" opacity="0.5"/>
            </g>
            <g id="Group_2229" data-name="Group 2229" transform="translate(0.171 2.586)">
              <path id="Path_1646" data-name="Path 1646" d="M364.414,303.546c-7.427-3.811-19.469-3.811-26.9,0-3.071,1.577-4.869,3.557-5.4,5.608.531,2.051,2.328,4.033,5.4,5.608,7.427,3.812,19.469,3.812,26.9,0,3.071-1.576,4.869-3.556,5.4-5.607C369.283,307.1,367.486,305.123,364.414,303.546Z" transform="translate(-332.12 -300.688)" fill="#d51f5d"/>
              <path id="Path_1647" data-name="Path 1647" d="M364.414,303.546c-7.427-3.811-19.469-3.811-26.9,0-3.071,1.577-4.869,3.557-5.4,5.608.531,2.051,2.328,4.033,5.4,5.608,7.427,3.812,19.469,3.812,26.9,0,3.071-1.576,4.869-3.556,5.4-5.607C369.283,307.1,367.486,305.123,364.414,303.546Z" transform="translate(-332.12 -300.688)" fill="#f5f5f5" opacity="0.6"/>
            </g>
          </g>
        </g>
      </g>
      <g id="Group_2255" data-name="Group 2255" transform="translate(0)">
        <g id="Group_2254" data-name="Group 2254">
          <g id="Group_2239" data-name="Group 2239" transform="translate(0 5.662)">
            <path id="Path_1658" data-name="Path 1658" d="M142.443,231.214a19.5,19.5,0,0,0-7.223-6.679c-11.808-6.818-30.954-6.818-42.762,0a19.5,19.5,0,0,0-7.223,6.679H83.6v6.178h.022c.218,4.295,3.157,8.553,8.835,11.831,11.808,6.818,30.954,6.818,42.762,0,5.679-3.278,8.618-7.536,8.835-11.831h.022v-6.178Z" transform="translate(-83.601 -219.421)" fill="#d51f5d"/>
            <path id="Path_1659" data-name="Path 1659" d="M142.443,231.214a19.5,19.5,0,0,0-7.223-6.679c-11.808-6.818-30.954-6.818-42.762,0a19.5,19.5,0,0,0-7.223,6.679H83.6v6.178h.022c.218,4.295,3.157,8.553,8.835,11.831,11.808,6.818,30.954,6.818,42.762,0,5.679-3.278,8.618-7.536,8.835-11.831h.022v-6.178Z" transform="translate(-83.601 -219.421)" fill="#f5f5f5" opacity="0.5"/>
          </g>
          <g id="Group_2244" data-name="Group 2244" transform="translate(0)">
            <g id="Group_2240" data-name="Group 2240">
              <path id="Path_1660" data-name="Path 1660" d="M135.22,219.305c-11.808-6.817-30.954-6.817-42.762,0s-11.809,17.871,0,24.689,30.954,6.818,42.762,0S147.029,226.123,135.22,219.305Z" transform="translate(-83.601 -214.193)" fill="#d51f5d"/>
              <path id="Path_1661" data-name="Path 1661" d="M135.22,219.305c-11.808-6.817-30.954-6.817-42.762,0s-11.809,17.871,0,24.689,30.954,6.818,42.762,0S147.029,226.123,135.22,219.305Z" transform="translate(-83.601 -214.193)" fill="#f5f5f5" opacity="0.6"/>
            </g>
            <g id="Group_2243" data-name="Group 2243" transform="translate(1.319 1.313)">
              <g id="Group_2241" data-name="Group 2241" transform="translate(8.858 5.347)">
                <path id="Path_1662" data-name="Path 1662" d="M126.984,223.313a31.228,31.228,0,0,0-13.925-2.97,31.2,31.2,0,0,0-13.921,2.97C95.179,225.342,93,228.125,93,231.142s2.18,5.8,6.139,7.825a31.146,31.146,0,0,0,13.921,2.975,31.169,31.169,0,0,0,13.925-2.975c3.954-2.029,6.134-4.807,6.134-7.825S130.938,225.342,126.984,223.313Z" transform="translate(-92.999 -220.343)" fill="#d51f5d"/>
                <path id="Path_1663" data-name="Path 1663" d="M126.984,223.313a31.228,31.228,0,0,0-13.925-2.97,31.2,31.2,0,0,0-13.921,2.97C95.179,225.342,93,228.125,93,231.142s2.18,5.8,6.139,7.825a31.146,31.146,0,0,0,13.921,2.975,31.169,31.169,0,0,0,13.925-2.975c3.954-2.029,6.134-4.807,6.134-7.825S130.938,225.342,126.984,223.313Z" transform="translate(-92.999 -220.343)" fill="#f5f5f5" opacity="0.6"/>
              </g>
              <g id="Group_2242" data-name="Group 2242">
                <path id="Path_1664" data-name="Path 1664" d="M134.463,220.346c-5.514-3.184-12.877-4.941-20.726-4.941s-15.206,1.758-20.719,4.941c-5.29,3.054-8.2,7.027-8.2,11.2s2.909,8.152,8.2,11.206c5.513,3.177,12.869,4.935,20.719,4.935s15.212-1.758,20.726-4.935c5.282-3.054,8.2-7.033,8.2-11.206S139.745,223.4,134.463,220.346Zm-6.8,19.03a31.169,31.169,0,0,1-13.925,2.975,31.146,31.146,0,0,1-13.921-2.975c-3.959-2.029-6.139-4.807-6.139-7.825s2.18-5.8,6.139-7.828a31.2,31.2,0,0,1,13.921-2.97,31.228,31.228,0,0,1,13.925,2.97c3.954,2.028,6.134,4.811,6.134,7.828S131.616,237.347,127.662,239.376Z" transform="translate(-84.819 -215.405)" fill="#d51f5d"/>
                <path id="Path_1665" data-name="Path 1665" d="M134.463,220.346c-5.514-3.184-12.877-4.941-20.726-4.941s-15.206,1.758-20.719,4.941c-5.29,3.054-8.2,7.027-8.2,11.2s2.909,8.152,8.2,11.206c5.513,3.177,12.869,4.935,20.719,4.935s15.212-1.758,20.726-4.935c5.282-3.054,8.2-7.033,8.2-11.206S139.745,223.4,134.463,220.346Zm-6.8,19.03a31.169,31.169,0,0,1-13.925,2.975,31.146,31.146,0,0,1-13.921-2.975c-3.959-2.029-6.139-4.807-6.139-7.825s2.18-5.8,6.139-7.828a31.2,31.2,0,0,1,13.921-2.97,31.228,31.228,0,0,1,13.925,2.97c3.954,2.028,6.134,4.811,6.134,7.828S131.616,237.347,127.662,239.376Z" transform="translate(-84.819 -215.405)" fill="#f5f5f5" opacity="0.7"/>
              </g>
            </g>
          </g>
        </g>
      </g>
      <g id="Group_2320" data-name="Group 2320" transform="translate(305.38 4.332)">
        <g id="Group_2271" data-name="Group 2271" transform="translate(1.083 25.99)">
          <g id="Group_2256" data-name="Group 2256" transform="translate(0 5.662)">
            <path id="Path_1678" data-name="Path 1678" d="M425.443,259.214a19.508,19.508,0,0,0-7.223-6.679c-11.808-6.818-30.954-6.818-42.762,0a19.5,19.5,0,0,0-7.223,6.679H366.6v6.178h.022c.218,4.295,3.157,8.553,8.835,11.832,11.808,6.817,30.954,6.817,42.762,0,5.679-3.279,8.618-7.537,8.835-11.832h.022v-6.178Z" transform="translate(-366.601 -247.421)" fill="#d51f5d"/>
            <path id="Path_1679" data-name="Path 1679" d="M425.443,259.214a19.508,19.508,0,0,0-7.223-6.679c-11.808-6.818-30.954-6.818-42.762,0a19.5,19.5,0,0,0-7.223,6.679H366.6v6.178h.022c.218,4.295,3.157,8.553,8.835,11.832,11.808,6.817,30.954,6.817,42.762,0,5.679-3.279,8.618-7.537,8.835-11.832h.022v-6.178Z" transform="translate(-366.601 -247.421)" fill="#f5f5f5" opacity="0.5"/>
          </g>
          <g id="Group_2261" data-name="Group 2261" transform="translate(0)">
            <g id="Group_2257" data-name="Group 2257">
              <path id="Path_1680" data-name="Path 1680" d="M418.22,247.305c-11.808-6.817-30.954-6.817-42.762,0s-11.809,17.871,0,24.689,30.954,6.818,42.762,0S430.029,254.123,418.22,247.305Z" transform="translate(-366.601 -242.193)" fill="#d51f5d"/>
              <path id="Path_1681" data-name="Path 1681" d="M418.22,247.305c-11.808-6.817-30.954-6.817-42.762,0s-11.809,17.871,0,24.689,30.954,6.818,42.762,0S430.029,254.123,418.22,247.305Z" transform="translate(-366.601 -242.193)" fill="#f5f5f5" opacity="0.6"/>
            </g>
            <g id="Group_2260" data-name="Group 2260" transform="translate(1.319 1.313)">
              <g id="Group_2258" data-name="Group 2258" transform="translate(8.858 5.347)">
                <path id="Path_1682" data-name="Path 1682" d="M409.984,251.313a34.115,34.115,0,0,0-27.846,0c-3.959,2.028-6.139,4.811-6.139,7.829s2.18,5.795,6.139,7.823a34.059,34.059,0,0,0,27.846,0c3.954-2.028,6.134-4.806,6.134-7.823S413.938,253.342,409.984,251.313Z" transform="translate(-375.999 -248.343)" fill="#27debf"/>
                <path id="Path_1683" data-name="Path 1683" d="M409.984,251.313a34.115,34.115,0,0,0-27.846,0c-3.959,2.028-6.139,4.811-6.139,7.829s2.18,5.795,6.139,7.823a34.059,34.059,0,0,0,27.846,0c3.954-2.028,6.134-4.806,6.134-7.823S413.938,253.342,409.984,251.313Z" transform="translate(-375.999 -248.343)" fill="#f5f5f5" opacity="0.6"/>
              </g>
              <g id="Group_2259" data-name="Group 2259">
                <path id="Path_1684" data-name="Path 1684" d="M417.463,248.346c-5.514-3.184-12.877-4.941-20.726-4.941s-15.206,1.758-20.719,4.941c-5.29,3.054-8.2,7.027-8.2,11.206s2.909,8.152,8.2,11.2c5.513,3.177,12.869,4.934,20.719,4.934s15.212-1.757,20.726-4.934c5.282-3.053,8.2-7.033,8.2-11.2S422.745,251.4,417.463,248.346Zm-6.8,19.029a34.059,34.059,0,0,1-27.846,0c-3.959-2.028-6.139-4.806-6.139-7.823s2.18-5.8,6.139-7.829a34.115,34.115,0,0,1,27.846,0c3.954,2.028,6.134,4.811,6.134,7.829S414.616,265.347,410.662,267.375Z" transform="translate(-367.819 -243.405)" fill="#d51f5d"/>
                <path id="Path_1685" data-name="Path 1685" d="M417.463,248.346c-5.514-3.184-12.877-4.941-20.726-4.941s-15.206,1.758-20.719,4.941c-5.29,3.054-8.2,7.027-8.2,11.206s2.909,8.152,8.2,11.2c5.513,3.177,12.869,4.934,20.719,4.934s15.212-1.757,20.726-4.934c5.282-3.053,8.2-7.033,8.2-11.2S422.745,251.4,417.463,248.346Zm-6.8,19.029a34.059,34.059,0,0,1-27.846,0c-3.959-2.028-6.139-4.806-6.139-7.823s2.18-5.8,6.139-7.829a34.115,34.115,0,0,1,27.846,0c3.954,2.028,6.134,4.811,6.134,7.829S414.616,265.347,410.662,267.375Z" transform="translate(-367.819 -243.405)" fill="#f5f5f5" opacity="0.7"/>
              </g>
            </g>
          </g>
          <g id="Group_2264" data-name="Group 2264" transform="translate(11.22 7.696)">
            <g id="Group_2262" data-name="Group 2262">
              <ellipse id="Ellipse_157" data-name="Ellipse 157" cx="19.018" cy="9.76" rx="19.018" ry="9.76" fill="#27debf"/>
              <ellipse id="Ellipse_158" data-name="Ellipse 158" cx="19.018" cy="9.76" rx="19.018" ry="9.76" fill="#f5f5f5" opacity="0.5"/>
            </g>
            <g id="Group_2263" data-name="Group 2263" transform="translate(0.171 2.586)">
              <path id="Path_1686" data-name="Path 1686" d="M409.414,254.546c-7.427-3.811-19.469-3.811-26.9,0-3.071,1.577-4.869,3.557-5.4,5.608.531,2.051,2.328,4.033,5.4,5.608,7.427,3.812,19.469,3.812,26.9,0,3.071-1.576,4.869-3.556,5.4-5.607C414.283,258.1,412.486,256.123,409.414,254.546Z" transform="translate(-377.12 -251.688)" fill="#27debf"/>
              <path id="Path_1687" data-name="Path 1687" d="M409.414,254.546c-7.427-3.811-19.469-3.811-26.9,0-3.071,1.577-4.869,3.557-5.4,5.608.531,2.051,2.328,4.033,5.4,5.608,7.427,3.812,19.469,3.812,26.9,0,3.071-1.576,4.869-3.556,5.4-5.607C414.283,258.1,412.486,256.123,409.414,254.546Z" transform="translate(-377.12 -251.688)" fill="#f5f5f5" opacity="0.6"/>
            </g>
          </g>
          <g id="Group_2270" data-name="Group 2270" transform="translate(18.52 9.858)">
            <g id="Group_2267" data-name="Group 2267" transform="translate(0 0.846)">
              <g id="Group_2265" data-name="Group 2265">
                <path id="Path_1688" data-name="Path 1688" d="M396.395,252.077v2.788l-.952,1.005-1.761,1.844v-2.9Z" transform="translate(-382.876 -252.077)" fill="#27debf"/>
                <path id="Path_1689" data-name="Path 1689" d="M394.1,254.659v2.9h-5.5v-3.4S393.687,253.381,394.1,254.659Z" transform="translate(-383.297 -251.924)" fill="#27debf"/>
                <path id="Path_1690" data-name="Path 1690" d="M407.133,262.659v2.407l-3.049,1.76-2.257-1.3a11.489,11.489,0,0,1-8.735.394v-2.409l1.386-1.374-1.386.382a8.92,8.92,0,0,1-6.8-.779c-1.368-.788-2-1.651-2-2.54v-2.343l.247-1.024-.833-.484v-2.409l2.257,1.3a3.479,3.479,0,0,0-1.671,2.586v.027c.024.866.665,1.707,2,2.477,2.966,1.713,5.905,1.148,8.6.285,2.5-.818,4.327-1.777,5.772-.945.9.519.624,1.148-.382,1.73a5.01,5.01,0,0,1-4.3.25l-2.883,2.858a10.306,10.306,0,0,0,1.593.468,11.883,11.883,0,0,0,7.142-.859l2.257,1.3Z" transform="translate(-383.703 -252.006)" fill="#27debf"/>
                <path id="Path_1691" data-name="Path 1691" d="M400.438,262.335v2.407l2.258,1.3v-2.407Z" transform="translate(-382.316 -251.227)" fill="#27debf"/>
              </g>
              <g id="Group_2266" data-name="Group 2266" opacity="0.5">
                <path id="Path_1692" data-name="Path 1692" d="M396.395,252.077v2.788l-.952,1.005-1.761,1.844v-2.9Z" transform="translate(-382.876 -252.077)" fill="#f5f5f5"/>
                <path id="Path_1693" data-name="Path 1693" d="M394.1,254.659v2.9h-5.5v-3.4S393.687,253.381,394.1,254.659Z" transform="translate(-383.297 -251.924)" fill="#f5f5f5"/>
                <path id="Path_1694" data-name="Path 1694" d="M407.133,262.659v2.407l-3.049,1.76-2.257-1.3a11.489,11.489,0,0,1-8.735.394v-2.409l1.386-1.374-1.386.382a8.92,8.92,0,0,1-6.8-.779c-1.368-.788-2-1.651-2-2.54v-2.343l.247-1.024-.833-.484v-2.409l2.257,1.3a3.479,3.479,0,0,0-1.671,2.586v.027c.024.866.665,1.707,2,2.477,2.966,1.713,5.905,1.148,8.6.285,2.5-.818,4.327-1.777,5.772-.945.9.519.624,1.148-.382,1.73a5.01,5.01,0,0,1-4.3.25l-2.883,2.858a10.306,10.306,0,0,0,1.593.468,11.883,11.883,0,0,0,7.142-.859l2.257,1.3Z" transform="translate(-383.703 -252.006)" fill="#f5f5f5"/>
                <path id="Path_1695" data-name="Path 1695" d="M400.438,262.335v2.407l2.258,1.3v-2.407Z" transform="translate(-382.316 -251.227)" fill="#f5f5f5"/>
              </g>
            </g>
            <g id="Group_2269" data-name="Group 2269">
              <g id="Group_2268" data-name="Group 2268">
                <path id="Path_1696" data-name="Path 1696" d="M406.623,262.5l-1.746-1.013a2.974,2.974,0,0,0,1.746-2.675,2.3,2.3,0,0,0-.015-.235,3.3,3.3,0,0,0-1.949-2.365v-.008a8.018,8.018,0,0,0-4.059-1.058c-.113,0-.234.009-.348.009h-.038l-.362.022c-.106.008-.212.015-.318.03-.044.008-.09.008-.128.015a2.3,2.3,0,0,0-.242.03,16.23,16.23,0,0,0-1.973.408c-.31.083-.619.173-.922.272-.439.136-.87.279-1.277.416-.167.061-.325.114-.484.167a14.925,14.925,0,0,1-2.705.77,2.8,2.8,0,0,1-1.164-.046,2.374,2.374,0,0,1-.544-.226c-.68-.393-.786-.99.491-1.73a4.464,4.464,0,0,1,3.922-.408l2.713-2.735a11.619,11.619,0,0,0-8.184.454l-2.259-1.3-3.077,1.775,2.26,1.3a3.492,3.492,0,0,0-1.677,2.591v.023c.03.87.665,1.708,2,2.479,2.969,1.715,5.909,1.149,8.6.279,2.5-.815,4.322-1.776,5.765-.944.9.521.627,1.149-.378,1.73a4.965,4.965,0,0,1-4.3.249l-2.887,2.864a11.109,11.109,0,0,0,1.6.468,11.9,11.9,0,0,0,7.141-.861l2.259,1.307,3.045-1.761Z" transform="translate(-383.703 -251.296)" fill="#27debf"/>
                <path id="Path_1697" data-name="Path 1697" d="M406.623,262.5l-1.746-1.013a2.974,2.974,0,0,0,1.746-2.675,2.3,2.3,0,0,0-.015-.235,3.3,3.3,0,0,0-1.949-2.365v-.008a8.018,8.018,0,0,0-4.059-1.058c-.113,0-.234.009-.348.009h-.038l-.362.022c-.106.008-.212.015-.318.03-.044.008-.09.008-.128.015a2.3,2.3,0,0,0-.242.03,16.23,16.23,0,0,0-1.973.408c-.31.083-.619.173-.922.272-.439.136-.87.279-1.277.416-.167.061-.325.114-.484.167a14.925,14.925,0,0,1-2.705.77,2.8,2.8,0,0,1-1.164-.046,2.374,2.374,0,0,1-.544-.226c-.68-.393-.786-.99.491-1.73a4.464,4.464,0,0,1,3.922-.408l2.713-2.735a11.619,11.619,0,0,0-8.184.454l-2.259-1.3-3.077,1.775,2.26,1.3a3.492,3.492,0,0,0-1.677,2.591v.023c.03.87.665,1.708,2,2.479,2.969,1.715,5.909,1.149,8.6.279,2.5-.815,4.322-1.776,5.765-.944.9.521.627,1.149-.378,1.73a4.965,4.965,0,0,1-4.3.249l-2.887,2.864a11.109,11.109,0,0,0,1.6.468,11.9,11.9,0,0,0,7.141-.861l2.259,1.307,3.045-1.761Z" transform="translate(-383.703 -251.296)" fill="#f5f5f5" opacity="0.7"/>
              </g>
            </g>
          </g>
        </g>
        <g id="Group_2287" data-name="Group 2287" transform="translate(3.249 17.327)">
          <g id="Group_2272" data-name="Group 2272" transform="translate(0 5.662)">
            <path id="Path_1698" data-name="Path 1698" d="M427.443,251.214a19.5,19.5,0,0,0-7.223-6.679c-11.808-6.818-30.954-6.818-42.762,0a19.5,19.5,0,0,0-7.223,6.679H368.6v6.178h.022c.218,4.295,3.157,8.553,8.835,11.832,11.808,6.817,30.954,6.817,42.762,0,5.679-3.279,8.618-7.537,8.835-11.832h.022v-6.178Z" transform="translate(-368.601 -239.421)" fill="#d51f5d"/>
            <path id="Path_1699" data-name="Path 1699" d="M427.443,251.214a19.5,19.5,0,0,0-7.223-6.679c-11.808-6.818-30.954-6.818-42.762,0a19.5,19.5,0,0,0-7.223,6.679H368.6v6.178h.022c.218,4.295,3.157,8.553,8.835,11.832,11.808,6.817,30.954,6.817,42.762,0,5.679-3.279,8.618-7.537,8.835-11.832h.022v-6.178Z" transform="translate(-368.601 -239.421)" fill="#f5f5f5" opacity="0.5"/>
          </g>
          <g id="Group_2277" data-name="Group 2277" transform="translate(0)">
            <g id="Group_2273" data-name="Group 2273">
              <path id="Path_1700" data-name="Path 1700" d="M420.22,239.305c-11.808-6.817-30.954-6.817-42.762,0s-11.809,17.871,0,24.689,30.954,6.818,42.762,0S432.029,246.123,420.22,239.305Z" transform="translate(-368.601 -234.193)" fill="#d51f5d"/>
              <path id="Path_1701" data-name="Path 1701" d="M420.22,239.305c-11.808-6.817-30.954-6.817-42.762,0s-11.809,17.871,0,24.689,30.954,6.818,42.762,0S432.029,246.123,420.22,239.305Z" transform="translate(-368.601 -234.193)" fill="#f5f5f5" opacity="0.6"/>
            </g>
            <g id="Group_2276" data-name="Group 2276" transform="translate(1.319 1.313)">
              <g id="Group_2274" data-name="Group 2274" transform="translate(8.858 5.347)">
                <path id="Path_1702" data-name="Path 1702" d="M411.984,243.313a34.115,34.115,0,0,0-27.846,0c-3.959,2.028-6.139,4.811-6.139,7.828s2.18,5.8,6.139,7.824a34.059,34.059,0,0,0,27.846,0c3.954-2.028,6.134-4.806,6.134-7.824S415.938,245.342,411.984,243.313Z" transform="translate(-377.999 -240.343)" fill="#27debf"/>
                <path id="Path_1703" data-name="Path 1703" d="M411.984,243.313a34.115,34.115,0,0,0-27.846,0c-3.959,2.028-6.139,4.811-6.139,7.828s2.18,5.8,6.139,7.824a34.059,34.059,0,0,0,27.846,0c3.954-2.028,6.134-4.806,6.134-7.824S415.938,245.342,411.984,243.313Z" transform="translate(-377.999 -240.343)" fill="#f5f5f5" opacity="0.6"/>
              </g>
              <g id="Group_2275" data-name="Group 2275">
                <path id="Path_1704" data-name="Path 1704" d="M419.463,240.346c-5.514-3.184-12.877-4.941-20.726-4.941s-15.206,1.758-20.719,4.941c-5.29,3.054-8.2,7.027-8.2,11.2s2.909,8.153,8.2,11.206c5.513,3.177,12.869,4.934,20.719,4.934s15.212-1.757,20.726-4.934c5.282-3.053,8.2-7.033,8.2-11.206S424.745,243.4,419.463,240.346Zm-6.8,19.029a34.059,34.059,0,0,1-27.846,0c-3.959-2.028-6.139-4.806-6.139-7.824s2.18-5.8,6.139-7.828a34.115,34.115,0,0,1,27.846,0c3.954,2.028,6.134,4.811,6.134,7.828S416.616,257.347,412.662,259.375Z" transform="translate(-369.819 -235.405)" fill="#d51f5d"/>
                <path id="Path_1705" data-name="Path 1705" d="M419.463,240.346c-5.514-3.184-12.877-4.941-20.726-4.941s-15.206,1.758-20.719,4.941c-5.29,3.054-8.2,7.027-8.2,11.2s2.909,8.153,8.2,11.206c5.513,3.177,12.869,4.934,20.719,4.934s15.212-1.757,20.726-4.934c5.282-3.053,8.2-7.033,8.2-11.206S424.745,243.4,419.463,240.346Zm-6.8,19.029a34.059,34.059,0,0,1-27.846,0c-3.959-2.028-6.139-4.806-6.139-7.824s2.18-5.8,6.139-7.828a34.115,34.115,0,0,1,27.846,0c3.954,2.028,6.134,4.811,6.134,7.828S416.616,257.347,412.662,259.375Z" transform="translate(-369.819 -235.405)" fill="#f5f5f5" opacity="0.7"/>
              </g>
            </g>
          </g>
          <g id="Group_2280" data-name="Group 2280" transform="translate(11.22 7.696)">
            <g id="Group_2278" data-name="Group 2278">
              <ellipse id="Ellipse_159" data-name="Ellipse 159" cx="19.018" cy="9.76" rx="19.018" ry="9.76" fill="#27debf"/>
              <ellipse id="Ellipse_160" data-name="Ellipse 160" cx="19.018" cy="9.76" rx="19.018" ry="9.76" fill="#f5f5f5" opacity="0.5"/>
            </g>
            <g id="Group_2279" data-name="Group 2279" transform="translate(0.171 2.586)">
              <path id="Path_1706" data-name="Path 1706" d="M411.415,246.547c-7.427-3.812-19.469-3.812-26.9,0-3.071,1.577-4.869,3.557-5.4,5.608.531,2.051,2.328,4.033,5.4,5.608,7.427,3.812,19.469,3.812,26.9,0,3.071-1.576,4.869-3.556,5.4-5.607C416.283,250.1,414.486,248.123,411.415,246.547Z" transform="translate(-379.12 -243.688)" fill="#27debf"/>
              <path id="Path_1707" data-name="Path 1707" d="M411.415,246.547c-7.427-3.812-19.469-3.812-26.9,0-3.071,1.577-4.869,3.557-5.4,5.608.531,2.051,2.328,4.033,5.4,5.608,7.427,3.812,19.469,3.812,26.9,0,3.071-1.576,4.869-3.556,5.4-5.607C416.283,250.1,414.486,248.123,411.415,246.547Z" transform="translate(-379.12 -243.688)" fill="#f5f5f5" opacity="0.6"/>
            </g>
          </g>
          <g id="Group_2286" data-name="Group 2286" transform="translate(18.52 9.858)">
            <g id="Group_2283" data-name="Group 2283" transform="translate(0 0.846)">
              <g id="Group_2281" data-name="Group 2281">
                <path id="Path_1708" data-name="Path 1708" d="M398.4,244.077v2.788l-.952,1.005-1.761,1.844v-2.9Z" transform="translate(-384.876 -244.077)" fill="#27debf"/>
                <path id="Path_1709" data-name="Path 1709" d="M396.1,246.659v2.9h-5.5v-3.4S395.687,245.381,396.1,246.659Z" transform="translate(-385.297 -243.924)" fill="#27debf"/>
                <path id="Path_1710" data-name="Path 1710" d="M409.133,254.659v2.407l-3.049,1.76-2.257-1.3a11.489,11.489,0,0,1-8.735.394v-2.409l1.386-1.374-1.386.382a8.92,8.92,0,0,1-6.8-.779c-1.368-.788-2-1.651-2-2.54v-2.343l.247-1.024-.833-.484v-2.409l2.257,1.3a3.483,3.483,0,0,0-1.671,2.587v.027c.024.866.665,1.707,2,2.477,2.966,1.713,5.905,1.148,8.6.285,2.5-.818,4.327-1.777,5.772-.945.9.519.624,1.148-.382,1.73a5.01,5.01,0,0,1-4.3.25l-2.883,2.858a10.307,10.307,0,0,0,1.593.468,11.883,11.883,0,0,0,7.142-.859l2.257,1.3Z" transform="translate(-385.703 -244.006)" fill="#27debf"/>
                <path id="Path_1711" data-name="Path 1711" d="M402.438,254.335v2.407l2.258,1.3v-2.407Z" transform="translate(-384.316 -243.227)" fill="#27debf"/>
              </g>
              <g id="Group_2282" data-name="Group 2282" opacity="0.5">
                <path id="Path_1712" data-name="Path 1712" d="M398.4,244.077v2.788l-.952,1.005-1.761,1.844v-2.9Z" transform="translate(-384.876 -244.077)" fill="#f5f5f5"/>
                <path id="Path_1713" data-name="Path 1713" d="M396.1,246.659v2.9h-5.5v-3.4S395.687,245.381,396.1,246.659Z" transform="translate(-385.297 -243.924)" fill="#f5f5f5"/>
                <path id="Path_1714" data-name="Path 1714" d="M409.133,254.659v2.407l-3.049,1.76-2.257-1.3a11.489,11.489,0,0,1-8.735.394v-2.409l1.386-1.374-1.386.382a8.92,8.92,0,0,1-6.8-.779c-1.368-.788-2-1.651-2-2.54v-2.343l.247-1.024-.833-.484v-2.409l2.257,1.3a3.483,3.483,0,0,0-1.671,2.587v.027c.024.866.665,1.707,2,2.477,2.966,1.713,5.905,1.148,8.6.285,2.5-.818,4.327-1.777,5.772-.945.9.519.624,1.148-.382,1.73a5.01,5.01,0,0,1-4.3.25l-2.883,2.858a10.307,10.307,0,0,0,1.593.468,11.883,11.883,0,0,0,7.142-.859l2.257,1.3Z" transform="translate(-385.703 -244.006)" fill="#f5f5f5"/>
                <path id="Path_1715" data-name="Path 1715" d="M402.438,254.335v2.407l2.258,1.3v-2.407Z" transform="translate(-384.316 -243.227)" fill="#f5f5f5"/>
              </g>
            </g>
            <g id="Group_2285" data-name="Group 2285">
              <g id="Group_2284" data-name="Group 2284">
                <path id="Path_1716" data-name="Path 1716" d="M408.623,254.5l-1.746-1.013a2.974,2.974,0,0,0,1.746-2.675,2.258,2.258,0,0,0-.015-.234,3.3,3.3,0,0,0-1.949-2.366v-.008a8.016,8.016,0,0,0-4.059-1.057c-.113,0-.234.007-.348.007h-.038l-.362.023c-.106.008-.212.015-.318.03-.044.008-.09.008-.128.015a2.3,2.3,0,0,0-.242.03,16.436,16.436,0,0,0-1.973.408c-.31.083-.619.173-.922.272-.439.136-.87.279-1.277.416-.167.061-.325.114-.484.167a14.924,14.924,0,0,1-2.705.77,2.8,2.8,0,0,1-1.164-.045,2.376,2.376,0,0,1-.544-.226c-.68-.393-.786-.99.491-1.73a4.464,4.464,0,0,1,3.922-.408l2.713-2.735a11.619,11.619,0,0,0-8.184.454l-2.259-1.3-3.077,1.775,2.26,1.3a3.492,3.492,0,0,0-1.677,2.591v.023c.03.87.665,1.708,2,2.479,2.969,1.715,5.909,1.149,8.6.279,2.5-.816,4.322-1.776,5.765-.944.9.521.627,1.149-.378,1.73a4.965,4.965,0,0,1-4.3.249l-2.887,2.864a11.106,11.106,0,0,0,1.6.468,11.9,11.9,0,0,0,7.141-.861l2.259,1.307,3.045-1.761Z" transform="translate(-385.703 -243.296)" fill="#27debf"/>
                <path id="Path_1717" data-name="Path 1717" d="M408.623,254.5l-1.746-1.013a2.974,2.974,0,0,0,1.746-2.675,2.258,2.258,0,0,0-.015-.234,3.3,3.3,0,0,0-1.949-2.366v-.008a8.016,8.016,0,0,0-4.059-1.057c-.113,0-.234.007-.348.007h-.038l-.362.023c-.106.008-.212.015-.318.03-.044.008-.09.008-.128.015a2.3,2.3,0,0,0-.242.03,16.436,16.436,0,0,0-1.973.408c-.31.083-.619.173-.922.272-.439.136-.87.279-1.277.416-.167.061-.325.114-.484.167a14.924,14.924,0,0,1-2.705.77,2.8,2.8,0,0,1-1.164-.045,2.376,2.376,0,0,1-.544-.226c-.68-.393-.786-.99.491-1.73a4.464,4.464,0,0,1,3.922-.408l2.713-2.735a11.619,11.619,0,0,0-8.184.454l-2.259-1.3-3.077,1.775,2.26,1.3a3.492,3.492,0,0,0-1.677,2.591v.023c.03.87.665,1.708,2,2.479,2.969,1.715,5.909,1.149,8.6.279,2.5-.816,4.322-1.776,5.765-.944.9.521.627,1.149-.378,1.73a4.965,4.965,0,0,1-4.3.249l-2.887,2.864a11.106,11.106,0,0,0,1.6.468,11.9,11.9,0,0,0,7.141-.861l2.259,1.307,3.045-1.761Z" transform="translate(-385.703 -243.296)" fill="#f5f5f5" opacity="0.7"/>
              </g>
            </g>
          </g>
        </g>
        <g id="Group_2303" data-name="Group 2303" transform="translate(0 9.746)">
          <g id="Group_2288" data-name="Group 2288" transform="translate(0 5.662)">
            <path id="Path_1718" data-name="Path 1718" d="M424.443,244.214a19.5,19.5,0,0,0-7.223-6.679c-11.808-6.818-30.954-6.818-42.762,0a19.5,19.5,0,0,0-7.223,6.679H365.6v6.178h.022c.218,4.295,3.157,8.553,8.835,11.832,11.808,6.817,30.954,6.817,42.762,0,5.679-3.279,8.618-7.537,8.835-11.832h.022v-6.178Z" transform="translate(-365.601 -232.421)" fill="#d51f5d"/>
            <path id="Path_1719" data-name="Path 1719" d="M424.443,244.214a19.5,19.5,0,0,0-7.223-6.679c-11.808-6.818-30.954-6.818-42.762,0a19.5,19.5,0,0,0-7.223,6.679H365.6v6.178h.022c.218,4.295,3.157,8.553,8.835,11.832,11.808,6.817,30.954,6.817,42.762,0,5.679-3.279,8.618-7.537,8.835-11.832h.022v-6.178Z" transform="translate(-365.601 -232.421)" fill="#f5f5f5" opacity="0.5"/>
          </g>
          <g id="Group_2293" data-name="Group 2293" transform="translate(0)">
            <g id="Group_2289" data-name="Group 2289">
              <path id="Path_1720" data-name="Path 1720" d="M417.22,232.305c-11.808-6.817-30.954-6.817-42.762,0s-11.809,17.871,0,24.689,30.954,6.818,42.762,0S429.029,239.123,417.22,232.305Z" transform="translate(-365.601 -227.193)" fill="#d51f5d"/>
              <path id="Path_1721" data-name="Path 1721" d="M417.22,232.305c-11.808-6.817-30.954-6.817-42.762,0s-11.809,17.871,0,24.689,30.954,6.818,42.762,0S429.029,239.123,417.22,232.305Z" transform="translate(-365.601 -227.193)" fill="#f5f5f5" opacity="0.6"/>
            </g>
            <g id="Group_2292" data-name="Group 2292" transform="translate(1.319 1.313)">
              <g id="Group_2290" data-name="Group 2290" transform="translate(8.858 5.347)">
                <path id="Path_1722" data-name="Path 1722" d="M408.984,236.313a34.115,34.115,0,0,0-27.846,0c-3.959,2.028-6.139,4.811-6.139,7.828s2.18,5.8,6.139,7.825a34.07,34.07,0,0,0,27.846,0c3.954-2.029,6.134-4.807,6.134-7.825S412.938,238.342,408.984,236.313Z" transform="translate(-374.999 -233.343)" fill="#27debf"/>
                <path id="Path_1723" data-name="Path 1723" d="M408.984,236.313a34.115,34.115,0,0,0-27.846,0c-3.959,2.028-6.139,4.811-6.139,7.828s2.18,5.8,6.139,7.825a34.07,34.07,0,0,0,27.846,0c3.954-2.029,6.134-4.807,6.134-7.825S412.938,238.342,408.984,236.313Z" transform="translate(-374.999 -233.343)" fill="#f5f5f5" opacity="0.6"/>
              </g>
              <g id="Group_2291" data-name="Group 2291">
                <path id="Path_1724" data-name="Path 1724" d="M416.463,233.346c-5.514-3.184-12.877-4.941-20.726-4.941s-15.206,1.758-20.719,4.941c-5.29,3.054-8.2,7.027-8.2,11.2s2.909,8.152,8.2,11.206c5.513,3.177,12.869,4.934,20.719,4.934s15.212-1.756,20.726-4.934c5.282-3.054,8.2-7.033,8.2-11.206S421.745,236.4,416.463,233.346Zm-6.8,19.03a34.07,34.07,0,0,1-27.846,0c-3.959-2.029-6.139-4.807-6.139-7.825s2.18-5.8,6.139-7.828a34.115,34.115,0,0,1,27.846,0c3.954,2.028,6.134,4.811,6.134,7.828S413.616,250.347,409.662,252.376Z" transform="translate(-366.819 -228.405)" fill="#d51f5d"/>
                <path id="Path_1725" data-name="Path 1725" d="M416.463,233.346c-5.514-3.184-12.877-4.941-20.726-4.941s-15.206,1.758-20.719,4.941c-5.29,3.054-8.2,7.027-8.2,11.2s2.909,8.152,8.2,11.206c5.513,3.177,12.869,4.934,20.719,4.934s15.212-1.756,20.726-4.934c5.282-3.054,8.2-7.033,8.2-11.206S421.745,236.4,416.463,233.346Zm-6.8,19.03a34.07,34.07,0,0,1-27.846,0c-3.959-2.029-6.139-4.807-6.139-7.825s2.18-5.8,6.139-7.828a34.115,34.115,0,0,1,27.846,0c3.954,2.028,6.134,4.811,6.134,7.828S413.616,250.347,409.662,252.376Z" transform="translate(-366.819 -228.405)" fill="#f5f5f5" opacity="0.7"/>
              </g>
            </g>
          </g>
          <g id="Group_2296" data-name="Group 2296" transform="translate(11.22 7.696)">
            <g id="Group_2294" data-name="Group 2294">
              <ellipse id="Ellipse_161" data-name="Ellipse 161" cx="19.018" cy="9.76" rx="19.018" ry="9.76" fill="#27debf"/>
              <ellipse id="Ellipse_162" data-name="Ellipse 162" cx="19.018" cy="9.76" rx="19.018" ry="9.76" fill="#f5f5f5" opacity="0.5"/>
            </g>
            <g id="Group_2295" data-name="Group 2295" transform="translate(0.171 2.586)">
              <path id="Path_1726" data-name="Path 1726" d="M408.414,239.547c-7.427-3.812-19.469-3.812-26.9,0-3.071,1.577-4.869,3.557-5.4,5.608.531,2.051,2.328,4.033,5.4,5.608,7.427,3.812,19.469,3.812,26.9,0,3.071-1.576,4.869-3.556,5.4-5.607C413.283,243.1,411.486,241.123,408.414,239.547Z" transform="translate(-376.12 -236.688)" fill="#27debf"/>
              <path id="Path_1727" data-name="Path 1727" d="M408.414,239.547c-7.427-3.812-19.469-3.812-26.9,0-3.071,1.577-4.869,3.557-5.4,5.608.531,2.051,2.328,4.033,5.4,5.608,7.427,3.812,19.469,3.812,26.9,0,3.071-1.576,4.869-3.556,5.4-5.607C413.283,243.1,411.486,241.123,408.414,239.547Z" transform="translate(-376.12 -236.688)" fill="#f5f5f5" opacity="0.6"/>
            </g>
          </g>
          <g id="Group_2302" data-name="Group 2302" transform="translate(18.52 9.858)">
            <g id="Group_2299" data-name="Group 2299" transform="translate(0 0.846)">
              <g id="Group_2297" data-name="Group 2297">
                <path id="Path_1728" data-name="Path 1728" d="M395.4,237.077v2.788l-.952,1.005-1.761,1.844v-2.9Z" transform="translate(-381.876 -237.077)" fill="#27debf"/>
                <path id="Path_1729" data-name="Path 1729" d="M393.1,239.659v2.9h-5.5v-3.4S392.687,238.381,393.1,239.659Z" transform="translate(-382.297 -236.924)" fill="#27debf"/>
                <path id="Path_1730" data-name="Path 1730" d="M406.133,247.659v2.407l-3.049,1.76-2.257-1.3a11.489,11.489,0,0,1-8.735.394v-2.409l1.386-1.374-1.386.382a8.92,8.92,0,0,1-6.8-.779c-1.368-.788-2-1.651-2-2.54v-2.343l.247-1.024-.833-.484v-2.409l2.257,1.3a3.483,3.483,0,0,0-1.671,2.587v.027c.024.866.665,1.707,2,2.477,2.966,1.713,5.905,1.148,8.6.285,2.5-.818,4.327-1.777,5.772-.945.9.519.624,1.148-.382,1.73a5.005,5.005,0,0,1-4.3.249l-2.883,2.859a10.3,10.3,0,0,0,1.593.468,11.883,11.883,0,0,0,7.142-.859l2.257,1.3Z" transform="translate(-382.703 -237.006)" fill="#27debf"/>
                <path id="Path_1731" data-name="Path 1731" d="M399.438,247.335v2.407l2.258,1.3v-2.407Z" transform="translate(-381.316 -236.227)" fill="#27debf"/>
              </g>
              <g id="Group_2298" data-name="Group 2298" opacity="0.5">
                <path id="Path_1732" data-name="Path 1732" d="M395.4,237.077v2.788l-.952,1.005-1.761,1.844v-2.9Z" transform="translate(-381.876 -237.077)" fill="#f5f5f5"/>
                <path id="Path_1733" data-name="Path 1733" d="M393.1,239.659v2.9h-5.5v-3.4S392.687,238.381,393.1,239.659Z" transform="translate(-382.297 -236.924)" fill="#f5f5f5"/>
                <path id="Path_1734" data-name="Path 1734" d="M406.133,247.659v2.407l-3.049,1.76-2.257-1.3a11.489,11.489,0,0,1-8.735.394v-2.409l1.386-1.374-1.386.382a8.92,8.92,0,0,1-6.8-.779c-1.368-.788-2-1.651-2-2.54v-2.343l.247-1.024-.833-.484v-2.409l2.257,1.3a3.483,3.483,0,0,0-1.671,2.587v.027c.024.866.665,1.707,2,2.477,2.966,1.713,5.905,1.148,8.6.285,2.5-.818,4.327-1.777,5.772-.945.9.519.624,1.148-.382,1.73a5.005,5.005,0,0,1-4.3.249l-2.883,2.859a10.3,10.3,0,0,0,1.593.468,11.883,11.883,0,0,0,7.142-.859l2.257,1.3Z" transform="translate(-382.703 -237.006)" fill="#f5f5f5"/>
                <path id="Path_1735" data-name="Path 1735" d="M399.438,247.335v2.407l2.258,1.3v-2.407Z" transform="translate(-381.316 -236.227)" fill="#f5f5f5"/>
              </g>
            </g>
            <g id="Group_2301" data-name="Group 2301">
              <g id="Group_2300" data-name="Group 2300">
                <path id="Path_1736" data-name="Path 1736" d="M405.623,247.5l-1.746-1.013a2.974,2.974,0,0,0,1.746-2.675,2.258,2.258,0,0,0-.015-.234,3.3,3.3,0,0,0-1.949-2.366v-.008a8.016,8.016,0,0,0-4.059-1.057c-.113,0-.234.006-.348.006h-.038l-.362.023c-.106.008-.212.015-.318.03-.044.008-.09.008-.128.015a2.3,2.3,0,0,0-.241.03,16.434,16.434,0,0,0-1.973.408c-.31.083-.619.173-.922.272-.439.136-.87.279-1.277.416-.167.061-.325.114-.484.167a14.92,14.92,0,0,1-2.705.77,2.8,2.8,0,0,1-1.164-.045,2.376,2.376,0,0,1-.544-.226c-.68-.393-.786-.99.491-1.73a4.463,4.463,0,0,1,3.922-.408l2.713-2.735a11.619,11.619,0,0,0-8.184.454l-2.259-1.3-3.077,1.775,2.26,1.3a3.492,3.492,0,0,0-1.677,2.591v.023c.03.87.665,1.708,2,2.479,2.969,1.715,5.909,1.149,8.6.279,2.5-.816,4.322-1.776,5.765-.944.9.521.627,1.149-.378,1.73a4.965,4.965,0,0,1-4.3.249l-2.887,2.864a11.1,11.1,0,0,0,1.6.468,11.9,11.9,0,0,0,7.141-.861l2.259,1.307,3.045-1.761Z" transform="translate(-382.703 -236.296)" fill="#27debf"/>
                <path id="Path_1737" data-name="Path 1737" d="M405.623,247.5l-1.746-1.013a2.974,2.974,0,0,0,1.746-2.675,2.258,2.258,0,0,0-.015-.234,3.3,3.3,0,0,0-1.949-2.366v-.008a8.016,8.016,0,0,0-4.059-1.057c-.113,0-.234.006-.348.006h-.038l-.362.023c-.106.008-.212.015-.318.03-.044.008-.09.008-.128.015a2.3,2.3,0,0,0-.241.03,16.434,16.434,0,0,0-1.973.408c-.31.083-.619.173-.922.272-.439.136-.87.279-1.277.416-.167.061-.325.114-.484.167a14.92,14.92,0,0,1-2.705.77,2.8,2.8,0,0,1-1.164-.045,2.376,2.376,0,0,1-.544-.226c-.68-.393-.786-.99.491-1.73a4.463,4.463,0,0,1,3.922-.408l2.713-2.735a11.619,11.619,0,0,0-8.184.454l-2.259-1.3-3.077,1.775,2.26,1.3a3.492,3.492,0,0,0-1.677,2.591v.023c.03.87.665,1.708,2,2.479,2.969,1.715,5.909,1.149,8.6.279,2.5-.816,4.322-1.776,5.765-.944.9.521.627,1.149-.378,1.73a4.965,4.965,0,0,1-4.3.249l-2.887,2.864a11.1,11.1,0,0,0,1.6.468,11.9,11.9,0,0,0,7.141-.861l2.259,1.307,3.045-1.761Z" transform="translate(-382.703 -236.296)" fill="#f5f5f5" opacity="0.7"/>
              </g>
            </g>
          </g>
        </g>
        <g id="Group_2319" data-name="Group 2319" transform="translate(3.249)">
          <g id="Group_2304" data-name="Group 2304" transform="translate(0 5.662)">
            <path id="Path_1738" data-name="Path 1738" d="M427.443,235.214a19.5,19.5,0,0,0-7.223-6.679c-11.808-6.818-30.954-6.818-42.762,0a19.5,19.5,0,0,0-7.223,6.679H368.6v6.178h.022c.218,4.295,3.157,8.553,8.835,11.831,11.808,6.818,30.954,6.818,42.762,0,5.679-3.278,8.618-7.536,8.835-11.831h.022v-6.178Z" transform="translate(-368.601 -223.421)" fill="#d51f5d"/>
            <path id="Path_1739" data-name="Path 1739" d="M427.443,235.214a19.5,19.5,0,0,0-7.223-6.679c-11.808-6.818-30.954-6.818-42.762,0a19.5,19.5,0,0,0-7.223,6.679H368.6v6.178h.022c.218,4.295,3.157,8.553,8.835,11.831,11.808,6.818,30.954,6.818,42.762,0,5.679-3.278,8.618-7.536,8.835-11.831h.022v-6.178Z" transform="translate(-368.601 -223.421)" fill="#f5f5f5" opacity="0.5"/>
          </g>
          <g id="Group_2309" data-name="Group 2309" transform="translate(0)">
            <g id="Group_2305" data-name="Group 2305">
              <path id="Path_1740" data-name="Path 1740" d="M420.22,223.305c-11.808-6.817-30.954-6.817-42.762,0s-11.809,17.871,0,24.689,30.954,6.818,42.762,0S432.029,230.123,420.22,223.305Z" transform="translate(-368.601 -218.193)" fill="#d51f5d"/>
              <path id="Path_1741" data-name="Path 1741" d="M420.22,223.305c-11.808-6.817-30.954-6.817-42.762,0s-11.809,17.871,0,24.689,30.954,6.818,42.762,0S432.029,230.123,420.22,223.305Z" transform="translate(-368.601 -218.193)" fill="#f5f5f5" opacity="0.6"/>
            </g>
            <g id="Group_2308" data-name="Group 2308" transform="translate(1.319 1.313)">
              <g id="Group_2306" data-name="Group 2306" transform="translate(8.858 5.347)">
                <path id="Path_1742" data-name="Path 1742" d="M411.984,227.313a34.115,34.115,0,0,0-27.846,0c-3.959,2.028-6.139,4.811-6.139,7.828s2.18,5.8,6.139,7.825a34.07,34.07,0,0,0,27.846,0c3.954-2.029,6.134-4.807,6.134-7.825S415.938,229.342,411.984,227.313Z" transform="translate(-377.999 -224.343)" fill="#d51f5d"/>
                <path id="Path_1743" data-name="Path 1743" d="M411.984,227.313a34.115,34.115,0,0,0-27.846,0c-3.959,2.028-6.139,4.811-6.139,7.828s2.18,5.8,6.139,7.825a34.07,34.07,0,0,0,27.846,0c3.954-2.029,6.134-4.807,6.134-7.825S415.938,229.342,411.984,227.313Z" transform="translate(-377.999 -224.343)" fill="#f5f5f5" opacity="0.6"/>
              </g>
              <g id="Group_2307" data-name="Group 2307">
                <path id="Path_1744" data-name="Path 1744" d="M419.463,224.346c-5.514-3.184-12.877-4.941-20.726-4.941s-15.206,1.758-20.719,4.941c-5.29,3.054-8.2,7.027-8.2,11.2s2.909,8.152,8.2,11.206c5.513,3.177,12.869,4.935,20.719,4.935s15.212-1.758,20.726-4.935c5.282-3.054,8.2-7.033,8.2-11.206S424.745,227.4,419.463,224.346Zm-6.8,19.03a34.07,34.07,0,0,1-27.846,0c-3.959-2.029-6.139-4.807-6.139-7.825s2.18-5.8,6.139-7.828a34.115,34.115,0,0,1,27.846,0c3.954,2.028,6.134,4.811,6.134,7.828S416.616,241.347,412.662,243.376Z" transform="translate(-369.819 -219.405)" fill="#d51f5d"/>
                <path id="Path_1745" data-name="Path 1745" d="M419.463,224.346c-5.514-3.184-12.877-4.941-20.726-4.941s-15.206,1.758-20.719,4.941c-5.29,3.054-8.2,7.027-8.2,11.2s2.909,8.152,8.2,11.206c5.513,3.177,12.869,4.935,20.719,4.935s15.212-1.758,20.726-4.935c5.282-3.054,8.2-7.033,8.2-11.206S424.745,227.4,419.463,224.346Zm-6.8,19.03a34.07,34.07,0,0,1-27.846,0c-3.959-2.029-6.139-4.807-6.139-7.825s2.18-5.8,6.139-7.828a34.115,34.115,0,0,1,27.846,0c3.954,2.028,6.134,4.811,6.134,7.828S416.616,241.347,412.662,243.376Z" transform="translate(-369.819 -219.405)" fill="#f5f5f5" opacity="0.7"/>
              </g>
            </g>
          </g>
          <g id="Group_2312" data-name="Group 2312" transform="translate(11.22 7.696)">
            <g id="Group_2310" data-name="Group 2310">
              <ellipse id="Ellipse_163" data-name="Ellipse 163" cx="19.018" cy="9.76" rx="19.018" ry="9.76" fill="#d51f5d"/>
              <ellipse id="Ellipse_164" data-name="Ellipse 164" cx="19.018" cy="9.76" rx="19.018" ry="9.76" fill="#f5f5f5" opacity="0.5"/>
            </g>
            <g id="Group_2311" data-name="Group 2311" transform="translate(0.171 2.586)">
              <path id="Path_1746" data-name="Path 1746" d="M411.415,230.547c-7.427-3.812-19.469-3.812-26.9,0-3.071,1.577-4.869,3.557-5.4,5.608.531,2.051,2.328,4.033,5.4,5.608,7.427,3.812,19.469,3.812,26.9,0,3.071-1.576,4.869-3.556,5.4-5.607C416.283,234.1,414.486,232.123,411.415,230.547Z" transform="translate(-379.12 -227.688)" fill="#d51f5d"/>
              <path id="Path_1747" data-name="Path 1747" d="M411.415,230.547c-7.427-3.812-19.469-3.812-26.9,0-3.071,1.577-4.869,3.557-5.4,5.608.531,2.051,2.328,4.033,5.4,5.608,7.427,3.812,19.469,3.812,26.9,0,3.071-1.576,4.869-3.556,5.4-5.607C416.283,234.1,414.486,232.123,411.415,230.547Z" transform="translate(-379.12 -227.688)" fill="#f5f5f5" opacity="0.6"/>
            </g>
          </g>
        </g>
      </g>
    </g>
  </g>
</svg>
