<svg xmlns="http://www.w3.org/2000/svg" width="519.85" height="371.769" viewBox="0 0 519.85 371.769">
  <g id="under_construction" data-name="under construction" transform="translate(-58.133 -39.705)">
    <path id="Path_13232" data-name="Path 13232" d="M448.882,234.4,272.337,262.066,95.791,289.733,76.962,268.9,58.133,248.066l21.739-37.2,21.739-37.195,186.524-29.9,186.524-29.9L461.77,174.136Z" transform="translate(0 51.811)" fill="#1f134a"/>
    <path id="Path_13265" data-name="Path 13265" d="M178.207,98.78,318.284,76.828,458.361,54.876l14.94,16.53,14.94,16.53-17.248,29.512L453.744,146.96,305.749,170.684,157.754,194.41l10.226-47.815Z" transform="translate(69.592 10.598)" fill="#d51f5d"/>
    <g id="Group_5817" data-name="Group 5817" transform="translate(269.034 91.887)">
      <path id="Path_13266" data-name="Path 13266" d="M195.877,145.983a20.318,20.318,0,0,1-6.446.178,8.616,8.616,0,0,1-4.25-1.746,7.362,7.362,0,0,1-2.252-3.5,14.69,14.69,0,0,1-.625-4.863,36.926,36.926,0,0,1,.756-6.1l3.876-19.457a44.838,44.838,0,0,1,1.775-6.528,28.6,28.6,0,0,1,2.687-5.49,19.372,19.372,0,0,1,3.82-4.454,21.4,21.4,0,0,1,5.22-3.2,27.948,27.948,0,0,1,6.818-1.967,20.033,20.033,0,0,1,7.212-.107,6.7,6.7,0,0,1,4.224,2.466,8.921,8.921,0,0,1,1.592,4.607,23.952,23.952,0,0,1-.53,6.584l-.953,4.78L208.6,108.857l.946-4.747a22.271,22.271,0,0,0,.664-5.546q-.349-2.68-3.851-2.3l-.561.092a9.77,9.77,0,0,0-2.392.686,5.909,5.909,0,0,0-1.821,1.225,10.286,10.286,0,0,0-1.3,1.564,9.2,9.2,0,0,0-.965,2.033q-.431,1.226-.685,2.244t-.562,2.568l-4.707,23.632q-.978,4.912-.116,6.793t4.16,1.337a8.738,8.738,0,0,0,2.033-.578,7.848,7.848,0,0,0,1.566-.878,5.289,5.289,0,0,0,1.2-1.272,12.48,12.48,0,0,0,.88-1.445,10.36,10.36,0,0,0,.662-1.787q.326-1.124.5-1.9t.442-2.123l.992-4.984,10.2-1.673-.91,4.578a37.384,37.384,0,0,1-1.576,5.7A25.058,25.058,0,0,1,210.911,137a18.751,18.751,0,0,1-3.582,4.1,19.931,19.931,0,0,1-4.941,3.01A26.983,26.983,0,0,1,195.877,145.983Z" transform="translate(-182.297 -57.822)" fill="#fff"/>
      <path id="Path_13267" data-name="Path 13267" d="M218.833,142.235q-8.976,1.473-11.936-2.568T205.732,126.6l4.1-20.6a36.928,36.928,0,0,1,2.412-7.852,23.605,23.605,0,0,1,3.949-6.118,19.323,19.323,0,0,1,5.921-4.438,28.694,28.694,0,0,1,8.092-2.485q8.943-1.468,11.934,2.5t1.214,12.892l-4.1,20.6a36.464,36.464,0,0,1-2.426,7.837,24.583,24.583,0,0,1-3.987,6.224,19.653,19.653,0,0,1-5.943,4.54A27.648,27.648,0,0,1,218.833,142.235Zm-1.058-7.543a6.482,6.482,0,0,0,2.56,0,9.009,9.009,0,0,0,2.718-.87,7.686,7.686,0,0,0,1.964-1.43,7.924,7.924,0,0,0,1.386-2.018,15.385,15.385,0,0,0,.946-2.371q.349-1.164.666-2.745l5.05-25.351a23.406,23.406,0,0,0,.46-3.333,6.484,6.484,0,0,0-.319-2.405,2.293,2.293,0,0,0-1.485-1.483,6.306,6.306,0,0,0-3-.076,9.484,9.484,0,0,0-3.254,1.1,6.369,6.369,0,0,0-2.2,2.086,12.422,12.422,0,0,0-1.313,2.674,26.05,26.05,0,0,0-.88,3.4l-5.05,25.351a27.374,27.374,0,0,0-.421,2.706,9.99,9.99,0,0,0,.036,2.21,3.307,3.307,0,0,0,.63,1.687A2.741,2.741,0,0,0,217.775,134.692Z" transform="translate(-166.4 -60.448)" fill="#fff"/>
      <path id="Path_13268" data-name="Path 13268" d="M227.613,141.444l12.063-55.971,10.871-1.784.6,37.841,16.473-40.64,10.625-1.744L268.114,134.8l-8,1.311,6.957-38.33L251.036,137.6l-6.2,1.016-.805-37.185-8.313,38.682Z" transform="translate(-150.641 -64.335)" fill="#fff"/>
      <path id="Path_13269" data-name="Path 13269" d="M256.7,134.713,267.816,78.9l10.451-1.714L267.152,133Z" transform="translate(-130.321 -65.707)" fill="#fff"/>
      <path id="Path_13270" data-name="Path 13270" d="M268.117,134.178l11.115-55.817,7.294-1.2,7.941,29.275,6.3-31.61,8.766-1.437-11.115,55.815-6.944,1.14-7.759-30.87-6.618,33.227Z" transform="translate(-122.346 -68.354)" fill="#fff"/>
      <path id="Path_13271" data-name="Path 13271" d="M304.667,128.208q-8.242,1.353-10.886-3t-.761-13.813l3.621-18.178a45.987,45.987,0,0,1,2.444-8.428,25.892,25.892,0,0,1,3.862-6.546,18.7,18.7,0,0,1,5.9-4.778,27.166,27.166,0,0,1,8.257-2.624q8.627-1.417,11.569,2.025t1.3,11.691l-.542,2.726L319.3,88.942l.578-2.894q.367-1.852.516-3.015a11.147,11.147,0,0,0,.053-2.3,2.75,2.75,0,0,0-.6-1.676,2.88,2.88,0,0,0-1.51-.761,6.983,6.983,0,0,0-2.585.032,8.875,8.875,0,0,0-2.178.634,9.148,9.148,0,0,0-1.7.965,5.813,5.813,0,0,0-1.31,1.369A12.331,12.331,0,0,0,309.6,82.9a13.18,13.18,0,0,0-.724,1.924c-.231.776-.42,1.461-.559,2.045s-.3,1.342-.484,2.264l-4.488,22.52q-1,5.052-.172,7.178t4.477,1.527a8.732,8.732,0,0,0,3.312-1.211,8.047,8.047,0,0,0,2.414-2.412,15.558,15.558,0,0,0,1.653-3.367,31.991,31.991,0,0,0,1.167-4.409l.91-4.578-6.275,1.028,1.306-6.563,15.815-2.594-5.644,28.344-6.872,1.128.353-5.527A15.231,15.231,0,0,1,304.667,128.208Z" transform="translate(-105.496 -70.426)" fill="#fff"/>
    </g>
    <g id="Group_5818" data-name="Group 5818" transform="translate(241.646 285.815)">
      <path id="Path_13272" data-name="Path 13272" d="M171.994,235.316a9.328,9.328,0,0,1-2.852.1,3.611,3.611,0,0,1-1.824-.73,2.929,2.929,0,0,1-.929-1.549,7.233,7.233,0,0,1-.206-2.212,19.647,19.647,0,0,1,.387-2.869l3.2-16.074,4.455-.73-3.292,16.527q-.171.846-.241,1.439a7.606,7.606,0,0,0-.053,1.223,2.112,2.112,0,0,0,.224.98,1.269,1.269,0,0,0,.644.528,2.09,2.09,0,0,0,1.141.066,3.294,3.294,0,0,0,1.247-.457,3.465,3.465,0,0,0,.89-.781,4.9,4.9,0,0,0,.635-1.121,9.013,9.013,0,0,0,.447-1.282q.158-.6.328-1.459l3.292-16.527,4.457-.73-3.2,16.075a23.145,23.145,0,0,1-.768,2.93,12.914,12.914,0,0,1-1.131,2.431,8.363,8.363,0,0,1-1.62,1.969,8.768,8.768,0,0,1-2.244,1.4A12.32,12.32,0,0,1,171.994,235.316Z" transform="translate(-166.173 -167.093)" fill="#1f134a"/>
      <path id="Path_13273" data-name="Path 13273" d="M175.9,234.4l4.822-24.206,3.164-.52,3.443,12.7,2.73-13.711,3.8-.623-4.821,24.208-3.012.493-3.365-13.386L179.8,233.767Z" transform="translate(-159.377 -168.221)" fill="#1f134a"/>
      <path id="Path_13274" data-name="Path 13274" d="M185.859,232.385l4.819-24.208,5.872-.965a13.41,13.41,0,0,1,3.73-.187,3.131,3.131,0,0,1,3.039,3.095,12.324,12.324,0,0,1-.289,3.331l-1.739,8.732a16.551,16.551,0,0,1-1.1,3.582,9.48,9.48,0,0,1-1.79,2.668,8.571,8.571,0,0,1-2.7,1.877,15.235,15.235,0,0,1-3.79,1.08Zm5.208-3.851,1.308-.214a6.6,6.6,0,0,0,1.225-.313,6.452,6.452,0,0,0,.922-.42,2.346,2.346,0,0,0,.69-.623,6.707,6.707,0,0,0,.491-.729,4.77,4.77,0,0,0,.367-.958c.124-.42.219-.778.287-1.072s.16-.727.273-1.3l1.763-8.848q.173-.861.246-1.383a6.636,6.636,0,0,0,.066-1.034,1.494,1.494,0,0,0-.172-.769,1.292,1.292,0,0,0-.479-.437,1.774,1.774,0,0,0-.844-.189,8.022,8.022,0,0,0-1.3.124l-1.264.207Z" transform="translate(-152.421 -168.974)" fill="#1f134a"/>
      <path id="Path_13275" data-name="Path 13275" d="M196,230.935l4.822-24.208,10.555-1.733-.62,3.11-5.962.977-1.384,6.951,4.715-.773-.62,3.11-4.715.773-1.59,7.987,6.037-.99-.606,3.051Z" transform="translate(-145.335 -170.35)" fill="#1f134a"/>
      <path id="Path_13276" data-name="Path 13276" d="M203.819,229.437l4.821-24.206,5.78-.949a15.843,15.843,0,0,1,3.358-.248,4.842,4.842,0,0,1,2.278.644,2.656,2.656,0,0,1,1.182,1.741,7.288,7.288,0,0,1-.088,3,11.147,11.147,0,0,1-1.451,3.839,7.1,7.1,0,0,1-2.753,2.487l1.123,11.355-4.608.756-.809-10.558-2.038.333-2.2,11.053Zm7.355-14.625,1.109-.18a5.713,5.713,0,0,0,3.064-1.308,5.5,5.5,0,0,0,1.425-2.99,3.359,3.359,0,0,0-.19-2.658c-.386-.477-1.243-.61-2.57-.391l-1.384.226Z" transform="translate(-139.874 -171.032)" fill="#1f134a"/>
      <path id="Path_13277" data-name="Path 13277" d="M224.838,226.358a8.865,8.865,0,0,1-2.8.076,3.737,3.737,0,0,1-1.841-.758,3.17,3.17,0,0,1-.978-1.52,6.36,6.36,0,0,1-.272-2.108,15.993,15.993,0,0,1,.329-2.646l1.68-8.44a19.356,19.356,0,0,1,.769-2.83,12.429,12.429,0,0,1,1.167-2.381,8.328,8.328,0,0,1,1.656-1.931,9.282,9.282,0,0,1,2.262-1.386,12.056,12.056,0,0,1,2.957-.853,8.706,8.706,0,0,1,3.129-.048,2.9,2.9,0,0,1,1.831,1.068,3.86,3.86,0,0,1,.691,2,10.389,10.389,0,0,1-.229,2.855l-.413,2.072-4.426.727.409-2.059a9.553,9.553,0,0,0,.289-2.407q-.153-1.162-1.67-1l-.243.041a4.3,4.3,0,0,0-1.038.3,2.565,2.565,0,0,0-.79.532,4.405,4.405,0,0,0-.562.678,3.919,3.919,0,0,0-.418.882q-.186.533-.3.973c-.071.3-.155.668-.241,1.114l-2.042,10.251a5.4,5.4,0,0,0-.051,2.944c.251.544.851.737,1.806.579a3.76,3.76,0,0,0,.88-.248,3.529,3.529,0,0,0,.679-.381,2.329,2.329,0,0,0,.521-.552,5.759,5.759,0,0,0,.384-.627,4.805,4.805,0,0,0,.285-.776c.1-.326.166-.6.217-.826s.112-.53.189-.921l.431-2.161,4.425-.727-.394,1.986a16.227,16.227,0,0,1-.685,2.471,10.772,10.772,0,0,1-1.08,2.14,8.16,8.16,0,0,1-1.554,1.782,8.665,8.665,0,0,1-2.144,1.3A11.715,11.715,0,0,1,224.838,226.358Z" transform="translate(-129.305 -172.851)" fill="#1f134a"/>
      <path id="Path_13278" data-name="Path 13278" d="M234.793,224.731q-3.893.64-5.177-1.114t-.5-5.665l1.78-8.936a16.072,16.072,0,0,1,1.046-3.4,10.138,10.138,0,0,1,1.714-2.655,8.323,8.323,0,0,1,2.566-1.924,12.5,12.5,0,0,1,3.509-1.079q3.88-.634,5.177,1.087t.527,5.59l-1.78,8.936a15.98,15.98,0,0,1-1.051,3.4,10.668,10.668,0,0,1-1.731,2.7,8.516,8.516,0,0,1-2.575,1.97A12.043,12.043,0,0,1,234.793,224.731Zm-.459-3.271a2.751,2.751,0,0,0,1.111,0,3.833,3.833,0,0,0,1.177-.375,3.265,3.265,0,0,0,.853-.62,3.423,3.423,0,0,0,.6-.876,6.994,6.994,0,0,0,.409-1.028c.1-.335.2-.734.289-1.191l2.189-10.993a10.106,10.106,0,0,0,.2-1.447,2.8,2.8,0,0,0-.138-1.043.992.992,0,0,0-.644-.642,2.718,2.718,0,0,0-1.3-.034,4.174,4.174,0,0,0-1.413.479,2.788,2.788,0,0,0-.951.9,5.294,5.294,0,0,0-.569,1.162,11.3,11.3,0,0,0-.384,1.474l-2.189,10.995a11.028,11.028,0,0,0-.18,1.172,4.112,4.112,0,0,0,.015.96,1.406,1.406,0,0,0,.273.73A1.169,1.169,0,0,0,234.335,221.46Z" transform="translate(-122.41 -173.99)" fill="#1f134a"/>
      <path id="Path_13279" data-name="Path 13279" d="M238.629,224.115l4.822-24.21,3.163-.518,3.445,12.7,2.73-13.709,3.8-.623-4.821,24.208-3.01.493-3.368-13.386-2.869,14.409Z" transform="translate(-115.557 -175.409)" fill="#1f134a"/>
      <path id="Path_13280" data-name="Path 13280" d="M254.632,221.411q-6.66,1.093-5.522-6.239l4.158-1.461q-.805,4.78,1.9,4.336a2.806,2.806,0,0,0,1.682-.87,3.559,3.559,0,0,0,.837-1.734,3.876,3.876,0,0,0-.012-1.784,3.079,3.079,0,0,0-.608-1.228,10.339,10.339,0,0,0-1.167-1.089l-2.767-2.213a5.23,5.23,0,0,1-1.666-2.191,5.947,5.947,0,0,1-.056-3.19,8.282,8.282,0,0,1,2.6-4.663,9.845,9.845,0,0,1,5.053-2.369,7.2,7.2,0,0,1,2.385-.075,3.431,3.431,0,0,1,1.575.632,2.842,2.842,0,0,1,.866,1.25,5.559,5.559,0,0,1,.338,1.675,12.487,12.487,0,0,1-.092,2.015l-4.073,1.386q.115-.724.153-1.252a5.771,5.771,0,0,0-.017-1.057,1.889,1.889,0,0,0-.255-.829,1.1,1.1,0,0,0-.6-.43,1.939,1.939,0,0,0-1.011.01,3.182,3.182,0,0,0-2.543,2.578,2.938,2.938,0,0,0,.1,1.843,4.305,4.305,0,0,0,1.179,1.367l2.736,2.2a9.6,9.6,0,0,1,1.155,1.153,7,7,0,0,1,.858,1.342,4.848,4.848,0,0,1,.465,1.76,7.728,7.728,0,0,1-.146,2.142,8.415,8.415,0,0,1-2.6,4.579A9.2,9.2,0,0,1,254.632,221.411Z" transform="translate(-108.351 -176.231)" fill="#1f134a"/>
      <path id="Path_13281" data-name="Path 13281" d="M259.1,220.46l4.173-20.952-4.226.693.649-3.256,12.911-2.118-.647,3.256-4.093.673-4.173,20.952Z" transform="translate(-101.294 -177.452)" fill="#1f134a"/>
      <path id="Path_13282" data-name="Path 13282" d="M265.373,219.34l4.822-24.208,5.779-.95a15.746,15.746,0,0,1,3.36-.246,4.815,4.815,0,0,1,2.278.644,2.642,2.642,0,0,1,1.182,1.739,7.3,7.3,0,0,1-.09,3,11.151,11.151,0,0,1-1.449,3.837,7.1,7.1,0,0,1-2.752,2.487L279.624,217l-4.608.756-.81-10.558-2.038.335-2.2,11.051Zm7.355-14.626,1.111-.18a5.72,5.72,0,0,0,3.063-1.306,5.488,5.488,0,0,0,1.427-2.989,3.378,3.378,0,0,0-.19-2.66q-.581-.716-2.572-.389l-1.383.226Z" transform="translate(-96.874 -178.085)" fill="#1f134a"/>
      <path id="Path_13283" data-name="Path 13283" d="M281.968,217.275a9.264,9.264,0,0,1-2.848.1,3.648,3.648,0,0,1-1.828-.73,2.942,2.942,0,0,1-.927-1.551,7.278,7.278,0,0,1-.207-2.212,19.853,19.853,0,0,1,.387-2.867l3.2-16.075,4.455-.73-3.292,16.527q-.168.848-.241,1.439a8.028,8.028,0,0,0-.054,1.223,2.124,2.124,0,0,0,.226.982,1.25,1.25,0,0,0,.646.527,2.084,2.084,0,0,0,1.14.068,3.285,3.285,0,0,0,1.247-.459,3.442,3.442,0,0,0,.892-.78,5.015,5.015,0,0,0,.635-1.123,9.749,9.749,0,0,0,.447-1.281q.155-.6.326-1.459l3.292-16.527,4.455-.732-3.2,16.075a23.44,23.44,0,0,1-.766,2.93,12.659,12.659,0,0,1-1.133,2.431,8.356,8.356,0,0,1-1.62,1.969,8.757,8.757,0,0,1-2.242,1.4A12.263,12.263,0,0,1,281.968,217.275Z" transform="translate(-89.348 -179.696)" fill="#1f134a"/>
      <path id="Path_13284" data-name="Path 13284" d="M292.248,215.3a8.756,8.756,0,0,1-2.794.076,3.711,3.711,0,0,1-1.843-.756,3.2,3.2,0,0,1-.977-1.52,6.328,6.328,0,0,1-.272-2.11,15.957,15.957,0,0,1,.328-2.645l1.682-8.438a19.387,19.387,0,0,1,.768-2.83,12.448,12.448,0,0,1,1.169-2.383,8.238,8.238,0,0,1,1.656-1.93,9.224,9.224,0,0,1,2.261-1.389,12.221,12.221,0,0,1,2.959-.853,8.692,8.692,0,0,1,3.127-.046,2.893,2.893,0,0,1,1.833,1.07,3.874,3.874,0,0,1,.691,2,10.451,10.451,0,0,1-.231,2.854l-.413,2.074-4.426.727.409-2.059a9.546,9.546,0,0,0,.289-2.405c-.1-.775-.657-1.109-1.67-1l-.243.039a4.3,4.3,0,0,0-1.038.3,2.539,2.539,0,0,0-.79.533,4.258,4.258,0,0,0-.562.676,4,4,0,0,0-.418.882c-.124.353-.224.679-.3.975s-.155.664-.243,1.111L291.161,208.5a5.433,5.433,0,0,0-.051,2.944c.251.545.853.737,1.807.581a3.808,3.808,0,0,0,.88-.25,3.405,3.405,0,0,0,.679-.381,2.3,2.3,0,0,0,.521-.552,5.716,5.716,0,0,0,.382-.627,4.45,4.45,0,0,0,.285-.773c.1-.328.168-.6.216-.827s.114-.532.19-.922l.431-2.161,4.426-.727-.4,1.986a16.359,16.359,0,0,1-.683,2.471,10.854,10.854,0,0,1-1.08,2.14,8.173,8.173,0,0,1-1.556,1.782,8.585,8.585,0,0,1-2.144,1.3A11.715,11.715,0,0,1,292.248,215.3Z" transform="translate(-82.214 -180.576)" fill="#1f134a"/>
      <path id="Path_13285" data-name="Path 13285" d="M297.218,214.208l4.172-20.952-4.229.693.649-3.256,12.913-2.118-.649,3.256-4.09.671-4.172,20.952Z" transform="translate(-74.669 -181.82)" fill="#1f134a"/>
      <path id="Path_13286" data-name="Path 13286" d="M303.57,212.882l4.819-24.208,4.532-.744L308.1,212.138Z" transform="translate(-70.191 -182.27)" fill="#1f134a"/>
      <path id="Path_13287" data-name="Path 13287" d="M314.981,211.577q-3.893.637-5.177-1.114t-.5-5.665l1.78-8.936a16.006,16.006,0,0,1,1.045-3.4,10.225,10.225,0,0,1,1.714-2.655,8.4,8.4,0,0,1,2.567-1.926,12.418,12.418,0,0,1,3.511-1.075q3.878-.637,5.176,1.084t.527,5.592l-1.78,8.936a15.9,15.9,0,0,1-1.051,3.4,10.634,10.634,0,0,1-1.729,2.7,8.5,8.5,0,0,1-2.577,1.97A12.1,12.1,0,0,1,314.981,211.577Zm-.459-3.271a2.771,2.771,0,0,0,1.109,0,3.891,3.891,0,0,0,1.179-.377,3.375,3.375,0,0,0,.853-.62,3.49,3.49,0,0,0,.6-.876,6.365,6.365,0,0,0,.411-1.026q.153-.507.289-1.192l2.189-10.993a9.868,9.868,0,0,0,.2-1.447,2.875,2.875,0,0,0-.138-1.043,1,1,0,0,0-.644-.642,2.7,2.7,0,0,0-1.3-.032,4.076,4.076,0,0,0-1.413.477,2.781,2.781,0,0,0-.953.905,5.39,5.39,0,0,0-.567,1.16,10.776,10.776,0,0,0-.384,1.474l-2.189,10.993a11.121,11.121,0,0,0-.182,1.175,4.279,4.279,0,0,0,.015.956,1.439,1.439,0,0,0,.273.734A1.172,1.172,0,0,0,314.522,208.306Z" transform="translate(-66.395 -183.179)" fill="#1f134a"/>
      <path id="Path_13288" data-name="Path 13288" d="M318.816,210.96l4.821-24.208,3.166-.518,3.443,12.7,2.73-13.709,3.8-.623-4.821,24.208-3.012.494-3.365-13.388-2.869,14.409Z" transform="translate(-59.541 -184.598)" fill="#1f134a"/>
    </g>
    <g id="Group_5819" data-name="Group 5819" transform="translate(160.874 194.991)">
      <path id="Path_13289" data-name="Path 13289" d="M137.5,231.172q-22.1,3.626-18.328-20.7l13.8-4.843q-2.67,15.858,6.31,14.382a9.3,9.3,0,0,0,5.578-2.882,11.782,11.782,0,0,0,2.781-5.751,12.854,12.854,0,0,0-.041-5.92,10.157,10.157,0,0,0-2.021-4.075,34.3,34.3,0,0,0-3.869-3.606l-9.174-7.351A17.261,17.261,0,0,1,127,183.155q-1.5-4-.187-10.584a27.543,27.543,0,0,1,8.622-15.471,32.713,32.713,0,0,1,16.768-7.859,23.788,23.788,0,0,1,7.907-.243,11.205,11.205,0,0,1,5.218,2.1,9.355,9.355,0,0,1,2.886,4.141,18.527,18.527,0,0,1,1.114,5.558,40.051,40.051,0,0,1-.307,6.68l-13.509,4.607q.38-2.405.511-4.161a19.454,19.454,0,0,0-.058-3.5,6.222,6.222,0,0,0-.846-2.747,3.65,3.65,0,0,0-2.009-1.427,6.341,6.341,0,0,0-3.35.036,10.549,10.549,0,0,0-8.44,8.552q-.769,3.878.321,6.11a14.28,14.28,0,0,0,3.905,4.539l9.084,7.317a31.96,31.96,0,0,1,3.825,3.823,22.969,22.969,0,0,1,2.848,4.454,15.961,15.961,0,0,1,1.546,5.838,25.517,25.517,0,0,1-.489,7.107,27.868,27.868,0,0,1-8.613,15.192A30.492,30.492,0,0,1,137.5,231.172Z" transform="translate(-118.62 -118.802)" fill="#fff"/>
      <path id="Path_13290" data-name="Path 13290" d="M168.871,226.243q-12.918,2.117-17.176-3.7t-1.675-18.8l5.9-29.645a52.957,52.957,0,0,1,3.47-11.3A33.962,33.962,0,0,1,165.078,154a27.819,27.819,0,0,1,8.52-6.388,41.307,41.307,0,0,1,11.645-3.574q12.864-2.11,17.171,3.6t1.746,18.552l-5.9,29.645a52.648,52.648,0,0,1-3.492,11.279,35.363,35.363,0,0,1-5.738,8.955,28.323,28.323,0,0,1-8.549,6.533A39.8,39.8,0,0,1,168.871,226.243Zm-1.524-10.856a9.206,9.206,0,0,0,3.684,0,12.755,12.755,0,0,0,3.91-1.25,10.99,10.99,0,0,0,2.825-2.057,11.3,11.3,0,0,0,1.994-2.9,22.083,22.083,0,0,0,1.364-3.409q.5-1.676.956-3.954l7.266-36.475a33.269,33.269,0,0,0,.661-4.793,9.325,9.325,0,0,0-.457-3.463,3.288,3.288,0,0,0-2.139-2.132,9.012,9.012,0,0,0-4.321-.112,13.611,13.611,0,0,0-4.685,1.588,9.247,9.247,0,0,0-3.161,3,17.946,17.946,0,0,0-1.887,3.849,37.358,37.358,0,0,0-1.269,4.894l-7.265,36.475a38.323,38.323,0,0,0-.6,3.895,14.27,14.27,0,0,0,.049,3.178,4.746,4.746,0,0,0,.907,2.427A3.927,3.927,0,0,0,167.348,215.387Z" transform="translate(-97.367 -122.505)" fill="#fff"/>
      <path id="Path_13291" data-name="Path 13291" d="M203.031,220.639q-12.915,2.12-17.176-3.7t-1.675-18.795l5.906-29.647a52.923,52.923,0,0,1,3.47-11.3,33.872,33.872,0,0,1,5.683-8.805,27.766,27.766,0,0,1,8.52-6.387,41.257,41.257,0,0,1,11.644-3.576q12.864-2.11,17.171,3.6t1.748,18.55l-5.9,29.645a52.632,52.632,0,0,1-3.491,11.28,35.4,35.4,0,0,1-5.738,8.955A28.345,28.345,0,0,1,214.641,217,39.712,39.712,0,0,1,203.031,220.639Zm-1.522-10.856a9.231,9.231,0,0,0,3.684.005,12.885,12.885,0,0,0,3.908-1.25,11.082,11.082,0,0,0,2.826-2.057,11.323,11.323,0,0,0,1.992-2.9,21.994,21.994,0,0,0,1.364-3.411q.5-1.676.958-3.953l7.265-36.477a32.764,32.764,0,0,0,.661-4.793,9.325,9.325,0,0,0-.455-3.463,3.309,3.309,0,0,0-2.138-2.133,9.065,9.065,0,0,0-4.323-.11,13.645,13.645,0,0,0-4.685,1.588,9.215,9.215,0,0,0-3.159,3,17.815,17.815,0,0,0-1.889,3.846,37.835,37.835,0,0,0-1.267,4.9l-7.265,36.475a38.805,38.805,0,0,0-.6,3.895,14.269,14.269,0,0,0,.049,3.178,4.774,4.774,0,0,0,.907,2.429A3.936,3.936,0,0,0,201.509,209.783Z" transform="translate(-73.503 -126.419)" fill="#fff"/>
      <path id="Path_13292" data-name="Path 13292" d="M215.755,218.591l16-80.313,10.5-1.722,11.426,42.126,9.058-45.486,12.614-2.069-16,80.313-9.989,1.639-11.165-44.416-9.524,47.81Z" transform="translate(-50.765 -131.127)" fill="#fff"/>
    </g>
    <g id="Group_5820" data-name="Group 5820" transform="translate(298.339 39.705)">
      <path id="Path_13293" data-name="Path 13293" d="M200.4,85.624a.848.848,0,0,1-.131-1.687L478.212,39.717a.849.849,0,1,1,.265,1.678L200.532,85.614A.894.894,0,0,1,200.4,85.624Z" transform="translate(-199.55 -39.705)" fill="#d51f5d"/>
    </g>
    <g id="Group_5821" data-name="Group 5821" transform="translate(124.621 51.287)">
      <path id="Path_13294" data-name="Path 13294" d="M98.125,92.441a.848.848,0,0,1-.131-1.687L375.941,46.536a.849.849,0,1,1,.265,1.676L98.261,92.431A.917.917,0,0,1,98.125,92.441Z" transform="translate(-97.277 -46.524)" fill="#d51f5d"/>
    </g>
    <g id="Group_5822" data-name="Group 5822" transform="translate(330.625 321.162)">
      <path id="Path_13295" data-name="Path 13295" d="M219.406,238.692a.849.849,0,0,1-.132-1.688L417.2,205.418a.849.849,0,1,1,.268,1.677L219.542,238.682A.944.944,0,0,1,219.406,238.692Z" transform="translate(-218.558 -205.408)" fill="#1f134a"/>
    </g>
    <g id="Group_5823" data-name="Group 5823" transform="translate(90.58 365.556)">
      <path id="Path_13296" data-name="Path 13296" d="M78.084,277.462a.849.849,0,0,1-.131-1.688L355.9,231.554a.849.849,0,1,1,.265,1.678L78.22,277.452A.917.917,0,0,1,78.084,277.462Z" transform="translate(-77.236 -231.544)" fill="#1f134a"/>
    </g>
  </g>
</svg>
