<svg width="24" height="24" viewBox="0 0 24 24" fill="none" xmlns="http://www.w3.org/2000/svg">
<path d="M4.88867 7.50285C4.88867 6.06015 6.0582 4.89062 7.50089 4.89062C8.94358 4.89062 10.1131 6.06015 10.1131 7.50285C10.1131 8.94554 8.94358 10.1151 7.50089 10.1151C6.0582 10.1151 4.88867 8.94554 4.88867 7.50285Z" fill="white" stroke="white"/>
<path d="M13.8887 7.50285C13.8887 6.06015 15.0582 4.89062 16.5009 4.89062C17.9436 4.89062 19.1131 6.06015 19.1131 7.50285C19.1131 8.94554 17.9436 10.1151 16.5009 10.1151C15.0582 10.1151 13.8887 8.94554 13.8887 7.50285Z" fill="white" stroke="white"/>
<path d="M4.88867 16.5028C4.88867 15.0602 6.0582 13.8906 7.50089 13.8906C8.94358 13.8906 10.1131 15.0602 10.1131 16.5028C10.1131 17.9455 8.94358 19.1151 7.50089 19.1151C6.0582 19.1151 4.88867 17.9455 4.88867 16.5028Z" fill="white" stroke="white"/>
<path d="M13.8887 16.5028C13.8887 15.0602 15.0582 13.8906 16.5009 13.8906C17.9436 13.8906 19.1131 15.0602 19.1131 16.5028C19.1131 17.9455 17.9436 19.1151 16.5009 19.1151C15.0582 19.1151 13.8887 17.9455 13.8887 16.5028Z" fill="white" stroke="white"/>
<path d="M9.88867 7.89062H14.3376" stroke="white"/>
<path d="M9.88867 16.8906H14.3376" stroke="white"/>
<path d="M7.88867 9.89062V14.3395" stroke="white"/>
<path d="M16.8887 9.89062V14.3395" stroke="white"/>
</svg>
