<svg width="24" height="24" viewBox="0 0 24 24" fill="none" xmlns="http://www.w3.org/2000/svg">
<path fill-rule="evenodd" clip-rule="evenodd" d="M15.8 12.5984C16.1314 12.5984 16.4 12.8669 16.4 13.1983C16.4 13.5298 16.1314 13.7984 15.8 13.7984C15.4686 13.7984 15.2 13.5298 15.2 13.1983C15.2 12.8669 15.4686 12.5984 15.8 12.5984ZM13.8 11.3983C13.6823 11.3983 13.6 11.4806 13.6 11.5984V14.7984C13.6 14.916 13.6823 14.9984 13.8 14.9984H20V11.3983L13.8 11.3983ZM4 7.25464V17.5984C4 18.1523 4.446 18.5984 5 18.5984H19C19.554 18.5984 20 18.1523 20 17.5984V15.7984H13.8C13.2529 15.7984 12.8 15.3454 12.8 14.7984V11.5984C12.8 11.0513 13.2529 10.5985 13.8 10.5985H20V8.7984C20 8.24438 19.554 7.7984 19 7.7984L5.0125 7.78595C4.61174 7.73822 4.25452 7.54401 4 7.2547V7.25464ZM5.2 5.39844C4.74988 5.39844 4.4 5.74817 4.4 6.19831C4.4 6.64851 4.74988 6.99842 5.2 6.99842H17.6V5.39844H5.2Z" fill="white"/>
</svg>
