<svg width="24" height="24" viewBox="0 0 24 24" fill="none" xmlns="http://www.w3.org/2000/svg">
<path fill-rule="evenodd" clip-rule="evenodd" d="M12.0003 15.5942C10.0155 15.5942 8.40641 13.9852 8.40641 12.0003C8.40641 10.0155 10.0155 8.40643 12.0003 8.40643C13.9852 8.40643 15.5942 10.0155 15.5942 12.0003C15.592 13.9842 13.9842 15.592 12.0003 15.5942ZM19.6965 10.5909C19.501 10.3868 19.2339 10.2666 18.9515 10.2556L17.8299 10.2093C17.7168 9.84186 17.5688 9.48607 17.388 9.14677L18.1493 8.31955C18.548 7.88832 18.5342 7.21891 18.118 6.80449L17.1971 5.88289C16.7826 5.4667 16.1132 5.45289 15.682 5.85164L14.8523 6.61479C14.5133 6.43577 14.1582 6.28928 13.7916 6.17727L13.7451 5.05035C13.7217 4.46329 13.2388 3.99953 12.6513 4H11.3493C10.7623 3.99951 10.2795 4.46254 10.2556 5.0491L10.209 6.17602C9.84241 6.28803 9.48727 6.43452 9.14832 6.61354L8.3186 5.85132C7.887 5.45355 7.21838 5.46734 6.80354 5.88257L5.88288 6.80354C5.46669 7.21796 5.45288 7.88736 5.85163 8.3186L6.6126 9.14582C6.4318 9.48512 6.28383 9.84091 6.17071 10.2084L5.0491 10.2546C4.46217 10.2786 3.999 10.7619 4 11.3493V12.6513C3.99951 13.2383 4.46254 13.7211 5.0491 13.7451L6.16571 13.7913C6.2785 14.161 6.42637 14.5191 6.60729 14.8607L5.85132 15.682C5.45355 16.1136 5.46734 16.7822 5.88257 17.1971L6.80323 18.1177C7.21806 18.533 7.88668 18.5467 8.31829 18.149L9.13707 17.3952C9.47934 17.5776 9.83842 17.7265 10.2093 17.8399L10.2552 18.9512C10.2792 19.5377 10.762 20.0008 11.349 20.0003H12.651C13.238 20.0008 13.7208 19.5377 13.7447 18.9512L13.7907 17.8399C14.1616 17.7265 14.5206 17.5776 14.8629 17.3952L15.6817 18.149C16.1129 18.5477 16.7823 18.5339 17.1968 18.1177L18.1174 17.1971C18.5326 16.7822 18.5464 16.1136 18.1487 15.682L17.3927 14.8607C17.5736 14.5191 17.7215 14.161 17.8343 13.7913L18.9509 13.745C19.5375 13.7211 20.0005 13.2383 20 12.6513V11.3493C20.0008 11.0668 19.892 10.7949 19.6965 10.5909V10.5909Z" fill="white"/>
</svg>
