<svg width="24" height="24" viewBox="0 0 24 24" fill="none" xmlns="http://www.w3.org/2000/svg">
<path fill-rule="evenodd" clip-rule="evenodd" d="M18.9041 8.11948H5.09589V6.84825C5.09589 6.19072 5.64384 5.64277 6.30137 5.64277H17.6986C18.3562 5.64277 18.9041 6.19072 18.9041 6.84825V8.11948ZM16.1644 16.7113H11.4959C11.189 16.7113 10.9479 16.4702 10.9479 16.1633C10.9479 15.8565 11.189 15.6154 11.4959 15.6154H16.1644C16.4712 15.6154 16.7123 15.8565 16.7123 16.1633C16.7123 16.4702 16.4712 16.7113 16.1644 16.7113ZM10.5315 13.9715L8.12055 16.1633C7.90137 16.3606 7.55069 16.3387 7.35343 16.0976C7.15617 15.8784 7.17809 15.5496 7.39727 15.3524L9.36987 13.5551L7.39727 11.7578C7.17809 11.5387 7.17809 11.2099 7.37535 10.9907C7.57261 10.7715 7.90138 10.7715 8.12055 10.9469L10.5315 13.1387C10.7507 13.3359 10.7726 13.6866 10.5754 13.9058C10.5534 13.9277 10.5534 13.9496 10.5315 13.9715ZM17.6986 4.54688H6.30137C5.03014 4.54688 4 5.57701 4 6.84824V17.1496C4 18.4208 5.03014 19.451 6.30137 19.451H17.6986C18.9699 19.451 20 18.4208 20 17.1496V6.84824C20 5.57701 18.9699 4.54688 17.6986 4.54688Z" fill="white"/>
</svg>
