<svg width="24" height="24" viewBox="0 0 24 24" fill="none" xmlns="http://www.w3.org/2000/svg">
<path fill-rule="evenodd" clip-rule="evenodd" d="M15.0959 4.123V7.3589H18.3255L15.0959 4.123Z" fill="white"/>
<path fill-rule="evenodd" clip-rule="evenodd" d="M11.4329 11.9248C10.8499 11.9248 10.6431 12.5209 10.6431 13.0314C10.6431 13.5456 10.8887 14.0991 11.428 14.0991C11.9736 14.0991 12.2179 13.5457 12.2179 12.9973C12.2178 12.4808 11.9722 11.9248 11.4329 11.9248Z" fill="white"/>
<path fill-rule="evenodd" clip-rule="evenodd" d="M16.735 14.6927C16.3289 14.8492 15.901 14.9507 15.4637 14.9507C14.8722 14.9507 14.4111 14.785 14.0541 14.4442C13.7113 14.1132 13.5147 13.5981 13.5147 13.0309C13.5206 11.8594 14.341 11.0723 15.5563 11.0723C15.9514 11.0723 16.342 11.1583 16.6898 11.3462L16.4396 12.1922C16.1602 12.0476 15.8646 11.9522 15.5466 11.9522C14.8833 11.9522 14.4873 12.3482 14.4873 13.0115C14.4873 13.6778 14.8632 14.0756 15.493 14.0756C15.6335 14.0756 15.7334 14.0647 15.7966 14.0543V13.5319H15.1286V12.6666H16.7349L16.735 14.6927ZM11.4069 14.9702C10.3828 14.9702 9.66754 14.1767 9.66754 13.0408C9.66754 11.8703 10.4028 11.0528 11.4556 11.0528C12.4797 11.0528 13.1949 11.8442 13.1949 12.9774C13.1949 14.354 12.2969 14.9702 11.4069 14.9702V14.9702ZM9.61601 14.9166H7.26369V11.1064H8.21185V14.0367H9.61605V14.9166H9.61601ZM18.4361 8.64217H15.0966C14.3857 8.64217 13.8093 8.06582 13.8093 7.35481V4H6.11696C5.81074 4 5.5625 4.24824 5.5625 4.55445V19.4455C5.5625 19.7518 5.81074 20 6.11696 20H17.8818C18.188 20 18.4362 19.752 18.4362 19.4457C18.4365 17.1673 18.4361 8.64218 18.4361 8.64218V8.64217Z" fill="white"/>
</svg>
