<svg width="24" height="24" viewBox="0 0 24 24" fill="none" xmlns="http://www.w3.org/2000/svg">
<path fill-rule="evenodd" clip-rule="evenodd" d="M5.3029 6.61318H15.7402V19.8601H5.3029V6.61318ZM10.5215 3.80325H19.7545V15.8459H16.543V6.21172C16.543 5.99016 16.3633 5.81044 16.1416 5.81035H10.5215V3.80325ZM10.0824 3.00038C9.87554 3.01988 9.71772 3.19401 9.71863 3.40175V5.81032H4.90142C4.88888 5.80967 4.87633 5.80967 4.86378 5.81032C4.65687 5.82982 4.49906 6.00404 4.49999 6.21178V20.2616C4.49999 20.4833 4.67969 20.663 4.9014 20.663H16.1416C16.3632 20.663 16.543 20.4833 16.543 20.2616V16.6488H20.1559C20.3776 16.6488 20.5573 16.4692 20.5573 16.2474V3.40175C20.5573 3.18019 20.3776 3.00047 20.1559 3.00047H10.1201C10.1075 2.99983 10.095 2.99983 10.0824 3.00047V3.00038Z" fill="#DBFF71"/>
</svg>
