<svg width="24" height="24" viewBox="0 0 24 24" fill="none" xmlns="http://www.w3.org/2000/svg">
<path fill-rule="evenodd" clip-rule="evenodd" d="M12.5303 11.9999L17.8902 6.63997C18.0366 6.49354 18.0366 6.25615 17.8902 6.10972C17.7439 5.96328 17.5062 5.96328 17.3599 6.10972L12 11.4697L6.64009 6.10972C6.49384 5.96328 6.25608 5.96328 6.10984 6.10972C5.9634 6.25615 5.9634 6.49354 6.10984 6.63997L11.4698 11.9999L6.10984 17.3598C5.9634 17.5063 5.9634 17.7437 6.10984 17.8901C6.18296 17.9634 6.27896 18 6.37496 18C6.47096 18 6.56696 17.9634 6.64009 17.8901L12 12.5302L17.3599 17.8901C17.433 17.9634 17.529 18 17.625 18C17.721 18 17.817 17.9634 17.8902 17.8901C18.0366 17.7437 18.0366 17.5063 17.8902 17.3598L12.5303 11.9999Z" fill="white"/>
</svg>
