<svg width="109" height="22" viewBox="0 0 109 22" fill="none" xmlns="http://www.w3.org/2000/svg">
<path fill-rule="evenodd" clip-rule="evenodd" d="M102.651 15.7721V5.24309H108.646V6.50415H104.026V9.63399H108.136V10.8646H104.026V14.511H109V15.7721H102.651ZM94.7145 14.3135C94.62 14.0704 94.4948 13.7615 94.3389 13.3867C94.183 13.012 94.0153 12.6068 93.8357 12.1713C93.6562 11.7357 93.4649 11.2875 93.2618 10.8267C93.0586 10.3658 92.8673 9.93026 92.6878 9.52004C92.5083 9.10982 92.3405 8.74265 92.1846 8.41852C92.0288 8.09439 91.9036 7.84622 91.8091 7.67404C91.7051 8.86925 91.6201 10.1632 91.554 11.5559C91.4878 12.9487 91.4311 14.3541 91.3839 15.7721H90.0375C90.0753 14.8605 90.1178 13.9413 90.1651 13.0145C90.2123 12.0877 90.2666 11.1761 90.328 10.2797C90.3894 9.38331 90.4556 8.5097 90.5264 7.65885C90.5973 6.80804 90.6753 6.00277 90.7603 5.24309H91.965C92.2201 5.68878 92.4941 6.21546 92.787 6.8232C93.0799 7.43094 93.3728 8.06652 93.6657 8.72998C93.9586 9.39343 94.242 10.0569 94.516 10.7203C94.7901 11.3837 95.0404 11.989 95.2672 12.5359C95.494 11.9889 95.7443 11.3837 96.0184 10.7203C96.2924 10.0569 96.5758 9.39344 96.8687 8.72998C97.1616 8.06651 97.4545 7.43094 97.7474 6.8232C98.0403 6.21546 98.3143 5.68879 98.5694 5.24309H99.7741C100.095 8.63629 100.336 12.1459 100.497 15.7721H99.1505C99.1033 14.3541 99.0466 12.9487 98.9804 11.5559C98.9143 10.1632 98.8293 8.86924 98.7253 7.67404C98.6309 7.84622 98.5057 8.09439 98.3497 8.41852C98.1939 8.74265 98.0261 9.10982 97.8466 9.52004C97.6671 9.93026 97.4758 10.3658 97.2726 10.8267C97.0695 11.2875 96.8781 11.7357 96.6986 12.1713C96.5191 12.6068 96.3514 13.012 96.1955 13.3867C96.0396 13.7615 95.9144 14.0705 95.8199 14.3135H94.7145ZM86.1825 11.8674C85.8802 10.9862 85.5802 10.1328 85.2826 9.3073C84.9849 8.48181 84.6755 7.68924 84.3543 6.92958C84.0236 7.68924 83.7094 8.48181 83.4118 9.3073C83.1142 10.1328 82.8189 10.9862 82.526 11.8674H86.1825ZM87.4722 15.7721C87.3116 15.3163 87.1604 14.8681 87.0187 14.4275C86.877 13.9869 86.7305 13.5387 86.5794 13.0829H82.1291L81.2363 15.7721H79.8048C80.1828 14.6579 80.5371 13.6273 80.8678 12.6803C81.1985 11.7332 81.5221 10.8343 81.8386 9.9834C82.1551 9.13259 82.4693 8.31975 82.7811 7.54491C83.0929 6.77002 83.4189 6.00277 83.759 5.24309H85.0204C85.3605 6.00276 85.6865 6.77002 85.9983 7.54491C86.3101 8.31975 86.6242 9.13259 86.9408 9.9834C87.2573 10.8343 87.5809 11.7332 87.9116 12.6803C88.2423 13.6273 88.5966 14.6579 88.9745 15.7721H87.4722ZM74.32 6.42816C73.7342 6.42816 73.2854 6.44339 72.9736 6.47377V10.4392H73.9515C74.424 10.4392 74.8491 10.4139 75.2271 10.3633C75.605 10.3126 75.9239 10.2164 76.1837 10.0746C76.4436 9.93278 76.6443 9.73274 76.7861 9.47446C76.9278 9.21616 76.9987 8.87433 76.9987 8.44892C76.9987 8.05389 76.9278 7.72468 76.7861 7.46133C76.6443 7.19799 76.453 6.99035 76.2121 6.83841C75.9711 6.68648 75.6877 6.58014 75.3617 6.51936C75.0357 6.45858 74.6885 6.42817 74.32 6.42817V6.42816ZM76.4034 11.366C76.5546 11.5686 76.7459 11.8345 76.9774 12.1637C77.2089 12.4929 77.4474 12.8575 77.6931 13.2576C77.9388 13.6577 78.1821 14.0755 78.423 14.511C78.6639 14.9466 78.8694 15.367 79.0395 15.7721H77.5372C77.3482 15.3872 77.1427 14.9972 76.9207 14.6022C76.6987 14.2072 76.4743 13.8299 76.2475 13.4703C76.0207 13.1107 75.7963 12.7739 75.5743 12.46C75.3523 12.1459 75.1515 11.8725 74.972 11.6395C74.8491 11.6496 74.7239 11.6547 74.5964 11.6547C74.4688 11.6547 74.3389 11.6547 74.2066 11.6547H72.9736V15.7721H71.5989V5.39503C71.9863 5.29376 72.4185 5.2254 72.8957 5.18992C73.3728 5.15447 73.8098 5.13676 74.2066 5.13676C75.5861 5.13676 76.6372 5.41531 77.3601 5.97239C78.0828 6.52949 78.4443 7.36005 78.4443 8.4641C78.4443 9.16297 78.2718 9.76059 77.927 10.2569C77.5821 10.7532 77.0742 11.1229 76.4034 11.366V11.366ZM63.9882 15.7721V5.24309H69.9123V6.50415H65.3629V9.67957H69.4021V10.9254H65.3629V15.7721H63.9882ZM62.5425 14.4958V15.7721H56.6325V5.24309H58.0073V14.4958H62.5425ZM55.187 14.4958V15.7721H49.277V5.24309H50.6517V14.4958H55.187ZM41.1844 15.7721V5.24309H47.1794V6.50415H42.5591V9.63399H46.6692V10.8646H42.5591V14.511H47.5337V15.7721H41.1844ZM36.6208 16C35.931 16 35.3027 15.8784 34.7358 15.6354C34.1689 15.3922 33.6823 15.0377 33.276 14.5718C32.8697 14.1059 32.5556 13.5311 32.3335 12.8474C32.1115 12.1637 32.0005 11.3812 32.0005 10.5C32.0005 9.61879 32.1257 8.83632 32.3761 8.15262C32.6264 7.46893 32.9642 6.89411 33.3894 6.42816C33.8146 5.96225 34.3106 5.60773 34.8775 5.36465C35.4444 5.12153 36.0491 5 36.6916 5C37.0979 5 37.464 5.03038 37.79 5.09116C38.116 5.15195 38.3994 5.22284 38.6404 5.30387C38.8813 5.38491 39.0774 5.46593 39.2285 5.54697C39.3797 5.62801 39.4836 5.68879 39.5403 5.72928L39.1435 6.94476C39.0585 6.88398 38.9356 6.81813 38.775 6.74725C38.6144 6.67633 38.4325 6.60545 38.2294 6.53454C38.0262 6.46363 37.8042 6.40537 37.5633 6.3598C37.3223 6.31422 37.079 6.29143 36.8334 6.29143C36.3137 6.29143 35.846 6.38768 35.4303 6.58013C35.0145 6.77256 34.6602 7.05111 34.3673 7.41576C34.0744 7.78038 33.85 8.22353 33.6941 8.74517C33.5382 9.26684 33.4603 9.85175 33.4603 10.5C33.4603 11.128 33.5288 11.7003 33.6658 12.2169C33.8028 12.7334 34.0083 13.1766 34.2823 13.5463C34.5563 13.916 34.8988 14.2021 35.3098 14.4047C35.7208 14.6073 36.2003 14.7086 36.7483 14.7086C37.3814 14.7086 37.9058 14.6377 38.3215 14.4958C38.7372 14.354 39.049 14.2274 39.2569 14.116L39.6112 15.3315C39.5451 15.3821 39.427 15.4454 39.2569 15.5214C39.0868 15.5974 38.8742 15.6708 38.6191 15.7417C38.364 15.8126 38.0664 15.8734 37.7262 15.924C37.3861 15.9747 37.0176 16 36.6208 16Z" fill="white"/>
<path fill-rule="evenodd" clip-rule="evenodd" d="M5.7363 1.97797H5.73627C5.19007 1.97797 4.74728 1.53519 4.74728 0.98899C4.74728 0.93138 4.7522 0.87492 4.76166 0.82001C4.84183 0.35431 5.24768 0 5.73627 0H5.7363H5.73633C6.28253 0 6.72532 0.44279 6.72532 0.98899C6.72532 1.0722 6.71505 1.15301 6.69569 1.23021C6.58801 1.65981 6.19933 1.97797 5.73634 1.97797H5.7363ZM13.8461 1.38455C13.8461 0.83835 14.289 0.39557 14.8352 0.39557C15.3814 0.39557 15.8242 0.83836 15.8242 1.38455C15.8242 1.93082 15.3814 2.3736 14.8352 2.3736C14.289 2.3736 13.8461 1.93082 13.8461 1.38455ZM17.5384 1.91207C17.5384 1.89728 17.5388 1.88257 17.5395 1.86796C17.5625 1.41509 17.937 1.05488 18.3956 1.05488C18.869 1.05488 19.2528 1.43869 19.2528 1.91207C19.2528 2.14875 19.1568 2.36304 19.0017 2.51815C18.8466 2.67327 18.6323 2.76924 18.3956 2.76924C17.9222 2.76924 17.5384 2.38543 17.5384 1.91207ZM11.5385 3.03293H11.5384C10.975 3.03293 10.5087 2.61723 10.4294 2.0758C10.4216 2.02236 10.4176 1.96768 10.4176 1.91207C10.4176 1.29303 10.9194 0.79121 11.5384 0.79121H11.5385H11.5385C12.0487 0.79121 12.4793 1.13211 12.6149 1.59858C12.6438 1.69806 12.6594 1.80325 12.6594 1.91207C12.6594 2.5311 12.1575 3.03293 11.5385 3.03293H11.5385ZM21.2967 4.61533H21.2967C20.9431 4.61533 20.6486 4.36227 20.5844 4.02739C20.5759 3.98294 20.5715 3.93704 20.5715 3.89011C20.5715 3.48951 20.8962 3.16481 21.2967 3.16481H21.2967H21.2967C21.6472 3.16481 21.9396 3.41341 22.0072 3.74393C22.0169 3.79114 22.022 3.84003 22.022 3.89011C22.022 4.29064 21.6973 4.61534 21.2967 4.61534L21.2967 4.61533ZM3.56157 4.74537C2.97271 4.71178 2.50548 4.22362 2.50548 3.62635C2.50548 3.00732 3.00738 2.50549 3.62641 2.50549C4.24544 2.50549 4.74727 3.00732 4.74727 3.62635C4.74727 4.24538 4.24544 4.74721 3.62641 4.74721C3.60465 4.74721 3.58303 4.74659 3.56157 4.74536V4.74537ZM8.24178 4.8791H8.24175C7.54988 4.8791 6.98901 4.31822 6.98901 3.62635C6.98901 3.54797 6.99621 3.47128 7.00998 3.39689C7.11777 2.8146 7.62826 2.37361 8.24176 2.37361H8.24179H8.24182C8.93369 2.37361 9.49456 2.93449 9.49456 3.62636C9.49456 4.31822 8.93369 4.87911 8.24182 4.87911L8.24178 4.8791ZM22.8132 6.65935C22.8132 6.33158 23.0789 6.06593 23.4066 6.06593C23.7343 6.06593 24 6.33159 24 6.65935C24 6.98703 23.7343 7.25269 23.4066 7.25269C23.0789 7.25269 22.8132 6.98703 22.8132 6.65935ZM10.5649 7.91096C9.96931 7.88455 9.49455 7.39332 9.49455 6.79115C9.49455 6.17212 9.99638 5.67029 10.6154 5.67029C11.2344 5.67029 11.7363 6.17211 11.7363 6.79115C11.7363 7.39332 11.2615 7.88455 10.6659 7.91096C10.6492 7.91171 10.6323 7.91207 10.6154 7.91207C10.5985 7.91207 10.5816 7.9117 10.5649 7.91096ZM2.17585 8.0439H2.17582C1.48395 8.0439 0.92308 7.48302 0.92308 6.79115C0.92308 6.09929 1.48395 5.53841 2.17582 5.53841H2.17585H2.17588C2.86775 5.53841 3.42862 6.09928 3.42862 6.79115C3.42862 7.48301 2.86775 8.0439 2.17588 8.0439H2.17585ZM5.01103 6.65935C5.01103 5.89465 5.63088 5.27472 6.39558 5.27472C7.16029 5.27472 7.7802 5.89465 7.7802 6.65935C7.7802 7.42406 7.16028 8.04396 6.39558 8.04396C5.63088 8.04396 5.01103 7.42406 5.01103 6.65935ZM11.8682 10.2197C11.8682 9.60069 12.37 9.09885 12.989 9.09885C13.6081 9.09885 14.1099 9.6007 14.1099 10.2197C14.1099 10.8388 13.6081 11.3407 12.989 11.3407C12.37 11.3407 11.8682 10.8388 11.8682 10.2197ZM8.17676 10.2681C8.17615 10.2521 8.17584 10.2359 8.17584 10.2197C8.17584 9.52785 8.73671 8.96696 9.42858 8.96696C10.1204 8.96696 10.6813 9.52784 10.6813 10.2197C10.6813 10.2359 10.681 10.2521 10.6804 10.2681C10.6549 10.9376 10.1042 11.4725 9.42858 11.4725C8.75293 11.4725 8.2022 10.9376 8.17676 10.2681ZM0 10.3516C0 9.5869 0.61992 8.96696 1.38462 8.96696C2.14932 8.96696 2.76924 9.58689 2.76924 10.3516C2.76924 11.1163 2.14932 11.7362 1.38462 11.7362C0.61992 11.7362 0 11.1163 0 10.3516ZM3.95608 10.3516C3.95608 9.51413 4.63504 8.83516 5.47258 8.83516C6.31005 8.83516 6.98901 9.51413 6.98901 10.3516C6.98901 11.1891 6.31005 11.8681 5.47258 11.8681C4.63504 11.8681 3.95608 11.1891 3.95608 10.3516ZM10.3019 14.7248C9.83547 14.5892 9.49456 14.1586 9.49456 13.6483V13.6483V13.6483C9.49456 13.0848 9.91027 12.6185 10.4517 12.5393C10.5051 12.5315 10.5598 12.5274 10.6154 12.5274C10.671 12.5274 10.7257 12.5315 10.7792 12.5393C11.3206 12.6185 11.7363 13.0848 11.7363 13.6483V13.6483V13.6483C11.7363 14.1586 11.3954 14.5892 10.9289 14.7248C10.8294 14.7537 10.7242 14.7692 10.6154 14.7692C10.5066 14.7692 10.4014 14.7537 10.3019 14.7248ZM2.17585 15.1648H2.17582C1.48395 15.1648 0.92308 14.6039 0.92308 13.912C0.92308 13.2202 1.48395 12.6593 2.17582 12.6593H2.17585H2.17588C2.86775 12.6593 3.42862 13.2202 3.42862 13.912C3.42862 14.6039 2.86775 15.1648 2.17588 15.1648H2.17585ZM22.8132 14.7032C22.8132 14.3755 23.0789 14.1099 23.4066 14.1099C23.7343 14.1099 24 14.3755 24 14.7032C24 15.031 23.7343 15.2967 23.4066 15.2967C23.0789 15.2967 22.8132 15.031 22.8132 14.7032ZM5.01103 14.0439C5.01103 13.2792 5.63088 12.6593 6.39558 12.6593C7.16029 12.6593 7.7802 13.2792 7.7802 14.0439C7.7802 14.8086 7.16028 15.4285 6.39558 15.4285C5.63088 15.4285 5.01103 14.8086 5.01103 14.0439ZM21.2967 18.1978H21.2967C20.9431 18.1978 20.6486 17.9447 20.5844 17.6098C20.5759 17.5653 20.5715 17.5194 20.5715 17.4725C20.5715 17.0719 20.8962 16.7473 21.2967 16.7473H21.2967H21.2967C21.6472 16.7473 21.9396 16.9959 22.0072 17.3263C22.0169 17.3735 22.022 17.4224 22.022 17.4725C22.022 17.8731 21.6973 18.1978 21.2967 18.1978L21.2967 18.1978ZM3.56157 18.3278C2.97271 18.2942 2.50548 17.8061 2.50548 17.2088C2.50548 16.5897 3.00738 16.0879 3.62641 16.0879C4.24544 16.0879 4.74727 16.5897 4.74727 17.2088C4.74727 17.8278 4.24544 18.3296 3.62641 18.3296C3.60465 18.3296 3.58303 18.329 3.56157 18.3278V18.3278ZM8.24178 18.7252H8.24175C7.54988 18.7252 6.98901 18.1643 6.98901 17.4725C6.98901 17.3941 6.99621 17.3174 7.00998 17.243C7.11777 16.6607 7.62826 16.2197 8.24176 16.2197H8.24179H8.24182C8.93369 16.2197 9.49456 16.7806 9.49456 17.4725C9.49456 18.1643 8.93369 18.7252 8.24182 18.7252H8.24178ZM17.5384 19.3186C17.5384 19.3038 17.5388 19.2891 17.5395 19.2745C17.5625 18.8216 17.937 18.4615 18.3956 18.4615C18.869 18.4615 19.2528 18.8453 19.2528 19.3186C19.2528 19.781 18.8867 20.1578 18.4287 20.1752C18.4177 20.1756 18.4067 20.1758 18.3956 20.1758C17.9222 20.1758 17.5384 19.7921 17.5384 19.3186V19.3186ZM11.5385 20.5714H11.5384C10.975 20.5714 10.5087 20.1557 10.4294 19.6142C10.4216 19.5608 10.4176 19.5061 10.4176 19.4505C10.4176 18.8315 10.9194 18.3296 11.5384 18.3296H11.5385H11.5385C12.0487 18.3296 12.4793 18.6706 12.6149 19.137C12.6438 19.2365 12.6594 19.3417 12.6594 19.4505C12.6594 20.0695 12.1575 20.5714 11.5385 20.5714L11.5385 20.5714ZM13.8461 19.9779C13.8461 19.4318 14.289 18.989 14.8352 18.989C15.3814 18.989 15.8242 19.4318 15.8242 19.9779C15.8242 20.5242 15.3814 20.967 14.8352 20.967C14.289 20.967 13.8461 20.5242 13.8461 19.9779ZM5.7363 21.2307H5.73627C5.19007 21.2307 4.74728 20.7879 4.74728 20.2417C4.74728 20.1841 4.7522 20.1277 4.76166 20.0727C4.84183 19.607 5.24768 19.2527 5.73627 19.2527H5.7363H5.73633C6.28253 19.2527 6.72532 19.6955 6.72532 20.2417C6.72532 20.3249 6.71505 20.4057 6.69569 20.4829C6.58801 20.9125 6.19933 21.2307 5.73634 21.2307H5.7363Z" fill="url(#paint0_linear_173_22580)"/>
<defs>
<linearGradient id="paint0_linear_173_22580" x1="11.0334" y1="31.8453" x2="32.3232" y2="9.71775" gradientUnits="userSpaceOnUse">
<stop stop-color="#964BFF"/>
<stop offset="0.37" stop-color="#A695FF"/>
<stop offset="0.65" stop-color="#3CE9FF"/>
<stop offset="0.86" stop-color="#CAFF2C"/>
<stop offset="1" stop-color="#FFFF21"/>
</linearGradient>
</defs>
</svg>
