<svg width="26" height="24" viewBox="0 0 26 24" fill="none" xmlns="http://www.w3.org/2000/svg">
<g clip-path="url(#clip0_604_36035)">
<path fill-rule="evenodd" clip-rule="evenodd" d="M19.835 4.57426C21.2068 5.00898 22.4342 5.77565 23.4258 6.78134C25.0162 8.39437 26 10.6234 26 13.0851C26 15.5468 25.0162 17.7752 23.4258 19.3888C21.8354 21.0018 19.6382 22 17.2114 22C15.8923 22 14.641 21.705 13.5181 21.1767C14.1648 20.7871 14.7679 20.3154 15.3132 19.7675C15.916 19.9436 16.5529 20.0371 17.2114 20.0371C19.1042 20.0371 20.8178 19.2595 22.058 18.0009C23.2983 16.743 24.0654 15.0046 24.0654 13.0851C24.0654 11.1649 23.2983 9.42661 22.058 8.16863C21.4267 7.52839 20.6729 7.01285 19.835 6.66011V4.57426ZM5.10687 4.98762C6.97618 4.11183 7.42143 5.91767 5.50369 6.98167C4.92786 7.30093 4.40235 7.70158 3.94192 8.16863C2.70173 9.42661 1.93451 11.1649 1.93451 13.0851C1.93451 15.0046 2.70173 16.743 3.94192 18.0009C5.18218 19.2595 6.8958 20.0371 8.7885 20.0371C9.44704 20.0371 10.084 19.9436 10.6868 19.7675C10.8627 19.7161 11.0356 19.6578 11.2054 19.5932C11.8565 19.3438 12.4606 18.9974 13 18.5707C13.1302 18.468 13.2569 18.36 13.3793 18.248C13.4665 18.1678 13.5519 18.0857 13.6351 18.0009C14.8754 16.743 15.6425 15.0046 15.6425 13.0851C15.6425 12.4125 15.5484 11.7613 15.3725 11.1459C14.2695 7.28592 11.9176 6.63066 10.6275 11.1459C10.4516 11.7613 10.3575 12.4125 10.3575 13.0851C10.3575 15.0046 11.1245 16.743 12.3649 18.0009C12.448 18.0857 12.5334 18.1678 12.6208 18.248C12.0743 18.666 11.4684 18.9899 10.8254 19.2098C9.3362 17.6124 8.423 15.4567 8.423 13.0851C8.423 12.4188 8.49494 11.7699 8.63151 11.1459C10.1447 4.22613 15.855 4.22556 17.3685 11.1459C17.505 11.7699 17.5771 12.4188 17.5771 13.0851C17.5771 15.4567 16.6638 17.6124 15.1746 19.2098C15.1182 19.2704 15.061 19.3299 15.0029 19.3888C14.9345 19.4574 14.8651 19.5262 14.7947 19.5932C14.2556 20.1052 13.6529 20.5486 13 20.9112C12.8306 21.0053 12.6577 21.0936 12.4819 21.1767C11.359 21.705 10.1076 22 8.7885 22C6.36167 22 4.16453 21.0018 2.57418 19.3888C0.98383 17.7752 0 15.5468 0 13.0851C0 10.6234 0.98383 8.39437 2.57418 6.78134C3.30312 6.04238 4.15939 5.43215 5.10687 4.98762ZM19.3507 4.37624L19.3534 6.55148L17.2058 6.55446L17.203 4.37862L19.3507 4.37624ZM16.2245 3.38614L16.2256 4.37513L15.2492 4.37624L15.2481 3.38725L16.2245 3.38614ZM18.7649 2L18.7669 3.58194L17.2049 3.58416L17.203 2.00166L18.7649 2Z" fill="url(#paint0_linear_604_36035)"/>
</g>
<defs>
<linearGradient id="paint0_linear_604_36035" x1="13" y1="17.7669" x2="21.9142" y2="1.46613" gradientUnits="userSpaceOnUse">
<stop stop-color="#9580FF"/>
<stop offset="0.567026" stop-color="#5EEDFF"/>
<stop offset="1" stop-color="#D3FF52"/>
</linearGradient>
<clipPath id="clip0_604_36035">
<rect width="26" height="20" fill="white" transform="translate(0 2)"/>
</clipPath>
</defs>
</svg>
