<svg width="24" height="24" viewBox="0 0 24 24" fill="none" xmlns="http://www.w3.org/2000/svg">
<path fill-rule="evenodd" clip-rule="evenodd" d="M5.30292 6.61319H15.7402V19.8601H5.30292V6.61319ZM10.5215 3.80326H19.7545V15.8459H16.543V6.21174C16.543 5.99017 16.3633 5.81046 16.1416 5.81037H10.5215V3.80326ZM10.0824 3.00039C9.87555 3.01989 9.71774 3.19403 9.71864 3.40176V5.81033H4.90143C4.88889 5.80968 4.87634 5.80968 4.8638 5.81033C4.65689 5.82983 4.49907 6.00405 4.5 6.21179V20.2617C4.5 20.4833 4.6797 20.663 4.90142 20.663H16.1416C16.3632 20.663 16.543 20.4833 16.543 20.2617V16.6488H20.1559C20.3776 16.6488 20.5573 16.4692 20.5573 16.2474V3.40176C20.5573 3.1802 20.3777 3.00048 20.156 3.00048H10.1201C10.1075 2.99984 10.095 2.99984 10.0824 3.00048V3.00039Z" fill="white"/>
</svg>
