<svg width="16" height="16" viewBox="0 0 16 16" fill="none" xmlns="http://www.w3.org/2000/svg">
<path fill-rule="evenodd" clip-rule="evenodd" d="M9.95556 11.6205V12.0889C9.95556 12.2853 9.79632 12.4445 9.5999 12.4445H6.40016C6.20373 12.4445 6.04449 12.2853 6.04449 12.0889V11.6205C6.04449 11.4655 6.14494 11.3283 6.29276 11.2815L7.02492 11.0496C7.07627 11.0333 7.11116 10.9857 7.11115 10.9318V7.28903H6.55227C6.3017 7.28903 6.08858 7.10624 6.05042 6.85858C6.01226 6.61091 6.16047 6.37244 6.39944 6.29701L8.42579 5.65744C8.53395 5.6233 8.65191 5.64275 8.74338 5.7098C8.83486 5.77686 8.88891 5.88349 8.88891 5.99691V10.9318C8.88891 10.9857 8.92381 11.0333 8.97515 11.0496L9.70729 11.2815C9.85512 11.3283 9.95556 11.4655 9.95556 11.6205V11.6205ZM7.11108 3.55553C7.11108 3.06462 7.50904 2.66665 7.99996 2.66665C8.49087 2.66665 8.88884 3.06462 8.88884 3.55553C8.88884 4.04645 8.49087 4.44441 7.99996 4.44441C7.50904 4.44441 7.11108 4.04645 7.11108 3.55553ZM7.99997 14.5776C4.3672 14.5776 1.42226 11.6327 1.42226 7.99993C1.42226 4.36716 4.36721 1.42222 7.99997 1.42222C11.6327 1.42222 14.5777 4.36717 14.5777 7.99993C14.5736 11.631 11.631 14.5736 7.99997 14.5776ZM7.99992 0C3.58168 0 0 3.58168 0 7.99992C0 12.4182 3.58168 15.9998 7.99992 15.9998C12.4182 15.9998 15.9998 12.4182 15.9998 7.99992C15.9949 3.58375 12.4161 0.00497595 7.99992 0Z" fill="#363A42"/>
</svg>
