<svg width="24" height="24" viewBox="0 0 24 24" fill="none" xmlns="http://www.w3.org/2000/svg">
<path d="M17.0976 10.4369C17.0976 6.08361 17.0976 3.1814 12.0187 3.1814C9.95263 3.1814 8.72703 3.66166 8 4.52451M12.0187 14.9496C12.0187 14.9496 12.0187 16.2763 12.0187 17.1263M4.0376 10.4369V21.3203H19.9998V10.4369H4.0376Z" stroke="#C4FF00" stroke-width="1.6" stroke-linecap="round" stroke-linejoin="round"/>
<path d="M12.018 15.039C12.4187 15.039 12.7436 14.7142 12.7436 14.3134C12.7436 13.9127 12.4187 13.5879 12.018 13.5879C11.6173 13.5879 11.2925 13.9127 11.2925 14.3134C11.2925 14.7142 11.6173 15.039 12.018 15.039Z" stroke="#C4FF00" stroke-width="1.6" stroke-linecap="round" stroke-linejoin="round"/>
<rect x="0.752441" y="4.17627" width="4" height="1.6" rx="0.8" transform="rotate(22.2614 0.752441 4.17627)" fill="#C4FF00"/>
<rect x="5.08936" y="1.5" width="4" height="1.6" rx="0.8" transform="rotate(73.4617 5.08936 1.5)" fill="#C4FF00"/>
<rect y="8.65332" width="4" height="1.6" rx="0.8" transform="rotate(-22.7386 0 8.65332)" fill="#C4FF00"/>
</svg>
