<svg width="24" height="24" viewBox="0 0 24 24" fill="none" xmlns="http://www.w3.org/2000/svg">
<path d="M20.5 2V21.1545C20.5 21.5515 20.0595 21.7901 19.727 21.5733L17.3191 20.0038C16.8213 19.6792 16.1787 19.6792 15.6809 20.0038L12.273 22.2252C12.1071 22.3333 11.8929 22.3333 11.727 22.2252L8.31912 20.0038C7.82126 19.6792 7.17875 19.6792 6.68088 20.0038L4.27304 21.5733C3.94045 21.7901 3.5 21.5515 3.5 21.1545V2C3.5 1.72386 3.72386 1.5 4 1.5H20C20.2761 1.5 20.5 1.72386 20.5 2Z" stroke="#DBFF71"/>
<rect x="6" y="6" width="12" height="1" rx="0.5" fill="#DBFF71"/>
<rect x="6" y="10" width="12" height="1" rx="0.5" fill="#DBFF71"/>
<rect x="6" y="14" width="7" height="1" rx="0.5" fill="#DBFF71"/>
</svg>
