<svg width="20" height="20" viewBox="0 0 20 20" fill="none" xmlns="http://www.w3.org/2000/svg">
<path fill-rule="evenodd" clip-rule="evenodd" d="M4.39253 4.39255C2.58599 6.19909 2.58599 9.12806 4.39253 10.9346C6.19906 12.7411 9.12804 12.7411 10.9346 10.9346C12.7411 9.12806 12.7411 6.19909 10.9346 4.39255C9.12804 2.58601 6.19906 2.58601 4.39253 4.39255ZM3.83178 3.8318C5.94801 1.71557 9.3791 1.71557 11.4953 3.8318C13.5172 5.85371 13.6074 9.0759 11.7657 11.2048L16.1682 15.6075C16.3231 15.7624 16.3231 16.0134 16.1682 16.1683C16.0134 16.3231 15.7623 16.3231 15.6075 16.1683L11.205 11.7655C9.07608 13.6074 5.85376 13.5173 3.83178 11.4954C1.71555 9.37912 1.71555 5.94803 3.83178 3.8318Z" fill="white"/>
</svg>
