<svg width="88" height="88" viewBox="0 0 88 88" fill="none" xmlns="http://www.w3.org/2000/svg">
<g opacity="0.01">
<path fill-rule="evenodd" clip-rule="evenodd" d="M0 88V0H88V88H0Z" fill="#C4FF00"/>
<path d="M0.5 87.5V0.5H87.5V87.5H0.5Z" stroke="black" stroke-opacity="0.01"/>
</g>
<path fill-rule="evenodd" clip-rule="evenodd" d="M29.002 36.9616L23.832 42.1683L40.332 58.6683L76.9987 22.0016L71.8287 16.7949L40.332 48.2916L29.002 36.9616ZM73.332 44.0006C73.332 60.201 60.1991 73.334 43.9987 73.334C27.7983 73.334 14.6654 60.201 14.6654 44.0006C14.6654 27.8003 27.7983 14.6673 43.9987 14.6673C46.7854 14.6673 49.4987 15.0707 52.0654 15.804L57.822 10.0473C53.5687 8.28732 48.912 7.33398 43.9987 7.33398C23.7482 7.33398 7.33203 23.7502 7.33203 44.0006C7.33203 64.2511 23.7482 80.6673 43.9987 80.6673C64.2491 80.6673 80.6654 64.2511 80.6654 44.0006" fill="#C4FF00"/>
</svg>
