<svg width="16" height="16" viewBox="0 0 16 16" fill="none" xmlns="http://www.w3.org/2000/svg">
<path d="M10.6393 8.21788C10.444 8.02261 10.1274 8.02261 9.93216 8.21788C9.7369 8.41314 9.7369 8.72972 9.93216 8.92498L10.6393 8.21788ZM12 10.2857L12.3536 10.6393C12.5488 10.444 12.5488 10.1274 12.3536 9.93216L12 10.2857ZM9.93216 11.6464C9.7369 11.8417 9.7369 12.1583 9.93216 12.3536C10.1274 12.5488 10.444 12.5488 10.6393 12.3536L9.93216 11.6464ZM4 9.78571C3.72386 9.78571 3.5 10.0096 3.5 10.2857C3.5 10.5619 3.72386 10.7857 4 10.7857V9.78571ZM5.36073 7.78212C5.55599 7.97739 5.87258 7.97739 6.06784 7.78212C6.2631 7.58686 6.2631 7.27028 6.06784 7.07502L5.36073 7.78212ZM4 5.71429L3.64645 5.36073C3.45118 5.55599 3.45118 5.87258 3.64645 6.06784L4 5.71429ZM6.06784 4.35355C6.2631 4.15829 6.2631 3.84171 6.06784 3.64645C5.87258 3.45118 5.55599 3.45118 5.36073 3.64645L6.06784 4.35355ZM12 6.21429C12.2761 6.21429 12.5 5.99043 12.5 5.71429C12.5 5.43814 12.2761 5.21429 12 5.21429V6.21429ZM9.93216 8.92498L11.6464 10.6393L12.3536 9.93216L10.6393 8.21788L9.93216 8.92498ZM11.6464 9.93216L9.93216 11.6464L10.6393 12.3536L12.3536 10.6393L11.6464 9.93216ZM4 10.7857H12V9.78571H4V10.7857ZM6.06784 7.07502L4.35355 5.36073L3.64645 6.06784L5.36073 7.78212L6.06784 7.07502ZM4.35355 6.06784L6.06784 4.35355L5.36073 3.64645L3.64645 5.36073L4.35355 6.06784ZM12 5.21429H4V6.21429H12V5.21429Z" fill="#AABCDE"/>
</svg>
