<svg width="64" height="64" viewBox="0 0 64 64" fill="none" xmlns="http://www.w3.org/2000/svg">
<g opacity="0.01">
<path fill-rule="evenodd" clip-rule="evenodd" d="M0 64V0H64V64H0Z" fill="#C4FF00"/>
<path d="M0.5 63.5V0.5H63.5V63.5H0.5Z" stroke="black" stroke-opacity="0.01"/>
</g>
<path fill-rule="evenodd" clip-rule="evenodd" d="M21.0935 26.8787L17.3335 30.6654L29.3335 42.6654L56.0002 15.9987L52.2402 12.212L29.3335 35.1187L21.0935 26.8787ZM53.3335 31.9987C53.3335 43.7808 43.7822 53.332 32.0002 53.332C20.2181 53.332 10.6668 43.7808 10.6668 31.9987C10.6668 20.2166 20.2181 10.6654 32.0002 10.6654C34.0268 10.6654 36.0002 10.9587 37.8668 11.492L42.0535 7.30536C38.9602 6.02536 35.5735 5.33203 32.0002 5.33203C17.2726 5.33203 5.3335 17.2711 5.3335 31.9987C5.3335 46.7263 17.2726 58.6654 32.0002 58.6654C46.7278 58.6654 58.6668 46.7263 58.6668 31.9987" fill="#C4FF00"/>
</svg>
