<svg width="16" height="16" viewBox="0 0 16 16" fill="none" xmlns="http://www.w3.org/2000/svg">
<path fill-rule="evenodd" clip-rule="evenodd" d="M3.53527 4.40879H10.4935V13.2401H3.53527V4.40879ZM7.01433 2.5355H13.1696V10.5639H11.0287V4.14115C11.0287 3.99344 10.9089 3.87363 10.7611 3.87357H7.01433V2.5355ZM6.72162 2.00026C6.5837 2.01326 6.47849 2.12935 6.47909 2.26784V3.87355H3.26762C3.25926 3.87312 3.25089 3.87312 3.24253 3.87355C3.10459 3.88655 2.99938 4.0027 3 4.14119V13.5078C3 13.6555 3.1198 13.7754 3.26761 13.7754H10.7611C10.9088 13.7754 11.0287 13.6555 11.0287 13.5078V11.0992H13.4373C13.5851 11.0992 13.7049 10.9795 13.7049 10.8316V2.26784C13.7049 2.12013 13.5851 2.00032 13.4373 2.00032H6.74671C6.73835 1.99989 6.72998 1.99989 6.72162 2.00032V2.00026Z" fill="#B2B2B2"/>
</svg>
