<svg width="11" height="11" viewBox="0 0 11 11" fill="none" xmlns="http://www.w3.org/2000/svg">
<path fill-rule="evenodd" clip-rule="evenodd" d="M5.94188 5.49992L10.4085 1.03331C10.5305 0.911281 10.5305 0.713461 10.4085 0.59143C10.2866 0.4694 10.0885 0.4694 9.9666 0.59143L5.50001 5.05804L1.03341 0.59143C0.91153 0.4694 0.7134 0.4694 0.59153 0.59143C0.4695 0.713461 0.4695 0.911281 0.59153 1.03331L5.05813 5.49992L0.59153 9.96653C0.4695 10.0886 0.4695 10.2864 0.59153 10.4084C0.65247 10.4695 0.73247 10.5 0.81247 10.5C0.89247 10.5 0.97247 10.4695 1.03341 10.4084L5.50001 5.9418L9.9666 10.4084C10.0275 10.4695 10.1075 10.5 10.1875 10.5C10.2675 10.5 10.3475 10.4695 10.4085 10.4084C10.5305 10.2864 10.5305 10.0886 10.4085 9.96653L5.94188 5.49992Z" fill="white"/>
</svg>
