<svg width="24" height="24" viewBox="0 0 24 24" fill="none" xmlns="http://www.w3.org/2000/svg">
<path d="M9.375 15.125L14.625 9.87498M9.75 6.5V5M14.25 18.5V20M6 10.25H4.5M18 14.75H19.5M6.68566 7.18566L5.625 6.125M17.3144 17.8143L18.375 18.8749M12 16.7426L10.409 18.3336C9.23746 19.5051 7.33797 19.5051 6.16639 18.3336C4.99482 17.162 4.99482 15.2625 6.16639 14.0909L7.75739 12.4999M16.2427 12.4999L17.8337 10.9089C19.0052 9.73737 19.0052 7.83788 17.8337 6.6663C16.6621 5.49473 14.7626 5.49473 13.591 6.6663L12 8.25729" stroke="white" stroke-linecap="round" stroke-linejoin="round"/>
</svg>
