<svg width="16" height="16" viewBox="0 0 16 16" fill="none" xmlns="http://www.w3.org/2000/svg">
<path fill-rule="evenodd" clip-rule="evenodd" d="M9.4668 10.7158V11.067C9.4668 11.2143 9.34737 11.3338 9.20005 11.3338H6.80025C6.65293 11.3338 6.5335 11.2143 6.5335 11.067V10.7158C6.5335 10.5995 6.60883 10.4966 6.7197 10.4615L7.26882 10.2876C7.30733 10.2754 7.3335 10.2396 7.33349 10.1992V7.46715H6.91433C6.7264 7.46715 6.56656 7.33006 6.53794 7.14432C6.50933 6.95856 6.62049 6.77971 6.79971 6.72314L8.31947 6.24346C8.40059 6.21786 8.48906 6.23244 8.55767 6.28274C8.62628 6.33303 8.66681 6.413 8.66681 6.49807V10.1992C8.66681 10.2396 8.69298 10.2754 8.73149 10.2876L9.2806 10.4615C9.39147 10.4966 9.4668 10.5995 9.4668 10.7158V10.7158ZM7.33323 4.66664C7.33323 4.29846 7.6317 3.99999 7.99989 3.99999C8.36807 3.99999 8.66654 4.29846 8.66654 4.66664C8.66654 5.03483 8.36807 5.3333 7.99989 5.3333C7.6317 5.3333 7.33323 5.03483 7.33323 4.66664ZM8.00034 12.9336C5.27576 12.9336 3.06706 10.7249 3.06706 8.00033C3.06706 5.27575 5.27577 3.06705 8.00034 3.06705C10.7249 3.06705 12.9336 5.27576 12.9336 8.00033C12.9306 10.7236 10.7236 12.9306 8.00034 12.9336ZM7.99994 2C4.68626 2 2 4.68626 2 7.99994C2 11.3136 4.68626 13.9999 7.99994 13.9999C11.3136 13.9999 13.9999 11.3136 13.9999 7.99994C13.9961 4.68781 11.3121 2.00373 7.99994 2Z" fill="#A2A8B2"/>
</svg>
