<svg width="16" height="16" viewBox="0 0 16 16" fill="none" xmlns="http://www.w3.org/2000/svg">
<path fill-rule="evenodd" clip-rule="evenodd" d="M9.95556 11.6205V12.0888C9.95556 12.2853 9.79632 12.4445 9.59989 12.4445H6.40015C6.20372 12.4445 6.04449 12.2853 6.04449 12.0889V11.6205C6.04449 11.4655 6.14493 11.3283 6.29276 11.2814L7.02492 11.0496C7.07626 11.0333 7.11115 10.9857 7.11115 10.9318V7.28902H6.55226C6.30169 7.28902 6.08857 7.10623 6.05041 6.85857C6.01225 6.6109 6.16047 6.37243 6.39943 6.29701L8.42578 5.65743C8.53394 5.6233 8.6519 5.64274 8.74338 5.7098C8.83486 5.77685 8.8889 5.88349 8.8889 5.99691V10.9318C8.8889 10.9857 8.9238 11.0333 8.97514 11.0496L9.70729 11.2815C9.85511 11.3283 9.95556 11.4655 9.95556 11.6205V11.6205ZM7.11107 3.55553C7.11107 3.06461 7.50904 2.66665 7.99995 2.66665C8.49087 2.66665 8.88883 3.06461 8.88883 3.55553C8.88883 4.04644 8.49087 4.44441 7.99995 4.44441C7.50904 4.44441 7.11107 4.04644 7.11107 3.55553ZM7.99996 14.5776C4.36719 14.5776 1.42226 11.6327 1.42226 7.99993C1.42226 4.36716 4.3672 1.42222 7.99996 1.42222C11.6327 1.42222 14.5777 4.36716 14.5777 7.99993C14.5736 11.631 11.631 14.5736 7.99996 14.5776ZM7.99991 -4.00016e-06C3.58168 -4.00016e-06 -6.00024e-06 3.58168 -6.00024e-06 7.99991C-6.00024e-06 12.4181 3.58168 15.9998 7.99991 15.9998C12.4181 15.9998 15.9998 12.4181 15.9998 7.99991C15.9949 3.58374 12.4161 0.00497195 7.99991 -4.00016e-06Z" fill="#FFCD44"/>
</svg>
