<svg width="24" height="24" viewBox="0 0 24 24" fill="none" xmlns="http://www.w3.org/2000/svg">
<path d="M14.625 15H18.6875C19.1362 15 19.5 14.5803 19.5 14.0625V4.6875C19.5 4.16973 19.1362 3.75 18.6875 3.75L10.5625 3.75C10.1138 3.75 9.75 4.16973 9.75 4.6875L9.75 8.57143" stroke="#F8F8F8" stroke-width="1.6" stroke-linecap="round" stroke-linejoin="round"/>
<path d="M5.3125 20.25L13.4375 20.25C13.8862 20.25 14.25 19.8303 14.25 19.3125L14.25 9.9375C14.25 9.41973 13.8862 9 13.4375 9L5.3125 9C4.86377 9 4.5 9.41973 4.5 9.9375L4.5 19.3125C4.5 19.8303 4.86377 20.25 5.3125 20.25Z" stroke="#F8F8F8" stroke-width="1.6" stroke-linecap="round" stroke-linejoin="round"/>
</svg>
