<svg width="64" height="64" viewBox="0 0 64 64" fill="none" xmlns="http://www.w3.org/2000/svg">
<path opacity="0.01" fill-rule="evenodd" clip-rule="evenodd" d="M0 64V0H64V64H0Z" fill="#FFCD44"/>
<path fill-rule="evenodd" clip-rule="evenodd" d="M45.0668 48.7987L15.2002 18.932C12.2668 22.3987 10.6668 26.932 10.6668 31.9987C10.6668 43.732 20.2668 53.332 32.0002 53.332C37.0668 53.332 41.6002 51.732 45.0668 48.7987ZM32.0002 10.6654C26.9335 10.6654 22.4002 12.2654 18.9335 15.1987L48.8002 45.0654C51.4668 41.332 53.3335 36.7987 53.3335 31.9987C53.3335 20.2654 43.7335 10.6654 32.0002 10.6654ZM32.0002 5.33203C46.6668 5.33203 58.6668 17.332 58.6668 31.9987C58.6668 46.6654 46.6668 58.6654 32.0002 58.6654C17.3335 58.6654 5.3335 46.6654 5.3335 31.9987C5.3335 17.332 17.3335 5.33203 32.0002 5.33203Z" fill="#FFCD44"/>
</svg>
