<svg width="24" height="24" viewBox="0 0 24 24" fill="none" xmlns="http://www.w3.org/2000/svg">
<g id="Loading 4">
<path id="Ellipse 15" d="M6.6 12C6.26863 12 5.99689 12.2693 6.02997 12.599C6.1278 13.5741 6.46338 14.5136 7.01118 15.3334C7.67047 16.3201 8.60754 17.0892 9.7039 17.5433C10.8003 17.9974 12.0067 18.1162 13.1705 17.8847C14.3344 17.6532 15.4035 17.0818 16.2426 16.2426C17.0818 15.4035 17.6532 14.3344 17.8847 13.1705C18.1162 12.0067 17.9974 10.8003 17.5433 9.7039C17.0892 8.60754 16.3201 7.67047 15.3334 7.01118C14.5136 6.46338 13.5741 6.1278 12.599 6.02997C12.2693 5.99689 12 6.26863 12 6.6C12 6.93137 12.2697 7.19613 12.5985 7.23745C13.3357 7.3301 14.0443 7.59308 14.6667 8.00895C15.4561 8.53638 16.0713 9.28603 16.4346 10.1631C16.7979 11.0402 16.893 12.0053 16.7078 12.9364C16.5226 13.8675 16.0654 14.7228 15.3941 15.3941C14.7228 16.0654 13.8675 16.5226 12.9364 16.7078C12.0053 16.893 11.0402 16.7979 10.1631 16.4346C9.28603 16.0713 8.53638 15.4561 8.00895 14.6667C7.59308 14.0443 7.3301 13.3357 7.23745 12.5985C7.19613 12.2697 6.93137 12 6.6 12Z" fill="white"/>
</g>
</svg>
