<svg width="15" height="16" viewBox="0 0 15 16" fill="none" xmlns="http://www.w3.org/2000/svg">
<g clip-path="url(#clip0_4717_55253)">
<path fill-rule="evenodd" clip-rule="evenodd" d="M3.68969 7.34765L3.13685 5.52178C3.09078 5.35827 3.18292 5.18568 3.34877 5.14026C3.51462 5.09484 3.68969 5.18568 3.73576 5.34919L4.05825 6.41201C4.65717 5.13117 5.97478 4.25003 7.49511 4.25003C9.126 4.25003 10.5173 5.26743 11.061 6.68452C11.1347 6.88436 10.9872 7.10238 10.7753 7.10238C10.6463 7.10238 10.5265 7.02063 10.4805 6.90254C10.029 5.71254 8.85879 4.85865 7.49511 4.85865C6.18671 4.85865 5.05337 5.63987 4.56503 6.76627L5.74443 6.412C5.91028 6.36658 6.08535 6.45742 6.13143 6.62093C6.1775 6.78444 6.08535 6.95703 5.9195 7.00245L4.06747 7.54749C3.91083 7.59291 3.73576 7.50207 3.6897 7.34764L3.68969 7.34765Z" fill="white"/>
<path fill-rule="evenodd" clip-rule="evenodd" d="M11.2651 10.6595L10.9425 9.59673C10.3341 10.8685 9.01601 11.7496 7.49513 11.7496C5.86363 11.7496 4.47178 10.7322 3.92795 9.31514C3.85421 9.1153 4.00169 8.89728 4.21369 8.89728C4.34274 8.89728 4.46257 8.97904 4.50865 9.09713C4.96031 10.2871 6.13093 11.141 7.49512 11.141C8.80401 11.141 9.93776 10.3598 10.4263 9.23338L9.24645 9.58765C9.08053 9.63307 8.9054 9.54223 8.85931 9.37872C8.81322 9.21521 8.9054 9.04262 9.07131 8.9972L10.924 8.45217C11.0899 8.40675 11.2651 8.49759 11.3112 8.6611L11.8642 10.4869C11.9103 10.6505 11.8181 10.823 11.6522 10.8685C11.4863 10.9139 11.3112 10.823 11.2651 10.6595H11.2651Z" fill="white"/>
</g>
<defs>
<clipPath id="clip0_4717_55253">
<rect width="15" height="15" fill="white" transform="translate(0 0.5)"/>
</clipPath>
</defs>
</svg>
