<svg width="24" height="24" viewBox="0 0 24 24" fill="none" xmlns="http://www.w3.org/2000/svg">
<path fill-rule="evenodd" clip-rule="evenodd" d="M5.90351 10.9562L5.01896 8.03485C4.94524 7.77323 5.09267 7.49708 5.35804 7.42441C5.6234 7.35174 5.90351 7.49708 5.97722 7.7587L6.49321 9.45921C7.45147 7.40987 9.55965 6.00005 11.9922 6.00005C14.6016 6.00005 16.8277 7.62789 17.6975 9.89523C17.8155 10.215 17.5796 10.5638 17.2405 10.5638C17.0341 10.5638 16.8425 10.433 16.7687 10.2441C16.0464 8.34007 14.1741 6.97384 11.9922 6.97384C9.89874 6.97384 8.0854 8.22379 7.30405 10.026L9.19109 9.4592C9.45646 9.38653 9.73657 9.53187 9.81028 9.79349C9.884 10.0551 9.73657 10.3313 9.4712 10.4039L6.50796 11.276C6.25733 11.3487 5.97722 11.2033 5.90352 10.9562L5.90351 10.9562Z" fill="white"/>
<path fill-rule="evenodd" clip-rule="evenodd" d="M18.0224 16.256L17.5063 14.5555C16.5329 16.5903 14.4239 18.0001 11.9905 18.0001C9.3801 18.0001 7.15315 16.3723 6.28301 14.105C6.16503 13.7852 6.401 13.4364 6.7402 13.4364C6.94667 13.4364 7.1384 13.5672 7.21213 13.7561C7.93478 15.6601 9.80778 17.0263 11.9905 17.0263C14.0847 17.0263 15.8987 15.7764 16.6803 13.9741L14.7926 14.541C14.5271 14.6136 14.2469 14.4683 14.1732 14.2067C14.0994 13.9451 14.2469 13.6689 14.5124 13.5963L17.4767 12.7242C17.7422 12.6515 18.0224 12.7969 18.0962 13.0585L18.981 15.9798C19.0548 16.2415 18.9073 16.5176 18.6418 16.5903C18.3764 16.663 18.0962 16.5176 18.0224 16.256H18.0224Z" fill="white"/>
</svg>
