<svg width="24" height="24" viewBox="0 0 24 24" fill="none" xmlns="http://www.w3.org/2000/svg">
<path fill-rule="evenodd" clip-rule="evenodd" d="M8.38724 10.2006L7.01371 9.40993C6.63867 9.83292 6.00494 9.94898 5.49556 9.65577C4.91405 9.32105 4.71479 8.57973 5.05054 7.99999C5.38628 7.42025 6.12983 7.22162 6.71134 7.55633C7.22073 7.84954 7.43676 8.45474 7.25686 8.99004L8.6304 9.78066L11.7565 7.98124V6.39999C11.2016 6.28768 10.7839 5.79853 10.7839 5.21212C10.7839 4.54269 11.3282 4 11.9997 4C12.6711 4 13.2154 4.54269 13.2154 5.21212C13.2154 5.79854 12.7978 6.28769 12.2428 6.39999V7.98124L15.369 9.78066L16.7425 8.99004C16.5626 8.45473 16.7786 7.84954 17.288 7.55633C17.8695 7.22162 18.6131 7.42025 18.9488 7.99999C19.2845 8.57974 19.0853 9.32106 18.5038 9.65577C17.9944 9.94898 17.3607 9.83292 16.9857 9.40993L15.6121 10.2006V13.7994L16.9857 14.59C17.3607 14.167 17.9944 14.051 18.5038 14.3442C19.0853 14.6789 19.2845 15.4202 18.9488 16C18.6131 16.5797 17.8695 16.7784 17.288 16.4436C16.7786 16.1504 16.5626 15.5452 16.7425 15.0099L15.369 14.2193L12.2428 16.0187V17.6C12.7978 17.7123 13.2154 18.2014 13.2154 18.7878C13.2154 19.4573 12.6711 20 11.9997 20C11.3282 20 10.7839 19.4573 10.7839 18.7878C10.7839 18.2014 11.2016 17.7123 11.7565 17.6V16.0187L8.6304 14.2193L7.25686 15.0099C7.43676 15.5452 7.22073 16.1504 6.71134 16.4436C6.12983 16.7784 5.38629 16.5797 5.05054 16C4.71479 15.4202 4.91405 14.6789 5.49556 14.3442C6.00495 14.051 6.63867 14.167 7.01371 14.59L8.38724 13.7994V10.2006Z" fill="white"/>
</svg>
