<svg width="24" height="24" viewBox="0 0 24 24" fill="none" xmlns="http://www.w3.org/2000/svg">
<path fill-rule="evenodd" clip-rule="evenodd" d="M11.7241 4.55171H7.58621C6.78155 4.55171 6.0096 4.87143 5.44051 5.44049C4.87141 6.00959 4.55172 6.7815 4.55172 7.58619V11.7241H5.6703C5.80774 10.4836 6.86095 9.51722 8.13793 9.51722C9.4149 9.51722 10.4681 10.4836 10.6055 11.7241H11.7241V10.0689C11.7241 9.91673 11.8478 9.79309 12 9.79309C13.0656 9.79309 13.931 8.9277 13.931 7.86206C13.931 6.79641 13.0656 5.93103 12 5.93103C11.8478 5.93103 11.7241 5.80738 11.7241 5.65517L11.7241 4.55171ZM19.4483 12.2759H18.3297C18.1922 13.5164 17.139 14.4827 15.8621 14.4827C14.5851 14.4827 13.5319 13.5164 13.3944 12.2759H12.2759V13.931C12.2759 14.0832 12.1522 14.2069 12 14.2069C10.9343 14.2069 10.0689 15.0723 10.0689 16.1379C10.0689 17.2036 10.9343 18.069 12 18.069C12.1522 18.069 12.2759 18.1926 12.2759 18.3448V19.4483H16.4138C17.2184 19.4483 17.9904 19.1286 18.5595 18.5595C19.1286 17.9904 19.4483 17.2185 19.4483 16.4138L19.4483 12.2759ZM4 7.5862V16.4138C4 17.365 4.37794 18.277 5.05048 18.9495C5.72301 19.622 6.63509 20 7.5862 20H16.4138C17.365 20 18.277 19.6221 18.9495 18.9495C19.6221 18.277 20 17.3649 20 16.4138V7.5862C20 6.63497 19.6221 5.72301 18.9495 5.05048C18.277 4.37794 17.3649 4 16.4138 4H7.5862C6.63497 4 5.72301 4.37794 5.05048 5.05048C4.37794 5.72302 4 6.6351 4 7.5862Z" fill="white"/>
</svg>
