<svg width="24" height="24" viewBox="0 0 24 24" fill="none" xmlns="http://www.w3.org/2000/svg">
<path fill-rule="evenodd" clip-rule="evenodd" d="M19.4889 7.05032C19.8045 7.22721 20 7.56083 20 7.92268V15.7173C20 16.0791 19.8045 16.4128 19.4889 16.5896L12.4889 20.5125C12.1852 20.6827 11.8148 20.6827 11.5111 20.5125L4.51112 16.5896C4.19547 16.4128 4 16.0791 4 15.7173V7.92268C4 7.56084 4.19548 7.22721 4.51114 7.05032L11.5111 3.12764C11.8148 2.95745 12.1852 2.95745 12.4889 3.12764L19.4889 7.05032ZM17.223 9.03579C17.3694 9.26994 17.2982 9.57843 17.0641 9.72481L12.5327 12.5577V17.6449C12.5327 17.9211 12.3089 18.1449 12.0327 18.1449C11.7566 18.1449 11.5327 17.9211 11.5327 17.6449V12.5628L6.99799 9.72468C6.76391 9.57818 6.69291 9.26967 6.83941 9.03559C6.98591 8.80151 7.29443 8.73051 7.52851 8.87701L12.0287 11.6935L16.534 8.87688C16.7681 8.7305 17.0766 8.80165 17.223 9.03579Z" fill="white"/>
</svg>
