<svg width="24" height="24" viewBox="0 0 24 24" fill="none" xmlns="http://www.w3.org/2000/svg">
<path fill-rule="evenodd" clip-rule="evenodd" d="M11.9961 14.2548C12.546 14.2548 12.9959 13.8048 12.9959 13.255C12.9959 12.705 12.546 12.2552 11.9961 12.2552C11.4429 12.2552 10.9963 12.705 10.9963 13.255C10.9963 13.8049 11.4429 14.2548 11.9961 14.2548Z" fill="white"/>
<path fill-rule="evenodd" clip-rule="evenodd" d="M14.9983 9.25605H8.99884C8.81477 9.25605 8.66554 9.10697 8.66554 8.92275C8.66554 8.73852 8.81478 8.58945 8.99884 8.58945H14.9983C15.1824 8.58945 15.3316 8.73853 15.3316 8.92275C15.3316 9.10698 15.1824 9.25605 14.9983 9.25605ZM9.78035 11.3993C9.77368 11.3027 9.80702 11.206 9.877 11.136C9.947 11.066 10.0437 11.026 10.1437 11.0393L11.1169 11.126L11.7435 10.3761C11.8068 10.2994 11.9002 10.2561 12.0001 10.2561C12.0968 10.2561 12.1901 10.2994 12.2535 10.3761L12.8801 11.126L13.8533 11.0393C13.9533 11.0294 14.05 11.066 14.12 11.136C14.1899 11.206 14.2266 11.3027 14.2166 11.3993L14.1266 12.3725L14.8799 12.9992C14.9532 13.0625 14.9999 13.1558 14.9999 13.2558C14.9999 13.3558 14.9532 13.4491 14.8799 13.5125L14.1266 14.1391L14.2166 15.1123C14.2233 15.209 14.1899 15.3056 14.12 15.3756C14.05 15.4456 13.9533 15.4823 13.8533 15.4723L12.8801 15.3856L12.2535 16.1356C12.1901 16.2122 12.0968 16.2556 12.0001 16.2556C11.9002 16.2556 11.8068 16.2122 11.7435 16.1356L11.1169 15.3856L10.1437 15.4723C10.047 15.4823 9.947 15.4456 9.877 15.3756C9.80702 15.3056 9.77368 15.209 9.78035 15.1123L9.87035 14.1391L9.12041 13.5125C9.04374 13.4491 9.00041 13.3558 9.00041 13.2558C9.00041 13.1558 9.04374 13.0625 9.12041 12.9992L9.87035 12.3725L9.78035 11.3993ZM14.9983 17.922H8.99884C8.81477 17.922 8.66554 17.7729 8.66554 17.5887C8.66554 17.4044 8.81478 17.2554 8.99884 17.2554H14.9983C15.1824 17.2554 15.3316 17.4044 15.3316 17.5887C15.3316 17.7729 15.1824 17.922 14.9983 17.922ZM8.99884 6.47699H10.9987C11.1827 6.47699 11.332 6.62607 11.332 6.81029C11.332 6.99452 11.1827 7.14359 10.9987 7.14359H8.99884C8.81477 7.14359 8.66554 6.99451 8.66554 6.81029C8.66554 6.62606 8.81478 6.47699 8.99884 6.47699ZM17.3331 7.80956H14.8466C14.2953 7.80956 13.8467 7.36103 13.8467 6.80965V4.3333C13.8467 4.21734 13.8689 4.10554 13.9063 4H7.33389C6.78061 4 6.33398 4.44662 6.33398 4.99991V18.9987C6.33398 19.5486 6.78062 19.9986 7.33389 19.9986H16.6664C17.2164 19.9986 17.6663 19.5486 17.6663 18.9987V7.74967C17.5609 7.78734 17.4492 7.80956 17.3331 7.80956H17.3331Z" fill="white"/>
<path fill-rule="evenodd" clip-rule="evenodd" d="M14.8464 7.14885H17.3337C17.4671 7.14885 17.5871 7.06874 17.6404 6.94191C17.6905 6.81841 17.6638 6.67491 17.5671 6.58145C16.9436 5.95396 15.81 4.82246 15.0831 4.09815C14.9864 4.00138 14.8431 3.97465 14.7197 4.02472C14.5963 4.07814 14.513 4.19829 14.513 4.33515V6.81507C14.513 6.99866 14.663 7.14884 14.8464 7.14884L14.8464 7.14885Z" fill="white"/>
</svg>
