<svg width="24" height="24" viewBox="0 0 24 24" fill="none" xmlns="http://www.w3.org/2000/svg">
<path fill-rule="evenodd" clip-rule="evenodd" d="M6 6H18V12.6633H6V6Z" fill="white"/>
<path fill-rule="evenodd" clip-rule="evenodd" d="M5.66667 13.3333C5.48267 13.3333 5.33334 13.1833 5.33334 13V5.66667C5.33334 5.48267 5.48267 5.33334 5.66667 5.33334H18.3333C18.5167 5.33334 18.6667 5.48267 18.6667 5.66667V13C18.6667 13.1833 18.5167 13.3333 18.3333 13.3333H5.66667ZM18 15.3333C19.1027 15.3333 20 14.436 20 13.3333V6C20 4.89733 19.1027 4 18 4H6C4.89733 4 4 4.89733 4 6V13.3333C4 14.436 4.89733 15.3333 6 15.3333H10.6667V16.6667H8C7.264 16.6667 6.66667 17.264 6.66667 18H4.66667C4.48267 18 4.33334 18.15 4.33334 18.3333C4.33334 18.5166 4.48267 18.6666 4.66667 18.6666H6.66667C6.66667 19.4026 7.264 20 8 20H16C16.736 20 17.3333 19.4026 17.3333 18.6666H19.3333C19.5167 18.6666 19.6667 18.5166 19.6667 18.3333C19.6667 18.15 19.5167 18 19.3333 18H17.3333C17.3333 17.264 16.736 16.6667 16 16.6667H13.3333V15.3333H18Z" fill="white"/>
</svg>
