<svg width="32" height="32" viewBox="0 0 32 32" fill="none" xmlns="http://www.w3.org/2000/svg">
<rect width="32" height="32" rx="4" fill="#2E3138"/>
<path d="M18.625 19H22.6875C23.1362 19 23.5 18.5803 23.5 18.0625V8.6875C23.5 8.16973 23.1362 7.75 22.6875 7.75L14.5625 7.75C14.1138 7.75 13.75 8.16973 13.75 8.6875L13.75 12.5714" stroke="#F8F8F8" stroke-width="1.6" stroke-linecap="round" stroke-linejoin="round"/>
<path d="M9.3125 24.25L17.4375 24.25C17.8862 24.25 18.25 23.8303 18.25 23.3125L18.25 13.9375C18.25 13.4197 17.8862 13 17.4375 13L9.3125 13C8.86377 13 8.5 13.4197 8.5 13.9375L8.5 23.3125C8.5 23.8303 8.86377 24.25 9.3125 24.25Z" stroke="#F8F8F8" stroke-width="1.6" stroke-linecap="round" stroke-linejoin="round"/>
</svg>
