<svg width="20" height="20" viewBox="0 0 20 20" fill="none" xmlns="http://www.w3.org/2000/svg">
<path fill-rule="evenodd" clip-rule="evenodd" d="M10.9419 10.5L15.4085 6.03341C15.5305 5.91138 15.5305 5.71356 15.4085 5.59153C15.2866 5.4695 15.0885 5.4695 14.9666 5.59153L10.5 10.0581L6.03341 5.59153C5.91153 5.4695 5.7134 5.4695 5.59153 5.59153C5.4695 5.71356 5.4695 5.91138 5.59153 6.03341L10.0581 10.5L5.59153 14.9666C5.4695 15.0887 5.4695 15.2865 5.59153 15.4085C5.65247 15.4696 5.73247 15.5001 5.81247 15.5001C5.89247 15.5001 5.97247 15.4696 6.03341 15.4085L10.5 10.9419L14.9666 15.4085C15.0275 15.4696 15.1075 15.5001 15.1875 15.5001C15.2675 15.5001 15.3475 15.4696 15.4085 15.4085C15.5305 15.2865 15.5305 15.0887 15.4085 14.9666L10.9419 10.5Z" fill="white" stroke="white"/>
</svg>
