<svg width="20" height="20" viewBox="0 0 20 20" fill="none" xmlns="http://www.w3.org/2000/svg">
<path fill-rule="evenodd" clip-rule="evenodd" d="M10.9419 10.4999L15.4085 6.03331C15.5305 5.91128 15.5305 5.71346 15.4085 5.59143C15.2866 5.4694 15.0885 5.4694 14.9666 5.59143L10.5 10.058L6.03341 5.59143C5.91153 5.4694 5.7134 5.4694 5.59153 5.59143C5.4695 5.71346 5.4695 5.91128 5.59153 6.03331L10.0581 10.4999L5.59153 14.9665C5.4695 15.0886 5.4695 15.2864 5.59153 15.4084C5.65247 15.4695 5.73247 15.5 5.81247 15.5C5.89247 15.5 5.97247 15.4695 6.03341 15.4084L10.5 10.9418L14.9666 15.4084C15.0275 15.4695 15.1075 15.5 15.1875 15.5C15.2675 15.5 15.3475 15.4695 15.4085 15.4084C15.5305 15.2864 15.5305 15.0886 15.4085 14.9665L10.9419 10.4999Z" fill="#DBFF71"/>
</svg>
