<svg width="24" height="24" viewBox="0 0 24 24" fill="none" xmlns="http://www.w3.org/2000/svg">
<path d="M4.42426 3.57574C4.18995 3.34142 3.81005 3.34142 3.57574 3.57574C3.34142 3.81005 3.34142 4.18995 3.57574 4.42426L4.42426 3.57574ZM19.5757 20.4243C19.8101 20.6586 20.1899 20.6586 20.4243 20.4243C20.6586 20.1899 20.6586 19.8101 20.4243 19.5757L19.5757 20.4243ZM3.57574 4.42426L19.5757 20.4243L20.4243 19.5757L4.42426 3.57574L3.57574 4.42426Z" fill="#DBFF71"/>
<path d="M2 12L1.51912 11.6412C1.36029 11.854 1.36029 12.146 1.51912 12.3588L2 12ZM22 12L22.4809 12.3588C22.6397 12.146 22.6397 11.854 22.4809 11.6412L22 12ZM16.7846 17.2842C17.0763 17.1271 17.1854 16.7632 17.0282 16.4714C16.8711 16.1797 16.5072 16.0706 16.2154 16.2278L16.7846 17.2842ZM19.1037 14.1831C18.8549 14.402 18.8306 14.7811 19.0495 15.0299C19.2683 15.2787 19.6474 15.303 19.8963 15.0842L19.1037 14.1831ZM7.47131 7.94674C7.75852 7.78146 7.85736 7.41465 7.69208 7.12744C7.5268 6.84023 7.15999 6.74138 6.87278 6.90666L7.47131 7.94674ZM10.9239 5.46933C10.5952 5.51138 10.3628 5.81192 10.4048 6.14061C10.4469 6.46931 10.7474 6.70168 11.0761 6.65963L10.9239 5.46933ZM12 17.4C9.44746 17.4 7.08284 16.006 5.31183 14.5381C4.43484 13.8111 3.72364 13.0828 3.23191 12.5362C2.9864 12.2633 2.79651 12.0367 2.66896 11.8796C2.60521 11.8011 2.55709 11.74 2.52545 11.6993C2.50963 11.6789 2.49794 11.6637 2.49047 11.6538C2.48674 11.6489 2.48406 11.6454 2.48246 11.6433C2.48166 11.6422 2.48112 11.6415 2.48086 11.6411C2.48073 11.641 2.48066 11.6409 2.48067 11.6409C2.48067 11.6409 2.48072 11.641 2.48072 11.641C2.48079 11.6411 2.48088 11.6412 2 12C1.51912 12.3588 1.51924 12.359 1.51938 12.3592C1.51945 12.3593 1.51961 12.3595 1.51974 12.3597C1.52002 12.36 1.52036 12.3605 1.52078 12.361C1.5216 12.3621 1.5227 12.3636 1.52407 12.3654C1.52681 12.3691 1.53065 12.3741 1.53555 12.3806C1.54537 12.3935 1.55949 12.4119 1.57781 12.4355C1.61445 12.4826 1.66791 12.5505 1.73737 12.636C1.87623 12.807 2.07927 13.0492 2.33979 13.3388C2.86012 13.9172 3.61338 14.6889 4.54603 15.4619C6.39431 16.994 9.0297 18.6 12 18.6V17.4ZM12 6.6C14.5525 6.6 16.9172 7.99396 18.6882 9.46194C19.5652 10.1889 20.2764 10.9172 20.7681 11.4638C21.0136 11.7367 21.2035 11.9633 21.331 12.1204C21.3948 12.1989 21.4429 12.26 21.4746 12.3007C21.4904 12.3211 21.5021 12.3363 21.5095 12.3462C21.5133 12.3511 21.5159 12.3546 21.5175 12.3567C21.5183 12.3578 21.5189 12.3585 21.5191 12.3589C21.5193 12.359 21.5193 12.3591 21.5193 12.3591C21.5193 12.3591 21.5193 12.359 21.5193 12.359C21.5192 12.3589 21.5191 12.3588 22 12C22.4809 11.6412 22.4808 11.641 22.4806 11.6408C22.4805 11.6407 22.4804 11.6405 22.4803 11.6403C22.48 11.64 22.4796 11.6395 22.4792 11.639C22.4784 11.6379 22.4773 11.6364 22.4759 11.6346C22.4732 11.6309 22.4694 11.6259 22.4644 11.6194C22.4546 11.6065 22.4405 11.5881 22.4222 11.5645C22.3856 11.5174 22.3321 11.4495 22.2626 11.364C22.1238 11.193 21.9207 10.9508 21.6602 10.6612C21.1399 10.0828 20.3866 9.31113 19.454 8.53806C17.6057 7.00604 14.9703 5.4 12 5.4V6.6ZM16.2154 16.2278C14.9216 16.9248 13.4911 17.4 12 17.4V18.6C13.7461 18.6 15.3733 18.0445 16.7846 17.2842L16.2154 16.2278ZM22 12C21.5191 11.6412 21.5192 11.6411 21.5192 11.6411C21.5192 11.641 21.5193 11.641 21.5193 11.641C21.5193 11.6409 21.5193 11.6409 21.5193 11.6409C21.5193 11.6409 21.5193 11.6409 21.5192 11.6411C21.519 11.6413 21.5186 11.6419 21.5179 11.6428C21.5166 11.6445 21.5144 11.6475 21.5113 11.6516C21.5051 11.6597 21.4953 11.6726 21.482 11.6897C21.4554 11.7241 21.4148 11.7758 21.361 11.8426C21.2533 11.9763 21.0925 12.1702 20.8838 12.4064C20.4659 12.8794 19.8587 13.5191 19.1037 14.1831L19.8963 15.0842C20.6972 14.3798 21.34 13.7026 21.7831 13.2009C22.005 12.9498 22.1774 12.7419 22.2954 12.5956C22.3543 12.5224 22.3997 12.4646 22.4308 12.4243C22.4464 12.4042 22.4584 12.3885 22.4668 12.3775C22.4709 12.372 22.4742 12.3677 22.4766 12.3646C22.4778 12.363 22.4787 12.3617 22.4794 12.3608C22.4798 12.3603 22.4801 12.3599 22.4803 12.3596C22.4804 12.3594 22.4806 12.3593 22.4806 12.3591C22.4807 12.3591 22.4807 12.359 22.4808 12.359C22.4808 12.3589 22.4809 12.3588 22 12ZM2 12C2.48088 12.3588 2.48081 12.3589 2.48076 12.359C2.48075 12.359 2.4807 12.3591 2.48069 12.3591C2.48066 12.3591 2.48066 12.3591 2.48069 12.3591C2.48075 12.359 2.48094 12.3587 2.48126 12.3583C2.48189 12.3575 2.48302 12.356 2.48465 12.3538C2.48791 12.3495 2.49316 12.3426 2.50036 12.3332C2.51477 12.3144 2.53699 12.2857 2.56676 12.248C2.62632 12.1725 2.71601 12.0611 2.8337 11.9211C3.06923 11.6411 3.41608 11.2477 3.85715 10.7998C4.74224 9.90112 5.99253 8.79774 7.47131 7.94674L6.87278 6.90666C5.26794 7.8302 3.9322 9.01347 3.00217 9.95778C2.53569 10.4314 2.1677 10.8486 1.91529 11.1488C1.78901 11.299 1.69146 11.4201 1.62476 11.5046C1.5914 11.5468 1.56574 11.58 1.54805 11.6031C1.53921 11.6146 1.53235 11.6236 1.52752 11.63C1.5251 11.6332 1.52319 11.6357 1.52179 11.6376C1.52109 11.6385 1.52052 11.6393 1.52007 11.6399C1.51985 11.6402 1.51966 11.6405 1.5195 11.6407C1.51942 11.6408 1.51933 11.6409 1.51929 11.641C1.5192 11.6411 1.51912 11.6412 2 12ZM11.0761 6.65963C11.381 6.62064 11.6891 6.6 12 6.6V5.4C11.6359 5.4 11.2769 5.42417 10.9239 5.46933L11.0761 6.65963Z" fill="#DBFF71"/>
<path d="M13.72 13.95C13.9684 13.7308 13.992 13.3516 13.7728 13.1032C13.5535 12.8547 13.1743 12.8311 12.9259 13.0503L13.72 13.95ZM10.9926 11.028C11.2227 10.7896 11.216 10.4098 10.9776 10.1796C10.7392 9.9495 10.3593 9.95621 10.1292 10.1946L10.9926 11.028ZM12 13.4002C11.2268 13.4002 10.6 12.7734 10.6 12.0002H9.4C9.4 13.4361 10.5641 14.6002 12 14.6002V13.4002ZM12.9259 13.0503C12.6787 13.2685 12.3555 13.4002 12 13.4002V14.6002C12.659 14.6002 13.262 14.3543 13.72 13.95L12.9259 13.0503ZM10.6 12.0002C10.6 11.6223 10.7489 11.2804 10.9926 11.028L10.1292 10.1946C9.67831 10.6617 9.4 11.2991 9.4 12.0002H10.6Z" fill="#DBFF71"/>
</svg>
