<svg width="24" height="24" viewBox="0 0 24 24" fill="none" xmlns="http://www.w3.org/2000/svg">
<g id="Activate icons">
<g id="Locked">
<path id="Vector" d="M7.71683 10.682C7.71683 6.92096 7.71683 4.4136 12.1047 4.4136C16.4926 4.4136 16.4926 6.92096 16.4926 10.682M12.1047 20.0846H19V10.682H5.20947V11.9013" stroke="#B2B2B2" stroke-linecap="round" stroke-linejoin="round"/>
<path id="Vector_2" d="M12.1045 14.5807C12.1045 14.5807 12.1045 15.7269 12.1045 16.4613" stroke="#B2B2B2" stroke-linecap="round" stroke-linejoin="round"/>
<path id="Vector_3" d="M12.1049 14.6577C12.4511 14.6577 12.7317 14.3771 12.7317 14.0309C12.7317 13.6847 12.4511 13.404 12.1049 13.404C11.7587 13.404 11.478 13.6847 11.478 14.0309C11.478 14.3771 11.7587 14.6577 12.1049 14.6577Z" stroke="#B2B2B2" stroke-linecap="round" stroke-linejoin="round"/>
</g>
<g id="Plus">
<g id="Group 5857">
<path id="Vector_4" d="M6.86084 20.0846V14.2813" stroke="#B2B2B2" stroke-linecap="round" stroke-linejoin="round"/>
<path id="Vector_5" d="M3.95898 17.183H9.7623" stroke="#B2B2B2" stroke-linecap="round" stroke-linejoin="round"/>
</g>
</g>
</g>
</svg>
