<svg width="24" height="24" viewBox="0 0 24 24" fill="none" xmlns="http://www.w3.org/2000/svg">
<path d="M21 12C21 13.7824 20.4707 15.5247 19.4793 17.006C18.4878 18.4873 17.0789 19.6408 15.4311 20.3203C13.7832 20.9998 11.9708 21.1747 10.2234 20.8229C8.47605 20.471 6.8725 19.6083 5.6161 18.3439C4.35968 17.0796 3.50698 15.4707 3.16611 13.7211C2.82524 11.9716 3.01154 10.1602 3.7014 8.51675C4.39126 6.8732 5.5536 5.4715 7.04105 4.48941C8.5285 3.5073 10.2741 2.98898 12.0565 3.00018L12.0477 4.40954C10.5444 4.4001 9.07215 4.83725 7.81765 5.66555C6.5631 6.49385 5.5828 7.67605 5.00095 9.0622C4.41913 10.4483 4.262 11.976 4.54949 13.4516C4.83698 14.9272 5.55615 16.2841 6.6158 17.3505C7.67545 18.4168 9.0279 19.1445 10.5016 19.4412C11.9754 19.738 13.504 19.5904 14.8938 19.0173C16.2836 18.4442 17.4719 17.4714 18.3081 16.222C19.1442 14.9727 19.5906 13.5033 19.5906 12H21Z" fill="#FFCD44"/>
</svg>
