<svg width="24" height="24" viewBox="0 0 24 24" fill="none" xmlns="http://www.w3.org/2000/svg">
<path fill-rule="evenodd" clip-rule="evenodd" d="M0 24V3e-05H24V24H0Z" fill="white" fill-opacity="0.01"/>
<path d="M0.5 23.5V0.50003H23.5V23.5H0.5Z" stroke="black" stroke-opacity="0.01"/>
<path fill-rule="evenodd" clip-rule="evenodd" d="M15.4584 7.361C15.2198 7.1811 14.8814 7.22972 14.7025 7.46688C14.5233 7.70513 14.5708 8.04387 14.8089 8.22323C16.0373 9.14867 16.7418 10.5555 16.7418 12.0838C16.7418 14.7499 14.5746 16.9174 11.9106 16.9174C9.24614 16.9174 7.07893 14.7489 7.07893 12.0838C7.07893 10.5495 7.78352 9.13948 9.01236 8.21404C9.25046 8.03468 9.29798 7.69595 9.11872 7.4577C8.93947 7.22107 8.60148 7.17191 8.36284 7.35182C6.88307 8.46634 5.99977 10.2357 5.99977 12.0851C5.99977 15.3464 8.65183 18.0001 11.9113 18.0001C15.1707 18.0001 17.8228 15.3465 17.8228 12.0851C17.8217 10.2146 16.9616 8.49229 15.4584 7.36101L15.4584 7.361Z" fill="white"/>
<path fill-rule="evenodd" clip-rule="evenodd" d="M11.9634 11.4015C12.2616 11.4015 12.5036 11.16 12.5036 10.8613V6.54018C12.5036 6.24202 12.2617 6.00004 11.9634 6.00004C11.6653 6.00004 11.4233 6.24202 11.4233 6.54018V10.8613C11.4233 11.16 11.6653 11.4015 11.9634 11.4015Z" fill="white"/>
</svg>
