<svg width="24" height="24" viewBox="0 0 24 24" fill="none" xmlns="http://www.w3.org/2000/svg">
<path fill-rule="evenodd" clip-rule="evenodd" d="M6.60225 13.6675C6.44812 13.6747 6.32903 13.8055 6.33625 13.9596C6.34348 14.1138 6.47428 14.2329 6.62841 14.2256H12.21C12.3642 14.2256 12.4891 14.1007 12.4891 13.9466C12.4891 13.7924 12.3642 13.6674 12.21 13.6674L6.62841 13.6675C6.61969 13.6671 6.61096 13.6671 6.60225 13.6675ZM6.60225 9.76034C6.44812 9.76756 6.32903 9.89837 6.33625 10.0525C6.34348 10.2066 6.47428 10.3257 6.62841 10.3185H17.7916C17.9458 10.3185 18.0707 10.1936 18.0707 10.0394C18.0707 9.88527 17.9458 9.76031 17.7916 9.76031L6.62841 9.76034C6.61969 9.75993 6.61096 9.75993 6.60225 9.76034ZM6.60225 5.8532C6.44812 5.86043 6.32903 5.99123 6.33625 6.14536C6.34348 6.29949 6.47428 6.41858 6.62841 6.41136H17.7916C17.9458 6.41139 18.0707 6.28643 18.0707 6.13228C18.0707 5.97813 17.9458 5.85317 17.7916 5.85317L6.62841 5.8532C6.61969 5.85279 6.61096 5.85279 6.60225 5.8532ZM3.55852 0.55939H20.8615V23.0428L19.1085 21.2899C18.9998 21.1824 18.8248 21.1824 18.7161 21.2899L16.6753 23.3219L14.6433 21.2899C14.5345 21.1824 14.3595 21.1824 14.2508 21.2899L12.21 23.3219L10.178 21.2899C10.0692 21.1824 9.89424 21.1824 9.7855 21.2899L7.74472 23.3219L5.71266 21.2899C5.60392 21.1824 5.42894 21.1824 5.3202 21.2899L3.5585 23.0516L3.55852 0.55939ZM3.22711 0.00123C3.09369 0.02669 2.99796 0.1445 3.00035 0.28031V23.7231C3.00126 23.8364 3.07058 23.9379 3.17579 23.98C3.281 24.0221 3.40122 23.9964 3.48002 23.915L5.51208 21.8742L7.55286 23.915C7.6616 24.0225 7.83658 24.0225 7.94532 23.915L9.97738 21.8742L12.0182 23.915C12.1269 24.0225 12.3019 24.0225 12.4106 23.915L14.4427 21.8742L16.4834 23.915C16.5922 24.0225 16.7672 24.0225 16.8759 23.915L18.908 21.8742L20.9487 23.915C21.0283 23.9904 21.1446 24.0123 21.2461 23.9709C21.3476 23.9295 21.4155 23.8326 21.4197 23.7231V0.28031C21.4197 0.12621 21.2948 0.00126 21.1406 0.00123H3.27944C3.26204 -0.00041 3.24452 -0.00041 3.22711 0.00123Z" fill="#DBFF71"/>
</svg>
