<svg width="15" height="15" viewBox="0 0 15 15" fill="none" xmlns="http://www.w3.org/2000/svg">
<g opacity="0.01">
<path fill-rule="evenodd" clip-rule="evenodd" d="M0 15V0H15V15H0Z" fill="#FEC938"/>
<path d="M0.5 14.5V0.5H14.5V14.5H0.5Z" stroke="black" stroke-opacity="0.01"/>
</g>
<path fill-rule="evenodd" clip-rule="evenodd" d="M10.5625 11.4375L3.5625 4.4375C2.875 5.25 2.5 6.3125 2.5 7.5C2.5 10.25 4.75 12.5 7.5 12.5C8.6875 12.5 9.75 12.125 10.5625 11.4375ZM7.49976 2.5C6.31226 2.5 5.24976 2.875 4.43726 3.5625L11.4373 10.5625C12.0623 9.6875 12.4998 8.625 12.4998 7.5C12.4998 4.75 10.2498 2.5 7.49976 2.5ZM7.5 1.25C10.9375 1.25 13.75 4.0625 13.75 7.5C13.75 10.9375 10.9375 13.75 7.5 13.75C4.0625 13.75 1.25 10.9375 1.25 7.5C1.25 4.0625 4.0625 1.25 7.5 1.25Z" fill="#FEC938"/>
</svg>
