<svg width="15" height="15" viewBox="0 0 15 15" fill="none" xmlns="http://www.w3.org/2000/svg">
<g opacity="0.01">
<path fill-rule="evenodd" clip-rule="evenodd" d="M0 15V0H15V15H0Z" fill="#C4FF00"/>
<path d="M0.5 14.5V0.5H14.5V14.5H0.5Z" stroke="black" stroke-opacity="0.01"/>
</g>
<path fill-rule="evenodd" clip-rule="evenodd" d="M4.94375 6.3L4.0625 7.1875L6.875 10L13.125 3.75L12.2437 2.8625L6.875 8.23125L4.94375 6.3ZM12.5 7.5C12.5 10.2614 10.2614 12.5 7.5 12.5C4.73857 12.5 2.5 10.2614 2.5 7.5C2.5 4.73857 4.73857 2.5 7.5 2.5C7.975 2.5 8.4375 2.56875 8.875 2.69375L9.85625 1.7125C9.13125 1.4125 8.3375 1.25 7.5 1.25C4.04822 1.25 1.25 4.04822 1.25 7.5C1.25 10.9518 4.04822 13.75 7.5 13.75C10.9518 13.75 13.75 10.9518 13.75 7.5" fill="#C4FF00"/>
</svg>
