<svg width="24" height="24" viewBox="0 0 24 24" fill="none" xmlns="http://www.w3.org/2000/svg">
<g clip-path="url(#clip0_158_23165)">
<path fill-rule="evenodd" clip-rule="evenodd" d="M12 0C11.199 0.00384217 10.4309 0.319075 9.85797 0.878906C9.28508 1.43874 8.95231 2.1993 8.92999 3C7.5285 3.46631 6.25063 4.24364 5.19202 5.27368C4.1334 6.30372 3.32146 7.55978 2.81699 8.948C2.05108 9.01294 1.33723 9.36217 0.815887 9.927C0.294549 10.4918 0.00349686 11.2314 0 12C0.00329304 12.7359 0.269735 13.4463 0.75116 14.0029C1.23258 14.5595 1.89723 14.9256 2.625 15.0349C3.07688 16.5606 3.89344 17.9536 5.00415 19.093C6.11486 20.2325 7.48632 21.0842 9 21.575C9.14951 22.2602 9.52826 22.874 10.0737 23.3149C10.6191 23.7558 11.2986 23.9975 12 24C12.7025 23.9972 13.383 23.7545 13.9286 23.312C14.4742 22.8695 14.8523 22.2537 15 21.5669C16.5104 21.0772 17.8791 20.2277 18.9881 19.0913C20.0971 17.9549 20.9132 16.5659 21.366 15.0439C22.0964 14.9352 22.7637 14.5684 23.2469 14.01C23.7301 13.4516 23.9973 12.7385 24 12C24 10.4 22.752 9.078 21.183 8.948C20.6785 7.55978 19.8666 6.30372 18.808 5.27368C17.7494 4.24364 16.4715 3.46631 15.07 3C15.0477 2.1993 14.7149 1.43874 14.142 0.878906C13.5691 0.319075 12.801 0.00384217 12 0ZM12 1.67407C12.78 1.67407 13.395 2.28907 13.395 3.07007C13.395 3.85007 12.781 4.46509 12 4.46509C11.22 4.46509 10.605 3.85007 10.605 3.07007C10.605 2.29007 11.219 1.67407 12 1.67407ZM9.358 4.6311C9.62959 5.09025 10.016 5.47078 10.4792 5.73535C10.9424 5.99993 11.4665 6.13923 12 6.13989C13.12 6.13989 14.106 5.53488 14.642 4.62988C15.7402 5.01062 16.7438 5.62305 17.5848 6.42529C18.4259 7.22754 19.0848 8.20104 19.517 9.28003C19.0193 9.53955 18.6019 9.93007 18.3099 10.4094C18.0179 10.8888 17.8623 11.4387 17.86 12C17.86 13.24 18.607 14.3261 19.674 14.8081C19.2957 15.9518 18.6674 16.9968 17.8347 17.8672C17.002 18.7376 15.9858 19.4116 14.86 19.8401C14.416 18.6901 13.3 17.8601 12 17.8601C11.3768 17.8633 10.7691 18.0549 10.2569 18.4099C9.74463 18.7649 9.3518 19.2667 9.13 19.8491C8.00432 19.4183 6.98851 18.7425 6.1561 17.8708C5.32368 16.9992 4.69547 15.9534 4.31699 14.8091C4.85866 14.5656 5.31869 14.171 5.642 13.6729C5.96531 13.1747 6.13823 12.5939 6.14001 12C6.13768 11.4387 5.98211 10.8888 5.69009 10.4094C5.39808 9.93007 4.9807 9.53955 4.483 9.28003C4.91517 8.20104 5.57409 7.22754 6.41516 6.42529C7.25623 5.62305 8.25981 5.01062 9.358 4.62988V4.6311ZM3.07001 10.605C3.85001 10.605 4.465 11.219 4.465 12C4.465 12.78 3.85001 13.395 3.07001 13.395C2.29001 13.395 1.67401 12.781 1.67401 12C1.67401 11.22 2.28901 10.605 3.07001 10.605ZM20.93 10.605C21.71 10.605 22.326 11.219 22.326 12C22.326 12.78 21.711 13.395 20.93 13.395C20.15 13.395 19.535 12.781 19.535 12C19.535 11.22 20.15 10.605 20.93 10.605ZM12 19.5349C12.78 19.5349 13.395 20.1499 13.395 20.9299C13.395 21.7099 12.781 22.3259 12 22.3259C11.22 22.3259 10.605 21.7109 10.605 20.9299C10.605 20.1499 11.219 19.5349 12 19.5349Z" fill="#DBFF71"/>
</g>
<defs>
<clipPath id="clip0_158_23165">
<rect width="24" height="24" fill="white"/>
</clipPath>
</defs>
</svg>
