<svg width="24" height="24" viewBox="0 0 24 24" fill="none" xmlns="http://www.w3.org/2000/svg">
<path fill-rule="evenodd" clip-rule="evenodd" d="M18.2607 19.676L12.4998 13.9157L6.73779 19.676C6.64318 19.7704 6.5308 19.8451 6.40723 19.8962C6.28365 19.9473 6.15129 19.9734 6.01758 19.9733C5.88386 19.9732 5.75143 19.9469 5.62793 19.8957C5.50443 19.8444 5.39209 19.7696 5.29761 19.675C5.20312 19.5804 5.12823 19.468 5.07715 19.3444C5.02606 19.2208 4.99991 19.0885 5 18.9548C5.00009 18.821 5.02638 18.6886 5.07764 18.5651C5.12889 18.4416 5.20421 18.329 5.29883 18.2345L11.0586 12.4738L5.29883 6.71355C5.11932 6.52003 5.02161 6.26456 5.02661 6.00066C5.03161 5.73675 5.13873 5.48509 5.32544 5.29851C5.51215 5.11193 5.76392 5.00499 6.02783 5.00017C6.29174 4.99535 6.54733 5.09299 6.74072 5.27263L12.5007 11.0329L18.2607 5.27263C18.4546 5.09568 18.7093 5.00054 18.9717 5.00652C19.2341 5.0125 19.4841 5.11926 19.6697 5.30486C19.8553 5.49046 19.962 5.74069 19.968 6.0031C19.974 6.26551 19.8786 6.51969 19.7017 6.71355L13.9417 12.4738L19.7017 18.2336C19.8813 18.427 19.9789 18.6825 19.9741 18.9465C19.9693 19.2104 19.8624 19.4624 19.6758 19.6491C19.4892 19.8358 19.2375 19.9429 18.9736 19.9479C18.7097 19.9529 18.4543 19.8555 18.2607 19.676Z" fill="#DBFF71"/>
</svg>
