<svg width="24" height="24" viewBox="0 0 24 24" fill="none" xmlns="http://www.w3.org/2000/svg">
<path fill-rule="evenodd" clip-rule="evenodd" d="M14.973 8.28065L11.838 5.14564L8.70502 8.28065C8.6124 8.37353 8.50237 8.44722 8.38123 8.49751C8.26008 8.54779 8.13019 8.57368 7.99902 8.57368C7.86785 8.57368 7.73797 8.54779 7.61682 8.49751C7.49567 8.44722 7.38565 8.37353 7.29303 8.28065C7.10538 8.09261 7 7.83781 7 7.57215C7 7.3065 7.10538 7.0517 7.29303 6.86366L10.826 3.33064C10.9567 3.19916 11.1216 3.10701 11.302 3.06465C11.804 2.91765 12.549 3.02764 12.852 3.33064L16.387 6.86564C16.5747 7.05315 16.6801 7.30752 16.6802 7.57279C16.6803 7.83806 16.5751 8.09252 16.3875 8.28016C16.2 8.4678 15.9457 8.57325 15.6804 8.57334C15.4151 8.57344 15.1607 8.46816 14.973 8.28065Z" fill="white"/>
<path fill-rule="evenodd" clip-rule="evenodd" d="M11.8379 3.03564C12.1031 3.03564 12.3574 3.14099 12.545 3.32852C12.7325 3.51606 12.8379 3.77043 12.8379 4.03564V20.7876C12.8379 21.0528 12.7325 21.3072 12.545 21.4948C12.3574 21.6823 12.1031 21.7876 11.8379 21.7876C11.5727 21.7876 11.3183 21.6823 11.1308 21.4948C10.9432 21.3072 10.8379 21.0528 10.8379 20.7876V4.03564C10.8379 3.77043 10.9432 3.51606 11.1308 3.32852C11.3183 3.14099 11.5727 3.03564 11.8379 3.03564Z" fill="white"/>
</svg>
