<svg width="112" height="112" viewBox="0 0 112 112" fill="none" xmlns="http://www.w3.org/2000/svg">
<path d="M83.9999 98H27.9999C25.4226 98 23.3333 95.9107 23.3333 93.3333L23.3333 18.6667C23.3333 16.0893 25.4226 14 27.9999 14L63.2943 14C64.5943 14 65.8353 14.5422 66.7185 15.4961L87.4241 37.8581C88.2229 38.7208 88.6666 39.8531 88.6666 41.0287L88.6666 93.3333C88.6666 95.9107 86.5773 98 83.9999 98Z" stroke="white" stroke-width="5" stroke-linecap="round" stroke-linejoin="round"/>
<path d="M88.6667 42L65.3334 42C62.7561 42 60.6668 39.9107 60.6668 37.3333L60.6667 14" stroke="white" stroke-width="5" stroke-linecap="round" stroke-linejoin="round"/>
<rect x="7.63647" y="53.4541" width="58.5455" height="29.2727" rx="4" fill="white"/>
<path d="M30.1391 75.09C29.7827 75.09 29.4963 74.9436 29.28 74.6509L24.87 68.8472L26.6073 67.0718L31.17 73.1045C31.3482 73.3463 31.4373 73.6072 31.4373 73.8872C31.4373 74.2436 31.3036 74.5363 31.0363 74.7654C30.7691 74.9818 30.47 75.09 30.1391 75.09ZM30.3682 61.6309C30.6736 61.6309 30.9218 61.7581 31.1127 62.0127C31.3163 62.2545 31.4182 62.5027 31.4182 62.7572C31.4182 63.0245 31.3036 63.2727 31.0745 63.5018L23.0754 71.1572L22.98 68.4272L29.4327 62.07C29.7254 61.7772 30.0373 61.6309 30.3682 61.6309ZM22.1209 75.09C21.7645 75.09 21.4782 74.9818 21.2618 74.7654C21.0454 74.5363 20.9373 74.2563 20.9373 73.9254V62.8909C20.9373 62.56 21.0518 62.2863 21.2809 62.07C21.51 61.8409 21.8027 61.7263 22.1591 61.7263C22.5154 61.7263 22.7954 61.8409 22.9991 62.07C23.2154 62.2863 23.3236 62.56 23.3236 62.8909V73.9254C23.3236 74.2563 23.2154 74.5363 22.9991 74.7654C22.7827 74.9818 22.49 75.09 22.1209 75.09Z" fill="#2E3138"/>
<path d="M34.6116 61.7263H41.007C41.3379 61.7263 41.6116 61.8345 41.8279 62.0509C42.057 62.2545 42.1716 62.5218 42.1716 62.8527C42.1716 63.1709 42.057 63.4318 41.8279 63.6354C41.6116 63.8263 41.3379 63.9218 41.007 63.9218H35.6616L35.8334 63.5972V67.32L35.6807 67.1672H40.1479C40.4788 67.1672 40.7525 67.2754 40.9688 67.4918C41.1979 67.6954 41.3125 67.9627 41.3125 68.2936C41.3125 68.6118 41.1979 68.8727 40.9688 69.0763C40.7525 69.2672 40.4788 69.3627 40.1479 69.3627H35.7379L35.8334 69.21V73.0663L35.6807 72.8945H41.007C41.3379 72.8945 41.6116 73.009 41.8279 73.2381C42.057 73.4545 42.1716 73.709 42.1716 74.0018C42.1716 74.32 42.057 74.5809 41.8279 74.7845C41.6116 74.9881 41.3379 75.09 41.007 75.09H34.6116C34.2807 75.09 34.0007 74.9818 33.7716 74.7654C33.5552 74.5363 33.447 74.2563 33.447 73.9254V62.8909C33.447 62.56 33.5552 62.2863 33.7716 62.07C34.0007 61.8409 34.2807 61.7263 34.6116 61.7263Z" fill="#2E3138"/>
<path d="M52.8866 61.669C53.1794 61.669 53.4403 61.7836 53.6694 62.0127C53.9112 62.229 54.0321 62.509 54.0321 62.8527C54.0321 62.9672 54.013 63.0881 53.9748 63.2154C53.9494 63.33 53.8985 63.4445 53.8221 63.559L49.4885 69.7636L49.8321 68.4463V73.9254C49.8321 74.2563 49.7175 74.5363 49.4885 74.7654C49.2721 74.9818 49.0175 75.09 48.7248 75.09C48.4066 75.09 48.133 74.9818 47.9039 74.7654C47.6875 74.5363 47.5794 74.2563 47.5794 73.9254V68.599L47.7321 69.21L43.6085 63.7309C43.4812 63.5654 43.3921 63.4063 43.3412 63.2536C43.2903 63.1009 43.2648 62.9609 43.2648 62.8336C43.2648 62.49 43.3985 62.21 43.6657 61.9936C43.933 61.7772 44.2066 61.669 44.4866 61.669C44.843 61.669 45.1548 61.8472 45.4221 62.2036L49.0875 67.2627L48.553 67.1863L51.9321 62.2418C52.1994 61.86 52.5175 61.669 52.8866 61.669Z" fill="#2E3138"/>
</svg>
