<svg width="898" height="486" viewBox="0 0 898 486" fill="none" xmlns="http://www.w3.org/2000/svg">
<g filter="url(#filter0_i_295_16825)">
<path fill-rule="evenodd" clip-rule="evenodd" d="M300.588 117.33C304.499 107.161 306.454 96.2104 306.454 84.4774C306.454 72.7445 304.499 61.7937 300.588 51.6251C296.677 41.4565 291.123 32.5395 283.927 24.8739C276.887 17.0519 268.44 10.9508 258.584 6.57047C248.885 2.19016 238.247 0 226.67 0C215.094 0 204.456 2.19016 194.756 6.57047C185.057 10.9508 176.609 17.0519 169.413 24.8739C162.373 32.5395 156.898 41.4565 152.987 51.6251C149.076 61.7937 147.121 72.7445 147.121 84.4774C147.121 96.2104 149.076 107.161 152.987 117.33C156.898 127.498 162.373 136.494 169.413 144.316C176.609 151.981 185.057 158.004 194.756 162.384C204.456 166.765 215.094 168.955 226.67 168.955C238.247 168.955 248.885 166.765 258.584 162.384C268.44 158.004 276.887 151.981 283.927 144.316C291.123 136.494 296.677 127.498 300.588 117.33ZM269.613 56.0836C273.837 64.5314 275.949 73.996 275.949 84.4774C275.949 94.9589 273.837 104.502 269.613 113.106C265.389 121.554 259.601 128.281 252.248 133.287C244.895 138.293 236.369 140.796 226.67 140.796C216.971 140.796 208.445 138.293 201.092 133.287C193.74 128.281 187.951 121.554 183.727 113.106C179.66 104.502 177.626 94.9589 177.626 84.4774C177.626 73.8395 179.66 64.2967 183.727 55.849C187.951 47.4012 193.74 40.6743 201.092 35.6683C208.445 30.6622 216.971 28.1591 226.67 28.1591C236.369 28.1591 244.895 30.6622 252.248 35.6683C259.601 40.6743 265.389 47.4795 269.613 56.0836ZM130.236 19.9461C129.61 15.5658 127.264 12.3587 123.196 10.325C117.408 7.35266 111.229 5.08429 104.658 3.51989C98.0877 1.95549 91.3608 1.1733 84.4774 1.1733C72.2752 1.1733 61.0115 3.28523 50.6865 7.50911C40.3614 11.5765 31.3662 17.3648 23.7006 24.8739C16.1915 32.2266 10.325 40.9872 6.10115 51.1558C2.03372 61.3244 0 72.4316 0 84.4774C0 98.4006 2.26838 110.681 6.80513 121.319C11.3419 131.8 17.5212 140.561 25.3432 147.601C33.3217 154.641 42.3169 159.96 52.3291 163.558C62.4977 167.156 73.2138 168.955 84.4774 168.955C89.0142 168.955 93.4727 168.564 97.853 167.782C102.233 167.156 106.535 166.217 110.759 164.966C115.14 163.558 119.363 161.837 123.431 159.803C127.342 157.926 129.689 154.954 130.471 150.886C131.409 146.662 130.314 142.595 127.185 138.684C124.995 135.868 122.258 134.225 118.972 133.756C115.844 133.287 112.637 133.834 109.351 135.399C105.44 137.432 101.373 138.84 97.1491 139.622C92.9252 140.405 88.7013 140.796 84.4774 140.796C76.8119 140.796 69.6939 139.701 63.1234 137.511C56.553 135.164 50.8429 131.644 45.9933 126.951C41.1436 122.258 37.3109 116.391 34.495 109.351C31.8355 102.312 30.5057 94.0203 30.5057 84.4774C30.5057 76.3426 31.679 68.9117 34.0256 62.1848C36.5287 55.4579 40.1268 49.6696 44.82 44.82C49.5132 39.8139 55.145 35.9811 61.7155 33.3217C68.4424 30.6622 76.0297 29.3324 84.4774 29.3324C89.0142 29.3324 93.3163 29.8018 97.3837 30.7404C101.608 31.679 105.597 33.0088 109.351 34.7296C112.637 36.294 115.844 36.9198 118.972 36.6069C122.258 36.294 124.917 34.7296 126.951 31.9137C129.923 28.3156 131.018 24.3264 130.236 19.9461ZM348.174 2.11194C350.364 2.11194 352.633 2.7377 354.979 3.98922C357.482 5.08429 359.36 6.57047 360.611 8.44775L411.7 87.0775L464.331 8.44775C467.303 4.22387 471.136 2.11194 475.829 2.11194C479.584 2.11194 482.947 3.44168 485.919 6.10115C488.892 8.76062 490.378 12.2023 490.378 16.4262V152.294C490.378 156.361 489.048 159.803 486.389 162.619C483.729 165.279 480.209 166.608 475.829 166.608C471.449 166.608 467.851 165.279 465.035 162.619C462.375 159.803 461.046 156.361 461.046 152.294V57.8333L422.327 116.86C420.919 118.581 419.12 120.067 416.93 121.319C414.896 122.571 412.784 123.118 410.594 122.962C408.56 123.118 406.448 122.571 404.258 121.319C402.224 120.067 400.503 118.581 399.095 116.86L360.377 55.6402V152.294C360.377 156.361 359.125 159.803 356.622 162.619C354.119 165.279 350.834 166.608 346.766 166.608C342.855 166.608 339.648 165.279 337.145 162.619C334.642 159.803 333.391 156.361 333.391 152.294V16.4262C333.391 12.5152 334.799 9.15173 337.615 6.33581C340.587 3.51989 344.107 2.11194 348.174 2.11194ZM550.53 162.619C553.502 159.803 554.988 156.361 554.988 152.294V16.6608C554.988 12.5934 553.502 9.22995 550.53 6.57047C547.714 3.75455 544.429 2.34659 540.674 2.34659C536.294 2.34659 532.696 3.75455 529.88 6.57047C527.064 9.22995 525.656 12.5934 525.656 16.6608V152.294C525.656 156.361 526.985 159.803 529.645 162.619C532.304 165.279 535.824 166.608 540.205 166.608C544.116 166.608 547.557 165.279 550.53 162.619ZM714.883 2.34659C718.638 2.34659 721.688 3.59811 724.035 6.10115C726.381 8.60419 727.555 11.733 727.555 15.4875V152.294C727.555 156.361 726.147 159.803 723.331 162.619C720.671 165.279 717.308 166.608 713.24 166.608C711.207 166.608 709.095 166.295 706.905 165.67C704.871 164.887 703.307 163.871 702.211 162.619L616.091 53.2708V153.467C616.091 157.222 614.84 160.351 612.337 162.854C609.99 165.357 606.861 166.608 602.95 166.608C599.196 166.608 596.145 165.357 593.799 162.854C591.452 160.351 590.279 157.222 590.279 153.467V16.6608C590.279 12.5934 591.609 9.22995 594.268 6.57047C597.084 3.75455 600.526 2.34659 604.593 2.34659C606.783 2.34659 609.052 2.81592 611.398 3.75456C613.745 4.53676 615.466 5.78827 616.561 7.50911L701.977 116.465V15.4875C701.977 11.733 703.15 8.60419 705.497 6.10115C707.843 3.59811 710.972 2.34659 714.883 2.34659ZM806.952 162.384C817.277 166.765 828.384 168.955 840.274 168.955C849.66 168.955 858.577 167.703 867.025 165.2C875.629 162.541 883.529 159.021 890.726 154.641C892.603 153.389 894.245 151.747 895.653 149.713C897.218 147.679 898 145.098 898 141.969V92.2212C898 88.1538 896.67 84.7903 894.011 82.1309C891.351 79.3149 887.988 77.907 883.92 77.907H845.436C841.369 77.907 837.927 79.2367 835.111 81.8962C832.452 84.5557 831.122 87.9191 831.122 91.9865C831.122 96.054 832.452 99.4174 835.111 102.077C837.927 104.736 841.369 106.066 845.436 106.066H867.494V136.473C864.257 137.652 860.346 138.624 855.761 139.388C850.129 140.326 844.967 140.796 840.274 140.796C830.105 140.796 820.797 138.293 812.349 133.287C804.058 128.124 797.409 121.241 792.403 112.637C787.554 104.032 785.129 94.646 785.129 84.4774C785.129 74.1524 787.554 64.766 792.403 56.3183C797.409 47.7141 804.058 40.909 812.349 35.9029C820.797 30.7404 830.105 28.1591 840.274 28.1591C845.123 28.1591 849.738 28.6285 854.119 29.5671C858.499 30.5057 862.645 31.8355 866.556 33.5563C867.807 34.1821 869.059 34.6514 870.31 34.9643C871.718 35.2772 873.048 35.4336 874.299 35.4336C878.21 35.4336 881.417 33.9474 883.92 30.9751C886.423 28.0027 887.675 24.6393 887.675 20.8847C887.675 18.6945 887.049 16.5826 885.798 14.5489C884.703 12.3587 882.982 10.6379 880.635 9.38639C874.847 6.25759 868.511 3.91099 861.628 2.34659C854.744 0.782198 847.626 0 840.274 0C828.384 0 817.277 2.19016 806.952 6.57047C796.627 10.9508 787.554 17.0519 779.732 24.8739C771.91 32.5395 765.73 41.4565 761.193 51.6251C756.813 61.7937 754.623 72.7445 754.623 84.4774C754.623 96.2104 756.813 107.161 761.193 117.33C765.73 127.498 771.91 136.494 779.732 144.316C787.554 151.981 796.627 158.004 806.952 162.384ZM44.0472 479.47C56.2984 483.189 70.081 485.048 85.395 485.048C100.271 485.048 114.054 482.314 126.743 476.844C139.65 471.375 150.042 463.499 157.918 453.217C165.793 442.935 169.731 430.684 169.731 416.464C169.731 405.306 168.09 395.899 164.809 388.242C161.527 380.366 156.605 373.913 150.042 368.881C143.479 363.63 135.165 359.364 125.102 356.083C115.257 352.801 103.772 349.957 90.6455 347.551C80.582 345.582 71.9406 343.394 64.7211 340.987C57.5017 338.362 51.923 334.971 47.9851 330.815C44.266 326.439 42.4064 320.97 42.4064 314.407C42.4064 308.937 44.0472 304.125 47.3288 299.968C50.6104 295.811 55.4233 292.53 61.7677 290.123C68.3308 287.717 76.316 286.513 85.7231 286.513C91.4112 286.513 97.5368 287.498 104.1 289.467C110.663 291.217 116.898 293.514 122.805 296.358C128.712 298.983 133.415 301.827 136.916 304.89C139.541 306.859 142.494 307.844 145.776 307.844C150.808 307.844 155.183 305.875 158.902 301.937C162.621 297.999 164.481 293.623 164.481 288.811C164.481 282.247 161.309 276.45 154.964 271.418C147.307 264.855 137.353 259.495 125.102 255.339C113.07 250.963 99.9433 248.775 85.7231 248.775C70.6279 248.775 56.8453 251.401 44.3754 256.651C31.9054 261.902 21.9513 269.559 14.5131 279.622C7.29367 289.686 3.68394 301.827 3.68394 316.048C3.68394 325.455 5.21534 333.987 8.27814 341.644C11.3409 349.082 15.8257 355.645 21.7326 361.333C27.8582 366.802 35.4058 371.397 44.3754 375.116C53.345 378.616 63.7366 381.241 75.5503 382.991C88.0202 384.742 98.3025 387.258 106.397 390.539C114.492 393.602 120.508 397.43 124.446 402.025C128.383 406.619 130.352 412.197 130.352 418.761C130.352 424.23 128.274 429.152 124.117 433.528C119.961 437.684 114.492 441.075 107.71 443.701C100.928 446.107 93.4895 447.31 85.395 447.31C73.3626 447.31 63.1897 445.56 54.8764 442.06C46.7819 438.559 38.5779 433.418 30.2646 426.636C26.9831 424.011 23.264 422.698 19.1073 422.698C13.638 422.698 9.04384 424.667 5.32473 428.605C1.82439 432.324 0.0742188 436.7 0.0742188 441.732C0.0742188 444.794 0.839918 447.857 2.37132 450.92C3.90271 453.983 6.09043 456.717 8.93445 459.124C20.0918 468.75 31.796 475.532 44.0472 479.47ZM410.493 412.854C415.962 398.634 418.697 383.32 418.697 366.912C418.697 350.504 415.962 335.19 410.493 320.97C405.024 306.75 397.258 294.28 387.194 283.56C377.349 272.621 365.536 264.089 351.753 257.964C338.189 251.838 323.313 248.775 307.124 248.775C290.935 248.775 276.058 251.838 262.495 257.964C248.931 264.089 237.117 272.621 227.054 283.56C217.209 294.28 209.552 306.75 204.083 320.97C198.613 335.19 195.879 350.504 195.879 366.912C195.879 383.32 198.613 398.634 204.083 412.854C209.552 427.074 217.209 439.653 227.054 450.592C237.117 461.312 248.931 469.734 262.495 475.86C276.058 481.985 290.935 485.048 307.124 485.048C323.313 485.048 338.189 481.985 351.753 475.86C365.536 469.734 377.349 461.312 387.194 450.592C397.258 439.653 405.024 427.074 410.493 412.854ZM367.176 327.205C373.083 339.018 376.037 352.254 376.037 366.912C376.037 381.569 373.083 394.915 367.176 406.947C361.27 418.761 353.175 428.168 342.893 435.168C332.611 442.169 320.688 445.669 307.124 445.669C293.56 445.669 281.637 442.169 271.355 435.168C261.072 428.168 252.978 418.761 247.071 406.947C241.383 394.915 238.539 381.569 238.539 366.912C238.539 352.035 241.383 338.69 247.071 326.877C252.978 315.063 261.072 305.656 271.355 298.655C281.637 291.655 293.56 288.154 307.124 288.154C320.688 288.154 332.611 291.655 342.893 298.655C353.175 305.656 361.27 315.172 367.176 327.205ZM667.699 366.912C667.699 383.32 664.964 398.634 659.495 412.854C654.026 427.074 646.259 439.653 636.196 450.592C626.351 461.312 614.537 469.734 600.755 475.86C587.191 481.985 572.315 485.048 556.126 485.048C539.936 485.048 525.06 481.985 511.496 475.86C497.932 469.734 486.119 461.312 476.055 450.592C466.211 439.653 458.554 427.074 453.084 412.854C447.615 398.634 444.88 383.32 444.88 366.912C444.88 350.504 447.615 335.19 453.084 320.97C458.554 306.75 466.211 294.28 476.055 283.56C486.119 272.621 497.932 264.089 511.496 257.964C525.06 251.838 539.936 248.775 556.126 248.775C572.315 248.775 587.191 251.838 600.755 257.964C614.537 264.089 626.351 272.621 636.196 283.56C646.259 294.28 654.026 306.75 659.495 320.97C664.964 335.19 667.699 350.504 667.699 366.912ZM625.038 366.912C625.038 352.254 622.085 339.018 616.178 327.205C610.271 315.172 602.177 305.656 591.895 298.655C581.612 291.655 569.689 288.154 556.126 288.154C542.562 288.154 530.639 291.655 520.357 298.655C510.074 305.656 501.98 315.063 496.073 326.877C490.385 338.69 487.541 352.035 487.541 366.912C487.541 381.569 490.385 394.915 496.073 406.947C501.98 418.761 510.074 428.168 520.357 435.168C530.639 442.169 542.562 445.669 556.126 445.669C569.689 445.669 581.612 442.169 591.895 435.168C602.177 428.168 610.271 418.761 616.178 406.947C622.085 394.915 625.038 381.569 625.038 366.912ZM892.417 257.307C889.135 253.807 884.869 252.057 879.619 252.057C874.15 252.057 869.774 253.807 866.493 257.307C863.211 260.808 861.57 265.183 861.57 270.434V411.645L742.121 259.276C740.59 256.87 738.183 255.12 734.902 254.026C731.62 252.713 728.448 252.057 725.385 252.057C719.697 252.057 714.884 254.026 710.946 257.964C707.227 261.683 705.368 266.386 705.368 272.075V463.39C705.368 468.64 707.008 473.016 710.29 476.516C713.572 480.017 717.838 481.767 723.088 481.767C728.557 481.767 732.933 480.017 736.214 476.516C739.715 473.016 741.465 468.64 741.465 463.39V323.271L861.898 476.188C863.43 477.938 865.617 479.36 868.462 480.454C871.524 481.329 874.478 481.767 877.322 481.767C883.01 481.767 887.713 479.907 891.432 476.188C895.37 472.25 897.339 467.437 897.339 461.749V270.434C897.339 265.183 895.699 260.808 892.417 257.307Z" fill="black"/>
<path fill-rule="evenodd" clip-rule="evenodd" d="M300.588 117.33C304.499 107.161 306.454 96.2104 306.454 84.4774C306.454 72.7445 304.499 61.7937 300.588 51.6251C296.677 41.4565 291.123 32.5395 283.927 24.8739C276.887 17.0519 268.44 10.9508 258.584 6.57047C248.885 2.19016 238.247 0 226.67 0C215.094 0 204.456 2.19016 194.756 6.57047C185.057 10.9508 176.609 17.0519 169.413 24.8739C162.373 32.5395 156.898 41.4565 152.987 51.6251C149.076 61.7937 147.121 72.7445 147.121 84.4774C147.121 96.2104 149.076 107.161 152.987 117.33C156.898 127.498 162.373 136.494 169.413 144.316C176.609 151.981 185.057 158.004 194.756 162.384C204.456 166.765 215.094 168.955 226.67 168.955C238.247 168.955 248.885 166.765 258.584 162.384C268.44 158.004 276.887 151.981 283.927 144.316C291.123 136.494 296.677 127.498 300.588 117.33ZM269.613 56.0836C273.837 64.5314 275.949 73.996 275.949 84.4774C275.949 94.9589 273.837 104.502 269.613 113.106C265.389 121.554 259.601 128.281 252.248 133.287C244.895 138.293 236.369 140.796 226.67 140.796C216.971 140.796 208.445 138.293 201.092 133.287C193.74 128.281 187.951 121.554 183.727 113.106C179.66 104.502 177.626 94.9589 177.626 84.4774C177.626 73.8395 179.66 64.2967 183.727 55.849C187.951 47.4012 193.74 40.6743 201.092 35.6683C208.445 30.6622 216.971 28.1591 226.67 28.1591C236.369 28.1591 244.895 30.6622 252.248 35.6683C259.601 40.6743 265.389 47.4795 269.613 56.0836ZM130.236 19.9461C129.61 15.5658 127.264 12.3587 123.196 10.325C117.408 7.35266 111.229 5.08429 104.658 3.51989C98.0877 1.95549 91.3608 1.1733 84.4774 1.1733C72.2752 1.1733 61.0115 3.28523 50.6865 7.50911C40.3614 11.5765 31.3662 17.3648 23.7006 24.8739C16.1915 32.2266 10.325 40.9872 6.10115 51.1558C2.03372 61.3244 0 72.4316 0 84.4774C0 98.4006 2.26838 110.681 6.80513 121.319C11.3419 131.8 17.5212 140.561 25.3432 147.601C33.3217 154.641 42.3169 159.96 52.3291 163.558C62.4977 167.156 73.2138 168.955 84.4774 168.955C89.0142 168.955 93.4727 168.564 97.853 167.782C102.233 167.156 106.535 166.217 110.759 164.966C115.14 163.558 119.363 161.837 123.431 159.803C127.342 157.926 129.689 154.954 130.471 150.886C131.409 146.662 130.314 142.595 127.185 138.684C124.995 135.868 122.258 134.225 118.972 133.756C115.844 133.287 112.637 133.834 109.351 135.399C105.44 137.432 101.373 138.84 97.1491 139.622C92.9252 140.405 88.7013 140.796 84.4774 140.796C76.8119 140.796 69.6939 139.701 63.1234 137.511C56.553 135.164 50.8429 131.644 45.9933 126.951C41.1436 122.258 37.3109 116.391 34.495 109.351C31.8355 102.312 30.5057 94.0203 30.5057 84.4774C30.5057 76.3426 31.679 68.9117 34.0256 62.1848C36.5287 55.4579 40.1268 49.6696 44.82 44.82C49.5132 39.8139 55.145 35.9811 61.7155 33.3217C68.4424 30.6622 76.0297 29.3324 84.4774 29.3324C89.0142 29.3324 93.3163 29.8018 97.3837 30.7404C101.608 31.679 105.597 33.0088 109.351 34.7296C112.637 36.294 115.844 36.9198 118.972 36.6069C122.258 36.294 124.917 34.7296 126.951 31.9137C129.923 28.3156 131.018 24.3264 130.236 19.9461ZM348.174 2.11194C350.364 2.11194 352.633 2.7377 354.979 3.98922C357.482 5.08429 359.36 6.57047 360.611 8.44775L411.7 87.0775L464.331 8.44775C467.303 4.22387 471.136 2.11194 475.829 2.11194C479.584 2.11194 482.947 3.44168 485.919 6.10115C488.892 8.76062 490.378 12.2023 490.378 16.4262V152.294C490.378 156.361 489.048 159.803 486.389 162.619C483.729 165.279 480.209 166.608 475.829 166.608C471.449 166.608 467.851 165.279 465.035 162.619C462.375 159.803 461.046 156.361 461.046 152.294V57.8333L422.327 116.86C420.919 118.581 419.12 120.067 416.93 121.319C414.896 122.571 412.784 123.118 410.594 122.962C408.56 123.118 406.448 122.571 404.258 121.319C402.224 120.067 400.503 118.581 399.095 116.86L360.377 55.6402V152.294C360.377 156.361 359.125 159.803 356.622 162.619C354.119 165.279 350.834 166.608 346.766 166.608C342.855 166.608 339.648 165.279 337.145 162.619C334.642 159.803 333.391 156.361 333.391 152.294V16.4262C333.391 12.5152 334.799 9.15173 337.615 6.33581C340.587 3.51989 344.107 2.11194 348.174 2.11194ZM550.53 162.619C553.502 159.803 554.988 156.361 554.988 152.294V16.6608C554.988 12.5934 553.502 9.22995 550.53 6.57047C547.714 3.75455 544.429 2.34659 540.674 2.34659C536.294 2.34659 532.696 3.75455 529.88 6.57047C527.064 9.22995 525.656 12.5934 525.656 16.6608V152.294C525.656 156.361 526.985 159.803 529.645 162.619C532.304 165.279 535.824 166.608 540.205 166.608C544.116 166.608 547.557 165.279 550.53 162.619ZM714.883 2.34659C718.638 2.34659 721.688 3.59811 724.035 6.10115C726.381 8.60419 727.555 11.733 727.555 15.4875V152.294C727.555 156.361 726.147 159.803 723.331 162.619C720.671 165.279 717.308 166.608 713.24 166.608C711.207 166.608 709.095 166.295 706.905 165.67C704.871 164.887 703.307 163.871 702.211 162.619L616.091 53.2708V153.467C616.091 157.222 614.84 160.351 612.337 162.854C609.99 165.357 606.861 166.608 602.95 166.608C599.196 166.608 596.145 165.357 593.799 162.854C591.452 160.351 590.279 157.222 590.279 153.467V16.6608C590.279 12.5934 591.609 9.22995 594.268 6.57047C597.084 3.75455 600.526 2.34659 604.593 2.34659C606.783 2.34659 609.052 2.81592 611.398 3.75456C613.745 4.53676 615.466 5.78827 616.561 7.50911L701.977 116.465V15.4875C701.977 11.733 703.15 8.60419 705.497 6.10115C707.843 3.59811 710.972 2.34659 714.883 2.34659ZM806.952 162.384C817.277 166.765 828.384 168.955 840.274 168.955C849.66 168.955 858.577 167.703 867.025 165.2C875.629 162.541 883.529 159.021 890.726 154.641C892.603 153.389 894.245 151.747 895.653 149.713C897.218 147.679 898 145.098 898 141.969V92.2212C898 88.1538 896.67 84.7903 894.011 82.1309C891.351 79.3149 887.988 77.907 883.92 77.907H845.436C841.369 77.907 837.927 79.2367 835.111 81.8962C832.452 84.5557 831.122 87.9191 831.122 91.9865C831.122 96.054 832.452 99.4174 835.111 102.077C837.927 104.736 841.369 106.066 845.436 106.066H867.494V136.473C864.257 137.652 860.346 138.624 855.761 139.388C850.129 140.326 844.967 140.796 840.274 140.796C830.105 140.796 820.797 138.293 812.349 133.287C804.058 128.124 797.409 121.241 792.403 112.637C787.554 104.032 785.129 94.646 785.129 84.4774C785.129 74.1524 787.554 64.766 792.403 56.3183C797.409 47.7141 804.058 40.909 812.349 35.9029C820.797 30.7404 830.105 28.1591 840.274 28.1591C845.123 28.1591 849.738 28.6285 854.119 29.5671C858.499 30.5057 862.645 31.8355 866.556 33.5563C867.807 34.1821 869.059 34.6514 870.31 34.9643C871.718 35.2772 873.048 35.4336 874.299 35.4336C878.21 35.4336 881.417 33.9474 883.92 30.9751C886.423 28.0027 887.675 24.6393 887.675 20.8847C887.675 18.6945 887.049 16.5826 885.798 14.5489C884.703 12.3587 882.982 10.6379 880.635 9.38639C874.847 6.25759 868.511 3.91099 861.628 2.34659C854.744 0.782198 847.626 0 840.274 0C828.384 0 817.277 2.19016 806.952 6.57047C796.627 10.9508 787.554 17.0519 779.732 24.8739C771.91 32.5395 765.73 41.4565 761.193 51.6251C756.813 61.7937 754.623 72.7445 754.623 84.4774C754.623 96.2104 756.813 107.161 761.193 117.33C765.73 127.498 771.91 136.494 779.732 144.316C787.554 151.981 796.627 158.004 806.952 162.384ZM44.0472 479.47C56.2984 483.189 70.081 485.048 85.395 485.048C100.271 485.048 114.054 482.314 126.743 476.844C139.65 471.375 150.042 463.499 157.918 453.217C165.793 442.935 169.731 430.684 169.731 416.464C169.731 405.306 168.09 395.899 164.809 388.242C161.527 380.366 156.605 373.913 150.042 368.881C143.479 363.63 135.165 359.364 125.102 356.083C115.257 352.801 103.772 349.957 90.6455 347.551C80.582 345.582 71.9406 343.394 64.7211 340.987C57.5017 338.362 51.923 334.971 47.9851 330.815C44.266 326.439 42.4064 320.97 42.4064 314.407C42.4064 308.937 44.0472 304.125 47.3288 299.968C50.6104 295.811 55.4233 292.53 61.7677 290.123C68.3308 287.717 76.316 286.513 85.7231 286.513C91.4112 286.513 97.5368 287.498 104.1 289.467C110.663 291.217 116.898 293.514 122.805 296.358C128.712 298.983 133.415 301.827 136.916 304.89C139.541 306.859 142.494 307.844 145.776 307.844C150.808 307.844 155.183 305.875 158.902 301.937C162.621 297.999 164.481 293.623 164.481 288.811C164.481 282.247 161.309 276.45 154.964 271.418C147.307 264.855 137.353 259.495 125.102 255.339C113.07 250.963 99.9433 248.775 85.7231 248.775C70.6279 248.775 56.8453 251.401 44.3754 256.651C31.9054 261.902 21.9513 269.559 14.5131 279.622C7.29367 289.686 3.68394 301.827 3.68394 316.048C3.68394 325.455 5.21534 333.987 8.27814 341.644C11.3409 349.082 15.8257 355.645 21.7326 361.333C27.8582 366.802 35.4058 371.397 44.3754 375.116C53.345 378.616 63.7366 381.241 75.5503 382.991C88.0202 384.742 98.3025 387.258 106.397 390.539C114.492 393.602 120.508 397.43 124.446 402.025C128.383 406.619 130.352 412.197 130.352 418.761C130.352 424.23 128.274 429.152 124.117 433.528C119.961 437.684 114.492 441.075 107.71 443.701C100.928 446.107 93.4895 447.31 85.395 447.31C73.3626 447.31 63.1897 445.56 54.8764 442.06C46.7819 438.559 38.5779 433.418 30.2646 426.636C26.9831 424.011 23.264 422.698 19.1073 422.698C13.638 422.698 9.04384 424.667 5.32473 428.605C1.82439 432.324 0.0742188 436.7 0.0742188 441.732C0.0742188 444.794 0.839918 447.857 2.37132 450.92C3.90271 453.983 6.09043 456.717 8.93445 459.124C20.0918 468.75 31.796 475.532 44.0472 479.47ZM410.493 412.854C415.962 398.634 418.697 383.32 418.697 366.912C418.697 350.504 415.962 335.19 410.493 320.97C405.024 306.75 397.258 294.28 387.194 283.56C377.349 272.621 365.536 264.089 351.753 257.964C338.189 251.838 323.313 248.775 307.124 248.775C290.935 248.775 276.058 251.838 262.495 257.964C248.931 264.089 237.117 272.621 227.054 283.56C217.209 294.28 209.552 306.75 204.083 320.97C198.613 335.19 195.879 350.504 195.879 366.912C195.879 383.32 198.613 398.634 204.083 412.854C209.552 427.074 217.209 439.653 227.054 450.592C237.117 461.312 248.931 469.734 262.495 475.86C276.058 481.985 290.935 485.048 307.124 485.048C323.313 485.048 338.189 481.985 351.753 475.86C365.536 469.734 377.349 461.312 387.194 450.592C397.258 439.653 405.024 427.074 410.493 412.854ZM367.176 327.205C373.083 339.018 376.037 352.254 376.037 366.912C376.037 381.569 373.083 394.915 367.176 406.947C361.27 418.761 353.175 428.168 342.893 435.168C332.611 442.169 320.688 445.669 307.124 445.669C293.56 445.669 281.637 442.169 271.355 435.168C261.072 428.168 252.978 418.761 247.071 406.947C241.383 394.915 238.539 381.569 238.539 366.912C238.539 352.035 241.383 338.69 247.071 326.877C252.978 315.063 261.072 305.656 271.355 298.655C281.637 291.655 293.56 288.154 307.124 288.154C320.688 288.154 332.611 291.655 342.893 298.655C353.175 305.656 361.27 315.172 367.176 327.205ZM667.699 366.912C667.699 383.32 664.964 398.634 659.495 412.854C654.026 427.074 646.259 439.653 636.196 450.592C626.351 461.312 614.537 469.734 600.755 475.86C587.191 481.985 572.315 485.048 556.126 485.048C539.936 485.048 525.06 481.985 511.496 475.86C497.932 469.734 486.119 461.312 476.055 450.592C466.211 439.653 458.554 427.074 453.084 412.854C447.615 398.634 444.88 383.32 444.88 366.912C444.88 350.504 447.615 335.19 453.084 320.97C458.554 306.75 466.211 294.28 476.055 283.56C486.119 272.621 497.932 264.089 511.496 257.964C525.06 251.838 539.936 248.775 556.126 248.775C572.315 248.775 587.191 251.838 600.755 257.964C614.537 264.089 626.351 272.621 636.196 283.56C646.259 294.28 654.026 306.75 659.495 320.97C664.964 335.19 667.699 350.504 667.699 366.912ZM625.038 366.912C625.038 352.254 622.085 339.018 616.178 327.205C610.271 315.172 602.177 305.656 591.895 298.655C581.612 291.655 569.689 288.154 556.126 288.154C542.562 288.154 530.639 291.655 520.357 298.655C510.074 305.656 501.98 315.063 496.073 326.877C490.385 338.69 487.541 352.035 487.541 366.912C487.541 381.569 490.385 394.915 496.073 406.947C501.98 418.761 510.074 428.168 520.357 435.168C530.639 442.169 542.562 445.669 556.126 445.669C569.689 445.669 581.612 442.169 591.895 435.168C602.177 428.168 610.271 418.761 616.178 406.947C622.085 394.915 625.038 381.569 625.038 366.912ZM892.417 257.307C889.135 253.807 884.869 252.057 879.619 252.057C874.15 252.057 869.774 253.807 866.493 257.307C863.211 260.808 861.57 265.183 861.57 270.434V411.645L742.121 259.276C740.59 256.87 738.183 255.12 734.902 254.026C731.62 252.713 728.448 252.057 725.385 252.057C719.697 252.057 714.884 254.026 710.946 257.964C707.227 261.683 705.368 266.386 705.368 272.075V463.39C705.368 468.64 707.008 473.016 710.29 476.516C713.572 480.017 717.838 481.767 723.088 481.767C728.557 481.767 732.933 480.017 736.214 476.516C739.715 473.016 741.465 468.64 741.465 463.39V323.271L861.898 476.188C863.43 477.938 865.617 479.36 868.462 480.454C871.524 481.329 874.478 481.767 877.322 481.767C883.01 481.767 887.713 479.907 891.432 476.188C895.37 472.25 897.339 467.437 897.339 461.749V270.434C897.339 265.183 895.699 260.808 892.417 257.307Z" fill="url(#paint0_linear_295_16825)"/>
</g>
<defs>
<filter id="filter0_i_295_16825" x="0" y="0" width="901" height="488.049" filterUnits="userSpaceOnUse" color-interpolation-filters="sRGB">
<feFlood flood-opacity="0" result="BackgroundImageFix"/>
<feBlend mode="normal" in="SourceGraphic" in2="BackgroundImageFix" result="shape"/>
<feColorMatrix in="SourceAlpha" type="matrix" values="0 0 0 0 0 0 0 0 0 0 0 0 0 0 0 0 0 0 127 0" result="hardAlpha"/>
<feOffset dx="3" dy="3"/>
<feGaussianBlur stdDeviation="5"/>
<feComposite in2="hardAlpha" operator="arithmetic" k2="-1" k3="1"/>
<feColorMatrix type="matrix" values="0 0 0 0 1 0 0 0 0 1 0 0 0 0 1 0 0 0 0.49 0"/>
<feBlend mode="normal" in2="shape" result="effect1_innerShadow_295_16825"/>
</filter>
<linearGradient id="paint0_linear_295_16825" x1="0" y1="363.16" x2="898" y2="363.16" gradientUnits="userSpaceOnUse">
<stop stop-color="#A361FF"/>
<stop offset="0.348958" stop-color="#9580FF"/>
<stop offset="0.619792" stop-color="#80EFFD"/>
<stop offset="0.828125" stop-color="#DBFF71"/>
<stop offset="1" stop-color="#FFFF53"/>
</linearGradient>
</defs>
</svg>
