<svg width="24" height="22" viewBox="0 0 24 22" fill="none" xmlns="http://www.w3.org/2000/svg">
<path fill-rule="evenodd" clip-rule="evenodd" d="M5.7363 1.97797H5.73627C5.19007 1.97797 4.74728 1.53519 4.74728 0.98899C4.74728 0.93138 4.7522 0.87492 4.76166 0.82001C4.84183 0.35431 5.24768 0 5.73627 0H5.7363H5.73633C6.28253 0 6.72532 0.44279 6.72532 0.98899C6.72532 1.0722 6.71505 1.15301 6.69569 1.23021C6.58801 1.65981 6.19933 1.97797 5.73634 1.97797H5.7363ZM13.8461 1.38455C13.8461 0.83835 14.289 0.39557 14.8352 0.39557C15.3814 0.39557 15.8242 0.83836 15.8242 1.38455C15.8242 1.93082 15.3814 2.3736 14.8352 2.3736C14.289 2.3736 13.8461 1.93082 13.8461 1.38455ZM17.5384 1.91207C17.5384 1.89728 17.5388 1.88257 17.5395 1.86796C17.5625 1.41509 17.937 1.05488 18.3956 1.05488C18.869 1.05488 19.2528 1.43869 19.2528 1.91207C19.2528 2.14875 19.1568 2.36304 19.0017 2.51815C18.8466 2.67327 18.6323 2.76924 18.3956 2.76924C17.9222 2.76924 17.5384 2.38543 17.5384 1.91207ZM11.5385 3.03293H11.5384C10.975 3.03293 10.5087 2.61723 10.4294 2.0758C10.4216 2.02236 10.4176 1.96768 10.4176 1.91207C10.4176 1.29303 10.9194 0.79121 11.5384 0.79121H11.5385H11.5385C12.0487 0.79121 12.4793 1.13211 12.6149 1.59858C12.6438 1.69806 12.6594 1.80325 12.6594 1.91207C12.6594 2.5311 12.1575 3.03293 11.5385 3.03293H11.5385ZM21.2967 4.61533H21.2967C20.9431 4.61533 20.6486 4.36227 20.5844 4.02739C20.5759 3.98294 20.5715 3.93704 20.5715 3.89011C20.5715 3.48951 20.8962 3.16481 21.2967 3.16481H21.2967H21.2967C21.6472 3.16481 21.9396 3.41341 22.0072 3.74393C22.0169 3.79114 22.022 3.84003 22.022 3.89011C22.022 4.29064 21.6973 4.61534 21.2967 4.61534L21.2967 4.61533ZM3.56157 4.74537C2.97271 4.71178 2.50548 4.22362 2.50548 3.62635C2.50548 3.00732 3.00738 2.50549 3.62641 2.50549C4.24544 2.50549 4.74727 3.00732 4.74727 3.62635C4.74727 4.24538 4.24544 4.74721 3.62641 4.74721C3.60465 4.74721 3.58303 4.74659 3.56157 4.74536V4.74537ZM8.24178 4.8791H8.24175C7.54988 4.8791 6.98901 4.31822 6.98901 3.62635C6.98901 3.54797 6.99621 3.47128 7.00998 3.39689C7.11777 2.8146 7.62826 2.37361 8.24176 2.37361H8.24179H8.24182C8.93369 2.37361 9.49456 2.93449 9.49456 3.62636C9.49456 4.31822 8.93369 4.87911 8.24182 4.87911L8.24178 4.8791ZM22.8132 6.65935C22.8132 6.33158 23.0789 6.06593 23.4066 6.06593C23.7343 6.06593 24 6.33159 24 6.65935C24 6.98703 23.7343 7.25269 23.4066 7.25269C23.0789 7.25269 22.8132 6.98703 22.8132 6.65935ZM10.5649 7.91096C9.96931 7.88455 9.49455 7.39332 9.49455 6.79115C9.49455 6.17212 9.99638 5.67029 10.6154 5.67029C11.2344 5.67029 11.7363 6.17211 11.7363 6.79115C11.7363 7.39332 11.2615 7.88455 10.6659 7.91096C10.6492 7.91171 10.6323 7.91207 10.6154 7.91207C10.5985 7.91207 10.5816 7.9117 10.5649 7.91096ZM2.17585 8.0439H2.17582C1.48395 8.0439 0.92308 7.48302 0.92308 6.79115C0.92308 6.09929 1.48395 5.53841 2.17582 5.53841H2.17585H2.17588C2.86775 5.53841 3.42862 6.09928 3.42862 6.79115C3.42862 7.48301 2.86775 8.0439 2.17588 8.0439H2.17585ZM5.01103 6.65935C5.01103 5.89465 5.63088 5.27472 6.39558 5.27472C7.16029 5.27472 7.7802 5.89465 7.7802 6.65935C7.7802 7.42406 7.16028 8.04396 6.39558 8.04396C5.63088 8.04396 5.01103 7.42406 5.01103 6.65935ZM11.8682 10.2197C11.8682 9.60069 12.37 9.09885 12.989 9.09885C13.6081 9.09885 14.1099 9.6007 14.1099 10.2197C14.1099 10.8388 13.6081 11.3407 12.989 11.3407C12.37 11.3407 11.8682 10.8388 11.8682 10.2197ZM8.17676 10.2681C8.17615 10.2521 8.17584 10.2359 8.17584 10.2197C8.17584 9.52785 8.73671 8.96696 9.42858 8.96696C10.1204 8.96696 10.6813 9.52784 10.6813 10.2197C10.6813 10.2359 10.681 10.2521 10.6804 10.2681C10.6549 10.9376 10.1042 11.4725 9.42858 11.4725C8.75293 11.4725 8.2022 10.9376 8.17676 10.2681ZM0 10.3516C0 9.5869 0.61992 8.96696 1.38462 8.96696C2.14932 8.96696 2.76924 9.58689 2.76924 10.3516C2.76924 11.1163 2.14932 11.7362 1.38462 11.7362C0.61992 11.7362 0 11.1163 0 10.3516ZM3.95608 10.3516C3.95608 9.51413 4.63504 8.83516 5.47258 8.83516C6.31005 8.83516 6.98901 9.51413 6.98901 10.3516C6.98901 11.1891 6.31005 11.8681 5.47258 11.8681C4.63504 11.8681 3.95608 11.1891 3.95608 10.3516ZM10.3019 14.7248C9.83547 14.5892 9.49456 14.1586 9.49456 13.6483V13.6483V13.6483C9.49456 13.0848 9.91027 12.6185 10.4517 12.5393C10.5051 12.5315 10.5598 12.5274 10.6154 12.5274C10.671 12.5274 10.7257 12.5315 10.7792 12.5393C11.3206 12.6185 11.7363 13.0848 11.7363 13.6483V13.6483V13.6483C11.7363 14.1586 11.3954 14.5892 10.9289 14.7248C10.8294 14.7537 10.7242 14.7692 10.6154 14.7692C10.5066 14.7692 10.4014 14.7537 10.3019 14.7248ZM2.17585 15.1648H2.17582C1.48395 15.1648 0.92308 14.6039 0.92308 13.912C0.92308 13.2202 1.48395 12.6593 2.17582 12.6593H2.17585H2.17588C2.86775 12.6593 3.42862 13.2202 3.42862 13.912C3.42862 14.6039 2.86775 15.1648 2.17588 15.1648H2.17585ZM22.8132 14.7032C22.8132 14.3755 23.0789 14.1099 23.4066 14.1099C23.7343 14.1099 24 14.3755 24 14.7032C24 15.031 23.7343 15.2967 23.4066 15.2967C23.0789 15.2967 22.8132 15.031 22.8132 14.7032ZM5.01103 14.0439C5.01103 13.2792 5.63088 12.6593 6.39558 12.6593C7.16029 12.6593 7.7802 13.2792 7.7802 14.0439C7.7802 14.8086 7.16028 15.4285 6.39558 15.4285C5.63088 15.4285 5.01103 14.8086 5.01103 14.0439ZM21.2967 18.1978H21.2967C20.9431 18.1978 20.6486 17.9447 20.5844 17.6098C20.5759 17.5653 20.5715 17.5194 20.5715 17.4725C20.5715 17.0719 20.8962 16.7473 21.2967 16.7473H21.2967H21.2967C21.6472 16.7473 21.9396 16.9959 22.0072 17.3263C22.0169 17.3735 22.022 17.4224 22.022 17.4725C22.022 17.8731 21.6973 18.1978 21.2967 18.1978L21.2967 18.1978ZM3.56157 18.3278C2.97271 18.2942 2.50548 17.8061 2.50548 17.2088C2.50548 16.5897 3.00738 16.0879 3.62641 16.0879C4.24544 16.0879 4.74727 16.5897 4.74727 17.2088C4.74727 17.8278 4.24544 18.3296 3.62641 18.3296C3.60465 18.3296 3.58303 18.329 3.56157 18.3278V18.3278ZM8.24178 18.7252H8.24175C7.54988 18.7252 6.98901 18.1643 6.98901 17.4725C6.98901 17.3941 6.99621 17.3174 7.00998 17.243C7.11777 16.6607 7.62826 16.2197 8.24176 16.2197H8.24179H8.24182C8.93369 16.2197 9.49456 16.7806 9.49456 17.4725C9.49456 18.1643 8.93369 18.7252 8.24182 18.7252H8.24178ZM17.5384 19.3186C17.5384 19.3038 17.5388 19.2891 17.5395 19.2745C17.5625 18.8216 17.937 18.4615 18.3956 18.4615C18.869 18.4615 19.2528 18.8453 19.2528 19.3186C19.2528 19.781 18.8867 20.1578 18.4287 20.1752C18.4177 20.1756 18.4067 20.1758 18.3956 20.1758C17.9222 20.1758 17.5384 19.7921 17.5384 19.3186V19.3186ZM11.5385 20.5714H11.5384C10.975 20.5714 10.5087 20.1557 10.4294 19.6142C10.4216 19.5608 10.4176 19.5061 10.4176 19.4505C10.4176 18.8315 10.9194 18.3296 11.5384 18.3296H11.5385H11.5385C12.0487 18.3296 12.4793 18.6706 12.6149 19.137C12.6438 19.2365 12.6594 19.3417 12.6594 19.4505C12.6594 20.0695 12.1575 20.5714 11.5385 20.5714L11.5385 20.5714ZM13.8461 19.9779C13.8461 19.4318 14.289 18.989 14.8352 18.989C15.3814 18.989 15.8242 19.4318 15.8242 19.9779C15.8242 20.5242 15.3814 20.967 14.8352 20.967C14.289 20.967 13.8461 20.5242 13.8461 19.9779ZM5.7363 21.2307H5.73627C5.19007 21.2307 4.74728 20.7879 4.74728 20.2417C4.74728 20.1841 4.7522 20.1277 4.76166 20.0727C4.84183 19.607 5.24768 19.2527 5.73627 19.2527H5.7363H5.73633C6.28253 19.2527 6.72532 19.6955 6.72532 20.2417C6.72532 20.3249 6.71505 20.4057 6.69569 20.4829C6.58801 20.9125 6.19933 21.2307 5.73634 21.2307H5.7363Z" fill="url(#paint0_linear_418_5782)"/>
<defs>
<linearGradient id="paint0_linear_418_5782" x1="11.0334" y1="31.8453" x2="32.3232" y2="9.71775" gradientUnits="userSpaceOnUse">
<stop stop-color="#964BFF"/>
<stop offset="0.37" stop-color="#A695FF"/>
<stop offset="0.65" stop-color="#3CE9FF"/>
<stop offset="0.86" stop-color="#CAFF2C"/>
<stop offset="1" stop-color="#FFFF21"/>
</linearGradient>
</defs>
</svg>
