<svg width="24" height="24" viewBox="0 0 24 24" fill="none" xmlns="http://www.w3.org/2000/svg">
<path fill-rule="evenodd" clip-rule="evenodd" d="M19.2325 4.99805C18.2454 4.99805 17.4549 5.13814 16.8319 5.43479C16.1954 5.7379 15.7613 6.19166 15.4773 6.75963C15.2005 7.31326 15.0745 7.95863 15.013 8.64315C14.9644 9.18461 14.9545 9.77713 14.9525 10.3988H6.07715C5.80101 10.3988 5.57715 10.6226 5.57715 10.8988V18.9998C5.57715 19.276 5.80101 19.4998 6.07715 19.4998H17.9587C18.2348 19.4998 18.4587 19.276 18.4587 18.9998V10.8988C18.4587 10.6226 18.2348 10.3988 17.9587 10.3988H15.9525C15.9546 9.7854 15.9642 9.23176 16.009 8.73253C16.0657 8.10063 16.176 7.59834 16.3717 7.20685C16.5603 6.8297 16.8351 6.54086 17.2618 6.33765C17.7021 6.12799 18.3292 5.99805 19.2325 5.99805C20.3471 5.99805 21.038 6.19577 21.4789 6.49464C21.9048 6.78338 22.1611 7.21024 22.3131 7.82325C22.3796 8.09127 22.6508 8.25466 22.9188 8.18818C23.1868 8.1217 23.3502 7.85053 23.2837 7.58251C23.092 6.80968 22.7292 6.13412 22.04 5.66691C21.3657 5.20982 20.4456 4.99805 19.2325 4.99805ZM6.57715 11.3988H15.452H17.4587V18.4998H6.57715V11.3988ZM12.0496 13.7588C12.0391 13.7581 12.0286 13.7578 12.0179 13.7578C12.0078 13.7578 11.9977 13.7581 11.9877 13.7587C11.995 13.7498 12.0061 13.7441 12.0186 13.7441C12.0311 13.7441 12.0422 13.7498 12.0496 13.7588ZM12.5179 14.6968C12.8402 14.5201 13.0587 14.1777 13.0587 13.7842C13.0587 13.2098 12.593 12.7441 12.0186 12.7441C11.4442 12.7441 10.9785 13.2098 10.9785 13.7842C10.9785 14.1771 11.1964 14.5192 11.5179 14.6961V14.6983V14.7018V14.7053V14.7089V14.7124V14.716V14.7196V14.7232V14.7267V14.7303V14.7339V14.7376V14.7412V14.7448V14.7485V14.7521V14.7558V14.7594V14.7631V14.7668V14.7705V14.7742V14.7779V14.7816V14.7853V14.7891V14.7928V14.7966V14.8003V14.8041V14.8079V14.8116V14.8154V14.8192V14.823V14.8268V14.8306V14.8345V14.8383V14.8421V14.846V14.8498V14.8537V14.8576V14.8614V14.8653V14.8692V14.8731V14.877V14.8809V14.8848V14.8887V14.8926V14.8966V14.9005V14.9045V14.9084V14.9124V14.9163V14.9203V14.9243V14.9282V14.9322V14.9362V14.9402V14.9442V14.9482V14.9522V14.9563V14.9603V14.9643V14.9683V14.9724V14.9764V14.9805V14.9845V14.9886V14.9927V14.9967V15.0008V15.0049V15.009V15.013V15.0171V15.0212V15.0253V15.0294V15.0335V15.0377V15.0418V15.0459V15.05V15.0542V15.0583V15.0624V15.0666V15.0707V15.0749V15.079V15.0832V15.0873V15.0915V15.0956V15.0998V15.104V15.1082V15.1123V15.1165V15.1207V15.1249V15.1291V15.1333V15.1375V15.1417V15.1459V15.1501V15.1543V15.1585V15.1627V15.1669V15.1711V15.1753V15.1796V15.1838V15.188V15.1922V15.1965V15.2007V15.2049V15.2092V15.2134V15.2176V15.2219V15.2261V15.2303V15.2346V15.2388V15.2431V15.2473V15.2516V15.2558V15.2601V15.2643V15.2686V15.2728V15.2771V15.2813V15.2856V15.2898V15.2941V15.2983V15.3026V15.3069V15.3111V15.3154V15.3196V15.3239V15.3281V15.3324V15.3366V15.3409V15.3452V15.3494V15.3537V15.3579V15.3622V15.3664V15.3707V15.3749V15.3792V15.3835V15.3877V15.392V15.3962V15.4004V15.4047V15.4089V15.4132V15.4174V15.4217V15.4259V15.4302V15.4344V15.4386V15.4429V15.4471V15.4513V15.4556V15.4598V15.464V15.4682V15.4725V15.4767V15.4809V15.4851V15.4893V15.4935V15.4978V15.502V15.5062V15.5104V15.5146V15.5188V15.523V15.5271V15.5313V15.5355V15.5397V15.5439V15.5481V15.5522V15.5564V15.5606V15.5647V15.5689V15.573V15.5772V15.5813V15.5855V15.5896V15.5938V15.5979V15.602V15.6062V15.6103V15.6144V15.6185V15.6226V15.6267V15.6308V15.6349V15.639V15.6431V15.6472V15.6513V15.6554V15.6594V15.6635V15.6676V15.6716V15.6757V15.6797V15.6838V15.6878V15.6918V15.6958V15.6999V15.7039V15.7079V15.7119V15.7159V15.7199V15.7239V15.7278V15.7318V15.7358V15.7398V15.7437V15.7477V15.7516V15.7556V15.7595V15.7634V15.7673V15.7713V15.7752V15.7791V15.783V15.7868V15.7907V15.7946V15.7985V15.8023V15.8062V15.81V15.8139V15.8177V15.8215V15.8253V15.8292V15.833V15.8368V15.8406V15.8443V15.8481V15.8519V15.8556V15.8594V15.8631V15.8669V15.8706V15.8743V15.878C11.5179 16.1542 11.7418 16.378 12.0179 16.378C12.2941 16.378 12.5179 16.1542 12.5179 15.878V15.8743V15.8706V15.8669V15.8631V15.8594V15.8556V15.8519V15.8481V15.8443V15.8406V15.8368V15.833V15.8292V15.8253V15.8215V15.8177V15.8139V15.81V15.8062V15.8023V15.7985V15.7946V15.7907V15.7868V15.783V15.7791V15.7752V15.7713V15.7673V15.7634V15.7595V15.7556V15.7516V15.7477V15.7437V15.7398V15.7358V15.7318V15.7278V15.7239V15.7199V15.7159V15.7119V15.7079V15.7039V15.6999V15.6958V15.6918V15.6878V15.6838V15.6797V15.6757V15.6716V15.6676V15.6635V15.6594V15.6554V15.6513V15.6472V15.6431V15.639V15.6349V15.6308V15.6267V15.6226V15.6185V15.6144V15.6103V15.6062V15.602V15.5979V15.5938V15.5896V15.5855V15.5813V15.5772V15.573V15.5689V15.5647V15.5606V15.5564V15.5522V15.5481V15.5439V15.5397V15.5355V15.5313V15.5271V15.523V15.5188V15.5146V15.5104V15.5062V15.502V15.4978V15.4935V15.4893V15.4851V15.4809V15.4767V15.4725V15.4682V15.464V15.4598V15.4556V15.4513V15.4471V15.4429V15.4386V15.4344V15.4302V15.4259V15.4217V15.4174V15.4132V15.4089V15.4047V15.4004V15.3962V15.392V15.3877V15.3835V15.3792V15.3749V15.3707V15.3664V15.3622V15.3579V15.3537V15.3494V15.3452V15.3409V15.3366V15.3324V15.3281V15.3239V15.3196V15.3154V15.3111V15.3069V15.3026V15.2983V15.2941V15.2898V15.2856V15.2813V15.2771V15.2728V15.2686V15.2643V15.2601V15.2558V15.2516V15.2473V15.2431V15.2388V15.2346V15.2303V15.2261V15.2219V15.2176V15.2134V15.2092V15.2049V15.2007V15.1965V15.1922V15.188V15.1838V15.1796V15.1753V15.1711V15.1669V15.1627V15.1585V15.1543V15.1501V15.1459V15.1417V15.1375V15.1333V15.1291V15.1249V15.1207V15.1165V15.1123V15.1082V15.104V15.0998V15.0956V15.0915V15.0873V15.0832V15.079V15.0749V15.0707V15.0666V15.0624V15.0583V15.0542V15.05V15.0459V15.0418V15.0377V15.0335V15.0294V15.0253V15.0212V15.0171V15.013V15.009V15.0049V15.0008V14.9967V14.9927V14.9886V14.9845V14.9805V14.9764V14.9724V14.9683V14.9643V14.9603V14.9563V14.9522V14.9482V14.9442V14.9402V14.9362V14.9322V14.9282V14.9243V14.9203V14.9163V14.9124V14.9084V14.9045V14.9005V14.8966V14.8926V14.8887V14.8848V14.8809V14.877V14.8731V14.8692V14.8653V14.8614V14.8576V14.8537V14.8498V14.846V14.8421V14.8383V14.8345V14.8306V14.8268V14.823V14.8192V14.8154V14.8116V14.8079V14.8041V14.8003V14.7966V14.7928V14.7891V14.7853V14.7816V14.7779V14.7742V14.7705V14.7668V14.7631V14.7594V14.7558V14.7521V14.7485V14.7448V14.7412V14.7376V14.7339V14.7303V14.7267V14.7232V14.7196V14.716V14.7124V14.7089V14.7053V14.7018V14.6983V14.6968Z" fill="#DBFF71"/>
</svg>
