<svg width="48" height="48" viewBox="0 0 48 48" fill="none" xmlns="http://www.w3.org/2000/svg">
<path d="M42 24C42 27.5649 40.9415 31.0495 38.9586 34.012C36.9757 36.9746 34.1579 39.2816 30.8622 40.6406C27.5665 41.9996 23.9416 42.3495 20.4468 41.6458C16.9521 40.9421 13.745 39.2166 11.2322 36.6879C8.71936 34.1592 7.01397 30.9414 6.33223 27.4423C5.65048 23.9432 6.02309 20.3205 7.4028 17.0335C8.78252 13.7464 11.1072 10.943 14.0821 8.97883C17.057 7.0146 20.5482 5.97797 24.113 6.00036L24.0953 8.81908C21.0888 8.8002 18.1443 9.6745 15.6353 11.3311C13.1262 12.9877 11.1656 15.3521 10.0019 18.1244C8.83826 20.8967 8.524 23.9521 9.09899 26.9033C9.67397 29.8544 11.1123 32.5683 13.2316 34.701C15.3509 36.8336 18.0558 38.289 21.0032 38.8825C23.9507 39.476 27.008 39.1809 29.7876 38.0347C32.5671 36.8885 34.9438 34.9428 36.6161 32.4441C38.2884 29.9455 39.1812 27.0066 39.1812 24H42Z" fill="#DBFF71"/>
</svg>
